  0
SECTION
  2
HEADER
  9
$ACADVER
  1
AC1009
  0
ENDSEC
  0
SECTION
  2
ENTITIES
  0
POLYLINE
  5
90
  8
Layer_0
  62
0
  70
1
  66
1
  10
0
  20
0
  30
0
  0
VERTEX
  5
90
  8
Layer_0
  10
295.50327
  20
243.12601
  0
VERTEX
  5
91
  8
Layer_0
  10
295.4809
  20
242.90431
  0
VERTEX
  5
92
  8
Layer_0
  10
295.41681
  20
242.69783
  0
VERTEX
  5
93
  8
Layer_0
  10
295.31537
  20
242.51097
  0
VERTEX
  5
94
  8
Layer_0
  10
295.18109
  20
242.34818
  0
VERTEX
  5
95
  8
Layer_0
  10
295.01825
  20
242.21385
  0
VERTEX
  5
96
  8
Layer_0
  10
294.83142
  20
242.11244
  0
VERTEX
  5
97
  8
Layer_0
  10
294.62494
  20
242.04834
  0
VERTEX
  5
98
  8
Layer_0
  10
294.40326
  20
242.026
  0
VERTEX
  5
99
  8
Layer_0
  10
294.18158
  20
242.04834
  0
VERTEX
  5
9a
  8
Layer_0
  10
293.9751
  20
242.11244
  0
VERTEX
  5
9b
  8
Layer_0
  10
293.78827
  20
242.21385
  0
VERTEX
  5
9c
  8
Layer_0
  10
293.62543
  20
242.34818
  0
VERTEX
  5
9d
  8
Layer_0
  10
293.49115
  20
242.51097
  0
VERTEX
  5
9e
  8
Layer_0
  10
293.38971
  20
242.69783
  0
VERTEX
  5
9f
  8
Layer_0
  10
293.32562
  20
242.90431
  0
VERTEX
  5
a0
  8
Layer_0
  10
293.30325
  20
243.12601
  0
VERTEX
  5
a1
  8
Layer_0
  10
293.32562
  20
243.3477
  0
VERTEX
  5
a2
  8
Layer_0
  10
293.38971
  20
243.55418
  0
VERTEX
  5
a3
  8
Layer_0
  10
293.49115
  20
243.74104
  0
VERTEX
  5
a4
  8
Layer_0
  10
293.62543
  20
243.90384
  0
VERTEX
  5
a5
  8
Layer_0
  10
293.78827
  20
244.03816
  0
VERTEX
  5
a6
  8
Layer_0
  10
293.9751
  20
244.13957
  0
VERTEX
  5
a7
  8
Layer_0
  10
294.18158
  20
244.20367
  0
VERTEX
  5
a8
  8
Layer_0
  10
294.40326
  20
244.22601
  0
VERTEX
  5
a9
  8
Layer_0
  10
294.62494
  20
244.20367
  0
VERTEX
  5
aa
  8
Layer_0
  10
294.83142
  20
244.13957
  0
VERTEX
  5
ab
  8
Layer_0
  10
295.01825
  20
244.03816
  0
VERTEX
  5
ac
  8
Layer_0
  10
295.18109
  20
243.90384
  0
VERTEX
  5
ad
  8
Layer_0
  10
295.31537
  20
243.74104
  0
VERTEX
  5
ae
  8
Layer_0
  10
295.41681
  20
243.55418
  0
VERTEX
  5
af
  8
Layer_0
  10
295.4809
  20
243.3477
  0
VERTEX
  5
b0
  8
Layer_0
  10
295.50327
  20
243.12601
  0
SEQEND
  0
POLYLINE
  5
b2
  8
Layer_0
  62
0
  70
1
  66
1
  10
0
  20
0
  30
0
  0
VERTEX
  5
b2
  8
Layer_0
  10
285.58347
  20
243.12601
  0
VERTEX
  5
b3
  8
Layer_0
  10
285.5611
  20
242.90431
  0
VERTEX
  5
b4
  8
Layer_0
  10
285.49701
  20
242.69783
  0
VERTEX
  5
b5
  8
Layer_0
  10
285.39557
  20
242.51097
  0
VERTEX
  5
b6
  8
Layer_0
  10
285.26129
  20
242.34818
  0
VERTEX
  5
b7
  8
Layer_0
  10
285.09845
  20
242.21385
  0
VERTEX
  5
b8
  8
Layer_0
  10
284.91162
  20
242.11244
  0
VERTEX
  5
b9
  8
Layer_0
  10
284.70514
  20
242.04834
  0
VERTEX
  5
ba
  8
Layer_0
  10
284.48346
  20
242.026
  0
VERTEX
  5
bb
  8
Layer_0
  10
284.26178
  20
242.04834
  0
VERTEX
  5
bc
  8
Layer_0
  10
284.0553
  20
242.11244
  0
VERTEX
  5
bd
  8
Layer_0
  10
283.86847
  20
242.21385
  0
VERTEX
  5
be
  8
Layer_0
  10
283.70563
  20
242.34818
  0
VERTEX
  5
bf
  8
Layer_0
  10
283.57135
  20
242.51097
  0
VERTEX
  5
c0
  8
Layer_0
  10
283.46991
  20
242.69783
  0
VERTEX
  5
c1
  8
Layer_0
  10
283.40582
  20
242.90431
  0
VERTEX
  5
c2
  8
Layer_0
  10
283.38345
  20
243.12601
  0
VERTEX
  5
c3
  8
Layer_0
  10
283.40582
  20
243.3477
  0
VERTEX
  5
c4
  8
Layer_0
  10
283.46991
  20
243.55418
  0
VERTEX
  5
c5
  8
Layer_0
  10
283.57135
  20
243.74104
  0
VERTEX
  5
c6
  8
Layer_0
  10
283.70563
  20
243.90384
  0
VERTEX
  5
c7
  8
Layer_0
  10
283.86847
  20
244.03816
  0
VERTEX
  5
c8
  8
Layer_0
  10
284.0553
  20
244.13957
  0
VERTEX
  5
c9
  8
Layer_0
  10
284.26178
  20
244.20367
  0
VERTEX
  5
ca
  8
Layer_0
  10
284.48346
  20
244.22601
  0
VERTEX
  5
cb
  8
Layer_0
  10
284.70514
  20
244.20367
  0
VERTEX
  5
cc
  8
Layer_0
  10
284.91162
  20
244.13957
  0
VERTEX
  5
cd
  8
Layer_0
  10
285.09845
  20
244.03816
  0
VERTEX
  5
ce
  8
Layer_0
  10
285.26129
  20
243.90384
  0
VERTEX
  5
cf
  8
Layer_0
  10
285.39557
  20
243.74104
  0
VERTEX
  5
d0
  8
Layer_0
  10
285.49701
  20
243.55418
  0
VERTEX
  5
d1
  8
Layer_0
  10
285.5611
  20
243.3477
  0
VERTEX
  5
d2
  8
Layer_0
  10
285.58347
  20
243.12601
  0
SEQEND
  0
POLYLINE
  5
d4
  8
Layer_0
  62
0
  70
1
  66
1
  10
0
  20
0
  30
0
  0
VERTEX
  5
d4
  8
Layer_0
  10
281.48346
  20
247.12601
  0
VERTEX
  5
d5
  8
Layer_0
  10
281.48346
  20
231.12601
  0
VERTEX
  5
d6
  8
Layer_0
  10
281.50378
  20
230.92447
  0
VERTEX
  5
d7
  8
Layer_0
  10
281.56207
  20
230.73676
  0
VERTEX
  5
d8
  8
Layer_0
  10
281.6543
  20
230.56688
  0
VERTEX
  5
d9
  8
Layer_0
  10
281.77637
  20
230.41888
  0
VERTEX
  5
da
  8
Layer_0
  10
281.92438
  20
230.29678
  0
VERTEX
  5
db
  8
Layer_0
  10
282.09424
  20
230.20459
  0
VERTEX
  5
dc
  8
Layer_0
  10
282.28195
  20
230.14632
  0
VERTEX
  5
dd
  8
Layer_0
  10
282.48346
  20
230.12601
  0
VERTEX
  5
de
  8
Layer_0
  10
310.17401
  20
230.12601
  0
VERTEX
  5
df
  8
Layer_0
  10
310.33234
  20
230.1134
  0
VERTEX
  5
e0
  8
Layer_0
  10
310.48572
  20
230.0762
  0
VERTEX
  5
e1
  8
Layer_0
  10
310.63135
  20
230.01532
  0
VERTEX
  5
e2
  8
Layer_0
  10
310.76636
  20
229.93172
  0
VERTEX
  5
e3
  8
Layer_0
  10
311.90717
  20
229.05774
  0
VERTEX
  5
e4
  8
Layer_0
  10
313.00555
  20
228.14502
  0
VERTEX
  5
e5
  8
Layer_0
  10
314.061
  20
227.19504
  0
VERTEX
  5
e6
  8
Layer_0
  10
315.07306
  20
226.2093
  0
VERTEX
  5
e7
  8
Layer_0
  10
316.0412
  20
225.1893
  0
VERTEX
  5
e8
  8
Layer_0
  10
316.96497
  20
224.13657
  0
VERTEX
  5
e9
  8
Layer_0
  10
317.84384
  20
223.05254
  0
VERTEX
  5
ea
  8
Layer_0
  10
318.67737
  20
221.93875
  0
VERTEX
  5
eb
  8
Layer_0
  10
319.46506
  20
220.79669
  0
VERTEX
  5
ec
  8
Layer_0
  10
320.20636
  20
219.62785
  0
VERTEX
  5
ed
  8
Layer_0
  10
320.90082
  20
218.43372
  0
VERTEX
  5
ee
  8
Layer_0
  10
321.54797
  20
217.21582
  0
VERTEX
  5
ef
  8
Layer_0
  10
322.14734
  20
215.9756
  0
VERTEX
  5
f0
  8
Layer_0
  10
322.69836
  20
214.7146
  0
VERTEX
  5
f1
  8
Layer_0
  10
323.20059
  20
213.4343
  0
VERTEX
  5
f2
  8
Layer_0
  10
323.6535
  20
212.13617
  0
VERTEX
  5
f3
  8
Layer_0
  10
324.05664
  20
210.82175
  0
VERTEX
  5
f4
  8
Layer_0
  10
324.40955
  20
209.49249
  0
VERTEX
  5
f5
  8
Layer_0
  10
324.71167
  20
208.14993
  0
VERTEX
  5
f6
  8
Layer_0
  10
324.96255
  20
206.79555
  0
VERTEX
  5
f7
  8
Layer_0
  10
325.16168
  20
205.43083
  0
VERTEX
  5
f8
  8
Layer_0
  10
325.30859
  20
204.05728
  0
VERTEX
  5
f9
  8
Layer_0
  10
325.4028
  20
202.67639
  0
VERTEX
  5
fa
  8
Layer_0
  10
325.44379
  20
201.28964
  0
VERTEX
  5
fb
  8
Layer_0
  10
325.43109
  20
199.89856
  0
VERTEX
  5
fc
  8
Layer_0
  10
325.36417
  20
198.50462
  0
VERTEX
  5
fd
  8
Layer_0
  10
325.24258
  20
197.10933
  0
VERTEX
  5
fe
  8
Layer_0
  10
325.06586
  20
195.71417
  0
VERTEX
  5
ff
  8
Layer_0
  10
324.83344
  20
194.32065
  0
VERTEX
  5
100
  8
Layer_0
  10
324.54486
  20
192.93027
  0
VERTEX
  5
101
  8
Layer_0
  10
324.19968
  20
191.54449
  0
VERTEX
  5
102
  8
Layer_0
  10
323.79736
  20
190.16484
  0
VERTEX
  5
103
  8
Layer_0
  10
323.3407
  20
188.80222
  0
VERTEX
  5
104
  8
Layer_0
  10
322.83362
  20
187.46716
  0
VERTEX
  5
105
  8
Layer_0
  10
322.27734
  20
186.16061
  0
VERTEX
  5
106
  8
Layer_0
  10
321.67322
  20
184.88354
  0
VERTEX
  5
107
  8
Layer_0
  10
321.0224
  20
183.63687
  0
VERTEX
  5
108
  8
Layer_0
  10
320.32623
  20
182.42157
  0
VERTEX
  5
109
  8
Layer_0
  10
319.58594
  20
181.23857
  0
VERTEX
  5
10a
  8
Layer_0
  10
318.80273
  20
180.08884
  0
VERTEX
  5
10b
  8
Layer_0
  10
317.97797
  20
178.97331
  0
VERTEX
  5
10c
  8
Layer_0
  10
317.11279
  20
177.89293
  0
VERTEX
  5
10d
  8
Layer_0
  10
316.2085
  20
176.84865
  0
VERTEX
  5
10e
  8
Layer_0
  10
315.26636
  20
175.84143
  0
VERTEX
  5
10f
  8
Layer_0
  10
314.2876
  20
174.87221
  0
VERTEX
  5
110
  8
Layer_0
  10
313.27353
  20
173.94194
  0
VERTEX
  5
111
  8
Layer_0
  10
312.22534
  20
173.05157
  0
VERTEX
  5
112
  8
Layer_0
  10
311.14435
  20
172.20204
  0
VERTEX
  5
113
  8
Layer_0
  10
310.0318
  20
171.3943
  0
VERTEX
  5
114
  8
Layer_0
  10
308.88889
  20
170.62932
  0
VERTEX
  5
115
  8
Layer_0
  10
307.71692
  20
169.90804
  0
VERTEX
  5
116
  8
Layer_0
  10
306.51715
  20
169.23138
  0
VERTEX
  5
117
  8
Layer_0
  10
305.29083
  20
168.60033
  0
VERTEX
  5
118
  8
Layer_0
  10
304.03922
  20
168.01581
  0
VERTEX
  5
119
  8
Layer_0
  10
302.76355
  20
167.47878
  0
VERTEX
  5
11a
  8
Layer_0
  10
301.46509
  20
166.99017
  0
VERTEX
  5
11b
  8
Layer_0
  10
300.14511
  20
166.55096
  0
VERTEX
  5
11c
  8
Layer_0
  10
298.80484
  20
166.16209
  0
VERTEX
  5
11d
  8
Layer_0
  10
297.44556
  20
165.82449
  0
VERTEX
  5
11e
  8
Layer_0
  10
296.06848
  20
165.53912
  0
VERTEX
  5
11f
  8
Layer_0
  10
294.67493
  20
165.30695
  0
VERTEX
  5
120
  8
Layer_0
  10
293.26611
  20
165.12888
  0
VERTEX
  5
121
  8
Layer_0
  10
291.84332
  20
165.00589
  0
VERTEX
  5
122
  8
Layer_0
  10
290.40778
  20
164.93893
  0
VERTEX
  5
123
  8
Layer_0
  10
290.21042
  20
164.91403
  0
VERTEX
  5
124
  8
Layer_0
  10
290.02716
  20
164.85281
  0
VERTEX
  5
125
  8
Layer_0
  10
289.86176
  20
164.75914
  0
VERTEX
  5
126
  8
Layer_0
  10
289.71802
  20
164.63687
  0
VERTEX
  5
127
  8
Layer_0
  10
289.59964
  20
164.48988
  0
VERTEX
  5
128
  8
Layer_0
  10
289.51041
  20
164.32205
  0
VERTEX
  5
129
  8
Layer_0
  10
289.4541
  20
164.13724
  0
VERTEX
  5
12a
  8
Layer_0
  10
289.43451
  20
163.9393
  0
VERTEX
  5
12b
  8
Layer_0
  10
289.43451
  20
161.9386
  0
VERTEX
  5
12c
  8
Layer_0
  10
289.47049
  20
161.67274
  0
VERTEX
  5
12d
  8
Layer_0
  10
289.5759
  20
161.42601
  0
VERTEX
  5
12e
  8
Layer_0
  10
290.99533
  20
161.42601
  0
VERTEX
  5
12f
  8
Layer_0
  10
294.08966
  20
161.66954
  0
VERTEX
  5
130
  8
Layer_0
  10
297.1554
  20
162.15511
  0
VERTEX
  5
131
  8
Layer_0
  10
300.17352
  20
162.8797
  0
VERTEX
  5
132
  8
Layer_0
  10
303.12555
  20
163.83887
  0
VERTEX
  5
133
  8
Layer_0
  10
305.99319
  20
165.02667
  0
VERTEX
  5
134
  8
Layer_0
  10
308.75879
  20
166.43582
  0
VERTEX
  5
135
  8
Layer_0
  10
311.40533
  20
168.05762
  0
VERTEX
  5
136
  8
Layer_0
  10
313.91644
  20
169.88205
  0
VERTEX
  5
137
  8
Layer_0
  10
316.27667
  20
171.89789
  0
VERTEX
  5
138
  8
Layer_0
  10
318.4715
  20
174.0927
  0
VERTEX
  5
139
  8
Layer_0
  10
320.4873
  20
176.45294
  0
VERTEX
  5
13a
  8
Layer_0
  10
322.31177
  20
178.96405
  0
VERTEX
  5
13b
  8
Layer_0
  10
323.93353
  20
181.61058
  0
VERTEX
  5
13c
  8
Layer_0
  10
325.34271
  20
184.37619
  0
VERTEX
  5
13d
  8
Layer_0
  10
326.53052
  20
187.24384
  0
VERTEX
  5
13e
  8
Layer_0
  10
327.48969
  20
190.19585
  0
VERTEX
  5
13f
  8
Layer_0
  10
328.21429
  20
193.214
  0
VERTEX
  5
140
  8
Layer_0
  10
328.69983
  20
196.27971
  0
VERTEX
  5
141
  8
Layer_0
  10
328.94336
  20
199.37405
  0
VERTEX
  5
142
  8
Layer_0
  10
328.94336
  20
202.47797
  0
VERTEX
  5
143
  8
Layer_0
  10
328.69983
  20
205.57233
  0
VERTEX
  5
144
  8
Layer_0
  10
328.21429
  20
208.63803
  0
VERTEX
  5
145
  8
Layer_0
  10
327.48969
  20
211.65619
  0
VERTEX
  5
146
  8
Layer_0
  10
326.53052
  20
214.60818
  0
VERTEX
  5
147
  8
Layer_0
  10
325.34271
  20
217.47583
  0
VERTEX
  5
148
  8
Layer_0
  10
323.93353
  20
220.24144
  0
VERTEX
  5
149
  8
Layer_0
  10
322.31177
  20
222.88797
  0
VERTEX
  5
14a
  8
Layer_0
  10
320.4873
  20
225.39909
  0
VERTEX
  5
14b
  8
Layer_0
  10
318.4715
  20
227.75932
  0
VERTEX
  5
14c
  8
Layer_0
  10
316.27667
  20
229.95413
  0
VERTEX
  5
14d
  8
Layer_0
  10
313.91644
  20
231.96997
  0
VERTEX
  5
14e
  8
Layer_0
  10
311.40533
  20
233.7944
  0
VERTEX
  5
14f
  8
Layer_0
  10
308.75879
  20
235.4162
  0
VERTEX
  5
150
  8
Layer_0
  10
305.99319
  20
236.82535
  0
VERTEX
  5
151
  8
Layer_0
  10
303.12555
  20
238.01317
  0
VERTEX
  5
152
  8
Layer_0
  10
300.17352
  20
238.97232
  0
VERTEX
  5
153
  8
Layer_0
  10
297.77795
  20
239.54745
  0
VERTEX
  5
154
  8
Layer_0
  10
297.60318
  20
239.62727
  0
VERTEX
  5
155
  8
Layer_0
  10
297.47498
  20
239.76187
  0
VERTEX
  5
156
  8
Layer_0
  10
297.4046
  20
239.9339
  0
VERTEX
  5
157
  8
Layer_0
  10
297.40326
  20
240.12601
  0
VERTEX
  5
158
  8
Layer_0
  10
297.40326
  20
247.12601
  0
VERTEX
  5
159
  8
Layer_0
  10
281.48346
  20
247.12601
  0
SEQEND
  0
ENDSEC
  0
EOF
