  0
SECTION
  2
HEADER
  9
$ACADVER
  1
AC1009
  0
ENDSEC
  0
SECTION
  2
ENTITIES
  0
POLYLINE
  5
90
  8
Layer_0
  62
0
  70
1
  66
1
  10
0
  20
0
  30
0
  0
VERTEX
  5
90
  8
Layer_0
  10
273.19214
  20
200
  0
VERTEX
  5
91
  8
Layer_0
  10
273.16165
  20
199.69769
  0
VERTEX
  5
92
  8
Layer_0
  10
273.07425
  20
199.41612
  0
VERTEX
  5
93
  8
Layer_0
  10
272.93597
  20
199.16132
  0
VERTEX
  5
94
  8
Layer_0
  10
272.75281
  20
198.93933
  0
VERTEX
  5
95
  8
Layer_0
  10
272.53079
  20
198.75618
  0
VERTEX
  5
96
  8
Layer_0
  10
272.276
  20
198.61789
  0
VERTEX
  5
97
  8
Layer_0
  10
271.99445
  20
198.53049
  0
VERTEX
  5
98
  8
Layer_0
  10
271.69214
  20
198.5
  0
VERTEX
  5
99
  8
Layer_0
  10
271.38983
  20
198.53049
  0
VERTEX
  5
9a
  8
Layer_0
  10
271.10828
  20
198.61789
  0
VERTEX
  5
9b
  8
Layer_0
  10
270.85349
  20
198.75618
  0
VERTEX
  5
9c
  8
Layer_0
  10
270.63147
  20
198.93933
  0
VERTEX
  5
9d
  8
Layer_0
  10
270.4483
  20
199.16132
  0
VERTEX
  5
9e
  8
Layer_0
  10
270.31003
  20
199.41612
  0
VERTEX
  5
9f
  8
Layer_0
  10
270.22263
  20
199.69769
  0
VERTEX
  5
a0
  8
Layer_0
  10
270.19214
  20
200
  0
VERTEX
  5
a1
  8
Layer_0
  10
270.22263
  20
200.30231
  0
VERTEX
  5
a2
  8
Layer_0
  10
270.31003
  20
200.58388
  0
VERTEX
  5
a3
  8
Layer_0
  10
270.4483
  20
200.83868
  0
VERTEX
  5
a4
  8
Layer_0
  10
270.63147
  20
201.06067
  0
VERTEX
  5
a5
  8
Layer_0
  10
270.85349
  20
201.24382
  0
VERTEX
  5
a6
  8
Layer_0
  10
271.10828
  20
201.38211
  0
VERTEX
  5
a7
  8
Layer_0
  10
271.38983
  20
201.46951
  0
VERTEX
  5
a8
  8
Layer_0
  10
271.69214
  20
201.5
  0
VERTEX
  5
a9
  8
Layer_0
  10
271.99445
  20
201.46951
  0
VERTEX
  5
aa
  8
Layer_0
  10
272.276
  20
201.38211
  0
VERTEX
  5
ab
  8
Layer_0
  10
272.53079
  20
201.24382
  0
VERTEX
  5
ac
  8
Layer_0
  10
272.75281
  20
201.06067
  0
VERTEX
  5
ad
  8
Layer_0
  10
272.93597
  20
200.83868
  0
VERTEX
  5
ae
  8
Layer_0
  10
273.07425
  20
200.58388
  0
VERTEX
  5
af
  8
Layer_0
  10
273.16165
  20
200.30231
  0
VERTEX
  5
b0
  8
Layer_0
  10
273.19214
  20
200
  0
SEQEND
  0
POLYLINE
  5
b2
  8
Layer_0
  62
0
  70
1
  66
1
  10
0
  20
0
  30
0
  0
VERTEX
  5
b2
  8
Layer_0
  10
301.69965
  20
234.49988
  0
VERTEX
  5
b3
  8
Layer_0
  10
301.66711
  20
234.17743
  0
VERTEX
  5
b4
  8
Layer_0
  10
301.57391
  20
233.87709
  0
VERTEX
  5
b5
  8
Layer_0
  10
301.42639
  20
233.6053
  0
VERTEX
  5
b6
  8
Layer_0
  10
301.23102
  20
233.3685
  0
VERTEX
  5
b7
  8
Layer_0
  10
300.9942
  20
233.17313
  0
VERTEX
  5
b8
  8
Layer_0
  10
300.72241
  20
233.0256
  0
VERTEX
  5
b9
  8
Layer_0
  10
300.42209
  20
232.93237
  0
VERTEX
  5
ba
  8
Layer_0
  10
300.09964
  20
232.89987
  0
VERTEX
  5
bb
  8
Layer_0
  10
299.77719
  20
232.93237
  0
VERTEX
  5
bc
  8
Layer_0
  10
299.47687
  20
233.0256
  0
VERTEX
  5
bd
  8
Layer_0
  10
299.20508
  20
233.17313
  0
VERTEX
  5
be
  8
Layer_0
  10
298.96826
  20
233.3685
  0
VERTEX
  5
bf
  8
Layer_0
  10
298.77289
  20
233.6053
  0
VERTEX
  5
c0
  8
Layer_0
  10
298.62537
  20
233.87709
  0
VERTEX
  5
c1
  8
Layer_0
  10
298.53217
  20
234.17743
  0
VERTEX
  5
c2
  8
Layer_0
  10
298.49963
  20
234.49988
  0
VERTEX
  5
c3
  8
Layer_0
  10
298.53217
  20
234.82233
  0
VERTEX
  5
c4
  8
Layer_0
  10
298.62537
  20
235.12267
  0
VERTEX
  5
c5
  8
Layer_0
  10
298.77289
  20
235.39445
  0
VERTEX
  5
c6
  8
Layer_0
  10
298.96826
  20
235.63126
  0
VERTEX
  5
c7
  8
Layer_0
  10
299.20508
  20
235.82663
  0
VERTEX
  5
c8
  8
Layer_0
  10
299.47687
  20
235.97415
  0
VERTEX
  5
c9
  8
Layer_0
  10
299.77719
  20
236.06738
  0
VERTEX
  5
ca
  8
Layer_0
  10
300.09964
  20
236.09988
  0
VERTEX
  5
cb
  8
Layer_0
  10
300.42209
  20
236.06738
  0
VERTEX
  5
cc
  8
Layer_0
  10
300.72241
  20
235.97415
  0
VERTEX
  5
cd
  8
Layer_0
  10
300.9942
  20
235.82663
  0
VERTEX
  5
ce
  8
Layer_0
  10
301.23102
  20
235.63126
  0
VERTEX
  5
cf
  8
Layer_0
  10
301.42639
  20
235.39445
  0
VERTEX
  5
d0
  8
Layer_0
  10
301.57391
  20
235.12267
  0
VERTEX
  5
d1
  8
Layer_0
  10
301.66711
  20
234.82233
  0
VERTEX
  5
d2
  8
Layer_0
  10
301.69965
  20
234.49988
  0
SEQEND
  0
POLYLINE
  5
d4
  8
Layer_0
  62
0
  70
1
  66
1
  10
0
  20
0
  30
0
  0
VERTEX
  5
d4
  8
Layer_0
  10
331.75
  20
200
  0
VERTEX
  5
d5
  8
Layer_0
  10
331.72031
  20
199.41209
  0
VERTEX
  5
d6
  8
Layer_0
  10
331.63318
  20
198.84117
  0
VERTEX
  5
d7
  8
Layer_0
  10
331.49152
  20
198.29013
  0
VERTEX
  5
d8
  8
Layer_0
  10
331.29816
  20
197.76184
  0
VERTEX
  5
d9
  8
Layer_0
  10
331.056
  20
197.25922
  0
VERTEX
  5
da
  8
Layer_0
  10
330.76797
  20
196.78513
  0
VERTEX
  5
db
  8
Layer_0
  10
330.43695
  20
196.34247
  0
VERTEX
  5
dc
  8
Layer_0
  10
330.06586
  20
195.93413
  0
VERTEX
  5
dd
  8
Layer_0
  10
329.65753
  20
195.563
  0
VERTEX
  5
de
  8
Layer_0
  10
329.2149
  20
195.23199
  0
VERTEX
  5
df
  8
Layer_0
  10
328.74078
  20
194.94398
  0
VERTEX
  5
e0
  8
Layer_0
  10
328.23816
  20
194.70186
  0
VERTEX
  5
e1
  8
Layer_0
  10
327.7099
  20
194.5085
  0
VERTEX
  5
e2
  8
Layer_0
  10
327.15881
  20
194.36682
  0
VERTEX
  5
e3
  8
Layer_0
  10
326.58792
  20
194.27969
  0
VERTEX
  5
e4
  8
Layer_0
  10
326
  20
194.25
  0
VERTEX
  5
e5
  8
Layer_0
  10
325.41208
  20
194.27969
  0
VERTEX
  5
e6
  8
Layer_0
  10
324.84119
  20
194.36682
  0
VERTEX
  5
e7
  8
Layer_0
  10
324.2901
  20
194.5085
  0
VERTEX
  5
e8
  8
Layer_0
  10
323.76184
  20
194.70186
  0
VERTEX
  5
e9
  8
Layer_0
  10
323.25922
  20
194.94398
  0
VERTEX
  5
ea
  8
Layer_0
  10
322.7851
  20
195.23199
  0
VERTEX
  5
eb
  8
Layer_0
  10
322.34247
  20
195.563
  0
VERTEX
  5
ec
  8
Layer_0
  10
321.93414
  20
195.93413
  0
VERTEX
  5
ed
  8
Layer_0
  10
321.56305
  20
196.34247
  0
VERTEX
  5
ee
  8
Layer_0
  10
321.23203
  20
196.78513
  0
VERTEX
  5
ef
  8
Layer_0
  10
320.944
  20
197.25922
  0
VERTEX
  5
f0
  8
Layer_0
  10
320.70184
  20
197.76184
  0
VERTEX
  5
f1
  8
Layer_0
  10
320.50848
  20
198.29013
  0
VERTEX
  5
f2
  8
Layer_0
  10
320.36682
  20
198.84117
  0
VERTEX
  5
f3
  8
Layer_0
  10
320.27969
  20
199.41209
  0
VERTEX
  5
f4
  8
Layer_0
  10
320.25
  20
200
  0
VERTEX
  5
f5
  8
Layer_0
  10
320.27969
  20
200.58791
  0
VERTEX
  5
f6
  8
Layer_0
  10
320.36682
  20
201.15883
  0
VERTEX
  5
f7
  8
Layer_0
  10
320.50848
  20
201.70987
  0
VERTEX
  5
f8
  8
Layer_0
  10
320.70184
  20
202.23816
  0
VERTEX
  5
f9
  8
Layer_0
  10
320.944
  20
202.74078
  0
VERTEX
  5
fa
  8
Layer_0
  10
321.23203
  20
203.21487
  0
VERTEX
  5
fb
  8
Layer_0
  10
321.56305
  20
203.65753
  0
VERTEX
  5
fc
  8
Layer_0
  10
321.93414
  20
204.06587
  0
VERTEX
  5
fd
  8
Layer_0
  10
322.34247
  20
204.437
  0
VERTEX
  5
fe
  8
Layer_0
  10
322.7851
  20
204.76801
  0
VERTEX
  5
ff
  8
Layer_0
  10
323.25922
  20
205.05602
  0
VERTEX
  5
100
  8
Layer_0
  10
323.76184
  20
205.29814
  0
VERTEX
  5
101
  8
Layer_0
  10
324.2901
  20
205.4915
  0
VERTEX
  5
102
  8
Layer_0
  10
324.84119
  20
205.63318
  0
VERTEX
  5
103
  8
Layer_0
  10
325.41208
  20
205.72031
  0
VERTEX
  5
104
  8
Layer_0
  10
326
  20
205.75
  0
VERTEX
  5
105
  8
Layer_0
  10
326.58792
  20
205.72031
  0
VERTEX
  5
106
  8
Layer_0
  10
327.15881
  20
205.63318
  0
VERTEX
  5
107
  8
Layer_0
  10
327.7099
  20
205.4915
  0
VERTEX
  5
108
  8
Layer_0
  10
328.23816
  20
205.29814
  0
VERTEX
  5
109
  8
Layer_0
  10
328.74078
  20
205.05602
  0
VERTEX
  5
10a
  8
Layer_0
  10
329.2149
  20
204.76801
  0
VERTEX
  5
10b
  8
Layer_0
  10
329.65753
  20
204.437
  0
VERTEX
  5
10c
  8
Layer_0
  10
330.06586
  20
204.06587
  0
VERTEX
  5
10d
  8
Layer_0
  10
330.43695
  20
203.65753
  0
VERTEX
  5
10e
  8
Layer_0
  10
330.76797
  20
203.21487
  0
VERTEX
  5
10f
  8
Layer_0
  10
331.056
  20
202.74078
  0
VERTEX
  5
110
  8
Layer_0
  10
331.29816
  20
202.23816
  0
VERTEX
  5
111
  8
Layer_0
  10
331.49152
  20
201.70987
  0
VERTEX
  5
112
  8
Layer_0
  10
331.63318
  20
201.15883
  0
VERTEX
  5
113
  8
Layer_0
  10
331.72031
  20
200.58791
  0
VERTEX
  5
114
  8
Layer_0
  10
331.75
  20
200
  0
SEQEND
  0
POLYLINE
  5
116
  8
Layer_0
  62
0
  70
1
  66
1
  10
0
  20
0
  30
0
  0
VERTEX
  5
116
  8
Layer_0
  10
331.42795
  20
182.66377
  0
VERTEX
  5
117
  8
Layer_0
  10
331.39545
  20
182.34132
  0
VERTEX
  5
118
  8
Layer_0
  10
331.30219
  20
182.04099
  0
VERTEX
  5
119
  8
Layer_0
  10
331.15466
  20
181.7692
  0
VERTEX
  5
11a
  8
Layer_0
  10
330.95929
  20
181.53241
  0
VERTEX
  5
11b
  8
Layer_0
  10
330.7225
  20
181.33704
  0
VERTEX
  5
11c
  8
Layer_0
  10
330.45074
  20
181.18951
  0
VERTEX
  5
11d
  8
Layer_0
  10
330.15042
  20
181.09627
  0
VERTEX
  5
11e
  8
Layer_0
  10
329.82794
  20
181.06377
  0
VERTEX
  5
11f
  8
Layer_0
  10
329.50546
  20
181.09627
  0
VERTEX
  5
120
  8
Layer_0
  10
329.20514
  20
181.18951
  0
VERTEX
  5
121
  8
Layer_0
  10
328.93338
  20
181.33704
  0
VERTEX
  5
122
  8
Layer_0
  10
328.69659
  20
181.53241
  0
VERTEX
  5
123
  8
Layer_0
  10
328.50122
  20
181.7692
  0
VERTEX
  5
124
  8
Layer_0
  10
328.3537
  20
182.04099
  0
VERTEX
  5
125
  8
Layer_0
  10
328.26044
  20
182.34132
  0
VERTEX
  5
126
  8
Layer_0
  10
328.22794
  20
182.66377
  0
VERTEX
  5
127
  8
Layer_0
  10
328.26044
  20
182.98622
  0
VERTEX
  5
128
  8
Layer_0
  10
328.3537
  20
183.28656
  0
VERTEX
  5
129
  8
Layer_0
  10
328.50122
  20
183.55835
  0
VERTEX
  5
12a
  8
Layer_0
  10
328.69659
  20
183.79514
  0
VERTEX
  5
12b
  8
Layer_0
  10
328.93338
  20
183.99051
  0
VERTEX
  5
12c
  8
Layer_0
  10
329.20514
  20
184.13803
  0
VERTEX
  5
12d
  8
Layer_0
  10
329.50546
  20
184.23128
  0
VERTEX
  5
12e
  8
Layer_0
  10
329.82794
  20
184.26378
  0
VERTEX
  5
12f
  8
Layer_0
  10
330.15042
  20
184.23128
  0
VERTEX
  5
130
  8
Layer_0
  10
330.45074
  20
184.13803
  0
VERTEX
  5
131
  8
Layer_0
  10
330.7225
  20
183.99051
  0
VERTEX
  5
132
  8
Layer_0
  10
330.95929
  20
183.79514
  0
VERTEX
  5
133
  8
Layer_0
  10
331.15466
  20
183.55835
  0
VERTEX
  5
134
  8
Layer_0
  10
331.30219
  20
183.28656
  0
VERTEX
  5
135
  8
Layer_0
  10
331.39545
  20
182.98622
  0
VERTEX
  5
136
  8
Layer_0
  10
331.42795
  20
182.66377
  0
SEQEND
  0
POLYLINE
  5
138
  8
Layer_0
  62
0
  70
1
  66
1
  10
0
  20
0
  30
0
  0
VERTEX
  5
138
  8
Layer_0
  10
271.67239
  20
182.83636
  0
VERTEX
  5
139
  8
Layer_0
  10
271.63989
  20
182.51392
  0
VERTEX
  5
13a
  8
Layer_0
  10
271.54663
  20
182.21358
  0
VERTEX
  5
13b
  8
Layer_0
  10
271.39911
  20
181.94179
  0
VERTEX
  5
13c
  8
Layer_0
  10
271.20374
  20
181.70499
  0
VERTEX
  5
13d
  8
Layer_0
  10
270.96695
  20
181.50961
  0
VERTEX
  5
13e
  8
Layer_0
  10
270.69519
  20
181.36209
  0
VERTEX
  5
13f
  8
Layer_0
  10
270.39487
  20
181.26886
  0
VERTEX
  5
140
  8
Layer_0
  10
270.07239
  20
181.23636
  0
VERTEX
  5
141
  8
Layer_0
  10
269.74991
  20
181.26886
  0
VERTEX
  5
142
  8
Layer_0
  10
269.44958
  20
181.36209
  0
VERTEX
  5
143
  8
Layer_0
  10
269.17783
  20
181.50961
  0
VERTEX
  5
144
  8
Layer_0
  10
268.94104
  20
181.70499
  0
VERTEX
  5
145
  8
Layer_0
  10
268.74567
  20
181.94179
  0
VERTEX
  5
146
  8
Layer_0
  10
268.59814
  20
182.21358
  0
VERTEX
  5
147
  8
Layer_0
  10
268.50488
  20
182.51392
  0
VERTEX
  5
148
  8
Layer_0
  10
268.47238
  20
182.83636
  0
VERTEX
  5
149
  8
Layer_0
  10
268.50488
  20
183.15881
  0
VERTEX
  5
14a
  8
Layer_0
  10
268.59814
  20
183.45915
  0
VERTEX
  5
14b
  8
Layer_0
  10
268.74567
  20
183.73094
  0
VERTEX
  5
14c
  8
Layer_0
  10
268.94104
  20
183.96774
  0
VERTEX
  5
14d
  8
Layer_0
  10
269.17783
  20
184.16312
  0
VERTEX
  5
14e
  8
Layer_0
  10
269.44958
  20
184.31064
  0
VERTEX
  5
14f
  8
Layer_0
  10
269.74991
  20
184.40387
  0
VERTEX
  5
150
  8
Layer_0
  10
270.07239
  20
184.43637
  0
VERTEX
  5
151
  8
Layer_0
  10
270.39487
  20
184.40387
  0
VERTEX
  5
152
  8
Layer_0
  10
270.69519
  20
184.31064
  0
VERTEX
  5
153
  8
Layer_0
  10
270.96695
  20
184.16312
  0
VERTEX
  5
154
  8
Layer_0
  10
271.20374
  20
183.96774
  0
VERTEX
  5
155
  8
Layer_0
  10
271.39911
  20
183.73094
  0
VERTEX
  5
156
  8
Layer_0
  10
271.54663
  20
183.45915
  0
VERTEX
  5
157
  8
Layer_0
  10
271.63989
  20
183.15881
  0
VERTEX
  5
158
  8
Layer_0
  10
271.67239
  20
182.83636
  0
SEQEND
  0
POLYLINE
  5
15a
  8
Layer_0
  62
0
  70
1
  66
1
  10
0
  20
0
  30
0
  0
VERTEX
  5
15a
  8
Layer_0
  10
337.75
  20
200
  0
VERTEX
  5
15b
  8
Layer_0
  10
337.70087
  20
198.05739
  0
VERTEX
  5
15c
  8
Layer_0
  10
337.55508
  20
196.14029
  0
VERTEX
  5
15d
  8
Layer_0
  10
337.315
  20
194.25104
  0
VERTEX
  5
15e
  8
Layer_0
  10
336.98303
  20
192.39206
  0
VERTEX
  5
15f
  8
Layer_0
  10
336.56152
  20
190.5657
  0
VERTEX
  5
160
  8
Layer_0
  10
336.05283
  20
188.77432
  0
VERTEX
  5
161
  8
Layer_0
  10
335.45935
  20
187.02029
  0
VERTEX
  5
162
  8
Layer_0
  10
334.78342
  20
185.306
  0
VERTEX
  5
163
  8
Layer_0
  10
334.02747
  20
183.63382
  0
VERTEX
  5
164
  8
Layer_0
  10
333.19379
  20
182.0061
  0
VERTEX
  5
165
  8
Layer_0
  10
332.28482
  20
180.42525
  0
VERTEX
  5
166
  8
Layer_0
  10
331.30292
  20
178.8936
  0
VERTEX
  5
167
  8
Layer_0
  10
330.25043
  20
177.41356
  0
VERTEX
  5
168
  8
Layer_0
  10
329.12976
  20
175.98749
  0
VERTEX
  5
169
  8
Layer_0
  10
327.94327
  20
174.61775
  0
VERTEX
  5
16a
  8
Layer_0
  10
326.6933
  20
173.30672
  0
VERTEX
  5
16b
  8
Layer_0
  10
325.38223
  20
172.05676
  0
VERTEX
  5
16c
  8
Layer_0
  10
324.01251
  20
170.87027
  0
VERTEX
  5
16d
  8
Layer_0
  10
322.58643
  20
169.74959
  0
VERTEX
  5
16e
  8
Layer_0
  10
321.10638
  20
168.69711
  0
VERTEX
  5
16f
  8
Layer_0
  10
319.57477
  20
167.71518
  0
VERTEX
  5
170
  8
Layer_0
  10
317.9939
  20
166.80621
  0
VERTEX
  5
171
  8
Layer_0
  10
316.36621
  20
165.97256
  0
VERTEX
  5
172
  8
Layer_0
  10
314.69403
  20
165.21658
  0
VERTEX
  5
173
  8
Layer_0
  10
312.97974
  20
164.54065
  0
VERTEX
  5
174
  8
Layer_0
  10
311.22571
  20
163.94716
  0
VERTEX
  5
175
  8
Layer_0
  10
309.43433
  20
163.43846
  0
VERTEX
  5
176
  8
Layer_0
  10
307.60797
  20
163.01694
  0
VERTEX
  5
177
  8
Layer_0
  10
305.74896
  20
162.68497
  0
VERTEX
  5
178
  8
Layer_0
  10
303.85974
  20
162.4449
  0
VERTEX
  5
179
  8
Layer_0
  10
301.94263
  20
162.29913
  0
VERTEX
  5
17a
  8
Layer_0
  10
300
  20
162.25
  0
VERTEX
  5
17b
  8
Layer_0
  10
298.05737
  20
162.29913
  0
VERTEX
  5
17c
  8
Layer_0
  10
296.14026
  20
162.4449
  0
VERTEX
  5
17d
  8
Layer_0
  10
294.25104
  20
162.68497
  0
VERTEX
  5
17e
  8
Layer_0
  10
292.39203
  20
163.01694
  0
VERTEX
  5
17f
  8
Layer_0
  10
290.56567
  20
163.43846
  0
VERTEX
  5
180
  8
Layer_0
  10
288.77429
  20
163.94716
  0
VERTEX
  5
181
  8
Layer_0
  10
287.02026
  20
164.54065
  0
VERTEX
  5
182
  8
Layer_0
  10
285.30597
  20
165.21658
  0
VERTEX
  5
183
  8
Layer_0
  10
283.63379
  20
165.97256
  0
VERTEX
  5
184
  8
Layer_0
  10
282.0061
  20
166.80621
  0
VERTEX
  5
185
  8
Layer_0
  10
280.42523
  20
167.71518
  0
VERTEX
  5
186
  8
Layer_0
  10
278.89362
  20
168.69711
  0
VERTEX
  5
187
  8
Layer_0
  10
277.41357
  20
169.74959
  0
VERTEX
  5
188
  8
Layer_0
  10
275.98749
  20
170.87027
  0
VERTEX
  5
189
  8
Layer_0
  10
274.61777
  20
172.05676
  0
VERTEX
  5
18a
  8
Layer_0
  10
273.3067
  20
173.30672
  0
VERTEX
  5
18b
  8
Layer_0
  10
272.05673
  20
174.61775
  0
VERTEX
  5
18c
  8
Layer_0
  10
270.87024
  20
175.98749
  0
VERTEX
  5
18d
  8
Layer_0
  10
269.74957
  20
177.41356
  0
VERTEX
  5
18e
  8
Layer_0
  10
268.69708
  20
178.8936
  0
VERTEX
  5
18f
  8
Layer_0
  10
267.71518
  20
180.42525
  0
VERTEX
  5
190
  8
Layer_0
  10
266.80621
  20
182.0061
  0
VERTEX
  5
191
  8
Layer_0
  10
265.97253
  20
183.63382
  0
VERTEX
  5
192
  8
Layer_0
  10
265.21658
  20
185.306
  0
VERTEX
  5
193
  8
Layer_0
  10
264.54065
  20
187.02029
  0
VERTEX
  5
194
  8
Layer_0
  10
263.94717
  20
188.77432
  0
VERTEX
  5
195
  8
Layer_0
  10
263.43848
  20
190.5657
  0
VERTEX
  5
196
  8
Layer_0
  10
263.01697
  20
192.39206
  0
VERTEX
  5
197
  8
Layer_0
  10
262.685
  20
194.25104
  0
VERTEX
  5
198
  8
Layer_0
  10
262.44492
  20
196.14029
  0
VERTEX
  5
199
  8
Layer_0
  10
262.29913
  20
198.05739
  0
VERTEX
  5
19a
  8
Layer_0
  10
262.25
  20
200
  0
VERTEX
  5
19b
  8
Layer_0
  10
262.29913
  20
201.94261
  0
VERTEX
  5
19c
  8
Layer_0
  10
262.44492
  20
203.85971
  0
VERTEX
  5
19d
  8
Layer_0
  10
262.685
  20
205.74896
  0
VERTEX
  5
19e
  8
Layer_0
  10
263.01697
  20
207.60794
  0
VERTEX
  5
19f
  8
Layer_0
  10
263.43848
  20
209.4343
  0
VERTEX
  5
1a0
  8
Layer_0
  10
263.94717
  20
211.22568
  0
VERTEX
  5
1a1
  8
Layer_0
  10
264.54065
  20
212.97971
  0
VERTEX
  5
1a2
  8
Layer_0
  10
265.21658
  20
214.694
  0
VERTEX
  5
1a3
  8
Layer_0
  10
265.97253
  20
216.36618
  0
VERTEX
  5
1a4
  8
Layer_0
  10
266.80621
  20
217.9939
  0
VERTEX
  5
1a5
  8
Layer_0
  10
267.71518
  20
219.57475
  0
VERTEX
  5
1a6
  8
Layer_0
  10
268.69708
  20
221.1064
  0
VERTEX
  5
1a7
  8
Layer_0
  10
269.74957
  20
222.58644
  0
VERTEX
  5
1a8
  8
Layer_0
  10
270.87024
  20
224.01251
  0
VERTEX
  5
1a9
  8
Layer_0
  10
272.05673
  20
225.38225
  0
VERTEX
  5
1aa
  8
Layer_0
  10
273.3067
  20
226.69328
  0
VERTEX
  5
1ab
  8
Layer_0
  10
274.61777
  20
227.94324
  0
VERTEX
  5
1ac
  8
Layer_0
  10
275.98749
  20
229.12973
  0
VERTEX
  5
1ad
  8
Layer_0
  10
277.41357
  20
230.25041
  0
VERTEX
  5
1ae
  8
Layer_0
  10
278.89362
  20
231.30289
  0
VERTEX
  5
1af
  8
Layer_0
  10
280.42523
  20
232.28482
  0
VERTEX
  5
1b0
  8
Layer_0
  10
282.0061
  20
233.19379
  0
VERTEX
  5
1b1
  8
Layer_0
  10
283.63379
  20
234.02744
  0
VERTEX
  5
1b2
  8
Layer_0
  10
285.30597
  20
234.78342
  0
VERTEX
  5
1b3
  8
Layer_0
  10
287.02026
  20
235.45935
  0
VERTEX
  5
1b4
  8
Layer_0
  10
288.77429
  20
236.05284
  0
VERTEX
  5
1b5
  8
Layer_0
  10
290.56567
  20
236.56154
  0
VERTEX
  5
1b6
  8
Layer_0
  10
292.39203
  20
236.98306
  0
VERTEX
  5
1b7
  8
Layer_0
  10
294.25104
  20
237.31503
  0
VERTEX
  5
1b8
  8
Layer_0
  10
296.14026
  20
237.5551
  0
VERTEX
  5
1b9
  8
Layer_0
  10
298.05737
  20
237.70087
  0
VERTEX
  5
1ba
  8
Layer_0
  10
300
  20
237.75
  0
VERTEX
  5
1bb
  8
Layer_0
  10
301.94263
  20
237.70087
  0
VERTEX
  5
1bc
  8
Layer_0
  10
303.85974
  20
237.5551
  0
VERTEX
  5
1bd
  8
Layer_0
  10
305.74896
  20
237.31503
  0
VERTEX
  5
1be
  8
Layer_0
  10
307.60797
  20
236.98306
  0
VERTEX
  5
1bf
  8
Layer_0
  10
309.43433
  20
236.56154
  0
VERTEX
  5
1c0
  8
Layer_0
  10
311.22571
  20
236.05284
  0
VERTEX
  5
1c1
  8
Layer_0
  10
312.97974
  20
235.45935
  0
VERTEX
  5
1c2
  8
Layer_0
  10
314.69403
  20
234.78342
  0
VERTEX
  5
1c3
  8
Layer_0
  10
316.36621
  20
234.02744
  0
VERTEX
  5
1c4
  8
Layer_0
  10
317.9939
  20
233.19379
  0
VERTEX
  5
1c5
  8
Layer_0
  10
319.57477
  20
232.28482
  0
VERTEX
  5
1c6
  8
Layer_0
  10
321.10638
  20
231.30289
  0
VERTEX
  5
1c7
  8
Layer_0
  10
322.58643
  20
230.25041
  0
VERTEX
  5
1c8
  8
Layer_0
  10
324.01251
  20
229.12973
  0
VERTEX
  5
1c9
  8
Layer_0
  10
325.38223
  20
227.94324
  0
VERTEX
  5
1ca
  8
Layer_0
  10
326.6933
  20
226.69328
  0
VERTEX
  5
1cb
  8
Layer_0
  10
327.94327
  20
225.38225
  0
VERTEX
  5
1cc
  8
Layer_0
  10
329.12976
  20
224.01251
  0
VERTEX
  5
1cd
  8
Layer_0
  10
330.25043
  20
222.58644
  0
VERTEX
  5
1ce
  8
Layer_0
  10
331.30292
  20
221.1064
  0
VERTEX
  5
1cf
  8
Layer_0
  10
332.28482
  20
219.57475
  0
VERTEX
  5
1d0
  8
Layer_0
  10
333.19379
  20
217.9939
  0
VERTEX
  5
1d1
  8
Layer_0
  10
334.02747
  20
216.36618
  0
VERTEX
  5
1d2
  8
Layer_0
  10
334.78342
  20
214.694
  0
VERTEX
  5
1d3
  8
Layer_0
  10
335.45935
  20
212.97971
  0
VERTEX
  5
1d4
  8
Layer_0
  10
336.05283
  20
211.22568
  0
VERTEX
  5
1d5
  8
Layer_0
  10
336.56152
  20
209.4343
  0
VERTEX
  5
1d6
  8
Layer_0
  10
336.98303
  20
207.60794
  0
VERTEX
  5
1d7
  8
Layer_0
  10
337.315
  20
205.74896
  0
VERTEX
  5
1d8
  8
Layer_0
  10
337.55508
  20
203.85971
  0
VERTEX
  5
1d9
  8
Layer_0
  10
337.70087
  20
201.94261
  0
VERTEX
  5
1da
  8
Layer_0
  10
337.75
  20
200
  0
SEQEND
  0
ENDSEC
  0
EOF
