M48
; DRILL file {KiCad (5.1.5)-3} date 12/16/2020 12:20:53 AM
; FORMAT={-:-/ absolute / inch / decimal}
; #@! TF.CreationDate,2020-12-16T00:20:53-05:00
; #@! TF.GenerationSoftware,Kicad,Pcbnew,(5.1.5)-3
FMAT,2
INCH
T1C0.0157
T2C0.0295
T3C0.0394
T4C0.0402
T5C0.0433
T6C0.0512
T7C0.0642
T8C0.1378
%
G90
G05
T1
X4.4961Y-4.9567
X4.5276Y-4.7165
X4.5315Y-5.0236
X4.5354Y-4.6496
X4.5945Y-5.0512
X4.6339Y-3.6181
X4.7047Y-4.6535
X4.7323Y-3.5591
X4.7323Y-3.6732
X4.8228Y-3.6142
X4.8268Y-3.7362
X4.8307Y-4.6732
X4.8701Y-4.6142
X4.878Y-4.5787
X4.8976Y-3.685
X4.9016Y-5.3268
X4.9134Y-5.0945
X4.9606Y-3.7402
X5.0591Y-5.3268
X5.2165Y-5.0276
X5.3543Y-4.8898
X5.3543Y-5.1732
X5.3583Y-4.2717
X5.4055Y-4.2165
X5.437Y-4.0945
X5.4409Y-3.752
X5.4409Y-3.9606
X5.4921Y-4.0276
X5.4921Y-5.0276
X5.5039Y-3.815
X5.5394Y-4.5591
X5.5394Y-4.7126
X5.5433Y-5.2756
X5.5709Y-5.3228
X5.5787Y-3.9843
X5.5945Y-4.6339
X5.6299Y-3.6496
X5.6496Y-4.0512
X5.6496Y-4.3622
X5.6535Y-3.9134
X5.7244Y-3.6496
X5.7283Y-4.7756
X5.7283Y-5.3228
X5.7362Y-3.9843
X5.7598Y-4.3976
X5.7874Y-5.0236
X5.8228Y-4.0551
X5.8268Y-3.9173
X5.8425Y-4.9803
X5.8425Y-5.1654
X5.8937Y-3.9843
X5.9055Y-5.0315
X5.9094Y-3.5472
X5.9094Y-3.6772
X5.9685Y-3.6142
X5.9843Y-5.0394
X6.0354Y-4.815
X6.0433Y-4.937
X6.0512Y-5.1417
X6.0945Y-4.874
X6.122Y-5.0394
T2
X5.9055Y-4.7008
X5.9843Y-4.7008
X6.063Y-4.7008
X4.9616Y-3.0246
X4.9616Y-3.1033
X4.9616Y-3.1821
X4.9616Y-3.2608
X4.9616Y-3.3396
T3
X4.3996Y-4.9409
X4.4703Y-5.0117
X4.541Y-5.0824
X4.6117Y-5.1531
X4.6824Y-5.2238
X4.7532Y-5.2945
X5.0157Y-4.2858
X5.0157Y-4.3858
X5.1575Y-4.2858
X5.1575Y-4.3858
X4.7165Y-4.1244
X4.7165Y-4.2244
T5
X5.3583Y-3.515
X5.3583Y-3.815
X4.5738Y-4.0226
X4.5738Y-4.3226
T6
X5.7598Y-3.314
X5.9598Y-3.314
T7
X4.2028Y-4.1811
T8
X6.4921Y-4.8583
X5.3219Y-2.8242
X4.139Y-4.8583
T4
G00X4.0689Y-4.2028
M15
G01X4.0689Y-4.1634
M16
G05
G00X4.3366Y-4.2028
M15
G01X4.3366Y-4.1634
M16
G05
T0
M30
