G04 #@! TF.GenerationSoftware,KiCad,Pcbnew,(5.1.5)-3*
G04 #@! TF.CreationDate,2020-12-16T00:20:50-05:00*
G04 #@! TF.ProjectId,pov_ornament,706f765f-6f72-46e6-916d-656e742e6b69,rev?*
G04 #@! TF.SameCoordinates,Original*
G04 #@! TF.FileFunction,Soldermask,Bot*
G04 #@! TF.FilePolarity,Negative*
%FSLAX46Y46*%
G04 Gerber Fmt 4.6, Leading zero omitted, Abs format (unit mm)*
G04 Created by KiCad (PCBNEW (5.1.5)-3) date 2020-12-16 00:20:50*
%MOMM*%
%LPD*%
G04 APERTURE LIST*
%ADD10C,0.100000*%
G04 APERTURE END LIST*
D10*
G36*
X120843768Y-133584183D02*
G01*
X120993068Y-133613880D01*
X121157040Y-133681800D01*
X121304610Y-133780403D01*
X121430109Y-133905902D01*
X121528712Y-134053472D01*
X121596632Y-134217444D01*
X121631256Y-134391515D01*
X121631256Y-134568997D01*
X121596632Y-134743068D01*
X121528712Y-134907040D01*
X121430109Y-135054610D01*
X121304610Y-135180109D01*
X121157040Y-135278712D01*
X120993068Y-135346632D01*
X120843768Y-135376329D01*
X120818998Y-135381256D01*
X120641514Y-135381256D01*
X120616744Y-135376329D01*
X120467444Y-135346632D01*
X120303472Y-135278712D01*
X120155902Y-135180109D01*
X120030403Y-135054610D01*
X119931800Y-134907040D01*
X119863880Y-134743068D01*
X119829256Y-134568997D01*
X119829256Y-134391515D01*
X119863880Y-134217444D01*
X119931800Y-134053472D01*
X120030403Y-133905902D01*
X120155902Y-133780403D01*
X120303472Y-133681800D01*
X120467444Y-133613880D01*
X120616744Y-133584183D01*
X120641514Y-133579256D01*
X120818998Y-133579256D01*
X120843768Y-133584183D01*
G37*
G36*
X119047717Y-131788132D02*
G01*
X119197017Y-131817829D01*
X119360989Y-131885749D01*
X119508559Y-131984352D01*
X119634058Y-132109851D01*
X119732661Y-132257421D01*
X119800581Y-132421393D01*
X119835205Y-132595464D01*
X119835205Y-132772946D01*
X119800581Y-132947017D01*
X119732661Y-133110989D01*
X119634058Y-133258559D01*
X119508559Y-133384058D01*
X119360989Y-133482661D01*
X119197017Y-133550581D01*
X119052854Y-133579256D01*
X119022947Y-133585205D01*
X118845463Y-133585205D01*
X118815556Y-133579256D01*
X118671393Y-133550581D01*
X118507421Y-133482661D01*
X118359851Y-133384058D01*
X118234352Y-133258559D01*
X118135749Y-133110989D01*
X118067829Y-132947017D01*
X118033205Y-132772946D01*
X118033205Y-132595464D01*
X118067829Y-132421393D01*
X118135749Y-132257421D01*
X118234352Y-132109851D01*
X118359851Y-131984352D01*
X118507421Y-131885749D01*
X118671393Y-131817829D01*
X118820693Y-131788132D01*
X118845463Y-131783205D01*
X119022947Y-131783205D01*
X119047717Y-131788132D01*
G37*
G36*
X117251666Y-129992081D02*
G01*
X117400966Y-130021778D01*
X117564938Y-130089698D01*
X117712508Y-130188301D01*
X117838007Y-130313800D01*
X117936610Y-130461370D01*
X118004530Y-130625342D01*
X118039154Y-130799413D01*
X118039154Y-130976895D01*
X118004530Y-131150966D01*
X117936610Y-131314938D01*
X117838007Y-131462508D01*
X117712508Y-131588007D01*
X117564938Y-131686610D01*
X117400966Y-131754530D01*
X117256803Y-131783205D01*
X117226896Y-131789154D01*
X117049412Y-131789154D01*
X117019505Y-131783205D01*
X116875342Y-131754530D01*
X116711370Y-131686610D01*
X116563800Y-131588007D01*
X116438301Y-131462508D01*
X116339698Y-131314938D01*
X116271778Y-131150966D01*
X116237154Y-130976895D01*
X116237154Y-130799413D01*
X116271778Y-130625342D01*
X116339698Y-130461370D01*
X116438301Y-130313800D01*
X116563800Y-130188301D01*
X116711370Y-130089698D01*
X116875342Y-130021778D01*
X117024642Y-129992081D01*
X117049412Y-129987154D01*
X117226896Y-129987154D01*
X117251666Y-129992081D01*
G37*
G36*
X115455614Y-128196029D02*
G01*
X115604914Y-128225726D01*
X115768886Y-128293646D01*
X115916456Y-128392249D01*
X116041955Y-128517748D01*
X116140558Y-128665318D01*
X116208478Y-128829290D01*
X116243102Y-129003361D01*
X116243102Y-129180843D01*
X116208478Y-129354914D01*
X116140558Y-129518886D01*
X116041955Y-129666456D01*
X115916456Y-129791955D01*
X115768886Y-129890558D01*
X115604914Y-129958478D01*
X115460746Y-129987154D01*
X115430844Y-129993102D01*
X115253360Y-129993102D01*
X115223458Y-129987154D01*
X115079290Y-129958478D01*
X114915318Y-129890558D01*
X114767748Y-129791955D01*
X114642249Y-129666456D01*
X114543646Y-129518886D01*
X114475726Y-129354914D01*
X114441102Y-129180843D01*
X114441102Y-129003361D01*
X114475726Y-128829290D01*
X114543646Y-128665318D01*
X114642249Y-128517748D01*
X114767748Y-128392249D01*
X114915318Y-128293646D01*
X115079290Y-128225726D01*
X115228590Y-128196029D01*
X115253360Y-128191102D01*
X115430844Y-128191102D01*
X115455614Y-128196029D01*
G37*
G36*
X113659563Y-126399978D02*
G01*
X113808863Y-126429675D01*
X113972835Y-126497595D01*
X114120405Y-126596198D01*
X114245904Y-126721697D01*
X114344507Y-126869267D01*
X114412427Y-127033239D01*
X114447051Y-127207310D01*
X114447051Y-127384792D01*
X114412427Y-127558863D01*
X114344507Y-127722835D01*
X114245904Y-127870405D01*
X114120405Y-127995904D01*
X113972835Y-128094507D01*
X113808863Y-128162427D01*
X113664700Y-128191102D01*
X113634793Y-128197051D01*
X113457309Y-128197051D01*
X113427402Y-128191102D01*
X113283239Y-128162427D01*
X113119267Y-128094507D01*
X112971697Y-127995904D01*
X112846198Y-127870405D01*
X112747595Y-127722835D01*
X112679675Y-127558863D01*
X112645051Y-127384792D01*
X112645051Y-127207310D01*
X112679675Y-127033239D01*
X112747595Y-126869267D01*
X112846198Y-126721697D01*
X112971697Y-126596198D01*
X113119267Y-126497595D01*
X113283239Y-126429675D01*
X113432539Y-126399978D01*
X113457309Y-126395051D01*
X113634793Y-126395051D01*
X113659563Y-126399978D01*
G37*
G36*
X165935787Y-119985462D02*
G01*
X165935790Y-119985463D01*
X165935789Y-119985463D01*
X166582029Y-120253144D01*
X167163631Y-120641758D01*
X167658242Y-121136369D01*
X168046856Y-121717971D01*
X168046856Y-121717972D01*
X168314538Y-122364213D01*
X168451000Y-123050256D01*
X168451000Y-123749744D01*
X168314538Y-124435787D01*
X168314537Y-124435789D01*
X168046856Y-125082029D01*
X167658242Y-125663631D01*
X167163631Y-126158242D01*
X166582029Y-126546856D01*
X166462904Y-126596199D01*
X165935787Y-126814538D01*
X165249744Y-126951000D01*
X164550256Y-126951000D01*
X163864213Y-126814538D01*
X163337096Y-126596199D01*
X163217971Y-126546856D01*
X162636369Y-126158242D01*
X162141758Y-125663631D01*
X161753144Y-125082029D01*
X161485463Y-124435789D01*
X161485462Y-124435787D01*
X161349000Y-123749744D01*
X161349000Y-123050256D01*
X161485462Y-122364213D01*
X161753144Y-121717972D01*
X161753144Y-121717971D01*
X162141758Y-121136369D01*
X162636369Y-120641758D01*
X163217971Y-120253144D01*
X163864211Y-119985463D01*
X163864210Y-119985463D01*
X163864213Y-119985462D01*
X164550256Y-119849000D01*
X165249744Y-119849000D01*
X165935787Y-119985462D01*
G37*
G36*
X106166552Y-119985462D02*
G01*
X106166555Y-119985463D01*
X106166554Y-119985463D01*
X106812794Y-120253144D01*
X107394396Y-120641758D01*
X107889007Y-121136369D01*
X108277621Y-121717971D01*
X108277621Y-121717972D01*
X108545303Y-122364213D01*
X108681765Y-123050256D01*
X108681765Y-123749744D01*
X108545303Y-124435787D01*
X108545302Y-124435789D01*
X108277621Y-125082029D01*
X107889007Y-125663631D01*
X107394396Y-126158242D01*
X106812794Y-126546856D01*
X106693669Y-126596199D01*
X106166552Y-126814538D01*
X105480509Y-126951000D01*
X104781021Y-126951000D01*
X104094978Y-126814538D01*
X103567861Y-126596199D01*
X103448736Y-126546856D01*
X102867134Y-126158242D01*
X102372523Y-125663631D01*
X101983909Y-125082029D01*
X101716228Y-124435789D01*
X101716227Y-124435787D01*
X101579765Y-123749744D01*
X101579765Y-123050256D01*
X101716227Y-122364213D01*
X101983909Y-121717972D01*
X101983909Y-121717971D01*
X102372523Y-121136369D01*
X102867134Y-120641758D01*
X103448736Y-120253144D01*
X104094976Y-119985463D01*
X104094975Y-119985463D01*
X104094978Y-119985462D01*
X104781021Y-119849000D01*
X105480509Y-119849000D01*
X106166552Y-119985462D01*
G37*
G36*
X113024206Y-125500000D02*
G01*
X111750000Y-126774206D01*
X110475794Y-125500000D01*
X111750000Y-124225794D01*
X113024206Y-125500000D01*
G37*
G36*
X154127617Y-118483420D02*
G01*
X154208399Y-118507925D01*
X154250335Y-118520646D01*
X154363424Y-118581094D01*
X154462554Y-118662447D01*
X154543906Y-118761575D01*
X154604354Y-118874664D01*
X154614040Y-118906596D01*
X154641580Y-118997382D01*
X154651000Y-119093027D01*
X154651000Y-119706973D01*
X154641580Y-119802618D01*
X154627510Y-119849000D01*
X154604354Y-119925336D01*
X154543906Y-120038425D01*
X154462554Y-120137554D01*
X154363425Y-120218906D01*
X154250336Y-120279354D01*
X154218404Y-120289040D01*
X154127618Y-120316580D01*
X154000000Y-120329149D01*
X153872383Y-120316580D01*
X153781597Y-120289040D01*
X153749665Y-120279354D01*
X153636576Y-120218906D01*
X153537447Y-120137554D01*
X153456096Y-120038427D01*
X153456095Y-120038425D01*
X153395647Y-119925336D01*
X153395645Y-119925333D01*
X153372490Y-119849000D01*
X153358420Y-119802618D01*
X153349000Y-119706973D01*
X153349000Y-119093028D01*
X153358420Y-118997383D01*
X153395645Y-118874669D01*
X153395646Y-118874665D01*
X153456094Y-118761576D01*
X153537447Y-118662446D01*
X153636575Y-118581094D01*
X153749664Y-118520646D01*
X153791600Y-118507925D01*
X153872382Y-118483420D01*
X154000000Y-118470851D01*
X154127617Y-118483420D01*
G37*
G36*
X152127617Y-118483420D02*
G01*
X152208399Y-118507925D01*
X152250335Y-118520646D01*
X152363424Y-118581094D01*
X152462554Y-118662447D01*
X152543906Y-118761575D01*
X152604354Y-118874664D01*
X152614040Y-118906596D01*
X152641580Y-118997382D01*
X152651000Y-119093027D01*
X152651000Y-119706973D01*
X152641580Y-119802618D01*
X152627510Y-119849000D01*
X152604354Y-119925336D01*
X152543906Y-120038425D01*
X152462554Y-120137554D01*
X152363425Y-120218906D01*
X152250336Y-120279354D01*
X152218404Y-120289040D01*
X152127618Y-120316580D01*
X152000000Y-120329149D01*
X151872383Y-120316580D01*
X151781597Y-120289040D01*
X151749665Y-120279354D01*
X151636576Y-120218906D01*
X151537447Y-120137554D01*
X151456096Y-120038427D01*
X151456095Y-120038425D01*
X151395647Y-119925336D01*
X151395645Y-119925333D01*
X151372490Y-119849000D01*
X151358420Y-119802618D01*
X151349000Y-119706973D01*
X151349000Y-119093028D01*
X151358420Y-118997383D01*
X151395645Y-118874669D01*
X151395646Y-118874665D01*
X151456094Y-118761576D01*
X151537447Y-118662446D01*
X151636575Y-118581094D01*
X151749664Y-118520646D01*
X151791600Y-118507925D01*
X151872382Y-118483420D01*
X152000000Y-118470851D01*
X152127617Y-118483420D01*
G37*
G36*
X150491242Y-118478404D02*
G01*
X150528337Y-118489657D01*
X150562515Y-118507925D01*
X150592481Y-118532519D01*
X150617075Y-118562485D01*
X150635343Y-118596663D01*
X150646596Y-118633758D01*
X150651000Y-118678474D01*
X150651000Y-120121526D01*
X150646596Y-120166242D01*
X150635343Y-120203337D01*
X150617075Y-120237515D01*
X150592481Y-120267481D01*
X150562515Y-120292075D01*
X150528337Y-120310343D01*
X150491242Y-120321596D01*
X150446526Y-120326000D01*
X149553474Y-120326000D01*
X149508758Y-120321596D01*
X149471663Y-120310343D01*
X149437485Y-120292075D01*
X149407519Y-120267481D01*
X149382925Y-120237515D01*
X149364657Y-120203337D01*
X149353404Y-120166242D01*
X149349000Y-120121526D01*
X149349000Y-118678474D01*
X149353404Y-118633758D01*
X149364657Y-118596663D01*
X149382925Y-118562485D01*
X149407519Y-118532519D01*
X149437485Y-118507925D01*
X149471663Y-118489657D01*
X149508758Y-118478404D01*
X149553474Y-118474000D01*
X150446526Y-118474000D01*
X150491242Y-118478404D01*
G37*
G36*
X131901000Y-112301000D02*
G01*
X130099000Y-112301000D01*
X130099000Y-110499000D01*
X131901000Y-110499000D01*
X131901000Y-112301000D01*
G37*
G36*
X128301000Y-112301000D02*
G01*
X126499000Y-112301000D01*
X126499000Y-110499000D01*
X128301000Y-110499000D01*
X128301000Y-112301000D01*
G37*
G36*
X116399549Y-108666116D02*
G01*
X116510734Y-108688232D01*
X116658850Y-108749584D01*
X116711177Y-108771258D01*
X116720203Y-108774997D01*
X116908720Y-108900960D01*
X117069040Y-109061280D01*
X117195003Y-109249797D01*
X117281768Y-109459266D01*
X117326000Y-109681636D01*
X117326000Y-109908364D01*
X117281768Y-110130734D01*
X117195003Y-110340203D01*
X117069040Y-110528720D01*
X116908720Y-110689040D01*
X116720203Y-110815003D01*
X116510734Y-110901768D01*
X116399549Y-110923884D01*
X116288365Y-110946000D01*
X116061635Y-110946000D01*
X115950451Y-110923884D01*
X115839266Y-110901768D01*
X115629797Y-110815003D01*
X115441280Y-110689040D01*
X115280960Y-110528720D01*
X115154997Y-110340203D01*
X115068232Y-110130734D01*
X115024000Y-109908364D01*
X115024000Y-109681636D01*
X115068232Y-109459266D01*
X115154997Y-109249797D01*
X115280960Y-109061280D01*
X115441280Y-108900960D01*
X115629797Y-108774997D01*
X115638824Y-108771258D01*
X115691150Y-108749584D01*
X115839266Y-108688232D01*
X115950451Y-108666116D01*
X116061635Y-108644000D01*
X116288365Y-108644000D01*
X116399549Y-108666116D01*
G37*
G36*
X131113512Y-107963927D02*
G01*
X131262812Y-107993624D01*
X131426784Y-108061544D01*
X131574354Y-108160147D01*
X131699853Y-108285646D01*
X131798456Y-108433216D01*
X131866376Y-108597188D01*
X131901000Y-108771259D01*
X131901000Y-108948741D01*
X131866376Y-109122812D01*
X131798456Y-109286784D01*
X131699853Y-109434354D01*
X131574354Y-109559853D01*
X131426784Y-109658456D01*
X131262812Y-109726376D01*
X131113512Y-109756073D01*
X131088742Y-109761000D01*
X130911258Y-109761000D01*
X130886488Y-109756073D01*
X130737188Y-109726376D01*
X130573216Y-109658456D01*
X130425646Y-109559853D01*
X130300147Y-109434354D01*
X130201544Y-109286784D01*
X130133624Y-109122812D01*
X130099000Y-108948741D01*
X130099000Y-108771259D01*
X130133624Y-108597188D01*
X130201544Y-108433216D01*
X130300147Y-108285646D01*
X130425646Y-108160147D01*
X130573216Y-108061544D01*
X130737188Y-107993624D01*
X130886488Y-107963927D01*
X130911258Y-107959000D01*
X131088742Y-107959000D01*
X131113512Y-107963927D01*
G37*
G36*
X127513512Y-107963927D02*
G01*
X127662812Y-107993624D01*
X127826784Y-108061544D01*
X127974354Y-108160147D01*
X128099853Y-108285646D01*
X128198456Y-108433216D01*
X128266376Y-108597188D01*
X128301000Y-108771259D01*
X128301000Y-108948741D01*
X128266376Y-109122812D01*
X128198456Y-109286784D01*
X128099853Y-109434354D01*
X127974354Y-109559853D01*
X127826784Y-109658456D01*
X127662812Y-109726376D01*
X127513512Y-109756073D01*
X127488742Y-109761000D01*
X127311258Y-109761000D01*
X127286488Y-109756073D01*
X127137188Y-109726376D01*
X126973216Y-109658456D01*
X126825646Y-109559853D01*
X126700147Y-109434354D01*
X126601544Y-109286784D01*
X126533624Y-109122812D01*
X126499000Y-108948741D01*
X126499000Y-108771259D01*
X126533624Y-108597188D01*
X126601544Y-108433216D01*
X126700147Y-108285646D01*
X126825646Y-108160147D01*
X126973216Y-108061544D01*
X127137188Y-107993624D01*
X127286488Y-107963927D01*
X127311258Y-107959000D01*
X127488742Y-107959000D01*
X127513512Y-107963927D01*
G37*
G36*
X120701000Y-108201000D02*
G01*
X118899000Y-108201000D01*
X118899000Y-106399000D01*
X120701000Y-106399000D01*
X120701000Y-108201000D01*
G37*
G36*
X110356032Y-104504207D02*
G01*
X110554146Y-104564305D01*
X110554149Y-104564306D01*
X110650975Y-104616061D01*
X110736729Y-104661897D01*
X110896765Y-104793235D01*
X111028103Y-104953271D01*
X111065273Y-105022811D01*
X111125694Y-105135851D01*
X111125695Y-105135854D01*
X111185793Y-105333968D01*
X111201000Y-105488370D01*
X111201000Y-107011630D01*
X111185793Y-107166032D01*
X111125695Y-107364145D01*
X111125694Y-107364149D01*
X111073939Y-107460975D01*
X111028103Y-107546729D01*
X110896765Y-107706765D01*
X110736729Y-107838103D01*
X110620030Y-107900479D01*
X110554148Y-107935694D01*
X110554145Y-107935695D01*
X110356031Y-107995793D01*
X110150000Y-108016085D01*
X109943968Y-107995793D01*
X109745854Y-107935695D01*
X109745851Y-107935694D01*
X109649025Y-107883939D01*
X109563271Y-107838103D01*
X109403235Y-107706765D01*
X109271897Y-107546729D01*
X109174307Y-107364149D01*
X109174306Y-107364148D01*
X109171273Y-107354149D01*
X109114207Y-107166031D01*
X109099000Y-107011629D01*
X109099000Y-105488370D01*
X109104497Y-105432560D01*
X109114207Y-105333970D01*
X109174305Y-105135853D01*
X109249184Y-104995765D01*
X109271898Y-104953271D01*
X109403236Y-104793235D01*
X109563272Y-104661897D01*
X109649026Y-104616061D01*
X109745852Y-104564306D01*
X109745855Y-104564305D01*
X109943969Y-104504207D01*
X110150000Y-104483915D01*
X110356032Y-104504207D01*
G37*
G36*
X103556032Y-104514207D02*
G01*
X103721184Y-104564306D01*
X103754149Y-104574306D01*
X103850975Y-104626061D01*
X103936729Y-104671897D01*
X104096765Y-104803235D01*
X104228103Y-104963271D01*
X104259928Y-105022812D01*
X104325694Y-105145851D01*
X104325695Y-105145854D01*
X104385793Y-105343968D01*
X104401000Y-105498370D01*
X104401000Y-107001630D01*
X104385793Y-107156032D01*
X104382759Y-107166032D01*
X104325694Y-107354149D01*
X104273939Y-107450975D01*
X104228103Y-107536729D01*
X104096765Y-107696765D01*
X103936729Y-107828103D01*
X103820030Y-107890479D01*
X103754148Y-107925694D01*
X103754145Y-107925695D01*
X103556031Y-107985793D01*
X103350000Y-108006085D01*
X103143968Y-107985793D01*
X102945854Y-107925695D01*
X102945851Y-107925694D01*
X102849025Y-107873939D01*
X102763271Y-107828103D01*
X102603235Y-107696765D01*
X102471897Y-107536729D01*
X102379652Y-107364149D01*
X102374306Y-107354148D01*
X102317241Y-107166031D01*
X102314207Y-107156031D01*
X102299000Y-107001629D01*
X102299000Y-105498370D01*
X102305482Y-105432560D01*
X102314207Y-105343970D01*
X102374305Y-105145853D01*
X102449184Y-105005765D01*
X102471898Y-104963271D01*
X102603236Y-104803235D01*
X102763272Y-104671897D01*
X102849026Y-104626061D01*
X102945852Y-104574306D01*
X102978817Y-104564306D01*
X103143969Y-104514207D01*
X103350000Y-104493915D01*
X103556032Y-104514207D01*
G37*
G36*
X106918948Y-105350640D02*
G01*
X107002603Y-105367280D01*
X107160205Y-105432561D01*
X107302043Y-105527334D01*
X107422666Y-105647957D01*
X107517439Y-105789795D01*
X107582720Y-105947397D01*
X107616000Y-106114706D01*
X107616000Y-106285294D01*
X107582720Y-106452603D01*
X107517439Y-106610205D01*
X107422666Y-106752043D01*
X107302043Y-106872666D01*
X107160205Y-106967439D01*
X107002603Y-107032720D01*
X106835295Y-107066000D01*
X106664705Y-107066000D01*
X106497397Y-107032720D01*
X106339795Y-106967439D01*
X106197957Y-106872666D01*
X106077334Y-106752043D01*
X105982561Y-106610205D01*
X105917280Y-106452603D01*
X105884000Y-106285294D01*
X105884000Y-106114706D01*
X105917280Y-105947397D01*
X105982561Y-105789795D01*
X106077334Y-105647957D01*
X106197957Y-105527334D01*
X106339795Y-105432561D01*
X106497397Y-105367280D01*
X106581052Y-105350640D01*
X106664705Y-105334000D01*
X106835295Y-105334000D01*
X106918948Y-105350640D01*
G37*
G36*
X119913512Y-103863927D02*
G01*
X120062812Y-103893624D01*
X120226784Y-103961544D01*
X120374354Y-104060147D01*
X120499853Y-104185646D01*
X120598456Y-104333216D01*
X120666376Y-104497188D01*
X120701000Y-104671259D01*
X120701000Y-104848741D01*
X120666376Y-105022812D01*
X120598456Y-105186784D01*
X120499853Y-105334354D01*
X120374354Y-105459853D01*
X120226784Y-105558456D01*
X120062812Y-105626376D01*
X119913512Y-105656073D01*
X119888742Y-105661000D01*
X119711258Y-105661000D01*
X119686488Y-105656073D01*
X119537188Y-105626376D01*
X119373216Y-105558456D01*
X119225646Y-105459853D01*
X119100147Y-105334354D01*
X119001544Y-105186784D01*
X118933624Y-105022812D01*
X118899000Y-104848741D01*
X118899000Y-104671259D01*
X118933624Y-104497188D01*
X119001544Y-104333216D01*
X119100147Y-104185646D01*
X119225646Y-104060147D01*
X119373216Y-103961544D01*
X119537188Y-103893624D01*
X119686488Y-103863927D01*
X119711258Y-103859000D01*
X119888742Y-103859000D01*
X119913512Y-103863927D01*
G37*
G36*
X117326000Y-103326000D02*
G01*
X115024000Y-103326000D01*
X115024000Y-101024000D01*
X117326000Y-101024000D01*
X117326000Y-103326000D01*
G37*
G36*
X137251000Y-98051000D02*
G01*
X134949000Y-98051000D01*
X134949000Y-95749000D01*
X137251000Y-95749000D01*
X137251000Y-98051000D01*
G37*
G36*
X136324549Y-88151116D02*
G01*
X136435734Y-88173232D01*
X136645203Y-88259997D01*
X136833720Y-88385960D01*
X136994040Y-88546280D01*
X137120003Y-88734797D01*
X137206768Y-88944266D01*
X137251000Y-89166636D01*
X137251000Y-89393364D01*
X137206768Y-89615734D01*
X137120003Y-89825203D01*
X136994040Y-90013720D01*
X136833720Y-90174040D01*
X136645203Y-90300003D01*
X136435734Y-90386768D01*
X136324549Y-90408884D01*
X136213365Y-90431000D01*
X135986635Y-90431000D01*
X135875451Y-90408884D01*
X135764266Y-90386768D01*
X135554797Y-90300003D01*
X135366280Y-90174040D01*
X135205960Y-90013720D01*
X135079997Y-89825203D01*
X134993232Y-89615734D01*
X134949000Y-89393364D01*
X134949000Y-89166636D01*
X134993232Y-88944266D01*
X135079997Y-88734797D01*
X135205960Y-88546280D01*
X135366280Y-88385960D01*
X135554797Y-88259997D01*
X135764266Y-88173232D01*
X135875451Y-88151116D01*
X135986635Y-88129000D01*
X136213365Y-88129000D01*
X136324549Y-88151116D01*
G37*
G36*
X151774072Y-82875918D02*
G01*
X152019939Y-82977759D01*
X152241212Y-83125610D01*
X152429390Y-83313788D01*
X152577241Y-83535061D01*
X152679082Y-83780928D01*
X152731000Y-84041938D01*
X152731000Y-84308062D01*
X152679082Y-84569072D01*
X152577241Y-84814939D01*
X152429390Y-85036212D01*
X152241212Y-85224390D01*
X152019939Y-85372241D01*
X152019938Y-85372242D01*
X152019937Y-85372242D01*
X151774072Y-85474082D01*
X151513063Y-85526000D01*
X151246937Y-85526000D01*
X150985928Y-85474082D01*
X150740063Y-85372242D01*
X150740062Y-85372242D01*
X150740061Y-85372241D01*
X150518788Y-85224390D01*
X150330610Y-85036212D01*
X150182759Y-84814939D01*
X150080918Y-84569072D01*
X150029000Y-84308062D01*
X150029000Y-84041938D01*
X150080918Y-83780928D01*
X150182759Y-83535061D01*
X150330610Y-83313788D01*
X150518788Y-83125610D01*
X150740061Y-82977759D01*
X150985928Y-82875918D01*
X151246937Y-82824000D01*
X151513063Y-82824000D01*
X151774072Y-82875918D01*
G37*
G36*
X147651000Y-85526000D02*
G01*
X144949000Y-85526000D01*
X144949000Y-82824000D01*
X147651000Y-82824000D01*
X147651000Y-85526000D01*
G37*
G36*
X126791242Y-84178404D02*
G01*
X126828337Y-84189657D01*
X126862515Y-84207925D01*
X126892481Y-84232519D01*
X126917075Y-84262485D01*
X126935343Y-84296663D01*
X126946596Y-84333758D01*
X126951000Y-84378474D01*
X126951000Y-85271526D01*
X126946596Y-85316242D01*
X126935343Y-85353337D01*
X126917075Y-85387515D01*
X126892481Y-85417481D01*
X126862515Y-85442075D01*
X126828337Y-85460343D01*
X126791242Y-85471596D01*
X126746526Y-85476000D01*
X125303474Y-85476000D01*
X125258758Y-85471596D01*
X125221663Y-85460343D01*
X125187485Y-85442075D01*
X125157519Y-85417481D01*
X125132925Y-85387515D01*
X125114657Y-85353337D01*
X125103404Y-85316242D01*
X125099000Y-85271526D01*
X125099000Y-84378474D01*
X125103404Y-84333758D01*
X125114657Y-84296663D01*
X125132925Y-84262485D01*
X125157519Y-84232519D01*
X125187485Y-84207925D01*
X125221663Y-84189657D01*
X125258758Y-84178404D01*
X125303474Y-84174000D01*
X126746526Y-84174000D01*
X126791242Y-84178404D01*
G37*
G36*
X126363855Y-82177140D02*
G01*
X126427618Y-82183420D01*
X126518404Y-82210960D01*
X126550336Y-82220646D01*
X126663425Y-82281094D01*
X126762554Y-82362446D01*
X126843906Y-82461575D01*
X126904354Y-82574664D01*
X126904355Y-82574668D01*
X126941580Y-82697382D01*
X126954149Y-82825000D01*
X126941580Y-82952618D01*
X126914040Y-83043404D01*
X126904354Y-83075336D01*
X126843906Y-83188425D01*
X126762554Y-83287554D01*
X126663425Y-83368906D01*
X126550336Y-83429354D01*
X126518404Y-83439040D01*
X126427618Y-83466580D01*
X126363855Y-83472860D01*
X126331974Y-83476000D01*
X125718026Y-83476000D01*
X125686145Y-83472860D01*
X125622382Y-83466580D01*
X125531596Y-83439040D01*
X125499664Y-83429354D01*
X125386575Y-83368906D01*
X125287446Y-83287554D01*
X125206094Y-83188425D01*
X125145646Y-83075336D01*
X125135960Y-83043404D01*
X125108420Y-82952618D01*
X125095851Y-82825000D01*
X125108420Y-82697382D01*
X125145645Y-82574668D01*
X125145646Y-82574664D01*
X125206094Y-82461575D01*
X125287446Y-82362446D01*
X125386575Y-82281094D01*
X125499664Y-82220646D01*
X125531596Y-82210960D01*
X125622382Y-82183420D01*
X125686145Y-82177140D01*
X125718026Y-82174000D01*
X126331974Y-82174000D01*
X126363855Y-82177140D01*
G37*
G36*
X126363855Y-80177140D02*
G01*
X126427618Y-80183420D01*
X126518404Y-80210960D01*
X126550336Y-80220646D01*
X126663425Y-80281094D01*
X126762554Y-80362446D01*
X126843906Y-80461575D01*
X126904354Y-80574664D01*
X126904355Y-80574668D01*
X126941580Y-80697382D01*
X126954149Y-80825000D01*
X126941580Y-80952618D01*
X126914040Y-81043404D01*
X126904354Y-81075336D01*
X126843906Y-81188425D01*
X126762554Y-81287554D01*
X126663425Y-81368906D01*
X126550336Y-81429354D01*
X126518404Y-81439040D01*
X126427618Y-81466580D01*
X126363855Y-81472860D01*
X126331974Y-81476000D01*
X125718026Y-81476000D01*
X125686145Y-81472860D01*
X125622382Y-81466580D01*
X125531596Y-81439040D01*
X125499664Y-81429354D01*
X125386575Y-81368906D01*
X125287446Y-81287554D01*
X125206094Y-81188425D01*
X125145646Y-81075336D01*
X125135960Y-81043404D01*
X125108420Y-80952618D01*
X125095851Y-80825000D01*
X125108420Y-80697382D01*
X125145645Y-80574668D01*
X125145646Y-80574664D01*
X125206094Y-80461575D01*
X125287446Y-80362446D01*
X125386575Y-80281094D01*
X125499664Y-80220646D01*
X125531596Y-80210960D01*
X125622382Y-80183420D01*
X125686145Y-80177140D01*
X125718026Y-80174000D01*
X126331974Y-80174000D01*
X126363855Y-80177140D01*
G37*
G36*
X126363855Y-78177140D02*
G01*
X126427618Y-78183420D01*
X126518404Y-78210960D01*
X126550336Y-78220646D01*
X126663425Y-78281094D01*
X126762554Y-78362446D01*
X126843906Y-78461575D01*
X126904354Y-78574664D01*
X126904355Y-78574668D01*
X126941580Y-78697382D01*
X126954149Y-78825000D01*
X126941580Y-78952618D01*
X126914040Y-79043404D01*
X126904354Y-79075336D01*
X126843906Y-79188425D01*
X126762554Y-79287554D01*
X126663425Y-79368906D01*
X126550336Y-79429354D01*
X126518404Y-79439040D01*
X126427618Y-79466580D01*
X126363855Y-79472860D01*
X126331974Y-79476000D01*
X125718026Y-79476000D01*
X125686145Y-79472860D01*
X125622382Y-79466580D01*
X125531596Y-79439040D01*
X125499664Y-79429354D01*
X125386575Y-79368906D01*
X125287446Y-79287554D01*
X125206094Y-79188425D01*
X125145646Y-79075336D01*
X125135960Y-79043404D01*
X125108420Y-78952618D01*
X125095851Y-78825000D01*
X125108420Y-78697382D01*
X125145645Y-78574668D01*
X125145646Y-78574664D01*
X125206094Y-78461575D01*
X125287446Y-78362446D01*
X125386575Y-78281094D01*
X125499664Y-78220646D01*
X125531596Y-78210960D01*
X125622382Y-78183420D01*
X125686145Y-78177140D01*
X125718026Y-78174000D01*
X126331974Y-78174000D01*
X126363855Y-78177140D01*
G37*
G36*
X126363855Y-76177140D02*
G01*
X126427618Y-76183420D01*
X126518404Y-76210960D01*
X126550336Y-76220646D01*
X126663425Y-76281094D01*
X126762554Y-76362446D01*
X126843906Y-76461575D01*
X126904354Y-76574664D01*
X126904355Y-76574668D01*
X126941580Y-76697382D01*
X126954149Y-76825000D01*
X126941580Y-76952618D01*
X126914040Y-77043404D01*
X126904354Y-77075336D01*
X126843906Y-77188425D01*
X126762554Y-77287554D01*
X126663425Y-77368906D01*
X126550336Y-77429354D01*
X126518404Y-77439040D01*
X126427618Y-77466580D01*
X126363855Y-77472860D01*
X126331974Y-77476000D01*
X125718026Y-77476000D01*
X125686145Y-77472860D01*
X125622382Y-77466580D01*
X125531596Y-77439040D01*
X125499664Y-77429354D01*
X125386575Y-77368906D01*
X125287446Y-77287554D01*
X125206094Y-77188425D01*
X125145646Y-77075336D01*
X125135960Y-77043404D01*
X125108420Y-76952618D01*
X125095851Y-76825000D01*
X125108420Y-76697382D01*
X125145645Y-76574668D01*
X125145646Y-76574664D01*
X125206094Y-76461575D01*
X125287446Y-76362446D01*
X125386575Y-76281094D01*
X125499664Y-76220646D01*
X125531596Y-76210960D01*
X125622382Y-76183420D01*
X125686145Y-76177140D01*
X125718026Y-76174000D01*
X126331974Y-76174000D01*
X126363855Y-76177140D01*
G37*
G36*
X136210787Y-68319967D02*
G01*
X136210790Y-68319968D01*
X136210789Y-68319968D01*
X136857029Y-68587649D01*
X137438631Y-68976263D01*
X137933242Y-69470874D01*
X138321856Y-70052476D01*
X138321856Y-70052477D01*
X138589538Y-70698718D01*
X138726000Y-71384761D01*
X138726000Y-72084249D01*
X138589538Y-72770292D01*
X138589537Y-72770294D01*
X138321856Y-73416534D01*
X137933242Y-73998136D01*
X137438631Y-74492747D01*
X136857029Y-74881361D01*
X136400068Y-75070640D01*
X136210787Y-75149043D01*
X135524744Y-75285505D01*
X134825256Y-75285505D01*
X134139213Y-75149043D01*
X133949932Y-75070640D01*
X133492971Y-74881361D01*
X132911369Y-74492747D01*
X132416758Y-73998136D01*
X132028144Y-73416534D01*
X131760463Y-72770294D01*
X131760462Y-72770292D01*
X131624000Y-72084249D01*
X131624000Y-71384761D01*
X131760462Y-70698718D01*
X132028144Y-70052477D01*
X132028144Y-70052476D01*
X132416758Y-69470874D01*
X132911369Y-68976263D01*
X133492971Y-68587649D01*
X134139211Y-68319968D01*
X134139210Y-68319968D01*
X134139213Y-68319967D01*
X134825256Y-68183505D01*
X135524744Y-68183505D01*
X136210787Y-68319967D01*
G37*
M02*
