G04 #@! TF.GenerationSoftware,KiCad,Pcbnew,(5.1.5)-3*
G04 #@! TF.CreationDate,2020-12-16T00:20:50-05:00*
G04 #@! TF.ProjectId,pov_ornament,706f765f-6f72-46e6-916d-656e742e6b69,rev?*
G04 #@! TF.SameCoordinates,Original*
G04 #@! TF.FileFunction,Soldermask,Top*
G04 #@! TF.FilePolarity,Negative*
%FSLAX46Y46*%
G04 Gerber Fmt 4.6, Leading zero omitted, Abs format (unit mm)*
G04 Created by KiCad (PCBNEW (5.1.5)-3) date 2020-12-16 00:20:50*
%MOMM*%
%LPD*%
G04 APERTURE LIST*
%ADD10C,0.010000*%
%ADD11C,0.100000*%
G04 APERTURE END LIST*
D10*
G36*
X159015781Y-92955526D02*
G01*
X159068434Y-92984793D01*
X159109432Y-93008469D01*
X159141237Y-93028221D01*
X159166312Y-93045719D01*
X159187120Y-93062630D01*
X159206123Y-93080624D01*
X159216887Y-93091787D01*
X159232248Y-93110174D01*
X159248604Y-93132913D01*
X159263554Y-93156174D01*
X159274701Y-93176130D01*
X159279643Y-93188952D01*
X159279260Y-93191322D01*
X159271215Y-93190370D01*
X159251209Y-93186152D01*
X159222638Y-93179416D01*
X159201627Y-93174182D01*
X159108252Y-93153474D01*
X159003734Y-93135641D01*
X158892661Y-93121399D01*
X158816333Y-93114178D01*
X158756176Y-93110695D01*
X158683871Y-93108745D01*
X158603064Y-93108258D01*
X158517400Y-93109160D01*
X158430524Y-93111381D01*
X158346082Y-93114848D01*
X158267720Y-93119490D01*
X158199082Y-93125236D01*
X158186312Y-93126569D01*
X157935744Y-93159933D01*
X157676662Y-93206462D01*
X157409335Y-93266095D01*
X157134030Y-93338771D01*
X156851014Y-93424429D01*
X156799691Y-93441084D01*
X156732196Y-93463512D01*
X156662564Y-93487205D01*
X156592403Y-93511567D01*
X156523323Y-93536004D01*
X156456935Y-93559921D01*
X156394846Y-93582721D01*
X156338668Y-93603810D01*
X156290009Y-93622593D01*
X156250479Y-93638474D01*
X156221688Y-93650859D01*
X156205245Y-93659152D01*
X156201937Y-93662127D01*
X156204755Y-93664310D01*
X156213698Y-93668303D01*
X156229501Y-93674348D01*
X156252896Y-93682685D01*
X156284619Y-93693557D01*
X156325404Y-93707205D01*
X156375984Y-93723870D01*
X156437094Y-93743794D01*
X156509467Y-93767218D01*
X156593838Y-93794383D01*
X156690940Y-93825532D01*
X156801509Y-93860905D01*
X156926277Y-93900743D01*
X156963937Y-93912757D01*
X157119342Y-93962465D01*
X157260842Y-94008047D01*
X157389735Y-94049948D01*
X157507318Y-94088618D01*
X157614887Y-94124503D01*
X157713741Y-94158050D01*
X157805177Y-94189707D01*
X157890490Y-94219922D01*
X157970980Y-94249142D01*
X158047942Y-94277814D01*
X158122674Y-94306386D01*
X158196474Y-94335305D01*
X158243978Y-94354267D01*
X158466854Y-94447607D01*
X158674730Y-94542599D01*
X158868440Y-94639766D01*
X159048819Y-94739632D01*
X159216701Y-94842719D01*
X159372921Y-94949551D01*
X159518314Y-95060651D01*
X159653715Y-95176543D01*
X159779957Y-95297749D01*
X159827023Y-95346716D01*
X159856834Y-95378822D01*
X159885262Y-95410116D01*
X159909149Y-95437082D01*
X159925338Y-95456203D01*
X159925720Y-95456679D01*
X159952406Y-95490014D01*
X160015906Y-95485951D01*
X160048058Y-95482287D01*
X160090267Y-95475198D01*
X160137339Y-95465661D01*
X160184078Y-95454656D01*
X160189694Y-95453211D01*
X160249647Y-95438753D01*
X160307071Y-95427014D01*
X160359306Y-95418387D01*
X160403692Y-95413268D01*
X160437569Y-95412050D01*
X160454682Y-95413983D01*
X160473953Y-95418820D01*
X160468833Y-95340363D01*
X160460619Y-95233435D01*
X160449994Y-95130586D01*
X160436417Y-95028284D01*
X160419344Y-94922994D01*
X160398235Y-94811184D01*
X160372548Y-94689318D01*
X160361279Y-94638775D01*
X160337692Y-94533941D01*
X160317482Y-94443172D01*
X160300355Y-94365089D01*
X160286016Y-94298311D01*
X160274172Y-94241459D01*
X160264529Y-94193153D01*
X160256792Y-94152014D01*
X160253287Y-94132199D01*
X160246627Y-94093789D01*
X160243836Y-94067839D01*
X160247024Y-94051031D01*
X160258304Y-94040046D01*
X160279787Y-94031566D01*
X160313586Y-94022275D01*
X160325235Y-94019159D01*
X160400263Y-94005390D01*
X160470230Y-94005656D01*
X160534200Y-94019791D01*
X160591234Y-94047628D01*
X160623458Y-94072371D01*
X160657009Y-94106775D01*
X160687432Y-94147339D01*
X160714979Y-94195008D01*
X160739900Y-94250729D01*
X160762446Y-94315448D01*
X160782868Y-94390111D01*
X160801418Y-94475664D01*
X160818345Y-94573054D01*
X160833901Y-94683225D01*
X160848337Y-94807124D01*
X160861904Y-94945698D01*
X160865307Y-94984093D01*
X160870859Y-95047048D01*
X160876350Y-95107611D01*
X160881535Y-95163203D01*
X160886168Y-95211246D01*
X160890004Y-95249162D01*
X160892799Y-95274374D01*
X160893226Y-95277781D01*
X160896903Y-95307875D01*
X160899586Y-95333246D01*
X160900692Y-95348332D01*
X160901571Y-95353801D01*
X160905490Y-95357626D01*
X160914681Y-95359982D01*
X160931374Y-95361042D01*
X160957804Y-95360980D01*
X160996202Y-95359969D01*
X161033890Y-95358705D01*
X161161231Y-95350278D01*
X161286233Y-95334409D01*
X161293843Y-95333173D01*
X161379479Y-95320972D01*
X161464533Y-95313055D01*
X161556836Y-95308706D01*
X161563718Y-95308518D01*
X161706593Y-95304780D01*
X161705995Y-95235718D01*
X161705228Y-95210228D01*
X161703092Y-95184423D01*
X161699159Y-95156543D01*
X161693001Y-95124825D01*
X161684192Y-95087509D01*
X161672303Y-95042835D01*
X161656907Y-94989042D01*
X161637577Y-94924368D01*
X161613885Y-94847053D01*
X161603477Y-94813437D01*
X161568890Y-94699415D01*
X161540148Y-94599034D01*
X161516995Y-94511281D01*
X161499172Y-94435141D01*
X161486422Y-94369602D01*
X161480415Y-94329787D01*
X161474675Y-94252287D01*
X161479032Y-94186633D01*
X161493435Y-94132946D01*
X161517837Y-94091346D01*
X161552187Y-94061953D01*
X161596436Y-94044888D01*
X161597496Y-94044657D01*
X161645552Y-94040721D01*
X161691216Y-94050377D01*
X161734975Y-94074029D01*
X161777314Y-94112080D01*
X161818718Y-94164937D01*
X161859674Y-94233002D01*
X161885836Y-94284650D01*
X161916550Y-94354357D01*
X161946201Y-94432979D01*
X161975151Y-94521751D01*
X162003762Y-94621910D01*
X162032396Y-94734693D01*
X162061416Y-94861335D01*
X162079337Y-94945321D01*
X162090742Y-95000001D01*
X162101899Y-95053319D01*
X162112110Y-95101965D01*
X162120681Y-95142626D01*
X162126916Y-95171991D01*
X162128159Y-95177787D01*
X162140808Y-95236542D01*
X162281962Y-95231243D01*
X162362458Y-95227433D01*
X162442046Y-95221945D01*
X162522566Y-95214512D01*
X162605860Y-95204861D01*
X162693767Y-95192725D01*
X162788129Y-95177832D01*
X162890785Y-95159913D01*
X163003578Y-95138699D01*
X163128346Y-95113918D01*
X163242500Y-95090411D01*
X163375014Y-95063216D01*
X163493451Y-95039855D01*
X163597584Y-95020368D01*
X163687183Y-95004794D01*
X163762019Y-94993176D01*
X163821863Y-94985552D01*
X163848526Y-94983060D01*
X163915012Y-94977950D01*
X163920089Y-95005010D01*
X163920283Y-95038086D01*
X163910917Y-95082229D01*
X163892312Y-95136082D01*
X163884627Y-95154750D01*
X163874484Y-95178392D01*
X163867081Y-95195326D01*
X163864385Y-95201157D01*
X163855954Y-95203360D01*
X163833058Y-95207296D01*
X163796995Y-95212800D01*
X163749062Y-95219705D01*
X163690554Y-95227845D01*
X163622769Y-95237054D01*
X163547003Y-95247166D01*
X163464553Y-95258013D01*
X163376716Y-95269429D01*
X163284788Y-95281249D01*
X163190066Y-95293305D01*
X163093846Y-95305432D01*
X162997426Y-95317463D01*
X162902102Y-95329232D01*
X162809171Y-95340571D01*
X162719929Y-95351316D01*
X162635674Y-95361300D01*
X162557701Y-95370355D01*
X162487307Y-95378317D01*
X162460750Y-95381247D01*
X162398130Y-95388154D01*
X162340744Y-95394597D01*
X162290445Y-95400359D01*
X162249091Y-95405222D01*
X162218536Y-95408969D01*
X162200635Y-95411383D01*
X162196635Y-95412156D01*
X162198309Y-95420025D01*
X162204327Y-95440567D01*
X162213949Y-95471416D01*
X162226438Y-95510206D01*
X162241054Y-95554571D01*
X162241679Y-95556448D01*
X162261259Y-95616689D01*
X162280060Y-95677807D01*
X162298571Y-95741691D01*
X162317285Y-95810229D01*
X162336691Y-95885308D01*
X162357281Y-95968817D01*
X162379544Y-96062644D01*
X162403973Y-96168678D01*
X162425050Y-96261982D01*
X162445698Y-96353792D01*
X162463464Y-96432156D01*
X162478851Y-96499137D01*
X162492364Y-96556800D01*
X162504507Y-96607208D01*
X162515786Y-96652424D01*
X162526703Y-96694511D01*
X162537765Y-96735534D01*
X162549476Y-96777555D01*
X162560906Y-96817656D01*
X162580699Y-96884288D01*
X162598707Y-96939184D01*
X162616450Y-96986136D01*
X162635442Y-97028935D01*
X162657200Y-97071375D01*
X162675181Y-97103406D01*
X162709182Y-97163616D01*
X162735405Y-97213218D01*
X162755029Y-97254710D01*
X162769236Y-97290589D01*
X162779205Y-97323352D01*
X162779308Y-97323750D01*
X162786700Y-97366826D01*
X162787841Y-97410256D01*
X162783303Y-97450751D01*
X162773663Y-97485025D01*
X162759492Y-97509791D01*
X162744915Y-97520691D01*
X162713034Y-97526817D01*
X162672732Y-97525740D01*
X162629601Y-97517714D01*
X162620320Y-97515051D01*
X162583959Y-97497260D01*
X162546408Y-97467248D01*
X162510798Y-97428070D01*
X162480258Y-97382783D01*
X162474996Y-97373188D01*
X162462177Y-97346949D01*
X162445803Y-97310643D01*
X162427967Y-97269038D01*
X162410763Y-97226905D01*
X162410540Y-97226344D01*
X162393386Y-97183617D01*
X162372170Y-97131599D01*
X162349073Y-97075596D01*
X162326278Y-97020914D01*
X162315595Y-96995534D01*
X162275368Y-96897662D01*
X162231380Y-96785500D01*
X162183544Y-96658819D01*
X162131777Y-96517394D01*
X162075994Y-96360997D01*
X162043466Y-96268217D01*
X161999775Y-96142977D01*
X161960939Y-96031832D01*
X161926633Y-95933867D01*
X161896538Y-95848170D01*
X161870330Y-95773827D01*
X161847687Y-95709925D01*
X161828287Y-95655550D01*
X161811808Y-95609789D01*
X161797927Y-95571730D01*
X161794907Y-95563531D01*
X161759737Y-95468281D01*
X161721259Y-95469618D01*
X161702284Y-95470934D01*
X161669728Y-95473921D01*
X161625771Y-95478334D01*
X161572589Y-95483924D01*
X161512362Y-95490445D01*
X161447267Y-95497650D01*
X161379484Y-95505293D01*
X161311189Y-95513127D01*
X161244562Y-95520904D01*
X161181781Y-95528378D01*
X161125023Y-95535302D01*
X161076468Y-95541429D01*
X161038293Y-95546513D01*
X161021984Y-95548854D01*
X160932687Y-95562223D01*
X160932687Y-95607342D01*
X160934066Y-95630121D01*
X160937886Y-95664904D01*
X160943672Y-95708092D01*
X160950951Y-95756086D01*
X160957356Y-95794528D01*
X160969153Y-95867899D01*
X160977133Y-95931684D01*
X160981885Y-95991545D01*
X160983952Y-96050218D01*
X160985120Y-96097827D01*
X160986927Y-96131923D01*
X160989638Y-96154867D01*
X160993515Y-96169015D01*
X160997982Y-96175946D01*
X161008843Y-96184737D01*
X161030070Y-96200295D01*
X161058817Y-96220587D01*
X161092239Y-96243580D01*
X161100042Y-96248870D01*
X161147967Y-96282983D01*
X161183599Y-96312992D01*
X161209038Y-96341497D01*
X161226382Y-96371094D01*
X161237730Y-96404383D01*
X161242093Y-96424750D01*
X161246772Y-96482621D01*
X161238130Y-96531885D01*
X161216171Y-96572523D01*
X161206502Y-96583529D01*
X161175272Y-96611242D01*
X161142235Y-96630655D01*
X161103897Y-96642929D01*
X161056767Y-96649223D01*
X161004125Y-96650734D01*
X160956818Y-96649622D01*
X160913485Y-96646066D01*
X160870331Y-96639343D01*
X160823563Y-96628735D01*
X160769389Y-96613519D01*
X160709540Y-96594766D01*
X160624303Y-96567210D01*
X160612325Y-96513839D01*
X160595141Y-96431270D01*
X160577872Y-96337085D01*
X160561212Y-96235523D01*
X160545856Y-96130824D01*
X160532497Y-96027227D01*
X160532102Y-96023906D01*
X160528188Y-95989360D01*
X160523622Y-95946570D01*
X160518679Y-95898375D01*
X160513630Y-95847613D01*
X160508748Y-95797123D01*
X160504305Y-95749744D01*
X160500576Y-95708316D01*
X160497831Y-95675676D01*
X160496344Y-95654664D01*
X160496157Y-95649644D01*
X160490469Y-95646077D01*
X160472601Y-95647018D01*
X160441286Y-95652576D01*
X160427384Y-95655530D01*
X160403560Y-95661064D01*
X160370320Y-95669234D01*
X160330338Y-95679336D01*
X160286290Y-95690665D01*
X160240850Y-95702518D01*
X160196696Y-95714192D01*
X160156500Y-95724982D01*
X160122940Y-95734184D01*
X160098689Y-95741096D01*
X160086424Y-95745012D01*
X160085510Y-95745468D01*
X160087497Y-95752992D01*
X160094400Y-95771523D01*
X160104865Y-95797485D01*
X160108259Y-95805621D01*
X160139965Y-95901114D01*
X160158042Y-96003208D01*
X160162485Y-96110350D01*
X160153287Y-96220991D01*
X160130444Y-96333581D01*
X160110407Y-96400767D01*
X160059640Y-96528675D01*
X159994874Y-96652186D01*
X159917552Y-96769404D01*
X159829119Y-96878434D01*
X159731020Y-96977381D01*
X159624699Y-97064350D01*
X159581629Y-97094405D01*
X159442256Y-97177618D01*
X159294127Y-97247645D01*
X159137355Y-97304467D01*
X158972052Y-97348063D01*
X158798329Y-97378415D01*
X158616300Y-97395503D01*
X158426077Y-97399309D01*
X158227771Y-97389812D01*
X158021496Y-97366993D01*
X158007718Y-97365035D01*
X157835689Y-97336165D01*
X157678323Y-97301234D01*
X157535608Y-97260239D01*
X157407535Y-97213176D01*
X157338574Y-97182437D01*
X157261257Y-97143437D01*
X157196124Y-97105978D01*
X157139908Y-97067947D01*
X157089345Y-97027229D01*
X157065973Y-97005968D01*
X157020157Y-96958586D01*
X156986826Y-96913788D01*
X156963765Y-96868174D01*
X156951689Y-96830659D01*
X156947356Y-96811921D01*
X157378114Y-96811921D01*
X157385085Y-96848101D01*
X157400875Y-96880992D01*
X157427269Y-96914585D01*
X157456829Y-96944277D01*
X157508675Y-96985554D01*
X157574419Y-97025469D01*
X157652096Y-97063359D01*
X157739745Y-97098560D01*
X157835401Y-97130411D01*
X157937103Y-97158249D01*
X158042888Y-97181410D01*
X158150792Y-97199232D01*
X158242956Y-97209710D01*
X158302485Y-97214426D01*
X158351848Y-97216767D01*
X158396578Y-97216743D01*
X158442203Y-97214365D01*
X158489080Y-97210172D01*
X158622172Y-97190317D01*
X158753600Y-97158392D01*
X158882099Y-97115285D01*
X159006406Y-97061884D01*
X159125255Y-96999077D01*
X159237382Y-96927752D01*
X159341522Y-96848796D01*
X159436412Y-96763097D01*
X159520785Y-96671543D01*
X159593378Y-96575021D01*
X159652927Y-96474420D01*
X159698166Y-96370628D01*
X159702460Y-96358332D01*
X159722660Y-96291745D01*
X159735416Y-96230148D01*
X159741892Y-96166372D01*
X159743329Y-96106359D01*
X159735321Y-96000091D01*
X159711668Y-95896459D01*
X159686454Y-95827000D01*
X159671719Y-95792134D01*
X159661284Y-95769732D01*
X159653207Y-95757663D01*
X159645548Y-95753795D01*
X159636368Y-95755994D01*
X159626271Y-95760865D01*
X159608124Y-95767884D01*
X159579525Y-95776714D01*
X159545543Y-95785834D01*
X159531718Y-95789191D01*
X159382290Y-95824357D01*
X159247226Y-95856303D01*
X159125417Y-95885348D01*
X159015750Y-95911811D01*
X158917115Y-95936011D01*
X158828402Y-95958267D01*
X158748498Y-95978896D01*
X158676294Y-95998219D01*
X158610679Y-96016554D01*
X158550541Y-96034219D01*
X158494770Y-96051534D01*
X158442255Y-96068816D01*
X158391885Y-96086386D01*
X158342549Y-96104562D01*
X158293135Y-96123663D01*
X158242535Y-96144006D01*
X158189635Y-96165912D01*
X158133326Y-96189699D01*
X158127675Y-96192104D01*
X157993852Y-96250976D01*
X157875023Y-96307306D01*
X157770572Y-96361447D01*
X157679883Y-96413754D01*
X157602341Y-96464580D01*
X157537332Y-96514278D01*
X157487812Y-96559560D01*
X157442262Y-96610286D01*
X157409973Y-96657901D01*
X157389476Y-96705205D01*
X157379299Y-96755001D01*
X157378177Y-96768463D01*
X157378114Y-96811921D01*
X156947356Y-96811921D01*
X156945349Y-96803244D01*
X156942898Y-96781394D01*
X156944311Y-96758610D01*
X156949567Y-96728395D01*
X156951299Y-96719798D01*
X156969651Y-96656298D01*
X156999229Y-96587038D01*
X157038213Y-96515307D01*
X157084786Y-96444394D01*
X157137129Y-96377587D01*
X157146451Y-96366896D01*
X157197873Y-96316085D01*
X157263127Y-96263478D01*
X157340438Y-96210173D01*
X157428030Y-96157267D01*
X157524125Y-96105858D01*
X157626948Y-96057043D01*
X157695582Y-96027621D01*
X157763074Y-96000793D01*
X157832758Y-95975011D01*
X157905840Y-95949959D01*
X157983521Y-95925321D01*
X158067008Y-95900781D01*
X158157503Y-95876022D01*
X158256211Y-95850726D01*
X158364336Y-95824579D01*
X158483083Y-95797263D01*
X158613654Y-95768462D01*
X158757255Y-95737859D01*
X158915090Y-95705138D01*
X158948312Y-95698344D01*
X159056775Y-95676036D01*
X159157765Y-95654919D01*
X159249983Y-95635277D01*
X159332133Y-95617392D01*
X159402916Y-95601549D01*
X159461035Y-95588030D01*
X159505192Y-95577119D01*
X159514209Y-95574750D01*
X159544325Y-95566699D01*
X159518240Y-95533365D01*
X159495503Y-95506426D01*
X159463308Y-95471196D01*
X159423997Y-95430002D01*
X159379909Y-95385175D01*
X159333386Y-95339043D01*
X159286769Y-95293937D01*
X159242397Y-95252184D01*
X159202613Y-95216116D01*
X159178500Y-95195289D01*
X158993732Y-95050124D01*
X158795772Y-94913567D01*
X158584842Y-94785737D01*
X158361165Y-94666754D01*
X158124962Y-94556739D01*
X157876458Y-94455809D01*
X157658468Y-94378171D01*
X157594612Y-94357075D01*
X157533783Y-94337628D01*
X157473728Y-94319202D01*
X157412192Y-94301169D01*
X157346921Y-94282903D01*
X157275661Y-94263773D01*
X157196158Y-94243154D01*
X157106158Y-94220416D01*
X157003406Y-94194932D01*
X156979812Y-94189127D01*
X156870804Y-94162177D01*
X156774975Y-94138095D01*
X156690017Y-94116244D01*
X156613627Y-94095988D01*
X156543498Y-94076690D01*
X156477325Y-94057715D01*
X156412803Y-94038425D01*
X156347625Y-94018184D01*
X156279487Y-93996357D01*
X156268466Y-93992775D01*
X156214028Y-93975244D01*
X156158071Y-93957553D01*
X156104762Y-93940997D01*
X156058270Y-93926871D01*
X156023343Y-93916634D01*
X155926105Y-93887898D01*
X155843483Y-93860808D01*
X155774382Y-93834739D01*
X155717708Y-93809063D01*
X155672365Y-93783155D01*
X155637259Y-93756389D01*
X155611294Y-93728138D01*
X155593375Y-93697776D01*
X155582408Y-93664678D01*
X155582366Y-93664490D01*
X155579293Y-93624166D01*
X155590442Y-93589592D01*
X155610475Y-93563928D01*
X155640204Y-93540204D01*
X155683927Y-93513915D01*
X155740097Y-93485736D01*
X155807167Y-93456343D01*
X155883591Y-93426410D01*
X155967821Y-93396615D01*
X156058312Y-93367631D01*
X156063834Y-93365955D01*
X156121619Y-93348922D01*
X156192626Y-93328741D01*
X156274645Y-93305987D01*
X156365465Y-93281237D01*
X156462877Y-93255069D01*
X156564671Y-93228060D01*
X156668637Y-93200785D01*
X156772565Y-93173823D01*
X156874245Y-93147751D01*
X156971468Y-93123144D01*
X157062022Y-93100580D01*
X157143699Y-93080637D01*
X157214289Y-93063890D01*
X157265562Y-93052237D01*
X157486209Y-93006443D01*
X157696665Y-92968832D01*
X157900117Y-92939033D01*
X158099748Y-92916679D01*
X158298745Y-92901401D01*
X158500292Y-92892831D01*
X158662562Y-92890562D01*
X158896718Y-92890034D01*
X159015781Y-92955526D01*
G37*
X159015781Y-92955526D02*
X159068434Y-92984793D01*
X159109432Y-93008469D01*
X159141237Y-93028221D01*
X159166312Y-93045719D01*
X159187120Y-93062630D01*
X159206123Y-93080624D01*
X159216887Y-93091787D01*
X159232248Y-93110174D01*
X159248604Y-93132913D01*
X159263554Y-93156174D01*
X159274701Y-93176130D01*
X159279643Y-93188952D01*
X159279260Y-93191322D01*
X159271215Y-93190370D01*
X159251209Y-93186152D01*
X159222638Y-93179416D01*
X159201627Y-93174182D01*
X159108252Y-93153474D01*
X159003734Y-93135641D01*
X158892661Y-93121399D01*
X158816333Y-93114178D01*
X158756176Y-93110695D01*
X158683871Y-93108745D01*
X158603064Y-93108258D01*
X158517400Y-93109160D01*
X158430524Y-93111381D01*
X158346082Y-93114848D01*
X158267720Y-93119490D01*
X158199082Y-93125236D01*
X158186312Y-93126569D01*
X157935744Y-93159933D01*
X157676662Y-93206462D01*
X157409335Y-93266095D01*
X157134030Y-93338771D01*
X156851014Y-93424429D01*
X156799691Y-93441084D01*
X156732196Y-93463512D01*
X156662564Y-93487205D01*
X156592403Y-93511567D01*
X156523323Y-93536004D01*
X156456935Y-93559921D01*
X156394846Y-93582721D01*
X156338668Y-93603810D01*
X156290009Y-93622593D01*
X156250479Y-93638474D01*
X156221688Y-93650859D01*
X156205245Y-93659152D01*
X156201937Y-93662127D01*
X156204755Y-93664310D01*
X156213698Y-93668303D01*
X156229501Y-93674348D01*
X156252896Y-93682685D01*
X156284619Y-93693557D01*
X156325404Y-93707205D01*
X156375984Y-93723870D01*
X156437094Y-93743794D01*
X156509467Y-93767218D01*
X156593838Y-93794383D01*
X156690940Y-93825532D01*
X156801509Y-93860905D01*
X156926277Y-93900743D01*
X156963937Y-93912757D01*
X157119342Y-93962465D01*
X157260842Y-94008047D01*
X157389735Y-94049948D01*
X157507318Y-94088618D01*
X157614887Y-94124503D01*
X157713741Y-94158050D01*
X157805177Y-94189707D01*
X157890490Y-94219922D01*
X157970980Y-94249142D01*
X158047942Y-94277814D01*
X158122674Y-94306386D01*
X158196474Y-94335305D01*
X158243978Y-94354267D01*
X158466854Y-94447607D01*
X158674730Y-94542599D01*
X158868440Y-94639766D01*
X159048819Y-94739632D01*
X159216701Y-94842719D01*
X159372921Y-94949551D01*
X159518314Y-95060651D01*
X159653715Y-95176543D01*
X159779957Y-95297749D01*
X159827023Y-95346716D01*
X159856834Y-95378822D01*
X159885262Y-95410116D01*
X159909149Y-95437082D01*
X159925338Y-95456203D01*
X159925720Y-95456679D01*
X159952406Y-95490014D01*
X160015906Y-95485951D01*
X160048058Y-95482287D01*
X160090267Y-95475198D01*
X160137339Y-95465661D01*
X160184078Y-95454656D01*
X160189694Y-95453211D01*
X160249647Y-95438753D01*
X160307071Y-95427014D01*
X160359306Y-95418387D01*
X160403692Y-95413268D01*
X160437569Y-95412050D01*
X160454682Y-95413983D01*
X160473953Y-95418820D01*
X160468833Y-95340363D01*
X160460619Y-95233435D01*
X160449994Y-95130586D01*
X160436417Y-95028284D01*
X160419344Y-94922994D01*
X160398235Y-94811184D01*
X160372548Y-94689318D01*
X160361279Y-94638775D01*
X160337692Y-94533941D01*
X160317482Y-94443172D01*
X160300355Y-94365089D01*
X160286016Y-94298311D01*
X160274172Y-94241459D01*
X160264529Y-94193153D01*
X160256792Y-94152014D01*
X160253287Y-94132199D01*
X160246627Y-94093789D01*
X160243836Y-94067839D01*
X160247024Y-94051031D01*
X160258304Y-94040046D01*
X160279787Y-94031566D01*
X160313586Y-94022275D01*
X160325235Y-94019159D01*
X160400263Y-94005390D01*
X160470230Y-94005656D01*
X160534200Y-94019791D01*
X160591234Y-94047628D01*
X160623458Y-94072371D01*
X160657009Y-94106775D01*
X160687432Y-94147339D01*
X160714979Y-94195008D01*
X160739900Y-94250729D01*
X160762446Y-94315448D01*
X160782868Y-94390111D01*
X160801418Y-94475664D01*
X160818345Y-94573054D01*
X160833901Y-94683225D01*
X160848337Y-94807124D01*
X160861904Y-94945698D01*
X160865307Y-94984093D01*
X160870859Y-95047048D01*
X160876350Y-95107611D01*
X160881535Y-95163203D01*
X160886168Y-95211246D01*
X160890004Y-95249162D01*
X160892799Y-95274374D01*
X160893226Y-95277781D01*
X160896903Y-95307875D01*
X160899586Y-95333246D01*
X160900692Y-95348332D01*
X160901571Y-95353801D01*
X160905490Y-95357626D01*
X160914681Y-95359982D01*
X160931374Y-95361042D01*
X160957804Y-95360980D01*
X160996202Y-95359969D01*
X161033890Y-95358705D01*
X161161231Y-95350278D01*
X161286233Y-95334409D01*
X161293843Y-95333173D01*
X161379479Y-95320972D01*
X161464533Y-95313055D01*
X161556836Y-95308706D01*
X161563718Y-95308518D01*
X161706593Y-95304780D01*
X161705995Y-95235718D01*
X161705228Y-95210228D01*
X161703092Y-95184423D01*
X161699159Y-95156543D01*
X161693001Y-95124825D01*
X161684192Y-95087509D01*
X161672303Y-95042835D01*
X161656907Y-94989042D01*
X161637577Y-94924368D01*
X161613885Y-94847053D01*
X161603477Y-94813437D01*
X161568890Y-94699415D01*
X161540148Y-94599034D01*
X161516995Y-94511281D01*
X161499172Y-94435141D01*
X161486422Y-94369602D01*
X161480415Y-94329787D01*
X161474675Y-94252287D01*
X161479032Y-94186633D01*
X161493435Y-94132946D01*
X161517837Y-94091346D01*
X161552187Y-94061953D01*
X161596436Y-94044888D01*
X161597496Y-94044657D01*
X161645552Y-94040721D01*
X161691216Y-94050377D01*
X161734975Y-94074029D01*
X161777314Y-94112080D01*
X161818718Y-94164937D01*
X161859674Y-94233002D01*
X161885836Y-94284650D01*
X161916550Y-94354357D01*
X161946201Y-94432979D01*
X161975151Y-94521751D01*
X162003762Y-94621910D01*
X162032396Y-94734693D01*
X162061416Y-94861335D01*
X162079337Y-94945321D01*
X162090742Y-95000001D01*
X162101899Y-95053319D01*
X162112110Y-95101965D01*
X162120681Y-95142626D01*
X162126916Y-95171991D01*
X162128159Y-95177787D01*
X162140808Y-95236542D01*
X162281962Y-95231243D01*
X162362458Y-95227433D01*
X162442046Y-95221945D01*
X162522566Y-95214512D01*
X162605860Y-95204861D01*
X162693767Y-95192725D01*
X162788129Y-95177832D01*
X162890785Y-95159913D01*
X163003578Y-95138699D01*
X163128346Y-95113918D01*
X163242500Y-95090411D01*
X163375014Y-95063216D01*
X163493451Y-95039855D01*
X163597584Y-95020368D01*
X163687183Y-95004794D01*
X163762019Y-94993176D01*
X163821863Y-94985552D01*
X163848526Y-94983060D01*
X163915012Y-94977950D01*
X163920089Y-95005010D01*
X163920283Y-95038086D01*
X163910917Y-95082229D01*
X163892312Y-95136082D01*
X163884627Y-95154750D01*
X163874484Y-95178392D01*
X163867081Y-95195326D01*
X163864385Y-95201157D01*
X163855954Y-95203360D01*
X163833058Y-95207296D01*
X163796995Y-95212800D01*
X163749062Y-95219705D01*
X163690554Y-95227845D01*
X163622769Y-95237054D01*
X163547003Y-95247166D01*
X163464553Y-95258013D01*
X163376716Y-95269429D01*
X163284788Y-95281249D01*
X163190066Y-95293305D01*
X163093846Y-95305432D01*
X162997426Y-95317463D01*
X162902102Y-95329232D01*
X162809171Y-95340571D01*
X162719929Y-95351316D01*
X162635674Y-95361300D01*
X162557701Y-95370355D01*
X162487307Y-95378317D01*
X162460750Y-95381247D01*
X162398130Y-95388154D01*
X162340744Y-95394597D01*
X162290445Y-95400359D01*
X162249091Y-95405222D01*
X162218536Y-95408969D01*
X162200635Y-95411383D01*
X162196635Y-95412156D01*
X162198309Y-95420025D01*
X162204327Y-95440567D01*
X162213949Y-95471416D01*
X162226438Y-95510206D01*
X162241054Y-95554571D01*
X162241679Y-95556448D01*
X162261259Y-95616689D01*
X162280060Y-95677807D01*
X162298571Y-95741691D01*
X162317285Y-95810229D01*
X162336691Y-95885308D01*
X162357281Y-95968817D01*
X162379544Y-96062644D01*
X162403973Y-96168678D01*
X162425050Y-96261982D01*
X162445698Y-96353792D01*
X162463464Y-96432156D01*
X162478851Y-96499137D01*
X162492364Y-96556800D01*
X162504507Y-96607208D01*
X162515786Y-96652424D01*
X162526703Y-96694511D01*
X162537765Y-96735534D01*
X162549476Y-96777555D01*
X162560906Y-96817656D01*
X162580699Y-96884288D01*
X162598707Y-96939184D01*
X162616450Y-96986136D01*
X162635442Y-97028935D01*
X162657200Y-97071375D01*
X162675181Y-97103406D01*
X162709182Y-97163616D01*
X162735405Y-97213218D01*
X162755029Y-97254710D01*
X162769236Y-97290589D01*
X162779205Y-97323352D01*
X162779308Y-97323750D01*
X162786700Y-97366826D01*
X162787841Y-97410256D01*
X162783303Y-97450751D01*
X162773663Y-97485025D01*
X162759492Y-97509791D01*
X162744915Y-97520691D01*
X162713034Y-97526817D01*
X162672732Y-97525740D01*
X162629601Y-97517714D01*
X162620320Y-97515051D01*
X162583959Y-97497260D01*
X162546408Y-97467248D01*
X162510798Y-97428070D01*
X162480258Y-97382783D01*
X162474996Y-97373188D01*
X162462177Y-97346949D01*
X162445803Y-97310643D01*
X162427967Y-97269038D01*
X162410763Y-97226905D01*
X162410540Y-97226344D01*
X162393386Y-97183617D01*
X162372170Y-97131599D01*
X162349073Y-97075596D01*
X162326278Y-97020914D01*
X162315595Y-96995534D01*
X162275368Y-96897662D01*
X162231380Y-96785500D01*
X162183544Y-96658819D01*
X162131777Y-96517394D01*
X162075994Y-96360997D01*
X162043466Y-96268217D01*
X161999775Y-96142977D01*
X161960939Y-96031832D01*
X161926633Y-95933867D01*
X161896538Y-95848170D01*
X161870330Y-95773827D01*
X161847687Y-95709925D01*
X161828287Y-95655550D01*
X161811808Y-95609789D01*
X161797927Y-95571730D01*
X161794907Y-95563531D01*
X161759737Y-95468281D01*
X161721259Y-95469618D01*
X161702284Y-95470934D01*
X161669728Y-95473921D01*
X161625771Y-95478334D01*
X161572589Y-95483924D01*
X161512362Y-95490445D01*
X161447267Y-95497650D01*
X161379484Y-95505293D01*
X161311189Y-95513127D01*
X161244562Y-95520904D01*
X161181781Y-95528378D01*
X161125023Y-95535302D01*
X161076468Y-95541429D01*
X161038293Y-95546513D01*
X161021984Y-95548854D01*
X160932687Y-95562223D01*
X160932687Y-95607342D01*
X160934066Y-95630121D01*
X160937886Y-95664904D01*
X160943672Y-95708092D01*
X160950951Y-95756086D01*
X160957356Y-95794528D01*
X160969153Y-95867899D01*
X160977133Y-95931684D01*
X160981885Y-95991545D01*
X160983952Y-96050218D01*
X160985120Y-96097827D01*
X160986927Y-96131923D01*
X160989638Y-96154867D01*
X160993515Y-96169015D01*
X160997982Y-96175946D01*
X161008843Y-96184737D01*
X161030070Y-96200295D01*
X161058817Y-96220587D01*
X161092239Y-96243580D01*
X161100042Y-96248870D01*
X161147967Y-96282983D01*
X161183599Y-96312992D01*
X161209038Y-96341497D01*
X161226382Y-96371094D01*
X161237730Y-96404383D01*
X161242093Y-96424750D01*
X161246772Y-96482621D01*
X161238130Y-96531885D01*
X161216171Y-96572523D01*
X161206502Y-96583529D01*
X161175272Y-96611242D01*
X161142235Y-96630655D01*
X161103897Y-96642929D01*
X161056767Y-96649223D01*
X161004125Y-96650734D01*
X160956818Y-96649622D01*
X160913485Y-96646066D01*
X160870331Y-96639343D01*
X160823563Y-96628735D01*
X160769389Y-96613519D01*
X160709540Y-96594766D01*
X160624303Y-96567210D01*
X160612325Y-96513839D01*
X160595141Y-96431270D01*
X160577872Y-96337085D01*
X160561212Y-96235523D01*
X160545856Y-96130824D01*
X160532497Y-96027227D01*
X160532102Y-96023906D01*
X160528188Y-95989360D01*
X160523622Y-95946570D01*
X160518679Y-95898375D01*
X160513630Y-95847613D01*
X160508748Y-95797123D01*
X160504305Y-95749744D01*
X160500576Y-95708316D01*
X160497831Y-95675676D01*
X160496344Y-95654664D01*
X160496157Y-95649644D01*
X160490469Y-95646077D01*
X160472601Y-95647018D01*
X160441286Y-95652576D01*
X160427384Y-95655530D01*
X160403560Y-95661064D01*
X160370320Y-95669234D01*
X160330338Y-95679336D01*
X160286290Y-95690665D01*
X160240850Y-95702518D01*
X160196696Y-95714192D01*
X160156500Y-95724982D01*
X160122940Y-95734184D01*
X160098689Y-95741096D01*
X160086424Y-95745012D01*
X160085510Y-95745468D01*
X160087497Y-95752992D01*
X160094400Y-95771523D01*
X160104865Y-95797485D01*
X160108259Y-95805621D01*
X160139965Y-95901114D01*
X160158042Y-96003208D01*
X160162485Y-96110350D01*
X160153287Y-96220991D01*
X160130444Y-96333581D01*
X160110407Y-96400767D01*
X160059640Y-96528675D01*
X159994874Y-96652186D01*
X159917552Y-96769404D01*
X159829119Y-96878434D01*
X159731020Y-96977381D01*
X159624699Y-97064350D01*
X159581629Y-97094405D01*
X159442256Y-97177618D01*
X159294127Y-97247645D01*
X159137355Y-97304467D01*
X158972052Y-97348063D01*
X158798329Y-97378415D01*
X158616300Y-97395503D01*
X158426077Y-97399309D01*
X158227771Y-97389812D01*
X158021496Y-97366993D01*
X158007718Y-97365035D01*
X157835689Y-97336165D01*
X157678323Y-97301234D01*
X157535608Y-97260239D01*
X157407535Y-97213176D01*
X157338574Y-97182437D01*
X157261257Y-97143437D01*
X157196124Y-97105978D01*
X157139908Y-97067947D01*
X157089345Y-97027229D01*
X157065973Y-97005968D01*
X157020157Y-96958586D01*
X156986826Y-96913788D01*
X156963765Y-96868174D01*
X156951689Y-96830659D01*
X156947356Y-96811921D01*
X157378114Y-96811921D01*
X157385085Y-96848101D01*
X157400875Y-96880992D01*
X157427269Y-96914585D01*
X157456829Y-96944277D01*
X157508675Y-96985554D01*
X157574419Y-97025469D01*
X157652096Y-97063359D01*
X157739745Y-97098560D01*
X157835401Y-97130411D01*
X157937103Y-97158249D01*
X158042888Y-97181410D01*
X158150792Y-97199232D01*
X158242956Y-97209710D01*
X158302485Y-97214426D01*
X158351848Y-97216767D01*
X158396578Y-97216743D01*
X158442203Y-97214365D01*
X158489080Y-97210172D01*
X158622172Y-97190317D01*
X158753600Y-97158392D01*
X158882099Y-97115285D01*
X159006406Y-97061884D01*
X159125255Y-96999077D01*
X159237382Y-96927752D01*
X159341522Y-96848796D01*
X159436412Y-96763097D01*
X159520785Y-96671543D01*
X159593378Y-96575021D01*
X159652927Y-96474420D01*
X159698166Y-96370628D01*
X159702460Y-96358332D01*
X159722660Y-96291745D01*
X159735416Y-96230148D01*
X159741892Y-96166372D01*
X159743329Y-96106359D01*
X159735321Y-96000091D01*
X159711668Y-95896459D01*
X159686454Y-95827000D01*
X159671719Y-95792134D01*
X159661284Y-95769732D01*
X159653207Y-95757663D01*
X159645548Y-95753795D01*
X159636368Y-95755994D01*
X159626271Y-95760865D01*
X159608124Y-95767884D01*
X159579525Y-95776714D01*
X159545543Y-95785834D01*
X159531718Y-95789191D01*
X159382290Y-95824357D01*
X159247226Y-95856303D01*
X159125417Y-95885348D01*
X159015750Y-95911811D01*
X158917115Y-95936011D01*
X158828402Y-95958267D01*
X158748498Y-95978896D01*
X158676294Y-95998219D01*
X158610679Y-96016554D01*
X158550541Y-96034219D01*
X158494770Y-96051534D01*
X158442255Y-96068816D01*
X158391885Y-96086386D01*
X158342549Y-96104562D01*
X158293135Y-96123663D01*
X158242535Y-96144006D01*
X158189635Y-96165912D01*
X158133326Y-96189699D01*
X158127675Y-96192104D01*
X157993852Y-96250976D01*
X157875023Y-96307306D01*
X157770572Y-96361447D01*
X157679883Y-96413754D01*
X157602341Y-96464580D01*
X157537332Y-96514278D01*
X157487812Y-96559560D01*
X157442262Y-96610286D01*
X157409973Y-96657901D01*
X157389476Y-96705205D01*
X157379299Y-96755001D01*
X157378177Y-96768463D01*
X157378114Y-96811921D01*
X156947356Y-96811921D01*
X156945349Y-96803244D01*
X156942898Y-96781394D01*
X156944311Y-96758610D01*
X156949567Y-96728395D01*
X156951299Y-96719798D01*
X156969651Y-96656298D01*
X156999229Y-96587038D01*
X157038213Y-96515307D01*
X157084786Y-96444394D01*
X157137129Y-96377587D01*
X157146451Y-96366896D01*
X157197873Y-96316085D01*
X157263127Y-96263478D01*
X157340438Y-96210173D01*
X157428030Y-96157267D01*
X157524125Y-96105858D01*
X157626948Y-96057043D01*
X157695582Y-96027621D01*
X157763074Y-96000793D01*
X157832758Y-95975011D01*
X157905840Y-95949959D01*
X157983521Y-95925321D01*
X158067008Y-95900781D01*
X158157503Y-95876022D01*
X158256211Y-95850726D01*
X158364336Y-95824579D01*
X158483083Y-95797263D01*
X158613654Y-95768462D01*
X158757255Y-95737859D01*
X158915090Y-95705138D01*
X158948312Y-95698344D01*
X159056775Y-95676036D01*
X159157765Y-95654919D01*
X159249983Y-95635277D01*
X159332133Y-95617392D01*
X159402916Y-95601549D01*
X159461035Y-95588030D01*
X159505192Y-95577119D01*
X159514209Y-95574750D01*
X159544325Y-95566699D01*
X159518240Y-95533365D01*
X159495503Y-95506426D01*
X159463308Y-95471196D01*
X159423997Y-95430002D01*
X159379909Y-95385175D01*
X159333386Y-95339043D01*
X159286769Y-95293937D01*
X159242397Y-95252184D01*
X159202613Y-95216116D01*
X159178500Y-95195289D01*
X158993732Y-95050124D01*
X158795772Y-94913567D01*
X158584842Y-94785737D01*
X158361165Y-94666754D01*
X158124962Y-94556739D01*
X157876458Y-94455809D01*
X157658468Y-94378171D01*
X157594612Y-94357075D01*
X157533783Y-94337628D01*
X157473728Y-94319202D01*
X157412192Y-94301169D01*
X157346921Y-94282903D01*
X157275661Y-94263773D01*
X157196158Y-94243154D01*
X157106158Y-94220416D01*
X157003406Y-94194932D01*
X156979812Y-94189127D01*
X156870804Y-94162177D01*
X156774975Y-94138095D01*
X156690017Y-94116244D01*
X156613627Y-94095988D01*
X156543498Y-94076690D01*
X156477325Y-94057715D01*
X156412803Y-94038425D01*
X156347625Y-94018184D01*
X156279487Y-93996357D01*
X156268466Y-93992775D01*
X156214028Y-93975244D01*
X156158071Y-93957553D01*
X156104762Y-93940997D01*
X156058270Y-93926871D01*
X156023343Y-93916634D01*
X155926105Y-93887898D01*
X155843483Y-93860808D01*
X155774382Y-93834739D01*
X155717708Y-93809063D01*
X155672365Y-93783155D01*
X155637259Y-93756389D01*
X155611294Y-93728138D01*
X155593375Y-93697776D01*
X155582408Y-93664678D01*
X155582366Y-93664490D01*
X155579293Y-93624166D01*
X155590442Y-93589592D01*
X155610475Y-93563928D01*
X155640204Y-93540204D01*
X155683927Y-93513915D01*
X155740097Y-93485736D01*
X155807167Y-93456343D01*
X155883591Y-93426410D01*
X155967821Y-93396615D01*
X156058312Y-93367631D01*
X156063834Y-93365955D01*
X156121619Y-93348922D01*
X156192626Y-93328741D01*
X156274645Y-93305987D01*
X156365465Y-93281237D01*
X156462877Y-93255069D01*
X156564671Y-93228060D01*
X156668637Y-93200785D01*
X156772565Y-93173823D01*
X156874245Y-93147751D01*
X156971468Y-93123144D01*
X157062022Y-93100580D01*
X157143699Y-93080637D01*
X157214289Y-93063890D01*
X157265562Y-93052237D01*
X157486209Y-93006443D01*
X157696665Y-92968832D01*
X157900117Y-92939033D01*
X158099748Y-92916679D01*
X158298745Y-92901401D01*
X158500292Y-92892831D01*
X158662562Y-92890562D01*
X158896718Y-92890034D01*
X159015781Y-92955526D01*
D11*
G36*
X144551000Y-135756000D02*
G01*
X142449000Y-135756000D01*
X142449000Y-134754000D01*
X144551000Y-134754000D01*
X144551000Y-135756000D01*
G37*
G36*
X127551000Y-135756000D02*
G01*
X125449000Y-135756000D01*
X125449000Y-134754000D01*
X127551000Y-134754000D01*
X127551000Y-135756000D01*
G37*
G36*
X120843768Y-133584183D02*
G01*
X120993068Y-133613880D01*
X121157040Y-133681800D01*
X121304610Y-133780403D01*
X121430109Y-133905902D01*
X121528712Y-134053472D01*
X121596632Y-134217444D01*
X121631256Y-134391515D01*
X121631256Y-134568997D01*
X121596632Y-134743068D01*
X121528712Y-134907040D01*
X121430109Y-135054610D01*
X121304610Y-135180109D01*
X121157040Y-135278712D01*
X120993068Y-135346632D01*
X120843768Y-135376329D01*
X120818998Y-135381256D01*
X120641514Y-135381256D01*
X120616744Y-135376329D01*
X120467444Y-135346632D01*
X120303472Y-135278712D01*
X120155902Y-135180109D01*
X120030403Y-135054610D01*
X119931800Y-134907040D01*
X119863880Y-134743068D01*
X119829256Y-134568997D01*
X119829256Y-134391515D01*
X119863880Y-134217444D01*
X119931800Y-134053472D01*
X120030403Y-133905902D01*
X120155902Y-133780403D01*
X120303472Y-133681800D01*
X120467444Y-133613880D01*
X120616744Y-133584183D01*
X120641514Y-133579256D01*
X120818998Y-133579256D01*
X120843768Y-133584183D01*
G37*
G36*
X154405997Y-131603051D02*
G01*
X154439652Y-131613261D01*
X154470665Y-131629838D01*
X154497851Y-131652149D01*
X154520162Y-131679335D01*
X154536739Y-131710348D01*
X154546949Y-131744003D01*
X154551000Y-131785138D01*
X154551000Y-135014862D01*
X154546949Y-135055997D01*
X154536739Y-135089652D01*
X154520162Y-135120665D01*
X154497851Y-135147851D01*
X154470665Y-135170162D01*
X154439652Y-135186739D01*
X154405997Y-135196949D01*
X154364862Y-135201000D01*
X153035138Y-135201000D01*
X152994003Y-135196949D01*
X152960348Y-135186739D01*
X152929335Y-135170162D01*
X152902149Y-135147851D01*
X152879838Y-135120665D01*
X152863261Y-135089652D01*
X152853051Y-135055997D01*
X152849000Y-135014862D01*
X152849000Y-131785138D01*
X152853051Y-131744003D01*
X152863261Y-131710348D01*
X152879838Y-131679335D01*
X152902149Y-131652149D01*
X152929335Y-131629838D01*
X152960348Y-131613261D01*
X152994003Y-131603051D01*
X153035138Y-131599000D01*
X154364862Y-131599000D01*
X154405997Y-131603051D01*
G37*
G36*
X144551000Y-134486000D02*
G01*
X142449000Y-134486000D01*
X142449000Y-133484000D01*
X144551000Y-133484000D01*
X144551000Y-134486000D01*
G37*
G36*
X127551000Y-134486000D02*
G01*
X125449000Y-134486000D01*
X125449000Y-133484000D01*
X127551000Y-133484000D01*
X127551000Y-134486000D01*
G37*
G36*
X119047717Y-131788132D02*
G01*
X119197017Y-131817829D01*
X119360989Y-131885749D01*
X119508559Y-131984352D01*
X119634058Y-132109851D01*
X119732661Y-132257421D01*
X119800581Y-132421393D01*
X119835205Y-132595464D01*
X119835205Y-132772946D01*
X119800581Y-132947017D01*
X119732661Y-133110989D01*
X119634058Y-133258559D01*
X119508559Y-133384058D01*
X119360989Y-133482661D01*
X119197017Y-133550581D01*
X119052854Y-133579256D01*
X119022947Y-133585205D01*
X118845463Y-133585205D01*
X118815556Y-133579256D01*
X118671393Y-133550581D01*
X118507421Y-133482661D01*
X118359851Y-133384058D01*
X118234352Y-133258559D01*
X118135749Y-133110989D01*
X118067829Y-132947017D01*
X118033205Y-132772946D01*
X118033205Y-132595464D01*
X118067829Y-132421393D01*
X118135749Y-132257421D01*
X118234352Y-132109851D01*
X118359851Y-131984352D01*
X118507421Y-131885749D01*
X118671393Y-131817829D01*
X118820693Y-131788132D01*
X118845463Y-131783205D01*
X119022947Y-131783205D01*
X119047717Y-131788132D01*
G37*
G36*
X144551000Y-133216000D02*
G01*
X142449000Y-133216000D01*
X142449000Y-132214000D01*
X144551000Y-132214000D01*
X144551000Y-133216000D01*
G37*
G36*
X127551000Y-133216000D02*
G01*
X125449000Y-133216000D01*
X125449000Y-132214000D01*
X127551000Y-132214000D01*
X127551000Y-133216000D01*
G37*
G36*
X144551000Y-131946000D02*
G01*
X142449000Y-131946000D01*
X142449000Y-130944000D01*
X144551000Y-130944000D01*
X144551000Y-131946000D01*
G37*
G36*
X127551000Y-131946000D02*
G01*
X125449000Y-131946000D01*
X125449000Y-130944000D01*
X127551000Y-130944000D01*
X127551000Y-131946000D01*
G37*
G36*
X117251666Y-129992081D02*
G01*
X117400966Y-130021778D01*
X117564938Y-130089698D01*
X117712508Y-130188301D01*
X117838007Y-130313800D01*
X117936610Y-130461370D01*
X118004530Y-130625342D01*
X118039154Y-130799413D01*
X118039154Y-130976895D01*
X118004530Y-131150966D01*
X117936610Y-131314938D01*
X117838007Y-131462508D01*
X117712508Y-131588007D01*
X117564938Y-131686610D01*
X117400966Y-131754530D01*
X117256803Y-131783205D01*
X117226896Y-131789154D01*
X117049412Y-131789154D01*
X117019505Y-131783205D01*
X116875342Y-131754530D01*
X116711370Y-131686610D01*
X116563800Y-131588007D01*
X116438301Y-131462508D01*
X116339698Y-131314938D01*
X116271778Y-131150966D01*
X116237154Y-130976895D01*
X116237154Y-130799413D01*
X116271778Y-130625342D01*
X116339698Y-130461370D01*
X116438301Y-130313800D01*
X116563800Y-130188301D01*
X116711370Y-130089698D01*
X116875342Y-130021778D01*
X117024642Y-129992081D01*
X117049412Y-129987154D01*
X117226896Y-129987154D01*
X117251666Y-129992081D01*
G37*
G36*
X144551000Y-130676000D02*
G01*
X142449000Y-130676000D01*
X142449000Y-129674000D01*
X144551000Y-129674000D01*
X144551000Y-130676000D01*
G37*
G36*
X127551000Y-130676000D02*
G01*
X125449000Y-130676000D01*
X125449000Y-129674000D01*
X127551000Y-129674000D01*
X127551000Y-130676000D01*
G37*
G36*
X138551000Y-130306000D02*
G01*
X133449000Y-130306000D01*
X133449000Y-125204000D01*
X138551000Y-125204000D01*
X138551000Y-130306000D01*
G37*
G36*
X148984468Y-129203565D02*
G01*
X149023138Y-129215296D01*
X149058777Y-129234346D01*
X149090017Y-129259983D01*
X149115654Y-129291223D01*
X149134704Y-129326862D01*
X149146435Y-129365532D01*
X149151000Y-129411888D01*
X149151000Y-130063112D01*
X149146435Y-130109468D01*
X149134704Y-130148138D01*
X149115654Y-130183777D01*
X149090017Y-130215017D01*
X149058777Y-130240654D01*
X149023138Y-130259704D01*
X148984468Y-130271435D01*
X148938112Y-130276000D01*
X147861888Y-130276000D01*
X147815532Y-130271435D01*
X147776862Y-130259704D01*
X147741223Y-130240654D01*
X147709983Y-130215017D01*
X147684346Y-130183777D01*
X147665296Y-130148138D01*
X147653565Y-130109468D01*
X147649000Y-130063112D01*
X147649000Y-129411888D01*
X147653565Y-129365532D01*
X147665296Y-129326862D01*
X147684346Y-129291223D01*
X147709983Y-129259983D01*
X147741223Y-129234346D01*
X147776862Y-129215296D01*
X147815532Y-129203565D01*
X147861888Y-129199000D01*
X148938112Y-129199000D01*
X148984468Y-129203565D01*
G37*
G36*
X115455614Y-128196029D02*
G01*
X115604914Y-128225726D01*
X115768886Y-128293646D01*
X115916456Y-128392249D01*
X116041955Y-128517748D01*
X116140558Y-128665318D01*
X116208478Y-128829290D01*
X116243102Y-129003361D01*
X116243102Y-129180843D01*
X116208478Y-129354914D01*
X116140558Y-129518886D01*
X116041955Y-129666456D01*
X115916456Y-129791955D01*
X115768886Y-129890558D01*
X115604914Y-129958478D01*
X115460746Y-129987154D01*
X115430844Y-129993102D01*
X115253360Y-129993102D01*
X115223458Y-129987154D01*
X115079290Y-129958478D01*
X114915318Y-129890558D01*
X114767748Y-129791955D01*
X114642249Y-129666456D01*
X114543646Y-129518886D01*
X114475726Y-129354914D01*
X114441102Y-129180843D01*
X114441102Y-129003361D01*
X114475726Y-128829290D01*
X114543646Y-128665318D01*
X114642249Y-128517748D01*
X114767748Y-128392249D01*
X114915318Y-128293646D01*
X115079290Y-128225726D01*
X115228590Y-128196029D01*
X115253360Y-128191102D01*
X115430844Y-128191102D01*
X115455614Y-128196029D01*
G37*
G36*
X154405997Y-126203051D02*
G01*
X154439652Y-126213261D01*
X154470665Y-126229838D01*
X154497851Y-126252149D01*
X154520162Y-126279335D01*
X154536739Y-126310348D01*
X154546949Y-126344003D01*
X154551000Y-126385138D01*
X154551000Y-129614862D01*
X154546949Y-129655997D01*
X154536739Y-129689652D01*
X154520162Y-129720665D01*
X154497851Y-129747851D01*
X154470665Y-129770162D01*
X154439652Y-129786739D01*
X154405997Y-129796949D01*
X154364862Y-129801000D01*
X153035138Y-129801000D01*
X152994003Y-129796949D01*
X152960348Y-129786739D01*
X152929335Y-129770162D01*
X152902149Y-129747851D01*
X152879838Y-129720665D01*
X152863261Y-129689652D01*
X152853051Y-129655997D01*
X152849000Y-129614862D01*
X152849000Y-126385138D01*
X152853051Y-126344003D01*
X152863261Y-126310348D01*
X152879838Y-126279335D01*
X152902149Y-126252149D01*
X152929335Y-126229838D01*
X152960348Y-126213261D01*
X152994003Y-126203051D01*
X153035138Y-126199000D01*
X154364862Y-126199000D01*
X154405997Y-126203051D01*
G37*
G36*
X127551000Y-129406000D02*
G01*
X125449000Y-129406000D01*
X125449000Y-128404000D01*
X127551000Y-128404000D01*
X127551000Y-129406000D01*
G37*
G36*
X144551000Y-129406000D02*
G01*
X142449000Y-129406000D01*
X142449000Y-128404000D01*
X144551000Y-128404000D01*
X144551000Y-129406000D01*
G37*
G36*
X148984468Y-127328565D02*
G01*
X149023138Y-127340296D01*
X149058777Y-127359346D01*
X149090017Y-127384983D01*
X149115654Y-127416223D01*
X149134704Y-127451862D01*
X149146435Y-127490532D01*
X149151000Y-127536888D01*
X149151000Y-128188112D01*
X149146435Y-128234468D01*
X149134704Y-128273138D01*
X149115654Y-128308777D01*
X149090017Y-128340017D01*
X149058777Y-128365654D01*
X149023138Y-128384704D01*
X148984468Y-128396435D01*
X148938112Y-128401000D01*
X147861888Y-128401000D01*
X147815532Y-128396435D01*
X147776862Y-128384704D01*
X147741223Y-128365654D01*
X147709983Y-128340017D01*
X147684346Y-128308777D01*
X147665296Y-128273138D01*
X147653565Y-128234468D01*
X147649000Y-128188112D01*
X147649000Y-127536888D01*
X147653565Y-127490532D01*
X147665296Y-127451862D01*
X147684346Y-127416223D01*
X147709983Y-127384983D01*
X147741223Y-127359346D01*
X147776862Y-127340296D01*
X147815532Y-127328565D01*
X147861888Y-127324000D01*
X148938112Y-127324000D01*
X148984468Y-127328565D01*
G37*
G36*
X113659563Y-126399978D02*
G01*
X113808863Y-126429675D01*
X113972835Y-126497595D01*
X114120405Y-126596198D01*
X114245904Y-126721697D01*
X114344507Y-126869267D01*
X114412427Y-127033239D01*
X114447051Y-127207310D01*
X114447051Y-127384792D01*
X114412427Y-127558863D01*
X114344507Y-127722835D01*
X114245904Y-127870405D01*
X114120405Y-127995904D01*
X113972835Y-128094507D01*
X113808863Y-128162427D01*
X113664700Y-128191102D01*
X113634793Y-128197051D01*
X113457309Y-128197051D01*
X113427402Y-128191102D01*
X113283239Y-128162427D01*
X113119267Y-128094507D01*
X112971697Y-127995904D01*
X112846198Y-127870405D01*
X112747595Y-127722835D01*
X112679675Y-127558863D01*
X112645051Y-127384792D01*
X112645051Y-127207310D01*
X112679675Y-127033239D01*
X112747595Y-126869267D01*
X112846198Y-126721697D01*
X112971697Y-126596198D01*
X113119267Y-126497595D01*
X113283239Y-126429675D01*
X113432539Y-126399978D01*
X113457309Y-126395051D01*
X113634793Y-126395051D01*
X113659563Y-126399978D01*
G37*
G36*
X144551000Y-128136000D02*
G01*
X142449000Y-128136000D01*
X142449000Y-127134000D01*
X144551000Y-127134000D01*
X144551000Y-128136000D01*
G37*
G36*
X127551000Y-128136000D02*
G01*
X125449000Y-128136000D01*
X125449000Y-127134000D01*
X127551000Y-127134000D01*
X127551000Y-128136000D01*
G37*
G36*
X165935787Y-119985462D02*
G01*
X165935790Y-119985463D01*
X165935789Y-119985463D01*
X166582029Y-120253144D01*
X167163631Y-120641758D01*
X167658242Y-121136369D01*
X168046856Y-121717971D01*
X168236135Y-122174932D01*
X168314538Y-122364213D01*
X168451000Y-123050256D01*
X168451000Y-123749744D01*
X168314538Y-124435787D01*
X168314537Y-124435789D01*
X168046856Y-125082029D01*
X167658242Y-125663631D01*
X167163631Y-126158242D01*
X166582029Y-126546856D01*
X166462904Y-126596199D01*
X165935787Y-126814538D01*
X165249744Y-126951000D01*
X164550256Y-126951000D01*
X163864213Y-126814538D01*
X163337096Y-126596199D01*
X163217971Y-126546856D01*
X162636369Y-126158242D01*
X162141758Y-125663631D01*
X161753144Y-125082029D01*
X161485463Y-124435789D01*
X161485462Y-124435787D01*
X161349000Y-123749744D01*
X161349000Y-123050256D01*
X161485462Y-122364213D01*
X161563865Y-122174932D01*
X161753144Y-121717971D01*
X162141758Y-121136369D01*
X162636369Y-120641758D01*
X163217971Y-120253144D01*
X163864211Y-119985463D01*
X163864210Y-119985463D01*
X163864213Y-119985462D01*
X164550256Y-119849000D01*
X165249744Y-119849000D01*
X165935787Y-119985462D01*
G37*
G36*
X106166552Y-119985462D02*
G01*
X106166555Y-119985463D01*
X106166554Y-119985463D01*
X106812794Y-120253144D01*
X107394396Y-120641758D01*
X107889007Y-121136369D01*
X108277621Y-121717971D01*
X108466900Y-122174932D01*
X108545303Y-122364213D01*
X108681765Y-123050256D01*
X108681765Y-123749744D01*
X108545303Y-124435787D01*
X108545302Y-124435789D01*
X108277621Y-125082029D01*
X107889007Y-125663631D01*
X107394396Y-126158242D01*
X106812794Y-126546856D01*
X106693669Y-126596199D01*
X106166552Y-126814538D01*
X105480509Y-126951000D01*
X104781021Y-126951000D01*
X104094978Y-126814538D01*
X103567861Y-126596199D01*
X103448736Y-126546856D01*
X102867134Y-126158242D01*
X102372523Y-125663631D01*
X101983909Y-125082029D01*
X101716228Y-124435789D01*
X101716227Y-124435787D01*
X101579765Y-123749744D01*
X101579765Y-123050256D01*
X101716227Y-122364213D01*
X101794630Y-122174932D01*
X101983909Y-121717971D01*
X102372523Y-121136369D01*
X102867134Y-120641758D01*
X103448736Y-120253144D01*
X104094976Y-119985463D01*
X104094975Y-119985463D01*
X104094978Y-119985462D01*
X104781021Y-119849000D01*
X105480509Y-119849000D01*
X106166552Y-119985462D01*
G37*
G36*
X144551000Y-126866000D02*
G01*
X142449000Y-126866000D01*
X142449000Y-125864000D01*
X144551000Y-125864000D01*
X144551000Y-126866000D01*
G37*
G36*
X127551000Y-126866000D02*
G01*
X125449000Y-126866000D01*
X125449000Y-125864000D01*
X127551000Y-125864000D01*
X127551000Y-126866000D01*
G37*
G36*
X113024206Y-125500000D02*
G01*
X111750000Y-126774206D01*
X110475794Y-125500000D01*
X111750000Y-124225794D01*
X113024206Y-125500000D01*
G37*
G36*
X144551000Y-125596000D02*
G01*
X142449000Y-125596000D01*
X142449000Y-124594000D01*
X144551000Y-124594000D01*
X144551000Y-125596000D01*
G37*
G36*
X127551000Y-125596000D02*
G01*
X125449000Y-125596000D01*
X125449000Y-124594000D01*
X127551000Y-124594000D01*
X127551000Y-125596000D01*
G37*
G36*
X151834468Y-123153565D02*
G01*
X151873138Y-123165296D01*
X151908777Y-123184346D01*
X151940017Y-123209983D01*
X151965654Y-123241223D01*
X151984704Y-123276862D01*
X151996435Y-123315532D01*
X152001000Y-123361888D01*
X152001000Y-124438112D01*
X151996435Y-124484468D01*
X151984704Y-124523138D01*
X151965654Y-124558777D01*
X151940017Y-124590017D01*
X151908777Y-124615654D01*
X151873138Y-124634704D01*
X151834468Y-124646435D01*
X151788112Y-124651000D01*
X151136888Y-124651000D01*
X151090532Y-124646435D01*
X151051862Y-124634704D01*
X151016223Y-124615654D01*
X150984983Y-124590017D01*
X150959346Y-124558777D01*
X150940296Y-124523138D01*
X150928565Y-124484468D01*
X150924000Y-124438112D01*
X150924000Y-123361888D01*
X150928565Y-123315532D01*
X150940296Y-123276862D01*
X150959346Y-123241223D01*
X150984983Y-123209983D01*
X151016223Y-123184346D01*
X151051862Y-123165296D01*
X151090532Y-123153565D01*
X151136888Y-123149000D01*
X151788112Y-123149000D01*
X151834468Y-123153565D01*
G37*
G36*
X153709468Y-123153565D02*
G01*
X153748138Y-123165296D01*
X153783777Y-123184346D01*
X153815017Y-123209983D01*
X153840654Y-123241223D01*
X153859704Y-123276862D01*
X153871435Y-123315532D01*
X153876000Y-123361888D01*
X153876000Y-124438112D01*
X153871435Y-124484468D01*
X153859704Y-124523138D01*
X153840654Y-124558777D01*
X153815017Y-124590017D01*
X153783777Y-124615654D01*
X153748138Y-124634704D01*
X153709468Y-124646435D01*
X153663112Y-124651000D01*
X153011888Y-124651000D01*
X152965532Y-124646435D01*
X152926862Y-124634704D01*
X152891223Y-124615654D01*
X152859983Y-124590017D01*
X152834346Y-124558777D01*
X152815296Y-124523138D01*
X152803565Y-124484468D01*
X152799000Y-124438112D01*
X152799000Y-123361888D01*
X152803565Y-123315532D01*
X152815296Y-123276862D01*
X152834346Y-123241223D01*
X152859983Y-123209983D01*
X152891223Y-123184346D01*
X152926862Y-123165296D01*
X152965532Y-123153565D01*
X153011888Y-123149000D01*
X153663112Y-123149000D01*
X153709468Y-123153565D01*
G37*
G36*
X127551000Y-124326000D02*
G01*
X125449000Y-124326000D01*
X125449000Y-123324000D01*
X127551000Y-123324000D01*
X127551000Y-124326000D01*
G37*
G36*
X144551000Y-124326000D02*
G01*
X142449000Y-124326000D01*
X142449000Y-123324000D01*
X144551000Y-123324000D01*
X144551000Y-124326000D01*
G37*
G36*
X144551000Y-123056000D02*
G01*
X142449000Y-123056000D01*
X142449000Y-122054000D01*
X144551000Y-122054000D01*
X144551000Y-123056000D01*
G37*
G36*
X127551000Y-123056000D02*
G01*
X125449000Y-123056000D01*
X125449000Y-122054000D01*
X127551000Y-122054000D01*
X127551000Y-123056000D01*
G37*
G36*
X144551000Y-121786000D02*
G01*
X142449000Y-121786000D01*
X142449000Y-120784000D01*
X144551000Y-120784000D01*
X144551000Y-121786000D01*
G37*
G36*
X127551000Y-121786000D02*
G01*
X125449000Y-121786000D01*
X125449000Y-120784000D01*
X127551000Y-120784000D01*
X127551000Y-121786000D01*
G37*
G36*
X144551000Y-120516000D02*
G01*
X142449000Y-120516000D01*
X142449000Y-119514000D01*
X144551000Y-119514000D01*
X144551000Y-120516000D01*
G37*
G36*
X127551000Y-120516000D02*
G01*
X125449000Y-120516000D01*
X125449000Y-119514000D01*
X127551000Y-119514000D01*
X127551000Y-120516000D01*
G37*
G36*
X152127617Y-118483420D02*
G01*
X152208399Y-118507925D01*
X152250335Y-118520646D01*
X152363424Y-118581094D01*
X152462554Y-118662447D01*
X152543906Y-118761575D01*
X152604354Y-118874664D01*
X152614040Y-118906596D01*
X152641580Y-118997382D01*
X152651000Y-119093027D01*
X152651000Y-119706973D01*
X152641580Y-119802618D01*
X152627510Y-119849000D01*
X152604354Y-119925336D01*
X152543906Y-120038425D01*
X152462554Y-120137554D01*
X152363425Y-120218906D01*
X152250336Y-120279354D01*
X152218404Y-120289040D01*
X152127618Y-120316580D01*
X152000000Y-120329149D01*
X151872383Y-120316580D01*
X151781597Y-120289040D01*
X151749665Y-120279354D01*
X151636576Y-120218906D01*
X151537447Y-120137554D01*
X151456096Y-120038427D01*
X151456095Y-120038425D01*
X151395647Y-119925336D01*
X151395645Y-119925333D01*
X151372490Y-119849000D01*
X151358420Y-119802618D01*
X151349000Y-119706973D01*
X151349000Y-119093028D01*
X151358420Y-118997383D01*
X151395645Y-118874669D01*
X151395646Y-118874665D01*
X151456094Y-118761576D01*
X151537447Y-118662446D01*
X151636575Y-118581094D01*
X151749664Y-118520646D01*
X151791600Y-118507925D01*
X151872382Y-118483420D01*
X152000000Y-118470851D01*
X152127617Y-118483420D01*
G37*
G36*
X154127617Y-118483420D02*
G01*
X154208399Y-118507925D01*
X154250335Y-118520646D01*
X154363424Y-118581094D01*
X154462554Y-118662447D01*
X154543906Y-118761575D01*
X154604354Y-118874664D01*
X154614040Y-118906596D01*
X154641580Y-118997382D01*
X154651000Y-119093027D01*
X154651000Y-119706973D01*
X154641580Y-119802618D01*
X154627510Y-119849000D01*
X154604354Y-119925336D01*
X154543906Y-120038425D01*
X154462554Y-120137554D01*
X154363425Y-120218906D01*
X154250336Y-120279354D01*
X154218404Y-120289040D01*
X154127618Y-120316580D01*
X154000000Y-120329149D01*
X153872383Y-120316580D01*
X153781597Y-120289040D01*
X153749665Y-120279354D01*
X153636576Y-120218906D01*
X153537447Y-120137554D01*
X153456096Y-120038427D01*
X153456095Y-120038425D01*
X153395647Y-119925336D01*
X153395645Y-119925333D01*
X153372490Y-119849000D01*
X153358420Y-119802618D01*
X153349000Y-119706973D01*
X153349000Y-119093028D01*
X153358420Y-118997383D01*
X153395645Y-118874669D01*
X153395646Y-118874665D01*
X153456094Y-118761576D01*
X153537447Y-118662446D01*
X153636575Y-118581094D01*
X153749664Y-118520646D01*
X153791600Y-118507925D01*
X153872382Y-118483420D01*
X154000000Y-118470851D01*
X154127617Y-118483420D01*
G37*
G36*
X150491242Y-118478404D02*
G01*
X150528337Y-118489657D01*
X150562515Y-118507925D01*
X150592481Y-118532519D01*
X150617075Y-118562485D01*
X150635343Y-118596663D01*
X150646596Y-118633758D01*
X150651000Y-118678474D01*
X150651000Y-120121526D01*
X150646596Y-120166242D01*
X150635343Y-120203337D01*
X150617075Y-120237515D01*
X150592481Y-120267481D01*
X150562515Y-120292075D01*
X150528337Y-120310343D01*
X150491242Y-120321596D01*
X150446526Y-120326000D01*
X149553474Y-120326000D01*
X149508758Y-120321596D01*
X149471663Y-120310343D01*
X149437485Y-120292075D01*
X149407519Y-120267481D01*
X149382925Y-120237515D01*
X149364657Y-120203337D01*
X149353404Y-120166242D01*
X149349000Y-120121526D01*
X149349000Y-118678474D01*
X149353404Y-118633758D01*
X149364657Y-118596663D01*
X149382925Y-118562485D01*
X149407519Y-118532519D01*
X149437485Y-118507925D01*
X149471663Y-118489657D01*
X149508758Y-118478404D01*
X149553474Y-118474000D01*
X150446526Y-118474000D01*
X150491242Y-118478404D01*
G37*
G36*
X114309468Y-118553565D02*
G01*
X114348138Y-118565296D01*
X114383777Y-118584346D01*
X114415017Y-118609983D01*
X114440654Y-118641223D01*
X114459704Y-118676862D01*
X114471435Y-118715532D01*
X114476000Y-118761888D01*
X114476000Y-119413112D01*
X114471435Y-119459468D01*
X114459704Y-119498138D01*
X114440654Y-119533777D01*
X114415017Y-119565017D01*
X114383777Y-119590654D01*
X114348138Y-119609704D01*
X114309468Y-119621435D01*
X114263112Y-119626000D01*
X113186888Y-119626000D01*
X113140532Y-119621435D01*
X113101862Y-119609704D01*
X113066223Y-119590654D01*
X113034983Y-119565017D01*
X113009346Y-119533777D01*
X112990296Y-119498138D01*
X112978565Y-119459468D01*
X112974000Y-119413112D01*
X112974000Y-118761888D01*
X112978565Y-118715532D01*
X112990296Y-118676862D01*
X113009346Y-118641223D01*
X113034983Y-118609983D01*
X113066223Y-118584346D01*
X113101862Y-118565296D01*
X113140532Y-118553565D01*
X113186888Y-118549000D01*
X114263112Y-118549000D01*
X114309468Y-118553565D01*
G37*
G36*
X144551000Y-119246000D02*
G01*
X142449000Y-119246000D01*
X142449000Y-118244000D01*
X144551000Y-118244000D01*
X144551000Y-119246000D01*
G37*
G36*
X127551000Y-119246000D02*
G01*
X125449000Y-119246000D01*
X125449000Y-118244000D01*
X127551000Y-118244000D01*
X127551000Y-119246000D01*
G37*
G36*
X133596000Y-118796000D02*
G01*
X132594000Y-118796000D01*
X132594000Y-116694000D01*
X133596000Y-116694000D01*
X133596000Y-118796000D01*
G37*
G36*
X134866000Y-118796000D02*
G01*
X133864000Y-118796000D01*
X133864000Y-116694000D01*
X134866000Y-116694000D01*
X134866000Y-118796000D01*
G37*
G36*
X136136000Y-118796000D02*
G01*
X135134000Y-118796000D01*
X135134000Y-116694000D01*
X136136000Y-116694000D01*
X136136000Y-118796000D01*
G37*
G36*
X137406000Y-118796000D02*
G01*
X136404000Y-118796000D01*
X136404000Y-116694000D01*
X137406000Y-116694000D01*
X137406000Y-118796000D01*
G37*
G36*
X132326000Y-118796000D02*
G01*
X131324000Y-118796000D01*
X131324000Y-116694000D01*
X132326000Y-116694000D01*
X132326000Y-118796000D01*
G37*
G36*
X138676000Y-118796000D02*
G01*
X137674000Y-118796000D01*
X137674000Y-116694000D01*
X138676000Y-116694000D01*
X138676000Y-118796000D01*
G37*
G36*
X139946000Y-118796000D02*
G01*
X138944000Y-118796000D01*
X138944000Y-116694000D01*
X139946000Y-116694000D01*
X139946000Y-118796000D01*
G37*
G36*
X141216000Y-118796000D02*
G01*
X140214000Y-118796000D01*
X140214000Y-116694000D01*
X141216000Y-116694000D01*
X141216000Y-118796000D01*
G37*
G36*
X131056000Y-118796000D02*
G01*
X130054000Y-118796000D01*
X130054000Y-116694000D01*
X131056000Y-116694000D01*
X131056000Y-118796000D01*
G37*
G36*
X129786000Y-118796000D02*
G01*
X128784000Y-118796000D01*
X128784000Y-116694000D01*
X129786000Y-116694000D01*
X129786000Y-118796000D01*
G37*
G36*
X116701000Y-118126000D02*
G01*
X115949000Y-118126000D01*
X115949000Y-116324000D01*
X116701000Y-116324000D01*
X116701000Y-118126000D01*
G37*
G36*
X118601000Y-118126000D02*
G01*
X117849000Y-118126000D01*
X117849000Y-116324000D01*
X118601000Y-116324000D01*
X118601000Y-118126000D01*
G37*
G36*
X114309468Y-116678565D02*
G01*
X114348138Y-116690296D01*
X114383777Y-116709346D01*
X114415017Y-116734983D01*
X114440654Y-116766223D01*
X114459704Y-116801862D01*
X114471435Y-116840532D01*
X114476000Y-116886888D01*
X114476000Y-117538112D01*
X114471435Y-117584468D01*
X114459704Y-117623138D01*
X114440654Y-117658777D01*
X114415017Y-117690017D01*
X114383777Y-117715654D01*
X114348138Y-117734704D01*
X114309468Y-117746435D01*
X114263112Y-117751000D01*
X113186888Y-117751000D01*
X113140532Y-117746435D01*
X113101862Y-117734704D01*
X113066223Y-117715654D01*
X113034983Y-117690017D01*
X113009346Y-117658777D01*
X112990296Y-117623138D01*
X112978565Y-117584468D01*
X112974000Y-117538112D01*
X112974000Y-116886888D01*
X112978565Y-116840532D01*
X112990296Y-116801862D01*
X113009346Y-116766223D01*
X113034983Y-116734983D01*
X113066223Y-116709346D01*
X113101862Y-116690296D01*
X113140532Y-116678565D01*
X113186888Y-116674000D01*
X114263112Y-116674000D01*
X114309468Y-116678565D01*
G37*
G36*
X121584468Y-116666065D02*
G01*
X121623138Y-116677796D01*
X121658777Y-116696846D01*
X121690017Y-116722483D01*
X121715654Y-116753723D01*
X121734704Y-116789362D01*
X121746435Y-116828032D01*
X121751000Y-116874388D01*
X121751000Y-117525612D01*
X121746435Y-117571968D01*
X121734704Y-117610638D01*
X121715654Y-117646277D01*
X121690017Y-117677517D01*
X121658777Y-117703154D01*
X121623138Y-117722204D01*
X121584468Y-117733935D01*
X121538112Y-117738500D01*
X120461888Y-117738500D01*
X120415532Y-117733935D01*
X120376862Y-117722204D01*
X120341223Y-117703154D01*
X120309983Y-117677517D01*
X120284346Y-117646277D01*
X120265296Y-117610638D01*
X120253565Y-117571968D01*
X120249000Y-117525612D01*
X120249000Y-116874388D01*
X120253565Y-116828032D01*
X120265296Y-116789362D01*
X120284346Y-116753723D01*
X120309983Y-116722483D01*
X120341223Y-116696846D01*
X120376862Y-116677796D01*
X120415532Y-116666065D01*
X120461888Y-116661500D01*
X121538112Y-116661500D01*
X121584468Y-116666065D01*
G37*
G36*
X121584468Y-114791065D02*
G01*
X121623138Y-114802796D01*
X121658777Y-114821846D01*
X121690017Y-114847483D01*
X121715654Y-114878723D01*
X121734704Y-114914362D01*
X121746435Y-114953032D01*
X121751000Y-114999388D01*
X121751000Y-115650612D01*
X121746435Y-115696968D01*
X121734704Y-115735638D01*
X121715654Y-115771277D01*
X121690017Y-115802517D01*
X121658777Y-115828154D01*
X121623138Y-115847204D01*
X121584468Y-115858935D01*
X121538112Y-115863500D01*
X120461888Y-115863500D01*
X120415532Y-115858935D01*
X120376862Y-115847204D01*
X120341223Y-115828154D01*
X120309983Y-115802517D01*
X120284346Y-115771277D01*
X120265296Y-115735638D01*
X120253565Y-115696968D01*
X120249000Y-115650612D01*
X120249000Y-114999388D01*
X120253565Y-114953032D01*
X120265296Y-114914362D01*
X120284346Y-114878723D01*
X120309983Y-114847483D01*
X120341223Y-114821846D01*
X120376862Y-114802796D01*
X120415532Y-114791065D01*
X120461888Y-114786500D01*
X121538112Y-114786500D01*
X121584468Y-114791065D01*
G37*
G36*
X150184468Y-112978565D02*
G01*
X150223138Y-112990296D01*
X150258777Y-113009346D01*
X150290017Y-113034983D01*
X150315654Y-113066223D01*
X150334704Y-113101862D01*
X150346435Y-113140532D01*
X150351000Y-113186888D01*
X150351000Y-114263112D01*
X150346435Y-114309468D01*
X150334704Y-114348138D01*
X150315654Y-114383777D01*
X150290017Y-114415017D01*
X150258777Y-114440654D01*
X150223138Y-114459704D01*
X150184468Y-114471435D01*
X150138112Y-114476000D01*
X149486888Y-114476000D01*
X149440532Y-114471435D01*
X149401862Y-114459704D01*
X149366223Y-114440654D01*
X149334983Y-114415017D01*
X149309346Y-114383777D01*
X149290296Y-114348138D01*
X149278565Y-114309468D01*
X149274000Y-114263112D01*
X149274000Y-113186888D01*
X149278565Y-113140532D01*
X149290296Y-113101862D01*
X149309346Y-113066223D01*
X149334983Y-113034983D01*
X149366223Y-113009346D01*
X149401862Y-112990296D01*
X149440532Y-112978565D01*
X149486888Y-112974000D01*
X150138112Y-112974000D01*
X150184468Y-112978565D01*
G37*
G36*
X148309468Y-112978565D02*
G01*
X148348138Y-112990296D01*
X148383777Y-113009346D01*
X148415017Y-113034983D01*
X148440654Y-113066223D01*
X148459704Y-113101862D01*
X148471435Y-113140532D01*
X148476000Y-113186888D01*
X148476000Y-114263112D01*
X148471435Y-114309468D01*
X148459704Y-114348138D01*
X148440654Y-114383777D01*
X148415017Y-114415017D01*
X148383777Y-114440654D01*
X148348138Y-114459704D01*
X148309468Y-114471435D01*
X148263112Y-114476000D01*
X147611888Y-114476000D01*
X147565532Y-114471435D01*
X147526862Y-114459704D01*
X147491223Y-114440654D01*
X147459983Y-114415017D01*
X147434346Y-114383777D01*
X147415296Y-114348138D01*
X147403565Y-114309468D01*
X147399000Y-114263112D01*
X147399000Y-113186888D01*
X147403565Y-113140532D01*
X147415296Y-113101862D01*
X147434346Y-113066223D01*
X147459983Y-113034983D01*
X147491223Y-113009346D01*
X147526862Y-112990296D01*
X147565532Y-112978565D01*
X147611888Y-112974000D01*
X148263112Y-112974000D01*
X148309468Y-112978565D01*
G37*
G36*
X148309468Y-110878565D02*
G01*
X148348138Y-110890296D01*
X148383777Y-110909346D01*
X148415017Y-110934983D01*
X148440654Y-110966223D01*
X148459704Y-111001862D01*
X148471435Y-111040532D01*
X148476000Y-111086888D01*
X148476000Y-112163112D01*
X148471435Y-112209468D01*
X148459704Y-112248138D01*
X148440654Y-112283777D01*
X148415017Y-112315017D01*
X148383777Y-112340654D01*
X148348138Y-112359704D01*
X148309468Y-112371435D01*
X148263112Y-112376000D01*
X147611888Y-112376000D01*
X147565532Y-112371435D01*
X147526862Y-112359704D01*
X147491223Y-112340654D01*
X147459983Y-112315017D01*
X147434346Y-112283777D01*
X147415296Y-112248138D01*
X147403565Y-112209468D01*
X147399000Y-112163112D01*
X147399000Y-111086888D01*
X147403565Y-111040532D01*
X147415296Y-111001862D01*
X147434346Y-110966223D01*
X147459983Y-110934983D01*
X147491223Y-110909346D01*
X147526862Y-110890296D01*
X147565532Y-110878565D01*
X147611888Y-110874000D01*
X148263112Y-110874000D01*
X148309468Y-110878565D01*
G37*
G36*
X150184468Y-110878565D02*
G01*
X150223138Y-110890296D01*
X150258777Y-110909346D01*
X150290017Y-110934983D01*
X150315654Y-110966223D01*
X150334704Y-111001862D01*
X150346435Y-111040532D01*
X150351000Y-111086888D01*
X150351000Y-112163112D01*
X150346435Y-112209468D01*
X150334704Y-112248138D01*
X150315654Y-112283777D01*
X150290017Y-112315017D01*
X150258777Y-112340654D01*
X150223138Y-112359704D01*
X150184468Y-112371435D01*
X150138112Y-112376000D01*
X149486888Y-112376000D01*
X149440532Y-112371435D01*
X149401862Y-112359704D01*
X149366223Y-112340654D01*
X149334983Y-112315017D01*
X149309346Y-112283777D01*
X149290296Y-112248138D01*
X149278565Y-112209468D01*
X149274000Y-112163112D01*
X149274000Y-111086888D01*
X149278565Y-111040532D01*
X149290296Y-111001862D01*
X149309346Y-110966223D01*
X149334983Y-110934983D01*
X149366223Y-110909346D01*
X149401862Y-110890296D01*
X149440532Y-110878565D01*
X149486888Y-110874000D01*
X150138112Y-110874000D01*
X150184468Y-110878565D01*
G37*
G36*
X131901000Y-112301000D02*
G01*
X130099000Y-112301000D01*
X130099000Y-110499000D01*
X131901000Y-110499000D01*
X131901000Y-112301000D01*
G37*
G36*
X128301000Y-112301000D02*
G01*
X126499000Y-112301000D01*
X126499000Y-110499000D01*
X128301000Y-110499000D01*
X128301000Y-112301000D01*
G37*
G36*
X116399549Y-108666116D02*
G01*
X116510734Y-108688232D01*
X116658850Y-108749584D01*
X116711177Y-108771258D01*
X116720203Y-108774997D01*
X116908720Y-108900960D01*
X117069040Y-109061280D01*
X117195003Y-109249797D01*
X117281768Y-109459266D01*
X117326000Y-109681636D01*
X117326000Y-109908364D01*
X117281768Y-110130734D01*
X117195003Y-110340203D01*
X117069040Y-110528720D01*
X116908720Y-110689040D01*
X116720203Y-110815003D01*
X116510734Y-110901768D01*
X116422207Y-110919377D01*
X116288365Y-110946000D01*
X116061635Y-110946000D01*
X115927793Y-110919377D01*
X115839266Y-110901768D01*
X115629797Y-110815003D01*
X115441280Y-110689040D01*
X115280960Y-110528720D01*
X115154997Y-110340203D01*
X115068232Y-110130734D01*
X115024000Y-109908364D01*
X115024000Y-109681636D01*
X115068232Y-109459266D01*
X115154997Y-109249797D01*
X115280960Y-109061280D01*
X115441280Y-108900960D01*
X115629797Y-108774997D01*
X115638824Y-108771258D01*
X115691150Y-108749584D01*
X115839266Y-108688232D01*
X115950451Y-108666116D01*
X116061635Y-108644000D01*
X116288365Y-108644000D01*
X116399549Y-108666116D01*
G37*
G36*
X144326000Y-109851000D02*
G01*
X142724000Y-109851000D01*
X142724000Y-108249000D01*
X144326000Y-108249000D01*
X144326000Y-109851000D01*
G37*
G36*
X148726000Y-109826000D02*
G01*
X147124000Y-109826000D01*
X147124000Y-108224000D01*
X148726000Y-108224000D01*
X148726000Y-109826000D01*
G37*
G36*
X127513512Y-107963927D02*
G01*
X127662812Y-107993624D01*
X127826784Y-108061544D01*
X127974354Y-108160147D01*
X128099853Y-108285646D01*
X128198456Y-108433216D01*
X128266376Y-108597188D01*
X128301000Y-108771259D01*
X128301000Y-108948741D01*
X128266376Y-109122812D01*
X128198456Y-109286784D01*
X128099853Y-109434354D01*
X127974354Y-109559853D01*
X127826784Y-109658456D01*
X127662812Y-109726376D01*
X127513512Y-109756073D01*
X127488742Y-109761000D01*
X127311258Y-109761000D01*
X127286488Y-109756073D01*
X127137188Y-109726376D01*
X126973216Y-109658456D01*
X126825646Y-109559853D01*
X126700147Y-109434354D01*
X126601544Y-109286784D01*
X126533624Y-109122812D01*
X126499000Y-108948741D01*
X126499000Y-108771259D01*
X126533624Y-108597188D01*
X126601544Y-108433216D01*
X126700147Y-108285646D01*
X126825646Y-108160147D01*
X126973216Y-108061544D01*
X127137188Y-107993624D01*
X127286488Y-107963927D01*
X127311258Y-107959000D01*
X127488742Y-107959000D01*
X127513512Y-107963927D01*
G37*
G36*
X131113512Y-107963927D02*
G01*
X131262812Y-107993624D01*
X131426784Y-108061544D01*
X131574354Y-108160147D01*
X131699853Y-108285646D01*
X131798456Y-108433216D01*
X131866376Y-108597188D01*
X131901000Y-108771259D01*
X131901000Y-108948741D01*
X131866376Y-109122812D01*
X131798456Y-109286784D01*
X131699853Y-109434354D01*
X131574354Y-109559853D01*
X131426784Y-109658456D01*
X131262812Y-109726376D01*
X131113512Y-109756073D01*
X131088742Y-109761000D01*
X130911258Y-109761000D01*
X130886488Y-109756073D01*
X130737188Y-109726376D01*
X130573216Y-109658456D01*
X130425646Y-109559853D01*
X130300147Y-109434354D01*
X130201544Y-109286784D01*
X130133624Y-109122812D01*
X130099000Y-108948741D01*
X130099000Y-108771259D01*
X130133624Y-108597188D01*
X130201544Y-108433216D01*
X130300147Y-108285646D01*
X130425646Y-108160147D01*
X130573216Y-108061544D01*
X130737188Y-107993624D01*
X130886488Y-107963927D01*
X130911258Y-107959000D01*
X131088742Y-107959000D01*
X131113512Y-107963927D01*
G37*
G36*
X120701000Y-108201000D02*
G01*
X118899000Y-108201000D01*
X118899000Y-106399000D01*
X120701000Y-106399000D01*
X120701000Y-108201000D01*
G37*
G36*
X110356032Y-104504207D02*
G01*
X110554146Y-104564305D01*
X110554149Y-104564306D01*
X110650975Y-104616061D01*
X110736729Y-104661897D01*
X110896765Y-104793235D01*
X111028103Y-104953271D01*
X111065273Y-105022811D01*
X111125694Y-105135851D01*
X111125695Y-105135854D01*
X111185793Y-105333968D01*
X111201000Y-105488370D01*
X111201000Y-107011630D01*
X111185793Y-107166032D01*
X111125695Y-107364145D01*
X111125694Y-107364149D01*
X111073939Y-107460975D01*
X111028103Y-107546729D01*
X110896765Y-107706765D01*
X110736729Y-107838103D01*
X110620030Y-107900479D01*
X110554148Y-107935694D01*
X110554145Y-107935695D01*
X110356031Y-107995793D01*
X110150000Y-108016085D01*
X109943968Y-107995793D01*
X109745854Y-107935695D01*
X109745851Y-107935694D01*
X109649025Y-107883939D01*
X109563271Y-107838103D01*
X109403235Y-107706765D01*
X109271897Y-107546729D01*
X109174307Y-107364149D01*
X109174306Y-107364148D01*
X109171273Y-107354149D01*
X109114207Y-107166031D01*
X109099000Y-107011629D01*
X109099000Y-105488370D01*
X109104497Y-105432560D01*
X109114207Y-105333970D01*
X109174305Y-105135853D01*
X109249184Y-104995765D01*
X109271898Y-104953271D01*
X109403236Y-104793235D01*
X109563272Y-104661897D01*
X109649026Y-104616061D01*
X109745852Y-104564306D01*
X109745855Y-104564305D01*
X109943969Y-104504207D01*
X110150000Y-104483915D01*
X110356032Y-104504207D01*
G37*
G36*
X103556032Y-104514207D02*
G01*
X103721184Y-104564306D01*
X103754149Y-104574306D01*
X103850975Y-104626061D01*
X103936729Y-104671897D01*
X104096765Y-104803235D01*
X104228103Y-104963271D01*
X104259928Y-105022812D01*
X104325694Y-105145851D01*
X104325695Y-105145854D01*
X104385793Y-105343968D01*
X104401000Y-105498370D01*
X104401000Y-107001630D01*
X104385793Y-107156032D01*
X104382759Y-107166032D01*
X104325694Y-107354149D01*
X104273939Y-107450975D01*
X104228103Y-107536729D01*
X104096765Y-107696765D01*
X103936729Y-107828103D01*
X103820030Y-107890479D01*
X103754148Y-107925694D01*
X103754145Y-107925695D01*
X103556031Y-107985793D01*
X103350000Y-108006085D01*
X103143968Y-107985793D01*
X102945854Y-107925695D01*
X102945851Y-107925694D01*
X102849025Y-107873939D01*
X102763271Y-107828103D01*
X102603235Y-107696765D01*
X102471897Y-107536729D01*
X102379652Y-107364149D01*
X102374306Y-107354148D01*
X102317241Y-107166031D01*
X102314207Y-107156031D01*
X102299000Y-107001629D01*
X102299000Y-105498370D01*
X102305482Y-105432560D01*
X102314207Y-105343970D01*
X102374305Y-105145853D01*
X102449184Y-105005765D01*
X102471898Y-104963271D01*
X102603236Y-104803235D01*
X102763272Y-104671897D01*
X102849026Y-104626061D01*
X102945852Y-104574306D01*
X102978817Y-104564306D01*
X103143969Y-104514207D01*
X103350000Y-104493915D01*
X103556032Y-104514207D01*
G37*
G36*
X135376000Y-107551000D02*
G01*
X134974000Y-107551000D01*
X134974000Y-106649000D01*
X135376000Y-106649000D01*
X135376000Y-107551000D01*
G37*
G36*
X136376000Y-107551000D02*
G01*
X135774000Y-107551000D01*
X135774000Y-106649000D01*
X136376000Y-106649000D01*
X136376000Y-107551000D01*
G37*
G36*
X134576000Y-107551000D02*
G01*
X133974000Y-107551000D01*
X133974000Y-106649000D01*
X134576000Y-106649000D01*
X134576000Y-107551000D01*
G37*
G36*
X106918948Y-105350640D02*
G01*
X107002603Y-105367280D01*
X107160205Y-105432561D01*
X107302043Y-105527334D01*
X107422666Y-105647957D01*
X107517439Y-105789795D01*
X107582720Y-105947397D01*
X107616000Y-106114706D01*
X107616000Y-106285294D01*
X107582720Y-106452603D01*
X107517439Y-106610205D01*
X107422666Y-106752043D01*
X107302043Y-106872666D01*
X107160205Y-106967439D01*
X107002603Y-107032720D01*
X106835295Y-107066000D01*
X106664705Y-107066000D01*
X106497397Y-107032720D01*
X106339795Y-106967439D01*
X106197957Y-106872666D01*
X106077334Y-106752043D01*
X105982561Y-106610205D01*
X105917280Y-106452603D01*
X105884000Y-106285294D01*
X105884000Y-106114706D01*
X105917280Y-105947397D01*
X105982561Y-105789795D01*
X106077334Y-105647957D01*
X106197957Y-105527334D01*
X106339795Y-105432561D01*
X106497397Y-105367280D01*
X106581052Y-105350640D01*
X106664705Y-105334000D01*
X106835295Y-105334000D01*
X106918948Y-105350640D01*
G37*
G36*
X134576000Y-105851000D02*
G01*
X133974000Y-105851000D01*
X133974000Y-104949000D01*
X134576000Y-104949000D01*
X134576000Y-105851000D01*
G37*
G36*
X136376000Y-105851000D02*
G01*
X135774000Y-105851000D01*
X135774000Y-104949000D01*
X136376000Y-104949000D01*
X136376000Y-105851000D01*
G37*
G36*
X135376000Y-105851000D02*
G01*
X134974000Y-105851000D01*
X134974000Y-104949000D01*
X135376000Y-104949000D01*
X135376000Y-105851000D01*
G37*
G36*
X119913512Y-103863927D02*
G01*
X120062812Y-103893624D01*
X120226784Y-103961544D01*
X120374354Y-104060147D01*
X120499853Y-104185646D01*
X120598456Y-104333216D01*
X120666376Y-104497188D01*
X120701000Y-104671259D01*
X120701000Y-104848741D01*
X120666376Y-105022812D01*
X120598456Y-105186784D01*
X120499853Y-105334354D01*
X120374354Y-105459853D01*
X120226784Y-105558456D01*
X120062812Y-105626376D01*
X119913512Y-105656073D01*
X119888742Y-105661000D01*
X119711258Y-105661000D01*
X119686488Y-105656073D01*
X119537188Y-105626376D01*
X119373216Y-105558456D01*
X119225646Y-105459853D01*
X119100147Y-105334354D01*
X119001544Y-105186784D01*
X118933624Y-105022812D01*
X118899000Y-104848741D01*
X118899000Y-104671259D01*
X118933624Y-104497188D01*
X119001544Y-104333216D01*
X119100147Y-104185646D01*
X119225646Y-104060147D01*
X119373216Y-103961544D01*
X119537188Y-103893624D01*
X119686488Y-103863927D01*
X119711258Y-103859000D01*
X119888742Y-103859000D01*
X119913512Y-103863927D01*
G37*
G36*
X108009468Y-102053565D02*
G01*
X108048138Y-102065296D01*
X108083777Y-102084346D01*
X108115017Y-102109983D01*
X108140654Y-102141223D01*
X108159704Y-102176862D01*
X108171435Y-102215532D01*
X108176000Y-102261888D01*
X108176000Y-103338112D01*
X108171435Y-103384468D01*
X108159704Y-103423138D01*
X108140654Y-103458777D01*
X108115017Y-103490017D01*
X108083777Y-103515654D01*
X108048138Y-103534704D01*
X108009468Y-103546435D01*
X107963112Y-103551000D01*
X107311888Y-103551000D01*
X107265532Y-103546435D01*
X107226862Y-103534704D01*
X107191223Y-103515654D01*
X107159983Y-103490017D01*
X107134346Y-103458777D01*
X107115296Y-103423138D01*
X107103565Y-103384468D01*
X107099000Y-103338112D01*
X107099000Y-102261888D01*
X107103565Y-102215532D01*
X107115296Y-102176862D01*
X107134346Y-102141223D01*
X107159983Y-102109983D01*
X107191223Y-102084346D01*
X107226862Y-102065296D01*
X107265532Y-102053565D01*
X107311888Y-102049000D01*
X107963112Y-102049000D01*
X108009468Y-102053565D01*
G37*
G36*
X106134468Y-102053565D02*
G01*
X106173138Y-102065296D01*
X106208777Y-102084346D01*
X106240017Y-102109983D01*
X106265654Y-102141223D01*
X106284704Y-102176862D01*
X106296435Y-102215532D01*
X106301000Y-102261888D01*
X106301000Y-103338112D01*
X106296435Y-103384468D01*
X106284704Y-103423138D01*
X106265654Y-103458777D01*
X106240017Y-103490017D01*
X106208777Y-103515654D01*
X106173138Y-103534704D01*
X106134468Y-103546435D01*
X106088112Y-103551000D01*
X105436888Y-103551000D01*
X105390532Y-103546435D01*
X105351862Y-103534704D01*
X105316223Y-103515654D01*
X105284983Y-103490017D01*
X105259346Y-103458777D01*
X105240296Y-103423138D01*
X105228565Y-103384468D01*
X105224000Y-103338112D01*
X105224000Y-102261888D01*
X105228565Y-102215532D01*
X105240296Y-102176862D01*
X105259346Y-102141223D01*
X105284983Y-102109983D01*
X105316223Y-102084346D01*
X105351862Y-102065296D01*
X105390532Y-102053565D01*
X105436888Y-102049000D01*
X106088112Y-102049000D01*
X106134468Y-102053565D01*
G37*
G36*
X117326000Y-103326000D02*
G01*
X115024000Y-103326000D01*
X115024000Y-101024000D01*
X117326000Y-101024000D01*
X117326000Y-103326000D01*
G37*
G36*
X138509468Y-101553565D02*
G01*
X138548138Y-101565296D01*
X138583777Y-101584346D01*
X138615017Y-101609983D01*
X138640654Y-101641223D01*
X138659704Y-101676862D01*
X138671435Y-101715532D01*
X138676000Y-101761888D01*
X138676000Y-102838112D01*
X138671435Y-102884468D01*
X138659704Y-102923138D01*
X138640654Y-102958777D01*
X138615017Y-102990017D01*
X138583777Y-103015654D01*
X138548138Y-103034704D01*
X138509468Y-103046435D01*
X138463112Y-103051000D01*
X137811888Y-103051000D01*
X137765532Y-103046435D01*
X137726862Y-103034704D01*
X137691223Y-103015654D01*
X137659983Y-102990017D01*
X137634346Y-102958777D01*
X137615296Y-102923138D01*
X137603565Y-102884468D01*
X137599000Y-102838112D01*
X137599000Y-101761888D01*
X137603565Y-101715532D01*
X137615296Y-101676862D01*
X137634346Y-101641223D01*
X137659983Y-101609983D01*
X137691223Y-101584346D01*
X137726862Y-101565296D01*
X137765532Y-101553565D01*
X137811888Y-101549000D01*
X138463112Y-101549000D01*
X138509468Y-101553565D01*
G37*
G36*
X136634468Y-101553565D02*
G01*
X136673138Y-101565296D01*
X136708777Y-101584346D01*
X136740017Y-101609983D01*
X136765654Y-101641223D01*
X136784704Y-101676862D01*
X136796435Y-101715532D01*
X136801000Y-101761888D01*
X136801000Y-102838112D01*
X136796435Y-102884468D01*
X136784704Y-102923138D01*
X136765654Y-102958777D01*
X136740017Y-102990017D01*
X136708777Y-103015654D01*
X136673138Y-103034704D01*
X136634468Y-103046435D01*
X136588112Y-103051000D01*
X135936888Y-103051000D01*
X135890532Y-103046435D01*
X135851862Y-103034704D01*
X135816223Y-103015654D01*
X135784983Y-102990017D01*
X135759346Y-102958777D01*
X135740296Y-102923138D01*
X135728565Y-102884468D01*
X135724000Y-102838112D01*
X135724000Y-101761888D01*
X135728565Y-101715532D01*
X135740296Y-101676862D01*
X135759346Y-101641223D01*
X135784983Y-101609983D01*
X135816223Y-101584346D01*
X135851862Y-101565296D01*
X135890532Y-101553565D01*
X135936888Y-101549000D01*
X136588112Y-101549000D01*
X136634468Y-101553565D01*
G37*
G36*
X144326000Y-102051000D02*
G01*
X142724000Y-102051000D01*
X142724000Y-100449000D01*
X144326000Y-100449000D01*
X144326000Y-102051000D01*
G37*
G36*
X148726000Y-102026000D02*
G01*
X147124000Y-102026000D01*
X147124000Y-100424000D01*
X148726000Y-100424000D01*
X148726000Y-102026000D01*
G37*
G36*
X115001000Y-99826000D02*
G01*
X105499000Y-99826000D01*
X105499000Y-88924000D01*
X115001000Y-88924000D01*
X115001000Y-99826000D01*
G37*
G36*
X137251000Y-98051000D02*
G01*
X134949000Y-98051000D01*
X134949000Y-95749000D01*
X137251000Y-95749000D01*
X137251000Y-98051000D01*
G37*
G36*
X121751000Y-97516000D02*
G01*
X118549000Y-97516000D01*
X118549000Y-96314000D01*
X121751000Y-96314000D01*
X121751000Y-97516000D01*
G37*
G36*
X124934468Y-96378565D02*
G01*
X124973138Y-96390296D01*
X125008777Y-96409346D01*
X125040017Y-96434983D01*
X125065654Y-96466223D01*
X125084704Y-96501862D01*
X125096435Y-96540532D01*
X125101000Y-96586888D01*
X125101000Y-97238112D01*
X125096435Y-97284468D01*
X125084704Y-97323138D01*
X125065654Y-97358777D01*
X125040017Y-97390017D01*
X125008777Y-97415654D01*
X124973138Y-97434704D01*
X124934468Y-97446435D01*
X124888112Y-97451000D01*
X123811888Y-97451000D01*
X123765532Y-97446435D01*
X123726862Y-97434704D01*
X123691223Y-97415654D01*
X123659983Y-97390017D01*
X123634346Y-97358777D01*
X123615296Y-97323138D01*
X123603565Y-97284468D01*
X123599000Y-97238112D01*
X123599000Y-96586888D01*
X123603565Y-96540532D01*
X123615296Y-96501862D01*
X123634346Y-96466223D01*
X123659983Y-96434983D01*
X123691223Y-96409346D01*
X123726862Y-96390296D01*
X123765532Y-96378565D01*
X123811888Y-96374000D01*
X124888112Y-96374000D01*
X124934468Y-96378565D01*
G37*
G36*
X140384468Y-94853565D02*
G01*
X140423138Y-94865296D01*
X140458777Y-94884346D01*
X140490017Y-94909983D01*
X140515654Y-94941223D01*
X140534704Y-94976862D01*
X140546435Y-95015532D01*
X140551000Y-95061888D01*
X140551000Y-95713112D01*
X140546435Y-95759468D01*
X140534704Y-95798138D01*
X140515654Y-95833777D01*
X140490017Y-95865017D01*
X140458777Y-95890654D01*
X140423138Y-95909704D01*
X140384468Y-95921435D01*
X140338112Y-95926000D01*
X139261888Y-95926000D01*
X139215532Y-95921435D01*
X139176862Y-95909704D01*
X139141223Y-95890654D01*
X139109983Y-95865017D01*
X139084346Y-95833777D01*
X139065296Y-95798138D01*
X139053565Y-95759468D01*
X139049000Y-95713112D01*
X139049000Y-95061888D01*
X139053565Y-95015532D01*
X139065296Y-94976862D01*
X139084346Y-94941223D01*
X139109983Y-94909983D01*
X139141223Y-94884346D01*
X139176862Y-94865296D01*
X139215532Y-94853565D01*
X139261888Y-94849000D01*
X140338112Y-94849000D01*
X140384468Y-94853565D01*
G37*
G36*
X142534468Y-94828565D02*
G01*
X142573138Y-94840296D01*
X142608777Y-94859346D01*
X142640017Y-94884983D01*
X142665654Y-94916223D01*
X142684704Y-94951862D01*
X142696435Y-94990532D01*
X142701000Y-95036888D01*
X142701000Y-95688112D01*
X142696435Y-95734468D01*
X142684704Y-95773138D01*
X142665654Y-95808777D01*
X142640017Y-95840017D01*
X142608777Y-95865654D01*
X142573138Y-95884704D01*
X142534468Y-95896435D01*
X142488112Y-95901000D01*
X141411888Y-95901000D01*
X141365532Y-95896435D01*
X141326862Y-95884704D01*
X141291223Y-95865654D01*
X141259983Y-95840017D01*
X141234346Y-95808777D01*
X141215296Y-95773138D01*
X141203565Y-95734468D01*
X141199000Y-95688112D01*
X141199000Y-95036888D01*
X141203565Y-94990532D01*
X141215296Y-94951862D01*
X141234346Y-94916223D01*
X141259983Y-94884983D01*
X141291223Y-94859346D01*
X141326862Y-94840296D01*
X141365532Y-94828565D01*
X141411888Y-94824000D01*
X142488112Y-94824000D01*
X142534468Y-94828565D01*
G37*
G36*
X124934468Y-94503565D02*
G01*
X124973138Y-94515296D01*
X125008777Y-94534346D01*
X125040017Y-94559983D01*
X125065654Y-94591223D01*
X125084704Y-94626862D01*
X125096435Y-94665532D01*
X125101000Y-94711888D01*
X125101000Y-95363112D01*
X125096435Y-95409468D01*
X125084704Y-95448138D01*
X125065654Y-95483777D01*
X125040017Y-95515017D01*
X125008777Y-95540654D01*
X124973138Y-95559704D01*
X124934468Y-95571435D01*
X124888112Y-95576000D01*
X123811888Y-95576000D01*
X123765532Y-95571435D01*
X123726862Y-95559704D01*
X123691223Y-95540654D01*
X123659983Y-95515017D01*
X123634346Y-95483777D01*
X123615296Y-95448138D01*
X123603565Y-95409468D01*
X123599000Y-95363112D01*
X123599000Y-94711888D01*
X123603565Y-94665532D01*
X123615296Y-94626862D01*
X123634346Y-94591223D01*
X123659983Y-94559983D01*
X123691223Y-94534346D01*
X123726862Y-94515296D01*
X123765532Y-94503565D01*
X123811888Y-94499000D01*
X124888112Y-94499000D01*
X124934468Y-94503565D01*
G37*
G36*
X144706000Y-94076000D02*
G01*
X143544000Y-94076000D01*
X143544000Y-91424000D01*
X144706000Y-91424000D01*
X144706000Y-94076000D01*
G37*
G36*
X146906000Y-94076000D02*
G01*
X145744000Y-94076000D01*
X145744000Y-93324000D01*
X146906000Y-93324000D01*
X146906000Y-94076000D01*
G37*
G36*
X140384468Y-92978565D02*
G01*
X140423138Y-92990296D01*
X140458777Y-93009346D01*
X140490017Y-93034983D01*
X140515654Y-93066223D01*
X140534704Y-93101862D01*
X140546435Y-93140532D01*
X140551000Y-93186888D01*
X140551000Y-93838112D01*
X140546435Y-93884468D01*
X140534704Y-93923138D01*
X140515654Y-93958777D01*
X140490017Y-93990017D01*
X140458777Y-94015654D01*
X140423138Y-94034704D01*
X140384468Y-94046435D01*
X140338112Y-94051000D01*
X139261888Y-94051000D01*
X139215532Y-94046435D01*
X139176862Y-94034704D01*
X139141223Y-94015654D01*
X139109983Y-93990017D01*
X139084346Y-93958777D01*
X139065296Y-93923138D01*
X139053565Y-93884468D01*
X139049000Y-93838112D01*
X139049000Y-93186888D01*
X139053565Y-93140532D01*
X139065296Y-93101862D01*
X139084346Y-93066223D01*
X139109983Y-93034983D01*
X139141223Y-93009346D01*
X139176862Y-92990296D01*
X139215532Y-92978565D01*
X139261888Y-92974000D01*
X140338112Y-92974000D01*
X140384468Y-92978565D01*
G37*
G36*
X142534468Y-92953565D02*
G01*
X142573138Y-92965296D01*
X142608777Y-92984346D01*
X142640017Y-93009983D01*
X142665654Y-93041223D01*
X142684704Y-93076862D01*
X142696435Y-93115532D01*
X142701000Y-93161888D01*
X142701000Y-93813112D01*
X142696435Y-93859468D01*
X142684704Y-93898138D01*
X142665654Y-93933777D01*
X142640017Y-93965017D01*
X142608777Y-93990654D01*
X142573138Y-94009704D01*
X142534468Y-94021435D01*
X142488112Y-94026000D01*
X141411888Y-94026000D01*
X141365532Y-94021435D01*
X141326862Y-94009704D01*
X141291223Y-93990654D01*
X141259983Y-93965017D01*
X141234346Y-93933777D01*
X141215296Y-93898138D01*
X141203565Y-93859468D01*
X141199000Y-93813112D01*
X141199000Y-93161888D01*
X141203565Y-93115532D01*
X141215296Y-93076862D01*
X141234346Y-93041223D01*
X141259983Y-93009983D01*
X141291223Y-92984346D01*
X141326862Y-92965296D01*
X141365532Y-92953565D01*
X141411888Y-92949000D01*
X142488112Y-92949000D01*
X142534468Y-92953565D01*
G37*
G36*
X148634468Y-91053565D02*
G01*
X148673138Y-91065296D01*
X148708777Y-91084346D01*
X148740017Y-91109983D01*
X148765654Y-91141223D01*
X148784704Y-91176862D01*
X148796435Y-91215532D01*
X148801000Y-91261888D01*
X148801000Y-92338112D01*
X148796435Y-92384468D01*
X148784704Y-92423138D01*
X148765654Y-92458777D01*
X148740017Y-92490017D01*
X148708777Y-92515654D01*
X148673138Y-92534704D01*
X148634468Y-92546435D01*
X148588112Y-92551000D01*
X147936888Y-92551000D01*
X147890532Y-92546435D01*
X147851862Y-92534704D01*
X147816223Y-92515654D01*
X147784983Y-92490017D01*
X147759346Y-92458777D01*
X147740296Y-92423138D01*
X147728565Y-92384468D01*
X147724000Y-92338112D01*
X147724000Y-91261888D01*
X147728565Y-91215532D01*
X147740296Y-91176862D01*
X147759346Y-91141223D01*
X147784983Y-91109983D01*
X147816223Y-91084346D01*
X147851862Y-91065296D01*
X147890532Y-91053565D01*
X147936888Y-91049000D01*
X148588112Y-91049000D01*
X148634468Y-91053565D01*
G37*
G36*
X150509468Y-91053565D02*
G01*
X150548138Y-91065296D01*
X150583777Y-91084346D01*
X150615017Y-91109983D01*
X150640654Y-91141223D01*
X150659704Y-91176862D01*
X150671435Y-91215532D01*
X150676000Y-91261888D01*
X150676000Y-92338112D01*
X150671435Y-92384468D01*
X150659704Y-92423138D01*
X150640654Y-92458777D01*
X150615017Y-92490017D01*
X150583777Y-92515654D01*
X150548138Y-92534704D01*
X150509468Y-92546435D01*
X150463112Y-92551000D01*
X149811888Y-92551000D01*
X149765532Y-92546435D01*
X149726862Y-92534704D01*
X149691223Y-92515654D01*
X149659983Y-92490017D01*
X149634346Y-92458777D01*
X149615296Y-92423138D01*
X149603565Y-92384468D01*
X149599000Y-92338112D01*
X149599000Y-91261888D01*
X149603565Y-91215532D01*
X149615296Y-91176862D01*
X149634346Y-91141223D01*
X149659983Y-91109983D01*
X149691223Y-91084346D01*
X149726862Y-91065296D01*
X149765532Y-91053565D01*
X149811888Y-91049000D01*
X150463112Y-91049000D01*
X150509468Y-91053565D01*
G37*
G36*
X121751000Y-92436000D02*
G01*
X118549000Y-92436000D01*
X118549000Y-91234000D01*
X121751000Y-91234000D01*
X121751000Y-92436000D01*
G37*
G36*
X142551000Y-92401000D02*
G01*
X141349000Y-92401000D01*
X141349000Y-91199000D01*
X142551000Y-91199000D01*
X142551000Y-92401000D01*
G37*
G36*
X146906000Y-92176000D02*
G01*
X145744000Y-92176000D01*
X145744000Y-91424000D01*
X146906000Y-91424000D01*
X146906000Y-92176000D01*
G37*
G36*
X136324549Y-88151116D02*
G01*
X136435734Y-88173232D01*
X136645203Y-88259997D01*
X136833720Y-88385960D01*
X136994040Y-88546280D01*
X137120003Y-88734797D01*
X137206768Y-88944266D01*
X137251000Y-89166636D01*
X137251000Y-89393364D01*
X137206768Y-89615734D01*
X137120003Y-89825203D01*
X136994040Y-90013720D01*
X136833720Y-90174040D01*
X136645203Y-90300003D01*
X136435734Y-90386768D01*
X136324549Y-90408884D01*
X136213365Y-90431000D01*
X135986635Y-90431000D01*
X135875451Y-90408884D01*
X135764266Y-90386768D01*
X135554797Y-90300003D01*
X135366280Y-90174040D01*
X135205960Y-90013720D01*
X135079997Y-89825203D01*
X134993232Y-89615734D01*
X134949000Y-89393364D01*
X134949000Y-89166636D01*
X134993232Y-88944266D01*
X135079997Y-88734797D01*
X135205960Y-88546280D01*
X135366280Y-88385960D01*
X135554797Y-88259997D01*
X135764266Y-88173232D01*
X135875451Y-88151116D01*
X135986635Y-88129000D01*
X136213365Y-88129000D01*
X136324549Y-88151116D01*
G37*
G36*
X142551000Y-89601000D02*
G01*
X141349000Y-89601000D01*
X141349000Y-88399000D01*
X142551000Y-88399000D01*
X142551000Y-89601000D01*
G37*
G36*
X151774072Y-82875918D02*
G01*
X152019939Y-82977759D01*
X152241212Y-83125610D01*
X152429390Y-83313788D01*
X152577241Y-83535061D01*
X152679082Y-83780928D01*
X152731000Y-84041938D01*
X152731000Y-84308062D01*
X152679082Y-84569072D01*
X152577241Y-84814939D01*
X152429390Y-85036212D01*
X152241212Y-85224390D01*
X152019939Y-85372241D01*
X152019938Y-85372242D01*
X152019937Y-85372242D01*
X151774072Y-85474082D01*
X151513063Y-85526000D01*
X151246937Y-85526000D01*
X150985928Y-85474082D01*
X150740063Y-85372242D01*
X150740062Y-85372242D01*
X150740061Y-85372241D01*
X150518788Y-85224390D01*
X150330610Y-85036212D01*
X150182759Y-84814939D01*
X150080918Y-84569072D01*
X150029000Y-84308062D01*
X150029000Y-84041938D01*
X150080918Y-83780928D01*
X150182759Y-83535061D01*
X150330610Y-83313788D01*
X150518788Y-83125610D01*
X150740061Y-82977759D01*
X150985928Y-82875918D01*
X151246937Y-82824000D01*
X151513063Y-82824000D01*
X151774072Y-82875918D01*
G37*
G36*
X147651000Y-85526000D02*
G01*
X144949000Y-85526000D01*
X144949000Y-82824000D01*
X147651000Y-82824000D01*
X147651000Y-85526000D01*
G37*
G36*
X126791242Y-84178404D02*
G01*
X126828337Y-84189657D01*
X126862515Y-84207925D01*
X126892481Y-84232519D01*
X126917075Y-84262485D01*
X126935343Y-84296663D01*
X126946596Y-84333758D01*
X126951000Y-84378474D01*
X126951000Y-85271526D01*
X126946596Y-85316242D01*
X126935343Y-85353337D01*
X126917075Y-85387515D01*
X126892481Y-85417481D01*
X126862515Y-85442075D01*
X126828337Y-85460343D01*
X126791242Y-85471596D01*
X126746526Y-85476000D01*
X125303474Y-85476000D01*
X125258758Y-85471596D01*
X125221663Y-85460343D01*
X125187485Y-85442075D01*
X125157519Y-85417481D01*
X125132925Y-85387515D01*
X125114657Y-85353337D01*
X125103404Y-85316242D01*
X125099000Y-85271526D01*
X125099000Y-84378474D01*
X125103404Y-84333758D01*
X125114657Y-84296663D01*
X125132925Y-84262485D01*
X125157519Y-84232519D01*
X125187485Y-84207925D01*
X125221663Y-84189657D01*
X125258758Y-84178404D01*
X125303474Y-84174000D01*
X126746526Y-84174000D01*
X126791242Y-84178404D01*
G37*
G36*
X126363855Y-82177140D02*
G01*
X126427618Y-82183420D01*
X126518404Y-82210960D01*
X126550336Y-82220646D01*
X126663425Y-82281094D01*
X126762554Y-82362446D01*
X126843906Y-82461575D01*
X126904354Y-82574664D01*
X126904355Y-82574668D01*
X126941580Y-82697382D01*
X126954149Y-82825000D01*
X126941580Y-82952618D01*
X126914040Y-83043404D01*
X126904354Y-83075336D01*
X126843906Y-83188425D01*
X126762554Y-83287554D01*
X126663425Y-83368906D01*
X126550336Y-83429354D01*
X126518404Y-83439040D01*
X126427618Y-83466580D01*
X126363855Y-83472860D01*
X126331974Y-83476000D01*
X125718026Y-83476000D01*
X125686145Y-83472860D01*
X125622382Y-83466580D01*
X125531596Y-83439040D01*
X125499664Y-83429354D01*
X125386575Y-83368906D01*
X125287446Y-83287554D01*
X125206094Y-83188425D01*
X125145646Y-83075336D01*
X125135960Y-83043404D01*
X125108420Y-82952618D01*
X125095851Y-82825000D01*
X125108420Y-82697382D01*
X125145645Y-82574668D01*
X125145646Y-82574664D01*
X125206094Y-82461575D01*
X125287446Y-82362446D01*
X125386575Y-82281094D01*
X125499664Y-82220646D01*
X125531596Y-82210960D01*
X125622382Y-82183420D01*
X125686145Y-82177140D01*
X125718026Y-82174000D01*
X126331974Y-82174000D01*
X126363855Y-82177140D01*
G37*
G36*
X126363855Y-80177140D02*
G01*
X126427618Y-80183420D01*
X126518404Y-80210960D01*
X126550336Y-80220646D01*
X126663425Y-80281094D01*
X126762554Y-80362446D01*
X126843906Y-80461575D01*
X126904354Y-80574664D01*
X126904355Y-80574668D01*
X126941580Y-80697382D01*
X126954149Y-80825000D01*
X126941580Y-80952618D01*
X126914040Y-81043404D01*
X126904354Y-81075336D01*
X126843906Y-81188425D01*
X126762554Y-81287554D01*
X126663425Y-81368906D01*
X126550336Y-81429354D01*
X126518404Y-81439040D01*
X126427618Y-81466580D01*
X126363855Y-81472860D01*
X126331974Y-81476000D01*
X125718026Y-81476000D01*
X125686145Y-81472860D01*
X125622382Y-81466580D01*
X125531596Y-81439040D01*
X125499664Y-81429354D01*
X125386575Y-81368906D01*
X125287446Y-81287554D01*
X125206094Y-81188425D01*
X125145646Y-81075336D01*
X125135960Y-81043404D01*
X125108420Y-80952618D01*
X125095851Y-80825000D01*
X125108420Y-80697382D01*
X125145645Y-80574668D01*
X125145646Y-80574664D01*
X125206094Y-80461575D01*
X125287446Y-80362446D01*
X125386575Y-80281094D01*
X125499664Y-80220646D01*
X125531596Y-80210960D01*
X125622382Y-80183420D01*
X125686145Y-80177140D01*
X125718026Y-80174000D01*
X126331974Y-80174000D01*
X126363855Y-80177140D01*
G37*
G36*
X126363855Y-78177140D02*
G01*
X126427618Y-78183420D01*
X126518404Y-78210960D01*
X126550336Y-78220646D01*
X126663425Y-78281094D01*
X126762554Y-78362446D01*
X126843906Y-78461575D01*
X126904354Y-78574664D01*
X126904355Y-78574668D01*
X126941580Y-78697382D01*
X126954149Y-78825000D01*
X126941580Y-78952618D01*
X126914040Y-79043404D01*
X126904354Y-79075336D01*
X126843906Y-79188425D01*
X126762554Y-79287554D01*
X126663425Y-79368906D01*
X126550336Y-79429354D01*
X126518404Y-79439040D01*
X126427618Y-79466580D01*
X126363855Y-79472860D01*
X126331974Y-79476000D01*
X125718026Y-79476000D01*
X125686145Y-79472860D01*
X125622382Y-79466580D01*
X125531596Y-79439040D01*
X125499664Y-79429354D01*
X125386575Y-79368906D01*
X125287446Y-79287554D01*
X125206094Y-79188425D01*
X125145646Y-79075336D01*
X125135960Y-79043404D01*
X125108420Y-78952618D01*
X125095851Y-78825000D01*
X125108420Y-78697382D01*
X125145645Y-78574668D01*
X125145646Y-78574664D01*
X125206094Y-78461575D01*
X125287446Y-78362446D01*
X125386575Y-78281094D01*
X125499664Y-78220646D01*
X125531596Y-78210960D01*
X125622382Y-78183420D01*
X125686145Y-78177140D01*
X125718026Y-78174000D01*
X126331974Y-78174000D01*
X126363855Y-78177140D01*
G37*
G36*
X126363855Y-76177140D02*
G01*
X126427618Y-76183420D01*
X126518404Y-76210960D01*
X126550336Y-76220646D01*
X126663425Y-76281094D01*
X126762554Y-76362446D01*
X126843906Y-76461575D01*
X126904354Y-76574664D01*
X126904355Y-76574668D01*
X126941580Y-76697382D01*
X126954149Y-76825000D01*
X126941580Y-76952618D01*
X126914040Y-77043404D01*
X126904354Y-77075336D01*
X126843906Y-77188425D01*
X126762554Y-77287554D01*
X126663425Y-77368906D01*
X126550336Y-77429354D01*
X126518404Y-77439040D01*
X126427618Y-77466580D01*
X126363855Y-77472860D01*
X126331974Y-77476000D01*
X125718026Y-77476000D01*
X125686145Y-77472860D01*
X125622382Y-77466580D01*
X125531596Y-77439040D01*
X125499664Y-77429354D01*
X125386575Y-77368906D01*
X125287446Y-77287554D01*
X125206094Y-77188425D01*
X125145646Y-77075336D01*
X125135960Y-77043404D01*
X125108420Y-76952618D01*
X125095851Y-76825000D01*
X125108420Y-76697382D01*
X125145645Y-76574668D01*
X125145646Y-76574664D01*
X125206094Y-76461575D01*
X125287446Y-76362446D01*
X125386575Y-76281094D01*
X125499664Y-76220646D01*
X125531596Y-76210960D01*
X125622382Y-76183420D01*
X125686145Y-76177140D01*
X125718026Y-76174000D01*
X126331974Y-76174000D01*
X126363855Y-76177140D01*
G37*
G36*
X136210787Y-68319967D02*
G01*
X136210790Y-68319968D01*
X136210789Y-68319968D01*
X136857029Y-68587649D01*
X137438631Y-68976263D01*
X137933242Y-69470874D01*
X138321856Y-70052476D01*
X138321856Y-70052477D01*
X138589538Y-70698718D01*
X138726000Y-71384761D01*
X138726000Y-72084249D01*
X138589538Y-72770292D01*
X138589537Y-72770294D01*
X138321856Y-73416534D01*
X137933242Y-73998136D01*
X137438631Y-74492747D01*
X136857029Y-74881361D01*
X136400068Y-75070640D01*
X136210787Y-75149043D01*
X135524744Y-75285505D01*
X134825256Y-75285505D01*
X134139213Y-75149043D01*
X133949932Y-75070640D01*
X133492971Y-74881361D01*
X132911369Y-74492747D01*
X132416758Y-73998136D01*
X132028144Y-73416534D01*
X131760463Y-72770294D01*
X131760462Y-72770292D01*
X131624000Y-72084249D01*
X131624000Y-71384761D01*
X131760462Y-70698718D01*
X132028144Y-70052477D01*
X132028144Y-70052476D01*
X132416758Y-69470874D01*
X132911369Y-68976263D01*
X133492971Y-68587649D01*
X134139211Y-68319968D01*
X134139210Y-68319968D01*
X134139213Y-68319967D01*
X134825256Y-68183505D01*
X135524744Y-68183505D01*
X136210787Y-68319967D01*
G37*
M02*
