G04 #@! TF.GenerationSoftware,KiCad,Pcbnew,(5.1.5)-3*
G04 #@! TF.CreationDate,2020-12-16T00:20:50-05:00*
G04 #@! TF.ProjectId,pov_ornament,706f765f-6f72-46e6-916d-656e742e6b69,rev?*
G04 #@! TF.SameCoordinates,Original*
G04 #@! TF.FileFunction,Profile,NP*
%FSLAX46Y46*%
G04 Gerber Fmt 4.6, Leading zero omitted, Abs format (unit mm)*
G04 Created by KiCad (PCBNEW (5.1.5)-3) date 2020-12-16 00:20:50*
%MOMM*%
%LPD*%
G04 APERTURE LIST*
%ADD10C,0.120000*%
%ADD11C,0.100000*%
G04 APERTURE END LIST*
D10*
X108238498Y-106250000D02*
G75*
G03X108238498Y-106250000I-1488498J0D01*
G01*
D11*
X172620080Y-110108670D02*
X172380000Y-111997920D01*
X166367920Y-127355361D02*
X165315430Y-128835401D01*
X167349820Y-125823710D02*
X166367920Y-127355361D01*
X171626520Y-115683260D02*
X171117830Y-117474640D01*
X172765870Y-108191570D02*
X172620080Y-110108670D01*
X168258790Y-124242860D02*
X167349820Y-125823710D01*
X169092470Y-122615141D02*
X168258790Y-124242860D01*
X169848420Y-120942960D02*
X169092470Y-122615141D01*
X170524350Y-119228670D02*
X169848420Y-120942960D01*
X171117830Y-117474640D02*
X170524350Y-119228670D01*
X172048030Y-113856900D02*
X171626520Y-115683260D01*
X172380000Y-111997920D02*
X172048030Y-113856900D01*
X172815000Y-106248960D02*
X172765870Y-108191570D01*
X156297030Y-109463830D02*
X156009000Y-108989740D01*
X162223810Y-111882140D02*
X161652920Y-111969270D01*
X156628050Y-109906490D02*
X156297030Y-109463830D01*
X159355100Y-111740460D02*
X158826840Y-111547100D01*
X162774900Y-111740460D02*
X162223810Y-111882140D01*
X159906190Y-111882140D02*
X159355100Y-111740460D01*
X161065000Y-111998960D02*
X160477080Y-111969270D01*
X157850100Y-111016970D02*
X157407470Y-110685960D01*
X156628050Y-102591430D02*
X156999140Y-102183090D01*
X156009000Y-108989740D02*
X155766840Y-108487120D01*
X160477080Y-111969270D02*
X159906190Y-111882140D01*
X155431820Y-105090130D02*
X155573480Y-104539090D01*
X163303160Y-111547100D02*
X162774900Y-111740460D01*
X155315000Y-106248960D02*
X155344690Y-105661050D01*
X156297030Y-103034090D02*
X156628050Y-102591430D01*
X156009000Y-103508180D02*
X156297030Y-103034090D01*
X155766840Y-104010800D02*
X156009000Y-103508180D01*
X155573480Y-104539090D02*
X155766840Y-104010800D01*
X155344690Y-105661050D02*
X155431820Y-105090130D01*
X155573480Y-107958830D02*
X155431820Y-107407790D01*
X158826840Y-111547100D02*
X158324220Y-111304980D01*
X155766840Y-108487120D02*
X155573480Y-107958830D01*
X158324220Y-111304980D02*
X157850100Y-111016970D01*
X161652920Y-111969270D02*
X161065000Y-111998960D01*
X155344690Y-106836870D02*
X155315000Y-106248960D01*
X156999140Y-110314830D02*
X156628050Y-109906490D01*
X157407470Y-110685960D02*
X156999140Y-110314830D01*
X155431820Y-107407790D02*
X155344690Y-106836870D01*
X163805780Y-111304980D02*
X163303160Y-111547100D01*
X164279900Y-111016970D02*
X163805780Y-111304980D01*
X164722530Y-110685960D02*
X164279900Y-111016970D01*
X165130860Y-110314830D02*
X164722530Y-110685960D01*
X165501950Y-109906490D02*
X165130860Y-110314830D01*
X166121000Y-108989740D02*
X165832970Y-109463830D01*
X165832970Y-109463830D02*
X165501950Y-109906490D01*
X166363160Y-108487120D02*
X166121000Y-108989740D01*
X166556520Y-107958830D02*
X166363160Y-108487120D01*
X166785310Y-106836870D02*
X166698180Y-107407790D01*
X166698180Y-107407790D02*
X166556520Y-107958830D01*
X166815000Y-106248960D02*
X166785310Y-106836870D01*
X172765870Y-104306350D02*
X172815000Y-106248960D01*
X172620080Y-102389250D02*
X172765870Y-104306350D01*
X160447230Y-78305720D02*
X161758300Y-79555680D01*
X157651430Y-75998550D02*
X159077510Y-77119230D01*
X144499330Y-69687420D02*
X146290710Y-70196120D01*
X169848420Y-91554960D02*
X170524350Y-93269250D01*
X153058900Y-73055170D02*
X154639770Y-73964140D01*
X156171380Y-74946070D02*
X157651430Y-75998550D01*
X163008270Y-80866710D02*
X164194760Y-82236450D01*
X167349820Y-86674210D02*
X168258790Y-88255060D01*
X159077510Y-77119230D02*
X160447230Y-78305720D01*
X172380000Y-100500000D02*
X172620080Y-102389250D01*
X172048030Y-98641020D02*
X172380000Y-100500000D01*
X149759030Y-71465540D02*
X151431210Y-72221520D01*
X148044740Y-70789610D02*
X149759030Y-71465540D01*
X171626520Y-96814660D02*
X172048030Y-98641020D01*
X171117830Y-95023280D02*
X171626520Y-96814660D01*
X166367920Y-85142560D02*
X167349820Y-86674210D01*
X142672970Y-69265900D02*
X144499330Y-69687420D01*
X140813960Y-68933930D02*
X142672970Y-69265900D01*
X161758300Y-79555680D02*
X163008270Y-80866710D01*
X169092470Y-89882780D02*
X169848420Y-91554960D01*
X164194760Y-82236450D02*
X165315430Y-83662520D01*
X154639770Y-73964140D02*
X156171380Y-74946070D01*
X151431210Y-72221520D02*
X153058900Y-73055170D01*
X146290710Y-70196120D02*
X148044740Y-70789610D01*
X170524350Y-93269250D02*
X171117830Y-95023280D01*
X168258790Y-88255060D02*
X169092470Y-89882780D01*
X165315430Y-83662520D02*
X166367920Y-85142560D01*
X112478570Y-136499370D02*
X111052490Y-135378690D01*
X100281580Y-120942960D02*
X99605650Y-119228670D01*
X102780180Y-125823710D02*
X101871210Y-124242860D01*
X105935240Y-130261470D02*
X104814570Y-128835401D01*
X115490230Y-138533780D02*
X113958620Y-137551850D01*
X113958620Y-137551850D02*
X112478570Y-136499370D01*
X108371700Y-132942240D02*
X107121730Y-131631210D01*
X117071100Y-139442750D02*
X115490230Y-138533780D01*
X101037530Y-122615141D02*
X100281580Y-120942960D01*
X101871210Y-124242860D02*
X101037530Y-122615141D01*
X111052490Y-135378690D02*
X109682770Y-134192200D01*
X103762080Y-127355361D02*
X102780180Y-125823710D01*
X104814570Y-128835401D02*
X103762080Y-127355361D01*
X107121730Y-131631210D02*
X105935240Y-130261470D01*
X109682770Y-134192200D02*
X108371700Y-132942240D01*
X133122370Y-143949831D02*
X131205260Y-143804061D01*
X140813960Y-143563990D02*
X138924740Y-143804061D01*
X137007630Y-143949831D02*
X135065000Y-143998960D01*
X144499330Y-142810501D02*
X142672970Y-143232020D01*
X149759030Y-141032380D02*
X148044740Y-141708310D01*
X154639770Y-138533780D02*
X153058900Y-139442750D01*
X159077510Y-135378690D02*
X157651430Y-136499370D01*
X151431210Y-140276401D02*
X149759030Y-141032380D01*
X138924740Y-143804061D02*
X137007630Y-143949831D01*
X142672970Y-143232020D02*
X140813960Y-143563990D01*
X165315430Y-128835401D02*
X164194760Y-130261470D01*
X153058900Y-139442750D02*
X151431210Y-140276401D01*
X157651430Y-136499370D02*
X156171380Y-137551850D01*
X160447230Y-134192200D02*
X159077510Y-135378690D01*
X163008270Y-131631210D02*
X161758300Y-132942240D01*
X127457030Y-143232020D02*
X125630670Y-142810501D01*
X129316040Y-143563990D02*
X127457030Y-143232020D01*
X146290710Y-142301800D02*
X144499330Y-142810501D01*
X161758300Y-132942240D02*
X160447230Y-134192200D01*
X118698790Y-140276401D02*
X117071100Y-139442750D01*
X120370970Y-141032380D02*
X118698790Y-140276401D01*
X122085260Y-141708310D02*
X120370970Y-141032380D01*
X164194760Y-130261470D02*
X163008270Y-131631210D01*
X123839290Y-142301800D02*
X122085260Y-141708310D01*
X125630670Y-142810501D02*
X123839290Y-142301800D01*
X148044740Y-141708310D02*
X146290710Y-142301800D01*
X156171380Y-137551850D02*
X154639770Y-138533780D01*
X135065000Y-143998960D02*
X133122370Y-143949831D01*
X131205260Y-143804061D02*
X129316040Y-143563990D01*
X161652920Y-100528650D02*
X162223810Y-100615780D01*
X158826840Y-100950820D02*
X159355100Y-100757460D01*
X160477080Y-100528650D02*
X161065000Y-100498960D01*
X159906190Y-100615780D02*
X160477080Y-100528650D01*
X159355100Y-100757460D02*
X159906190Y-100615780D01*
X158324220Y-101192940D02*
X158826840Y-100950820D01*
X157407470Y-101811960D02*
X157850100Y-101480950D01*
X156999140Y-102183090D02*
X157407470Y-101811960D01*
X161065000Y-100498960D02*
X161652920Y-100528650D01*
X157850100Y-101480950D02*
X158324220Y-101192940D01*
X166698180Y-105090130D02*
X166785310Y-105661050D01*
X165832970Y-103034090D02*
X166121000Y-103508180D01*
X165130860Y-102183090D02*
X165501950Y-102591430D01*
X163805780Y-101192940D02*
X164279900Y-101480950D01*
X166363160Y-104010800D02*
X166556520Y-104539090D01*
X164722530Y-101811960D02*
X165130860Y-102183090D01*
X166815000Y-106248960D02*
X166815000Y-106248960D01*
X165501950Y-102591430D02*
X165832970Y-103034090D01*
X162774900Y-100757460D02*
X163303160Y-100950820D01*
X162223810Y-100615780D02*
X162774900Y-100757460D01*
X166785310Y-105661050D02*
X166815000Y-106248960D01*
X166121000Y-103508180D02*
X166363160Y-104010800D01*
X166556520Y-104539090D02*
X166698180Y-105090130D01*
X164279900Y-101480950D02*
X164722530Y-101811960D01*
X163303160Y-100950820D02*
X163805780Y-101192940D01*
X172815000Y-106248960D02*
X172815000Y-106248960D01*
X123839290Y-70196120D02*
X125630670Y-69687420D01*
X122085260Y-70789610D02*
X123839290Y-70196120D01*
X120370970Y-71465540D02*
X122085260Y-70789610D01*
X97750000Y-111997920D02*
X97509920Y-110108670D01*
X97509920Y-102389250D02*
X97750000Y-100500000D01*
X98503480Y-115683260D02*
X98081970Y-113856900D01*
X107121730Y-80866710D02*
X108371700Y-79555680D01*
X105935240Y-82236450D02*
X107121730Y-80866710D01*
X99605650Y-93269250D02*
X100281580Y-91554960D01*
X100281580Y-91554960D02*
X101037530Y-89882780D01*
X98503480Y-96814660D02*
X99012170Y-95023280D01*
X102780180Y-86674210D02*
X103762080Y-85142560D01*
X97509920Y-110108670D02*
X97364130Y-108191570D01*
X117071100Y-73055170D02*
X118698790Y-72221520D01*
X108371700Y-79555680D02*
X109682770Y-78305720D01*
X99012170Y-95023280D02*
X99605650Y-93269250D01*
X97364130Y-104306350D02*
X97509920Y-102389250D01*
X97315000Y-106248960D02*
X97364130Y-104306350D01*
X99012170Y-117474640D02*
X98503480Y-115683260D01*
X138924740Y-68693860D02*
X140813960Y-68933930D01*
X135065000Y-68498960D02*
X137007630Y-68548090D01*
X137007630Y-68548090D02*
X138924740Y-68693860D01*
X125630670Y-69687420D02*
X127457030Y-69265900D01*
X133122370Y-68548090D02*
X135065000Y-68498960D01*
X131205260Y-68693860D02*
X133122370Y-68548090D01*
X129316040Y-68933930D02*
X131205260Y-68693860D01*
X111052490Y-77119230D02*
X112478570Y-75998550D01*
X109682770Y-78305720D02*
X111052490Y-77119230D01*
X101037530Y-89882780D02*
X101871210Y-88255060D01*
X97364130Y-108191570D02*
X97315000Y-106248960D01*
X98081970Y-113856900D02*
X97750000Y-111997920D01*
X99605650Y-119228670D02*
X99012170Y-117474640D01*
X115490230Y-73964140D02*
X117071100Y-73055170D01*
X101871210Y-88255060D02*
X102780180Y-86674210D01*
X98081970Y-98641020D02*
X98503480Y-96814660D01*
X118698790Y-72221520D02*
X120370970Y-71465540D01*
X127457030Y-69265900D02*
X129316040Y-68933930D01*
X113958620Y-74946070D02*
X115490230Y-73964140D01*
X103762080Y-85142560D02*
X104814570Y-83662520D01*
X104814570Y-83662520D02*
X105935240Y-82236450D01*
X112478570Y-75998550D02*
X113958620Y-74946070D01*
X97750000Y-100500000D02*
X98081970Y-98641020D01*
M02*
