G04 #@! TF.GenerationSoftware,KiCad,Pcbnew,(5.1.5)-3*
G04 #@! TF.CreationDate,2020-12-16T00:20:50-05:00*
G04 #@! TF.ProjectId,pov_ornament,706f765f-6f72-46e6-916d-656e742e6b69,rev?*
G04 #@! TF.SameCoordinates,Original*
G04 #@! TF.FileFunction,Paste,Top*
G04 #@! TF.FilePolarity,Positive*
%FSLAX46Y46*%
G04 Gerber Fmt 4.6, Leading zero omitted, Abs format (unit mm)*
G04 Created by KiCad (PCBNEW (5.1.5)-3) date 2020-12-16 00:20:50*
%MOMM*%
%LPD*%
G04 APERTURE LIST*
%ADD10R,0.500000X0.800000*%
%ADD11R,0.300000X0.800000*%
%ADD12C,0.100000*%
%ADD13R,1.100000X1.100000*%
%ADD14R,3.100000X1.100000*%
%ADD15R,4.550000X5.250000*%
%ADD16R,1.060000X0.650000*%
%ADD17R,0.650000X0.400000*%
%ADD18R,1.500000X1.500000*%
%ADD19R,5.000000X5.000000*%
%ADD20R,2.000000X0.900000*%
%ADD21R,0.900000X2.000000*%
G04 APERTURE END LIST*
D10*
X136075000Y-105400000D03*
D11*
X135175000Y-105400000D03*
D10*
X134275000Y-105400000D03*
D11*
X135175000Y-107100000D03*
D10*
X134275000Y-107100000D03*
X136075000Y-107100000D03*
D12*
G36*
X140280142Y-93026174D02*
G01*
X140303803Y-93029684D01*
X140327007Y-93035496D01*
X140349529Y-93043554D01*
X140371153Y-93053782D01*
X140391670Y-93066079D01*
X140410883Y-93080329D01*
X140428607Y-93096393D01*
X140444671Y-93114117D01*
X140458921Y-93133330D01*
X140471218Y-93153847D01*
X140481446Y-93175471D01*
X140489504Y-93197993D01*
X140495316Y-93221197D01*
X140498826Y-93244858D01*
X140500000Y-93268750D01*
X140500000Y-93756250D01*
X140498826Y-93780142D01*
X140495316Y-93803803D01*
X140489504Y-93827007D01*
X140481446Y-93849529D01*
X140471218Y-93871153D01*
X140458921Y-93891670D01*
X140444671Y-93910883D01*
X140428607Y-93928607D01*
X140410883Y-93944671D01*
X140391670Y-93958921D01*
X140371153Y-93971218D01*
X140349529Y-93981446D01*
X140327007Y-93989504D01*
X140303803Y-93995316D01*
X140280142Y-93998826D01*
X140256250Y-94000000D01*
X139343750Y-94000000D01*
X139319858Y-93998826D01*
X139296197Y-93995316D01*
X139272993Y-93989504D01*
X139250471Y-93981446D01*
X139228847Y-93971218D01*
X139208330Y-93958921D01*
X139189117Y-93944671D01*
X139171393Y-93928607D01*
X139155329Y-93910883D01*
X139141079Y-93891670D01*
X139128782Y-93871153D01*
X139118554Y-93849529D01*
X139110496Y-93827007D01*
X139104684Y-93803803D01*
X139101174Y-93780142D01*
X139100000Y-93756250D01*
X139100000Y-93268750D01*
X139101174Y-93244858D01*
X139104684Y-93221197D01*
X139110496Y-93197993D01*
X139118554Y-93175471D01*
X139128782Y-93153847D01*
X139141079Y-93133330D01*
X139155329Y-93114117D01*
X139171393Y-93096393D01*
X139189117Y-93080329D01*
X139208330Y-93066079D01*
X139228847Y-93053782D01*
X139250471Y-93043554D01*
X139272993Y-93035496D01*
X139296197Y-93029684D01*
X139319858Y-93026174D01*
X139343750Y-93025000D01*
X140256250Y-93025000D01*
X140280142Y-93026174D01*
G37*
G36*
X140280142Y-94901174D02*
G01*
X140303803Y-94904684D01*
X140327007Y-94910496D01*
X140349529Y-94918554D01*
X140371153Y-94928782D01*
X140391670Y-94941079D01*
X140410883Y-94955329D01*
X140428607Y-94971393D01*
X140444671Y-94989117D01*
X140458921Y-95008330D01*
X140471218Y-95028847D01*
X140481446Y-95050471D01*
X140489504Y-95072993D01*
X140495316Y-95096197D01*
X140498826Y-95119858D01*
X140500000Y-95143750D01*
X140500000Y-95631250D01*
X140498826Y-95655142D01*
X140495316Y-95678803D01*
X140489504Y-95702007D01*
X140481446Y-95724529D01*
X140471218Y-95746153D01*
X140458921Y-95766670D01*
X140444671Y-95785883D01*
X140428607Y-95803607D01*
X140410883Y-95819671D01*
X140391670Y-95833921D01*
X140371153Y-95846218D01*
X140349529Y-95856446D01*
X140327007Y-95864504D01*
X140303803Y-95870316D01*
X140280142Y-95873826D01*
X140256250Y-95875000D01*
X139343750Y-95875000D01*
X139319858Y-95873826D01*
X139296197Y-95870316D01*
X139272993Y-95864504D01*
X139250471Y-95856446D01*
X139228847Y-95846218D01*
X139208330Y-95833921D01*
X139189117Y-95819671D01*
X139171393Y-95803607D01*
X139155329Y-95785883D01*
X139141079Y-95766670D01*
X139128782Y-95746153D01*
X139118554Y-95724529D01*
X139110496Y-95702007D01*
X139104684Y-95678803D01*
X139101174Y-95655142D01*
X139100000Y-95631250D01*
X139100000Y-95143750D01*
X139101174Y-95119858D01*
X139104684Y-95096197D01*
X139110496Y-95072993D01*
X139118554Y-95050471D01*
X139128782Y-95028847D01*
X139141079Y-95008330D01*
X139155329Y-94989117D01*
X139171393Y-94971393D01*
X139189117Y-94955329D01*
X139208330Y-94941079D01*
X139228847Y-94928782D01*
X139250471Y-94918554D01*
X139272993Y-94910496D01*
X139296197Y-94904684D01*
X139319858Y-94901174D01*
X139343750Y-94900000D01*
X140256250Y-94900000D01*
X140280142Y-94901174D01*
G37*
G36*
X150405142Y-91101174D02*
G01*
X150428803Y-91104684D01*
X150452007Y-91110496D01*
X150474529Y-91118554D01*
X150496153Y-91128782D01*
X150516670Y-91141079D01*
X150535883Y-91155329D01*
X150553607Y-91171393D01*
X150569671Y-91189117D01*
X150583921Y-91208330D01*
X150596218Y-91228847D01*
X150606446Y-91250471D01*
X150614504Y-91272993D01*
X150620316Y-91296197D01*
X150623826Y-91319858D01*
X150625000Y-91343750D01*
X150625000Y-92256250D01*
X150623826Y-92280142D01*
X150620316Y-92303803D01*
X150614504Y-92327007D01*
X150606446Y-92349529D01*
X150596218Y-92371153D01*
X150583921Y-92391670D01*
X150569671Y-92410883D01*
X150553607Y-92428607D01*
X150535883Y-92444671D01*
X150516670Y-92458921D01*
X150496153Y-92471218D01*
X150474529Y-92481446D01*
X150452007Y-92489504D01*
X150428803Y-92495316D01*
X150405142Y-92498826D01*
X150381250Y-92500000D01*
X149893750Y-92500000D01*
X149869858Y-92498826D01*
X149846197Y-92495316D01*
X149822993Y-92489504D01*
X149800471Y-92481446D01*
X149778847Y-92471218D01*
X149758330Y-92458921D01*
X149739117Y-92444671D01*
X149721393Y-92428607D01*
X149705329Y-92410883D01*
X149691079Y-92391670D01*
X149678782Y-92371153D01*
X149668554Y-92349529D01*
X149660496Y-92327007D01*
X149654684Y-92303803D01*
X149651174Y-92280142D01*
X149650000Y-92256250D01*
X149650000Y-91343750D01*
X149651174Y-91319858D01*
X149654684Y-91296197D01*
X149660496Y-91272993D01*
X149668554Y-91250471D01*
X149678782Y-91228847D01*
X149691079Y-91208330D01*
X149705329Y-91189117D01*
X149721393Y-91171393D01*
X149739117Y-91155329D01*
X149758330Y-91141079D01*
X149778847Y-91128782D01*
X149800471Y-91118554D01*
X149822993Y-91110496D01*
X149846197Y-91104684D01*
X149869858Y-91101174D01*
X149893750Y-91100000D01*
X150381250Y-91100000D01*
X150405142Y-91101174D01*
G37*
G36*
X148530142Y-91101174D02*
G01*
X148553803Y-91104684D01*
X148577007Y-91110496D01*
X148599529Y-91118554D01*
X148621153Y-91128782D01*
X148641670Y-91141079D01*
X148660883Y-91155329D01*
X148678607Y-91171393D01*
X148694671Y-91189117D01*
X148708921Y-91208330D01*
X148721218Y-91228847D01*
X148731446Y-91250471D01*
X148739504Y-91272993D01*
X148745316Y-91296197D01*
X148748826Y-91319858D01*
X148750000Y-91343750D01*
X148750000Y-92256250D01*
X148748826Y-92280142D01*
X148745316Y-92303803D01*
X148739504Y-92327007D01*
X148731446Y-92349529D01*
X148721218Y-92371153D01*
X148708921Y-92391670D01*
X148694671Y-92410883D01*
X148678607Y-92428607D01*
X148660883Y-92444671D01*
X148641670Y-92458921D01*
X148621153Y-92471218D01*
X148599529Y-92481446D01*
X148577007Y-92489504D01*
X148553803Y-92495316D01*
X148530142Y-92498826D01*
X148506250Y-92500000D01*
X148018750Y-92500000D01*
X147994858Y-92498826D01*
X147971197Y-92495316D01*
X147947993Y-92489504D01*
X147925471Y-92481446D01*
X147903847Y-92471218D01*
X147883330Y-92458921D01*
X147864117Y-92444671D01*
X147846393Y-92428607D01*
X147830329Y-92410883D01*
X147816079Y-92391670D01*
X147803782Y-92371153D01*
X147793554Y-92349529D01*
X147785496Y-92327007D01*
X147779684Y-92303803D01*
X147776174Y-92280142D01*
X147775000Y-92256250D01*
X147775000Y-91343750D01*
X147776174Y-91319858D01*
X147779684Y-91296197D01*
X147785496Y-91272993D01*
X147793554Y-91250471D01*
X147803782Y-91228847D01*
X147816079Y-91208330D01*
X147830329Y-91189117D01*
X147846393Y-91171393D01*
X147864117Y-91155329D01*
X147883330Y-91141079D01*
X147903847Y-91128782D01*
X147925471Y-91118554D01*
X147947993Y-91110496D01*
X147971197Y-91104684D01*
X147994858Y-91101174D01*
X148018750Y-91100000D01*
X148506250Y-91100000D01*
X148530142Y-91101174D01*
G37*
G36*
X136530142Y-101601174D02*
G01*
X136553803Y-101604684D01*
X136577007Y-101610496D01*
X136599529Y-101618554D01*
X136621153Y-101628782D01*
X136641670Y-101641079D01*
X136660883Y-101655329D01*
X136678607Y-101671393D01*
X136694671Y-101689117D01*
X136708921Y-101708330D01*
X136721218Y-101728847D01*
X136731446Y-101750471D01*
X136739504Y-101772993D01*
X136745316Y-101796197D01*
X136748826Y-101819858D01*
X136750000Y-101843750D01*
X136750000Y-102756250D01*
X136748826Y-102780142D01*
X136745316Y-102803803D01*
X136739504Y-102827007D01*
X136731446Y-102849529D01*
X136721218Y-102871153D01*
X136708921Y-102891670D01*
X136694671Y-102910883D01*
X136678607Y-102928607D01*
X136660883Y-102944671D01*
X136641670Y-102958921D01*
X136621153Y-102971218D01*
X136599529Y-102981446D01*
X136577007Y-102989504D01*
X136553803Y-102995316D01*
X136530142Y-102998826D01*
X136506250Y-103000000D01*
X136018750Y-103000000D01*
X135994858Y-102998826D01*
X135971197Y-102995316D01*
X135947993Y-102989504D01*
X135925471Y-102981446D01*
X135903847Y-102971218D01*
X135883330Y-102958921D01*
X135864117Y-102944671D01*
X135846393Y-102928607D01*
X135830329Y-102910883D01*
X135816079Y-102891670D01*
X135803782Y-102871153D01*
X135793554Y-102849529D01*
X135785496Y-102827007D01*
X135779684Y-102803803D01*
X135776174Y-102780142D01*
X135775000Y-102756250D01*
X135775000Y-101843750D01*
X135776174Y-101819858D01*
X135779684Y-101796197D01*
X135785496Y-101772993D01*
X135793554Y-101750471D01*
X135803782Y-101728847D01*
X135816079Y-101708330D01*
X135830329Y-101689117D01*
X135846393Y-101671393D01*
X135864117Y-101655329D01*
X135883330Y-101641079D01*
X135903847Y-101628782D01*
X135925471Y-101618554D01*
X135947993Y-101610496D01*
X135971197Y-101604684D01*
X135994858Y-101601174D01*
X136018750Y-101600000D01*
X136506250Y-101600000D01*
X136530142Y-101601174D01*
G37*
G36*
X138405142Y-101601174D02*
G01*
X138428803Y-101604684D01*
X138452007Y-101610496D01*
X138474529Y-101618554D01*
X138496153Y-101628782D01*
X138516670Y-101641079D01*
X138535883Y-101655329D01*
X138553607Y-101671393D01*
X138569671Y-101689117D01*
X138583921Y-101708330D01*
X138596218Y-101728847D01*
X138606446Y-101750471D01*
X138614504Y-101772993D01*
X138620316Y-101796197D01*
X138623826Y-101819858D01*
X138625000Y-101843750D01*
X138625000Y-102756250D01*
X138623826Y-102780142D01*
X138620316Y-102803803D01*
X138614504Y-102827007D01*
X138606446Y-102849529D01*
X138596218Y-102871153D01*
X138583921Y-102891670D01*
X138569671Y-102910883D01*
X138553607Y-102928607D01*
X138535883Y-102944671D01*
X138516670Y-102958921D01*
X138496153Y-102971218D01*
X138474529Y-102981446D01*
X138452007Y-102989504D01*
X138428803Y-102995316D01*
X138405142Y-102998826D01*
X138381250Y-103000000D01*
X137893750Y-103000000D01*
X137869858Y-102998826D01*
X137846197Y-102995316D01*
X137822993Y-102989504D01*
X137800471Y-102981446D01*
X137778847Y-102971218D01*
X137758330Y-102958921D01*
X137739117Y-102944671D01*
X137721393Y-102928607D01*
X137705329Y-102910883D01*
X137691079Y-102891670D01*
X137678782Y-102871153D01*
X137668554Y-102849529D01*
X137660496Y-102827007D01*
X137654684Y-102803803D01*
X137651174Y-102780142D01*
X137650000Y-102756250D01*
X137650000Y-101843750D01*
X137651174Y-101819858D01*
X137654684Y-101796197D01*
X137660496Y-101772993D01*
X137668554Y-101750471D01*
X137678782Y-101728847D01*
X137691079Y-101708330D01*
X137705329Y-101689117D01*
X137721393Y-101671393D01*
X137739117Y-101655329D01*
X137758330Y-101641079D01*
X137778847Y-101628782D01*
X137800471Y-101618554D01*
X137822993Y-101610496D01*
X137846197Y-101604684D01*
X137869858Y-101601174D01*
X137893750Y-101600000D01*
X138381250Y-101600000D01*
X138405142Y-101601174D01*
G37*
D13*
X141950000Y-91800000D03*
X141950000Y-89000000D03*
D14*
X120150000Y-96915000D03*
X120150000Y-91835000D03*
D15*
X107825000Y-91600000D03*
X112675000Y-97150000D03*
X107825000Y-97150000D03*
X112675000Y-91600000D03*
D12*
G36*
X124830142Y-96426174D02*
G01*
X124853803Y-96429684D01*
X124877007Y-96435496D01*
X124899529Y-96443554D01*
X124921153Y-96453782D01*
X124941670Y-96466079D01*
X124960883Y-96480329D01*
X124978607Y-96496393D01*
X124994671Y-96514117D01*
X125008921Y-96533330D01*
X125021218Y-96553847D01*
X125031446Y-96575471D01*
X125039504Y-96597993D01*
X125045316Y-96621197D01*
X125048826Y-96644858D01*
X125050000Y-96668750D01*
X125050000Y-97156250D01*
X125048826Y-97180142D01*
X125045316Y-97203803D01*
X125039504Y-97227007D01*
X125031446Y-97249529D01*
X125021218Y-97271153D01*
X125008921Y-97291670D01*
X124994671Y-97310883D01*
X124978607Y-97328607D01*
X124960883Y-97344671D01*
X124941670Y-97358921D01*
X124921153Y-97371218D01*
X124899529Y-97381446D01*
X124877007Y-97389504D01*
X124853803Y-97395316D01*
X124830142Y-97398826D01*
X124806250Y-97400000D01*
X123893750Y-97400000D01*
X123869858Y-97398826D01*
X123846197Y-97395316D01*
X123822993Y-97389504D01*
X123800471Y-97381446D01*
X123778847Y-97371218D01*
X123758330Y-97358921D01*
X123739117Y-97344671D01*
X123721393Y-97328607D01*
X123705329Y-97310883D01*
X123691079Y-97291670D01*
X123678782Y-97271153D01*
X123668554Y-97249529D01*
X123660496Y-97227007D01*
X123654684Y-97203803D01*
X123651174Y-97180142D01*
X123650000Y-97156250D01*
X123650000Y-96668750D01*
X123651174Y-96644858D01*
X123654684Y-96621197D01*
X123660496Y-96597993D01*
X123668554Y-96575471D01*
X123678782Y-96553847D01*
X123691079Y-96533330D01*
X123705329Y-96514117D01*
X123721393Y-96496393D01*
X123739117Y-96480329D01*
X123758330Y-96466079D01*
X123778847Y-96453782D01*
X123800471Y-96443554D01*
X123822993Y-96435496D01*
X123846197Y-96429684D01*
X123869858Y-96426174D01*
X123893750Y-96425000D01*
X124806250Y-96425000D01*
X124830142Y-96426174D01*
G37*
G36*
X124830142Y-94551174D02*
G01*
X124853803Y-94554684D01*
X124877007Y-94560496D01*
X124899529Y-94568554D01*
X124921153Y-94578782D01*
X124941670Y-94591079D01*
X124960883Y-94605329D01*
X124978607Y-94621393D01*
X124994671Y-94639117D01*
X125008921Y-94658330D01*
X125021218Y-94678847D01*
X125031446Y-94700471D01*
X125039504Y-94722993D01*
X125045316Y-94746197D01*
X125048826Y-94769858D01*
X125050000Y-94793750D01*
X125050000Y-95281250D01*
X125048826Y-95305142D01*
X125045316Y-95328803D01*
X125039504Y-95352007D01*
X125031446Y-95374529D01*
X125021218Y-95396153D01*
X125008921Y-95416670D01*
X124994671Y-95435883D01*
X124978607Y-95453607D01*
X124960883Y-95469671D01*
X124941670Y-95483921D01*
X124921153Y-95496218D01*
X124899529Y-95506446D01*
X124877007Y-95514504D01*
X124853803Y-95520316D01*
X124830142Y-95523826D01*
X124806250Y-95525000D01*
X123893750Y-95525000D01*
X123869858Y-95523826D01*
X123846197Y-95520316D01*
X123822993Y-95514504D01*
X123800471Y-95506446D01*
X123778847Y-95496218D01*
X123758330Y-95483921D01*
X123739117Y-95469671D01*
X123721393Y-95453607D01*
X123705329Y-95435883D01*
X123691079Y-95416670D01*
X123678782Y-95396153D01*
X123668554Y-95374529D01*
X123660496Y-95352007D01*
X123654684Y-95328803D01*
X123651174Y-95305142D01*
X123650000Y-95281250D01*
X123650000Y-94793750D01*
X123651174Y-94769858D01*
X123654684Y-94746197D01*
X123660496Y-94722993D01*
X123668554Y-94700471D01*
X123678782Y-94678847D01*
X123691079Y-94658330D01*
X123705329Y-94639117D01*
X123721393Y-94621393D01*
X123739117Y-94605329D01*
X123758330Y-94591079D01*
X123778847Y-94578782D01*
X123800471Y-94568554D01*
X123822993Y-94560496D01*
X123846197Y-94554684D01*
X123869858Y-94551174D01*
X123893750Y-94550000D01*
X124806250Y-94550000D01*
X124830142Y-94551174D01*
G37*
G36*
X142430142Y-94876174D02*
G01*
X142453803Y-94879684D01*
X142477007Y-94885496D01*
X142499529Y-94893554D01*
X142521153Y-94903782D01*
X142541670Y-94916079D01*
X142560883Y-94930329D01*
X142578607Y-94946393D01*
X142594671Y-94964117D01*
X142608921Y-94983330D01*
X142621218Y-95003847D01*
X142631446Y-95025471D01*
X142639504Y-95047993D01*
X142645316Y-95071197D01*
X142648826Y-95094858D01*
X142650000Y-95118750D01*
X142650000Y-95606250D01*
X142648826Y-95630142D01*
X142645316Y-95653803D01*
X142639504Y-95677007D01*
X142631446Y-95699529D01*
X142621218Y-95721153D01*
X142608921Y-95741670D01*
X142594671Y-95760883D01*
X142578607Y-95778607D01*
X142560883Y-95794671D01*
X142541670Y-95808921D01*
X142521153Y-95821218D01*
X142499529Y-95831446D01*
X142477007Y-95839504D01*
X142453803Y-95845316D01*
X142430142Y-95848826D01*
X142406250Y-95850000D01*
X141493750Y-95850000D01*
X141469858Y-95848826D01*
X141446197Y-95845316D01*
X141422993Y-95839504D01*
X141400471Y-95831446D01*
X141378847Y-95821218D01*
X141358330Y-95808921D01*
X141339117Y-95794671D01*
X141321393Y-95778607D01*
X141305329Y-95760883D01*
X141291079Y-95741670D01*
X141278782Y-95721153D01*
X141268554Y-95699529D01*
X141260496Y-95677007D01*
X141254684Y-95653803D01*
X141251174Y-95630142D01*
X141250000Y-95606250D01*
X141250000Y-95118750D01*
X141251174Y-95094858D01*
X141254684Y-95071197D01*
X141260496Y-95047993D01*
X141268554Y-95025471D01*
X141278782Y-95003847D01*
X141291079Y-94983330D01*
X141305329Y-94964117D01*
X141321393Y-94946393D01*
X141339117Y-94930329D01*
X141358330Y-94916079D01*
X141378847Y-94903782D01*
X141400471Y-94893554D01*
X141422993Y-94885496D01*
X141446197Y-94879684D01*
X141469858Y-94876174D01*
X141493750Y-94875000D01*
X142406250Y-94875000D01*
X142430142Y-94876174D01*
G37*
G36*
X142430142Y-93001174D02*
G01*
X142453803Y-93004684D01*
X142477007Y-93010496D01*
X142499529Y-93018554D01*
X142521153Y-93028782D01*
X142541670Y-93041079D01*
X142560883Y-93055329D01*
X142578607Y-93071393D01*
X142594671Y-93089117D01*
X142608921Y-93108330D01*
X142621218Y-93128847D01*
X142631446Y-93150471D01*
X142639504Y-93172993D01*
X142645316Y-93196197D01*
X142648826Y-93219858D01*
X142650000Y-93243750D01*
X142650000Y-93731250D01*
X142648826Y-93755142D01*
X142645316Y-93778803D01*
X142639504Y-93802007D01*
X142631446Y-93824529D01*
X142621218Y-93846153D01*
X142608921Y-93866670D01*
X142594671Y-93885883D01*
X142578607Y-93903607D01*
X142560883Y-93919671D01*
X142541670Y-93933921D01*
X142521153Y-93946218D01*
X142499529Y-93956446D01*
X142477007Y-93964504D01*
X142453803Y-93970316D01*
X142430142Y-93973826D01*
X142406250Y-93975000D01*
X141493750Y-93975000D01*
X141469858Y-93973826D01*
X141446197Y-93970316D01*
X141422993Y-93964504D01*
X141400471Y-93956446D01*
X141378847Y-93946218D01*
X141358330Y-93933921D01*
X141339117Y-93919671D01*
X141321393Y-93903607D01*
X141305329Y-93885883D01*
X141291079Y-93866670D01*
X141278782Y-93846153D01*
X141268554Y-93824529D01*
X141260496Y-93802007D01*
X141254684Y-93778803D01*
X141251174Y-93755142D01*
X141250000Y-93731250D01*
X141250000Y-93243750D01*
X141251174Y-93219858D01*
X141254684Y-93196197D01*
X141260496Y-93172993D01*
X141268554Y-93150471D01*
X141278782Y-93128847D01*
X141291079Y-93108330D01*
X141305329Y-93089117D01*
X141321393Y-93071393D01*
X141339117Y-93055329D01*
X141358330Y-93041079D01*
X141378847Y-93028782D01*
X141400471Y-93018554D01*
X141422993Y-93010496D01*
X141446197Y-93004684D01*
X141469858Y-93001174D01*
X141493750Y-93000000D01*
X142406250Y-93000000D01*
X142430142Y-93001174D01*
G37*
D16*
X144125000Y-91800000D03*
X144125000Y-92750000D03*
X144125000Y-93700000D03*
X146325000Y-93700000D03*
X146325000Y-91800000D03*
D12*
G36*
X151730142Y-123201174D02*
G01*
X151753803Y-123204684D01*
X151777007Y-123210496D01*
X151799529Y-123218554D01*
X151821153Y-123228782D01*
X151841670Y-123241079D01*
X151860883Y-123255329D01*
X151878607Y-123271393D01*
X151894671Y-123289117D01*
X151908921Y-123308330D01*
X151921218Y-123328847D01*
X151931446Y-123350471D01*
X151939504Y-123372993D01*
X151945316Y-123396197D01*
X151948826Y-123419858D01*
X151950000Y-123443750D01*
X151950000Y-124356250D01*
X151948826Y-124380142D01*
X151945316Y-124403803D01*
X151939504Y-124427007D01*
X151931446Y-124449529D01*
X151921218Y-124471153D01*
X151908921Y-124491670D01*
X151894671Y-124510883D01*
X151878607Y-124528607D01*
X151860883Y-124544671D01*
X151841670Y-124558921D01*
X151821153Y-124571218D01*
X151799529Y-124581446D01*
X151777007Y-124589504D01*
X151753803Y-124595316D01*
X151730142Y-124598826D01*
X151706250Y-124600000D01*
X151218750Y-124600000D01*
X151194858Y-124598826D01*
X151171197Y-124595316D01*
X151147993Y-124589504D01*
X151125471Y-124581446D01*
X151103847Y-124571218D01*
X151083330Y-124558921D01*
X151064117Y-124544671D01*
X151046393Y-124528607D01*
X151030329Y-124510883D01*
X151016079Y-124491670D01*
X151003782Y-124471153D01*
X150993554Y-124449529D01*
X150985496Y-124427007D01*
X150979684Y-124403803D01*
X150976174Y-124380142D01*
X150975000Y-124356250D01*
X150975000Y-123443750D01*
X150976174Y-123419858D01*
X150979684Y-123396197D01*
X150985496Y-123372993D01*
X150993554Y-123350471D01*
X151003782Y-123328847D01*
X151016079Y-123308330D01*
X151030329Y-123289117D01*
X151046393Y-123271393D01*
X151064117Y-123255329D01*
X151083330Y-123241079D01*
X151103847Y-123228782D01*
X151125471Y-123218554D01*
X151147993Y-123210496D01*
X151171197Y-123204684D01*
X151194858Y-123201174D01*
X151218750Y-123200000D01*
X151706250Y-123200000D01*
X151730142Y-123201174D01*
G37*
G36*
X153605142Y-123201174D02*
G01*
X153628803Y-123204684D01*
X153652007Y-123210496D01*
X153674529Y-123218554D01*
X153696153Y-123228782D01*
X153716670Y-123241079D01*
X153735883Y-123255329D01*
X153753607Y-123271393D01*
X153769671Y-123289117D01*
X153783921Y-123308330D01*
X153796218Y-123328847D01*
X153806446Y-123350471D01*
X153814504Y-123372993D01*
X153820316Y-123396197D01*
X153823826Y-123419858D01*
X153825000Y-123443750D01*
X153825000Y-124356250D01*
X153823826Y-124380142D01*
X153820316Y-124403803D01*
X153814504Y-124427007D01*
X153806446Y-124449529D01*
X153796218Y-124471153D01*
X153783921Y-124491670D01*
X153769671Y-124510883D01*
X153753607Y-124528607D01*
X153735883Y-124544671D01*
X153716670Y-124558921D01*
X153696153Y-124571218D01*
X153674529Y-124581446D01*
X153652007Y-124589504D01*
X153628803Y-124595316D01*
X153605142Y-124598826D01*
X153581250Y-124600000D01*
X153093750Y-124600000D01*
X153069858Y-124598826D01*
X153046197Y-124595316D01*
X153022993Y-124589504D01*
X153000471Y-124581446D01*
X152978847Y-124571218D01*
X152958330Y-124558921D01*
X152939117Y-124544671D01*
X152921393Y-124528607D01*
X152905329Y-124510883D01*
X152891079Y-124491670D01*
X152878782Y-124471153D01*
X152868554Y-124449529D01*
X152860496Y-124427007D01*
X152854684Y-124403803D01*
X152851174Y-124380142D01*
X152850000Y-124356250D01*
X152850000Y-123443750D01*
X152851174Y-123419858D01*
X152854684Y-123396197D01*
X152860496Y-123372993D01*
X152868554Y-123350471D01*
X152878782Y-123328847D01*
X152891079Y-123308330D01*
X152905329Y-123289117D01*
X152921393Y-123271393D01*
X152939117Y-123255329D01*
X152958330Y-123241079D01*
X152978847Y-123228782D01*
X153000471Y-123218554D01*
X153022993Y-123210496D01*
X153046197Y-123204684D01*
X153069858Y-123201174D01*
X153093750Y-123200000D01*
X153581250Y-123200000D01*
X153605142Y-123201174D01*
G37*
G36*
X148880142Y-127376174D02*
G01*
X148903803Y-127379684D01*
X148927007Y-127385496D01*
X148949529Y-127393554D01*
X148971153Y-127403782D01*
X148991670Y-127416079D01*
X149010883Y-127430329D01*
X149028607Y-127446393D01*
X149044671Y-127464117D01*
X149058921Y-127483330D01*
X149071218Y-127503847D01*
X149081446Y-127525471D01*
X149089504Y-127547993D01*
X149095316Y-127571197D01*
X149098826Y-127594858D01*
X149100000Y-127618750D01*
X149100000Y-128106250D01*
X149098826Y-128130142D01*
X149095316Y-128153803D01*
X149089504Y-128177007D01*
X149081446Y-128199529D01*
X149071218Y-128221153D01*
X149058921Y-128241670D01*
X149044671Y-128260883D01*
X149028607Y-128278607D01*
X149010883Y-128294671D01*
X148991670Y-128308921D01*
X148971153Y-128321218D01*
X148949529Y-128331446D01*
X148927007Y-128339504D01*
X148903803Y-128345316D01*
X148880142Y-128348826D01*
X148856250Y-128350000D01*
X147943750Y-128350000D01*
X147919858Y-128348826D01*
X147896197Y-128345316D01*
X147872993Y-128339504D01*
X147850471Y-128331446D01*
X147828847Y-128321218D01*
X147808330Y-128308921D01*
X147789117Y-128294671D01*
X147771393Y-128278607D01*
X147755329Y-128260883D01*
X147741079Y-128241670D01*
X147728782Y-128221153D01*
X147718554Y-128199529D01*
X147710496Y-128177007D01*
X147704684Y-128153803D01*
X147701174Y-128130142D01*
X147700000Y-128106250D01*
X147700000Y-127618750D01*
X147701174Y-127594858D01*
X147704684Y-127571197D01*
X147710496Y-127547993D01*
X147718554Y-127525471D01*
X147728782Y-127503847D01*
X147741079Y-127483330D01*
X147755329Y-127464117D01*
X147771393Y-127446393D01*
X147789117Y-127430329D01*
X147808330Y-127416079D01*
X147828847Y-127403782D01*
X147850471Y-127393554D01*
X147872993Y-127385496D01*
X147896197Y-127379684D01*
X147919858Y-127376174D01*
X147943750Y-127375000D01*
X148856250Y-127375000D01*
X148880142Y-127376174D01*
G37*
G36*
X148880142Y-129251174D02*
G01*
X148903803Y-129254684D01*
X148927007Y-129260496D01*
X148949529Y-129268554D01*
X148971153Y-129278782D01*
X148991670Y-129291079D01*
X149010883Y-129305329D01*
X149028607Y-129321393D01*
X149044671Y-129339117D01*
X149058921Y-129358330D01*
X149071218Y-129378847D01*
X149081446Y-129400471D01*
X149089504Y-129422993D01*
X149095316Y-129446197D01*
X149098826Y-129469858D01*
X149100000Y-129493750D01*
X149100000Y-129981250D01*
X149098826Y-130005142D01*
X149095316Y-130028803D01*
X149089504Y-130052007D01*
X149081446Y-130074529D01*
X149071218Y-130096153D01*
X149058921Y-130116670D01*
X149044671Y-130135883D01*
X149028607Y-130153607D01*
X149010883Y-130169671D01*
X148991670Y-130183921D01*
X148971153Y-130196218D01*
X148949529Y-130206446D01*
X148927007Y-130214504D01*
X148903803Y-130220316D01*
X148880142Y-130223826D01*
X148856250Y-130225000D01*
X147943750Y-130225000D01*
X147919858Y-130223826D01*
X147896197Y-130220316D01*
X147872993Y-130214504D01*
X147850471Y-130206446D01*
X147828847Y-130196218D01*
X147808330Y-130183921D01*
X147789117Y-130169671D01*
X147771393Y-130153607D01*
X147755329Y-130135883D01*
X147741079Y-130116670D01*
X147728782Y-130096153D01*
X147718554Y-130074529D01*
X147710496Y-130052007D01*
X147704684Y-130028803D01*
X147701174Y-130005142D01*
X147700000Y-129981250D01*
X147700000Y-129493750D01*
X147701174Y-129469858D01*
X147704684Y-129446197D01*
X147710496Y-129422993D01*
X147718554Y-129400471D01*
X147728782Y-129378847D01*
X147741079Y-129358330D01*
X147755329Y-129339117D01*
X147771393Y-129321393D01*
X147789117Y-129305329D01*
X147808330Y-129291079D01*
X147828847Y-129278782D01*
X147850471Y-129268554D01*
X147872993Y-129260496D01*
X147896197Y-129254684D01*
X147919858Y-129251174D01*
X147943750Y-129250000D01*
X148856250Y-129250000D01*
X148880142Y-129251174D01*
G37*
G36*
X154274504Y-131651204D02*
G01*
X154298773Y-131654804D01*
X154322571Y-131660765D01*
X154345671Y-131669030D01*
X154367849Y-131679520D01*
X154388893Y-131692133D01*
X154408598Y-131706747D01*
X154426777Y-131723223D01*
X154443253Y-131741402D01*
X154457867Y-131761107D01*
X154470480Y-131782151D01*
X154480970Y-131804329D01*
X154489235Y-131827429D01*
X154495196Y-131851227D01*
X154498796Y-131875496D01*
X154500000Y-131900000D01*
X154500000Y-134900000D01*
X154498796Y-134924504D01*
X154495196Y-134948773D01*
X154489235Y-134972571D01*
X154480970Y-134995671D01*
X154470480Y-135017849D01*
X154457867Y-135038893D01*
X154443253Y-135058598D01*
X154426777Y-135076777D01*
X154408598Y-135093253D01*
X154388893Y-135107867D01*
X154367849Y-135120480D01*
X154345671Y-135130970D01*
X154322571Y-135139235D01*
X154298773Y-135145196D01*
X154274504Y-135148796D01*
X154250000Y-135150000D01*
X153150000Y-135150000D01*
X153125496Y-135148796D01*
X153101227Y-135145196D01*
X153077429Y-135139235D01*
X153054329Y-135130970D01*
X153032151Y-135120480D01*
X153011107Y-135107867D01*
X152991402Y-135093253D01*
X152973223Y-135076777D01*
X152956747Y-135058598D01*
X152942133Y-135038893D01*
X152929520Y-135017849D01*
X152919030Y-134995671D01*
X152910765Y-134972571D01*
X152904804Y-134948773D01*
X152901204Y-134924504D01*
X152900000Y-134900000D01*
X152900000Y-131900000D01*
X152901204Y-131875496D01*
X152904804Y-131851227D01*
X152910765Y-131827429D01*
X152919030Y-131804329D01*
X152929520Y-131782151D01*
X152942133Y-131761107D01*
X152956747Y-131741402D01*
X152973223Y-131723223D01*
X152991402Y-131706747D01*
X153011107Y-131692133D01*
X153032151Y-131679520D01*
X153054329Y-131669030D01*
X153077429Y-131660765D01*
X153101227Y-131654804D01*
X153125496Y-131651204D01*
X153150000Y-131650000D01*
X154250000Y-131650000D01*
X154274504Y-131651204D01*
G37*
G36*
X154274504Y-126251204D02*
G01*
X154298773Y-126254804D01*
X154322571Y-126260765D01*
X154345671Y-126269030D01*
X154367849Y-126279520D01*
X154388893Y-126292133D01*
X154408598Y-126306747D01*
X154426777Y-126323223D01*
X154443253Y-126341402D01*
X154457867Y-126361107D01*
X154470480Y-126382151D01*
X154480970Y-126404329D01*
X154489235Y-126427429D01*
X154495196Y-126451227D01*
X154498796Y-126475496D01*
X154500000Y-126500000D01*
X154500000Y-129500000D01*
X154498796Y-129524504D01*
X154495196Y-129548773D01*
X154489235Y-129572571D01*
X154480970Y-129595671D01*
X154470480Y-129617849D01*
X154457867Y-129638893D01*
X154443253Y-129658598D01*
X154426777Y-129676777D01*
X154408598Y-129693253D01*
X154388893Y-129707867D01*
X154367849Y-129720480D01*
X154345671Y-129730970D01*
X154322571Y-129739235D01*
X154298773Y-129745196D01*
X154274504Y-129748796D01*
X154250000Y-129750000D01*
X153150000Y-129750000D01*
X153125496Y-129748796D01*
X153101227Y-129745196D01*
X153077429Y-129739235D01*
X153054329Y-129730970D01*
X153032151Y-129720480D01*
X153011107Y-129707867D01*
X152991402Y-129693253D01*
X152973223Y-129676777D01*
X152956747Y-129658598D01*
X152942133Y-129638893D01*
X152929520Y-129617849D01*
X152919030Y-129595671D01*
X152910765Y-129572571D01*
X152904804Y-129548773D01*
X152901204Y-129524504D01*
X152900000Y-129500000D01*
X152900000Y-126500000D01*
X152901204Y-126475496D01*
X152904804Y-126451227D01*
X152910765Y-126427429D01*
X152919030Y-126404329D01*
X152929520Y-126382151D01*
X152942133Y-126361107D01*
X152956747Y-126341402D01*
X152973223Y-126323223D01*
X152991402Y-126306747D01*
X153011107Y-126292133D01*
X153032151Y-126279520D01*
X153054329Y-126269030D01*
X153077429Y-126260765D01*
X153101227Y-126254804D01*
X153125496Y-126251204D01*
X153150000Y-126250000D01*
X154250000Y-126250000D01*
X154274504Y-126251204D01*
G37*
D17*
X116325000Y-116575000D03*
X116325000Y-117875000D03*
X118225000Y-117225000D03*
X116325000Y-117225000D03*
X118225000Y-117875000D03*
X118225000Y-116575000D03*
D12*
G36*
X150080142Y-110926174D02*
G01*
X150103803Y-110929684D01*
X150127007Y-110935496D01*
X150149529Y-110943554D01*
X150171153Y-110953782D01*
X150191670Y-110966079D01*
X150210883Y-110980329D01*
X150228607Y-110996393D01*
X150244671Y-111014117D01*
X150258921Y-111033330D01*
X150271218Y-111053847D01*
X150281446Y-111075471D01*
X150289504Y-111097993D01*
X150295316Y-111121197D01*
X150298826Y-111144858D01*
X150300000Y-111168750D01*
X150300000Y-112081250D01*
X150298826Y-112105142D01*
X150295316Y-112128803D01*
X150289504Y-112152007D01*
X150281446Y-112174529D01*
X150271218Y-112196153D01*
X150258921Y-112216670D01*
X150244671Y-112235883D01*
X150228607Y-112253607D01*
X150210883Y-112269671D01*
X150191670Y-112283921D01*
X150171153Y-112296218D01*
X150149529Y-112306446D01*
X150127007Y-112314504D01*
X150103803Y-112320316D01*
X150080142Y-112323826D01*
X150056250Y-112325000D01*
X149568750Y-112325000D01*
X149544858Y-112323826D01*
X149521197Y-112320316D01*
X149497993Y-112314504D01*
X149475471Y-112306446D01*
X149453847Y-112296218D01*
X149433330Y-112283921D01*
X149414117Y-112269671D01*
X149396393Y-112253607D01*
X149380329Y-112235883D01*
X149366079Y-112216670D01*
X149353782Y-112196153D01*
X149343554Y-112174529D01*
X149335496Y-112152007D01*
X149329684Y-112128803D01*
X149326174Y-112105142D01*
X149325000Y-112081250D01*
X149325000Y-111168750D01*
X149326174Y-111144858D01*
X149329684Y-111121197D01*
X149335496Y-111097993D01*
X149343554Y-111075471D01*
X149353782Y-111053847D01*
X149366079Y-111033330D01*
X149380329Y-111014117D01*
X149396393Y-110996393D01*
X149414117Y-110980329D01*
X149433330Y-110966079D01*
X149453847Y-110953782D01*
X149475471Y-110943554D01*
X149497993Y-110935496D01*
X149521197Y-110929684D01*
X149544858Y-110926174D01*
X149568750Y-110925000D01*
X150056250Y-110925000D01*
X150080142Y-110926174D01*
G37*
G36*
X148205142Y-110926174D02*
G01*
X148228803Y-110929684D01*
X148252007Y-110935496D01*
X148274529Y-110943554D01*
X148296153Y-110953782D01*
X148316670Y-110966079D01*
X148335883Y-110980329D01*
X148353607Y-110996393D01*
X148369671Y-111014117D01*
X148383921Y-111033330D01*
X148396218Y-111053847D01*
X148406446Y-111075471D01*
X148414504Y-111097993D01*
X148420316Y-111121197D01*
X148423826Y-111144858D01*
X148425000Y-111168750D01*
X148425000Y-112081250D01*
X148423826Y-112105142D01*
X148420316Y-112128803D01*
X148414504Y-112152007D01*
X148406446Y-112174529D01*
X148396218Y-112196153D01*
X148383921Y-112216670D01*
X148369671Y-112235883D01*
X148353607Y-112253607D01*
X148335883Y-112269671D01*
X148316670Y-112283921D01*
X148296153Y-112296218D01*
X148274529Y-112306446D01*
X148252007Y-112314504D01*
X148228803Y-112320316D01*
X148205142Y-112323826D01*
X148181250Y-112325000D01*
X147693750Y-112325000D01*
X147669858Y-112323826D01*
X147646197Y-112320316D01*
X147622993Y-112314504D01*
X147600471Y-112306446D01*
X147578847Y-112296218D01*
X147558330Y-112283921D01*
X147539117Y-112269671D01*
X147521393Y-112253607D01*
X147505329Y-112235883D01*
X147491079Y-112216670D01*
X147478782Y-112196153D01*
X147468554Y-112174529D01*
X147460496Y-112152007D01*
X147454684Y-112128803D01*
X147451174Y-112105142D01*
X147450000Y-112081250D01*
X147450000Y-111168750D01*
X147451174Y-111144858D01*
X147454684Y-111121197D01*
X147460496Y-111097993D01*
X147468554Y-111075471D01*
X147478782Y-111053847D01*
X147491079Y-111033330D01*
X147505329Y-111014117D01*
X147521393Y-110996393D01*
X147539117Y-110980329D01*
X147558330Y-110966079D01*
X147578847Y-110953782D01*
X147600471Y-110943554D01*
X147622993Y-110935496D01*
X147646197Y-110929684D01*
X147669858Y-110926174D01*
X147693750Y-110925000D01*
X148181250Y-110925000D01*
X148205142Y-110926174D01*
G37*
G36*
X114205142Y-118601174D02*
G01*
X114228803Y-118604684D01*
X114252007Y-118610496D01*
X114274529Y-118618554D01*
X114296153Y-118628782D01*
X114316670Y-118641079D01*
X114335883Y-118655329D01*
X114353607Y-118671393D01*
X114369671Y-118689117D01*
X114383921Y-118708330D01*
X114396218Y-118728847D01*
X114406446Y-118750471D01*
X114414504Y-118772993D01*
X114420316Y-118796197D01*
X114423826Y-118819858D01*
X114425000Y-118843750D01*
X114425000Y-119331250D01*
X114423826Y-119355142D01*
X114420316Y-119378803D01*
X114414504Y-119402007D01*
X114406446Y-119424529D01*
X114396218Y-119446153D01*
X114383921Y-119466670D01*
X114369671Y-119485883D01*
X114353607Y-119503607D01*
X114335883Y-119519671D01*
X114316670Y-119533921D01*
X114296153Y-119546218D01*
X114274529Y-119556446D01*
X114252007Y-119564504D01*
X114228803Y-119570316D01*
X114205142Y-119573826D01*
X114181250Y-119575000D01*
X113268750Y-119575000D01*
X113244858Y-119573826D01*
X113221197Y-119570316D01*
X113197993Y-119564504D01*
X113175471Y-119556446D01*
X113153847Y-119546218D01*
X113133330Y-119533921D01*
X113114117Y-119519671D01*
X113096393Y-119503607D01*
X113080329Y-119485883D01*
X113066079Y-119466670D01*
X113053782Y-119446153D01*
X113043554Y-119424529D01*
X113035496Y-119402007D01*
X113029684Y-119378803D01*
X113026174Y-119355142D01*
X113025000Y-119331250D01*
X113025000Y-118843750D01*
X113026174Y-118819858D01*
X113029684Y-118796197D01*
X113035496Y-118772993D01*
X113043554Y-118750471D01*
X113053782Y-118728847D01*
X113066079Y-118708330D01*
X113080329Y-118689117D01*
X113096393Y-118671393D01*
X113114117Y-118655329D01*
X113133330Y-118641079D01*
X113153847Y-118628782D01*
X113175471Y-118618554D01*
X113197993Y-118610496D01*
X113221197Y-118604684D01*
X113244858Y-118601174D01*
X113268750Y-118600000D01*
X114181250Y-118600000D01*
X114205142Y-118601174D01*
G37*
G36*
X114205142Y-116726174D02*
G01*
X114228803Y-116729684D01*
X114252007Y-116735496D01*
X114274529Y-116743554D01*
X114296153Y-116753782D01*
X114316670Y-116766079D01*
X114335883Y-116780329D01*
X114353607Y-116796393D01*
X114369671Y-116814117D01*
X114383921Y-116833330D01*
X114396218Y-116853847D01*
X114406446Y-116875471D01*
X114414504Y-116897993D01*
X114420316Y-116921197D01*
X114423826Y-116944858D01*
X114425000Y-116968750D01*
X114425000Y-117456250D01*
X114423826Y-117480142D01*
X114420316Y-117503803D01*
X114414504Y-117527007D01*
X114406446Y-117549529D01*
X114396218Y-117571153D01*
X114383921Y-117591670D01*
X114369671Y-117610883D01*
X114353607Y-117628607D01*
X114335883Y-117644671D01*
X114316670Y-117658921D01*
X114296153Y-117671218D01*
X114274529Y-117681446D01*
X114252007Y-117689504D01*
X114228803Y-117695316D01*
X114205142Y-117698826D01*
X114181250Y-117700000D01*
X113268750Y-117700000D01*
X113244858Y-117698826D01*
X113221197Y-117695316D01*
X113197993Y-117689504D01*
X113175471Y-117681446D01*
X113153847Y-117671218D01*
X113133330Y-117658921D01*
X113114117Y-117644671D01*
X113096393Y-117628607D01*
X113080329Y-117610883D01*
X113066079Y-117591670D01*
X113053782Y-117571153D01*
X113043554Y-117549529D01*
X113035496Y-117527007D01*
X113029684Y-117503803D01*
X113026174Y-117480142D01*
X113025000Y-117456250D01*
X113025000Y-116968750D01*
X113026174Y-116944858D01*
X113029684Y-116921197D01*
X113035496Y-116897993D01*
X113043554Y-116875471D01*
X113053782Y-116853847D01*
X113066079Y-116833330D01*
X113080329Y-116814117D01*
X113096393Y-116796393D01*
X113114117Y-116780329D01*
X113133330Y-116766079D01*
X113153847Y-116753782D01*
X113175471Y-116743554D01*
X113197993Y-116735496D01*
X113221197Y-116729684D01*
X113244858Y-116726174D01*
X113268750Y-116725000D01*
X114181250Y-116725000D01*
X114205142Y-116726174D01*
G37*
G36*
X148205142Y-113026174D02*
G01*
X148228803Y-113029684D01*
X148252007Y-113035496D01*
X148274529Y-113043554D01*
X148296153Y-113053782D01*
X148316670Y-113066079D01*
X148335883Y-113080329D01*
X148353607Y-113096393D01*
X148369671Y-113114117D01*
X148383921Y-113133330D01*
X148396218Y-113153847D01*
X148406446Y-113175471D01*
X148414504Y-113197993D01*
X148420316Y-113221197D01*
X148423826Y-113244858D01*
X148425000Y-113268750D01*
X148425000Y-114181250D01*
X148423826Y-114205142D01*
X148420316Y-114228803D01*
X148414504Y-114252007D01*
X148406446Y-114274529D01*
X148396218Y-114296153D01*
X148383921Y-114316670D01*
X148369671Y-114335883D01*
X148353607Y-114353607D01*
X148335883Y-114369671D01*
X148316670Y-114383921D01*
X148296153Y-114396218D01*
X148274529Y-114406446D01*
X148252007Y-114414504D01*
X148228803Y-114420316D01*
X148205142Y-114423826D01*
X148181250Y-114425000D01*
X147693750Y-114425000D01*
X147669858Y-114423826D01*
X147646197Y-114420316D01*
X147622993Y-114414504D01*
X147600471Y-114406446D01*
X147578847Y-114396218D01*
X147558330Y-114383921D01*
X147539117Y-114369671D01*
X147521393Y-114353607D01*
X147505329Y-114335883D01*
X147491079Y-114316670D01*
X147478782Y-114296153D01*
X147468554Y-114274529D01*
X147460496Y-114252007D01*
X147454684Y-114228803D01*
X147451174Y-114205142D01*
X147450000Y-114181250D01*
X147450000Y-113268750D01*
X147451174Y-113244858D01*
X147454684Y-113221197D01*
X147460496Y-113197993D01*
X147468554Y-113175471D01*
X147478782Y-113153847D01*
X147491079Y-113133330D01*
X147505329Y-113114117D01*
X147521393Y-113096393D01*
X147539117Y-113080329D01*
X147558330Y-113066079D01*
X147578847Y-113053782D01*
X147600471Y-113043554D01*
X147622993Y-113035496D01*
X147646197Y-113029684D01*
X147669858Y-113026174D01*
X147693750Y-113025000D01*
X148181250Y-113025000D01*
X148205142Y-113026174D01*
G37*
G36*
X150080142Y-113026174D02*
G01*
X150103803Y-113029684D01*
X150127007Y-113035496D01*
X150149529Y-113043554D01*
X150171153Y-113053782D01*
X150191670Y-113066079D01*
X150210883Y-113080329D01*
X150228607Y-113096393D01*
X150244671Y-113114117D01*
X150258921Y-113133330D01*
X150271218Y-113153847D01*
X150281446Y-113175471D01*
X150289504Y-113197993D01*
X150295316Y-113221197D01*
X150298826Y-113244858D01*
X150300000Y-113268750D01*
X150300000Y-114181250D01*
X150298826Y-114205142D01*
X150295316Y-114228803D01*
X150289504Y-114252007D01*
X150281446Y-114274529D01*
X150271218Y-114296153D01*
X150258921Y-114316670D01*
X150244671Y-114335883D01*
X150228607Y-114353607D01*
X150210883Y-114369671D01*
X150191670Y-114383921D01*
X150171153Y-114396218D01*
X150149529Y-114406446D01*
X150127007Y-114414504D01*
X150103803Y-114420316D01*
X150080142Y-114423826D01*
X150056250Y-114425000D01*
X149568750Y-114425000D01*
X149544858Y-114423826D01*
X149521197Y-114420316D01*
X149497993Y-114414504D01*
X149475471Y-114406446D01*
X149453847Y-114396218D01*
X149433330Y-114383921D01*
X149414117Y-114369671D01*
X149396393Y-114353607D01*
X149380329Y-114335883D01*
X149366079Y-114316670D01*
X149353782Y-114296153D01*
X149343554Y-114274529D01*
X149335496Y-114252007D01*
X149329684Y-114228803D01*
X149326174Y-114205142D01*
X149325000Y-114181250D01*
X149325000Y-113268750D01*
X149326174Y-113244858D01*
X149329684Y-113221197D01*
X149335496Y-113197993D01*
X149343554Y-113175471D01*
X149353782Y-113153847D01*
X149366079Y-113133330D01*
X149380329Y-113114117D01*
X149396393Y-113096393D01*
X149414117Y-113080329D01*
X149433330Y-113066079D01*
X149453847Y-113053782D01*
X149475471Y-113043554D01*
X149497993Y-113035496D01*
X149521197Y-113029684D01*
X149544858Y-113026174D01*
X149568750Y-113025000D01*
X150056250Y-113025000D01*
X150080142Y-113026174D01*
G37*
G36*
X121480142Y-116713674D02*
G01*
X121503803Y-116717184D01*
X121527007Y-116722996D01*
X121549529Y-116731054D01*
X121571153Y-116741282D01*
X121591670Y-116753579D01*
X121610883Y-116767829D01*
X121628607Y-116783893D01*
X121644671Y-116801617D01*
X121658921Y-116820830D01*
X121671218Y-116841347D01*
X121681446Y-116862971D01*
X121689504Y-116885493D01*
X121695316Y-116908697D01*
X121698826Y-116932358D01*
X121700000Y-116956250D01*
X121700000Y-117443750D01*
X121698826Y-117467642D01*
X121695316Y-117491303D01*
X121689504Y-117514507D01*
X121681446Y-117537029D01*
X121671218Y-117558653D01*
X121658921Y-117579170D01*
X121644671Y-117598383D01*
X121628607Y-117616107D01*
X121610883Y-117632171D01*
X121591670Y-117646421D01*
X121571153Y-117658718D01*
X121549529Y-117668946D01*
X121527007Y-117677004D01*
X121503803Y-117682816D01*
X121480142Y-117686326D01*
X121456250Y-117687500D01*
X120543750Y-117687500D01*
X120519858Y-117686326D01*
X120496197Y-117682816D01*
X120472993Y-117677004D01*
X120450471Y-117668946D01*
X120428847Y-117658718D01*
X120408330Y-117646421D01*
X120389117Y-117632171D01*
X120371393Y-117616107D01*
X120355329Y-117598383D01*
X120341079Y-117579170D01*
X120328782Y-117558653D01*
X120318554Y-117537029D01*
X120310496Y-117514507D01*
X120304684Y-117491303D01*
X120301174Y-117467642D01*
X120300000Y-117443750D01*
X120300000Y-116956250D01*
X120301174Y-116932358D01*
X120304684Y-116908697D01*
X120310496Y-116885493D01*
X120318554Y-116862971D01*
X120328782Y-116841347D01*
X120341079Y-116820830D01*
X120355329Y-116801617D01*
X120371393Y-116783893D01*
X120389117Y-116767829D01*
X120408330Y-116753579D01*
X120428847Y-116741282D01*
X120450471Y-116731054D01*
X120472993Y-116722996D01*
X120496197Y-116717184D01*
X120519858Y-116713674D01*
X120543750Y-116712500D01*
X121456250Y-116712500D01*
X121480142Y-116713674D01*
G37*
G36*
X121480142Y-114838674D02*
G01*
X121503803Y-114842184D01*
X121527007Y-114847996D01*
X121549529Y-114856054D01*
X121571153Y-114866282D01*
X121591670Y-114878579D01*
X121610883Y-114892829D01*
X121628607Y-114908893D01*
X121644671Y-114926617D01*
X121658921Y-114945830D01*
X121671218Y-114966347D01*
X121681446Y-114987971D01*
X121689504Y-115010493D01*
X121695316Y-115033697D01*
X121698826Y-115057358D01*
X121700000Y-115081250D01*
X121700000Y-115568750D01*
X121698826Y-115592642D01*
X121695316Y-115616303D01*
X121689504Y-115639507D01*
X121681446Y-115662029D01*
X121671218Y-115683653D01*
X121658921Y-115704170D01*
X121644671Y-115723383D01*
X121628607Y-115741107D01*
X121610883Y-115757171D01*
X121591670Y-115771421D01*
X121571153Y-115783718D01*
X121549529Y-115793946D01*
X121527007Y-115802004D01*
X121503803Y-115807816D01*
X121480142Y-115811326D01*
X121456250Y-115812500D01*
X120543750Y-115812500D01*
X120519858Y-115811326D01*
X120496197Y-115807816D01*
X120472993Y-115802004D01*
X120450471Y-115793946D01*
X120428847Y-115783718D01*
X120408330Y-115771421D01*
X120389117Y-115757171D01*
X120371393Y-115741107D01*
X120355329Y-115723383D01*
X120341079Y-115704170D01*
X120328782Y-115683653D01*
X120318554Y-115662029D01*
X120310496Y-115639507D01*
X120304684Y-115616303D01*
X120301174Y-115592642D01*
X120300000Y-115568750D01*
X120300000Y-115081250D01*
X120301174Y-115057358D01*
X120304684Y-115033697D01*
X120310496Y-115010493D01*
X120318554Y-114987971D01*
X120328782Y-114966347D01*
X120341079Y-114945830D01*
X120355329Y-114926617D01*
X120371393Y-114908893D01*
X120389117Y-114892829D01*
X120408330Y-114878579D01*
X120428847Y-114866282D01*
X120450471Y-114856054D01*
X120472993Y-114847996D01*
X120496197Y-114842184D01*
X120519858Y-114838674D01*
X120543750Y-114837500D01*
X121456250Y-114837500D01*
X121480142Y-114838674D01*
G37*
D18*
X147925000Y-109025000D03*
X147925000Y-101225000D03*
X143525000Y-101250000D03*
X143525000Y-109050000D03*
D19*
X136000000Y-127755000D03*
D20*
X143500000Y-135255000D03*
X143500000Y-133985000D03*
X143500000Y-132715000D03*
X143500000Y-131445000D03*
X143500000Y-130175000D03*
X143500000Y-128905000D03*
X143500000Y-127635000D03*
X143500000Y-126365000D03*
X143500000Y-125095000D03*
X143500000Y-123825000D03*
X143500000Y-122555000D03*
X143500000Y-121285000D03*
X143500000Y-120015000D03*
X143500000Y-118745000D03*
D21*
X140715000Y-117745000D03*
X139445000Y-117745000D03*
X138175000Y-117745000D03*
X136905000Y-117745000D03*
X135635000Y-117745000D03*
X134365000Y-117745000D03*
X133095000Y-117745000D03*
X131825000Y-117745000D03*
X130555000Y-117745000D03*
X129285000Y-117745000D03*
D20*
X126500000Y-118745000D03*
X126500000Y-120015000D03*
X126500000Y-121285000D03*
X126500000Y-122555000D03*
X126500000Y-123825000D03*
X126500000Y-125095000D03*
X126500000Y-126365000D03*
X126500000Y-127635000D03*
X126500000Y-128905000D03*
X126500000Y-130175000D03*
X126500000Y-131445000D03*
X126500000Y-132715000D03*
X126500000Y-133985000D03*
X126500000Y-135255000D03*
D12*
G36*
X107905142Y-102101174D02*
G01*
X107928803Y-102104684D01*
X107952007Y-102110496D01*
X107974529Y-102118554D01*
X107996153Y-102128782D01*
X108016670Y-102141079D01*
X108035883Y-102155329D01*
X108053607Y-102171393D01*
X108069671Y-102189117D01*
X108083921Y-102208330D01*
X108096218Y-102228847D01*
X108106446Y-102250471D01*
X108114504Y-102272993D01*
X108120316Y-102296197D01*
X108123826Y-102319858D01*
X108125000Y-102343750D01*
X108125000Y-103256250D01*
X108123826Y-103280142D01*
X108120316Y-103303803D01*
X108114504Y-103327007D01*
X108106446Y-103349529D01*
X108096218Y-103371153D01*
X108083921Y-103391670D01*
X108069671Y-103410883D01*
X108053607Y-103428607D01*
X108035883Y-103444671D01*
X108016670Y-103458921D01*
X107996153Y-103471218D01*
X107974529Y-103481446D01*
X107952007Y-103489504D01*
X107928803Y-103495316D01*
X107905142Y-103498826D01*
X107881250Y-103500000D01*
X107393750Y-103500000D01*
X107369858Y-103498826D01*
X107346197Y-103495316D01*
X107322993Y-103489504D01*
X107300471Y-103481446D01*
X107278847Y-103471218D01*
X107258330Y-103458921D01*
X107239117Y-103444671D01*
X107221393Y-103428607D01*
X107205329Y-103410883D01*
X107191079Y-103391670D01*
X107178782Y-103371153D01*
X107168554Y-103349529D01*
X107160496Y-103327007D01*
X107154684Y-103303803D01*
X107151174Y-103280142D01*
X107150000Y-103256250D01*
X107150000Y-102343750D01*
X107151174Y-102319858D01*
X107154684Y-102296197D01*
X107160496Y-102272993D01*
X107168554Y-102250471D01*
X107178782Y-102228847D01*
X107191079Y-102208330D01*
X107205329Y-102189117D01*
X107221393Y-102171393D01*
X107239117Y-102155329D01*
X107258330Y-102141079D01*
X107278847Y-102128782D01*
X107300471Y-102118554D01*
X107322993Y-102110496D01*
X107346197Y-102104684D01*
X107369858Y-102101174D01*
X107393750Y-102100000D01*
X107881250Y-102100000D01*
X107905142Y-102101174D01*
G37*
G36*
X106030142Y-102101174D02*
G01*
X106053803Y-102104684D01*
X106077007Y-102110496D01*
X106099529Y-102118554D01*
X106121153Y-102128782D01*
X106141670Y-102141079D01*
X106160883Y-102155329D01*
X106178607Y-102171393D01*
X106194671Y-102189117D01*
X106208921Y-102208330D01*
X106221218Y-102228847D01*
X106231446Y-102250471D01*
X106239504Y-102272993D01*
X106245316Y-102296197D01*
X106248826Y-102319858D01*
X106250000Y-102343750D01*
X106250000Y-103256250D01*
X106248826Y-103280142D01*
X106245316Y-103303803D01*
X106239504Y-103327007D01*
X106231446Y-103349529D01*
X106221218Y-103371153D01*
X106208921Y-103391670D01*
X106194671Y-103410883D01*
X106178607Y-103428607D01*
X106160883Y-103444671D01*
X106141670Y-103458921D01*
X106121153Y-103471218D01*
X106099529Y-103481446D01*
X106077007Y-103489504D01*
X106053803Y-103495316D01*
X106030142Y-103498826D01*
X106006250Y-103500000D01*
X105518750Y-103500000D01*
X105494858Y-103498826D01*
X105471197Y-103495316D01*
X105447993Y-103489504D01*
X105425471Y-103481446D01*
X105403847Y-103471218D01*
X105383330Y-103458921D01*
X105364117Y-103444671D01*
X105346393Y-103428607D01*
X105330329Y-103410883D01*
X105316079Y-103391670D01*
X105303782Y-103371153D01*
X105293554Y-103349529D01*
X105285496Y-103327007D01*
X105279684Y-103303803D01*
X105276174Y-103280142D01*
X105275000Y-103256250D01*
X105275000Y-102343750D01*
X105276174Y-102319858D01*
X105279684Y-102296197D01*
X105285496Y-102272993D01*
X105293554Y-102250471D01*
X105303782Y-102228847D01*
X105316079Y-102208330D01*
X105330329Y-102189117D01*
X105346393Y-102171393D01*
X105364117Y-102155329D01*
X105383330Y-102141079D01*
X105403847Y-102128782D01*
X105425471Y-102118554D01*
X105447993Y-102110496D01*
X105471197Y-102104684D01*
X105494858Y-102101174D01*
X105518750Y-102100000D01*
X106006250Y-102100000D01*
X106030142Y-102101174D01*
G37*
M02*
