M48
; DRILL file {KiCad (5.1.5)-3} date 12/16/2020 12:15:19 AM
; FORMAT={-:-/ absolute / inch / decimal}
; #@! TF.CreationDate,2020-12-16T00:15:19-05:00
; #@! TF.GenerationSoftware,Kicad,Pcbnew,(5.1.5)-3
FMAT,2
INCH
T1C0.0079
T2C0.0157
%
G90
G05
T1
X4.7648Y-7.2274
X4.7864Y-7.1594
X4.8789Y-7.1496
X4.9754Y-7.1772
X5.0059Y-7.2008
X5.0167Y-7.1191
X5.0551Y-4.2431
X5.2057Y-7.1161
X5.2343Y-7.0522
X5.2382Y-7.1339
X5.2844Y-4.375
X5.3474Y-4.2943
X5.3583Y-4.3317
X5.4242Y-7.0197
X5.4587Y-7.0344
X5.4616Y-6.9429
X5.4823Y-4.4813
X5.5581Y-4.4104
X5.563Y-4.4488
X5.623Y-6.8917
X5.6358Y-6.8278
X5.6614Y-6.8996
X5.6772Y-4.5935
X5.748Y-4.56
X5.748Y-4.5935
X5.7982Y-6.6683
X5.7992Y-6.7333
X5.8337Y-4.7618
X5.8366Y-6.7362
X5.8671Y-6.6024
X5.9075Y-4.7717
X5.9134Y-4.7372
X5.9321Y-6.4813
X5.938Y-4.872
X5.9498Y-6.5482
X5.9636Y-4.9459
X5.9862Y-6.5443
X6.0354Y-4.9705
X6.0413Y-6.2766
X6.0463Y-4.937
X6.0679Y-6.3435
X6.0699Y-5.1545
X6.1043Y-6.3346
X6.1181Y-6.06
X6.1319Y-5.189
X6.1319Y-5.376
X6.1486Y-5.1565
X6.1545Y-6.122
X6.1594Y-5.8366
X6.1624Y-5.6093
X6.1801Y-5.7461
X6.189Y-6.1073
X6.1919Y-5.4183
X6.2037Y-5.8907
X6.2136Y-5.3878
X6.2165Y-5.6545
X6.2372Y-5.8701
X6.2461Y-5.628
T2
X4.7913Y-4.1447
X4.7923Y-4.3199
X4.8701Y-4.1457
X4.8711Y-4.3199
X4.9075Y-4.2303
X4.9646Y-4.2874
X4.9921Y-4.2431
T0
M30
