G04 #@! TF.GenerationSoftware,KiCad,Pcbnew,(5.1.5)-3*
G04 #@! TF.CreationDate,2020-12-16T00:15:17-05:00*
G04 #@! TF.ProjectId,pixel,70697865-6c2e-46b6-9963-61645f706362,0.1a*
G04 #@! TF.SameCoordinates,Original*
G04 #@! TF.FileFunction,Copper,L2,Bot*
G04 #@! TF.FilePolarity,Positive*
%FSLAX46Y46*%
G04 Gerber Fmt 4.6, Leading zero omitted, Abs format (unit mm)*
G04 Created by KiCad (PCBNEW (5.1.5)-3) date 2020-12-16 00:15:17*
%MOMM*%
%LPD*%
G04 APERTURE LIST*
%ADD10C,0.100000*%
%ADD11R,0.800000X0.500000*%
%ADD12R,0.800000X0.300000*%
%ADD13C,0.600000*%
%ADD14C,0.400000*%
%ADD15C,0.200000*%
%ADD16C,0.254000*%
G04 APERTURE END LIST*
G04 #@! TA.AperFunction,SMDPad,CuDef*
D10*
G36*
X130858693Y-107438091D02*
G01*
X130383165Y-107283582D01*
X130630379Y-106522737D01*
X131105907Y-106677246D01*
X130858693Y-107438091D01*
G37*
G04 #@! TD.AperFunction*
G04 #@! TA.AperFunction,SMDPad,CuDef*
G36*
X132570595Y-107994322D02*
G01*
X132095067Y-107839813D01*
X132342281Y-107078968D01*
X132817809Y-107233477D01*
X132570595Y-107994322D01*
G37*
G04 #@! TD.AperFunction*
G04 #@! TA.AperFunction,SMDPad,CuDef*
G36*
X131619539Y-107685304D02*
G01*
X131334222Y-107592599D01*
X131581435Y-106831754D01*
X131866752Y-106924459D01*
X131619539Y-107685304D01*
G37*
G04 #@! TD.AperFunction*
G04 #@! TA.AperFunction,SMDPad,CuDef*
G36*
X133731524Y-108443533D02*
G01*
X133269584Y-108252191D01*
X133575730Y-107513087D01*
X134037670Y-107704429D01*
X133731524Y-108443533D01*
G37*
G04 #@! TD.AperFunction*
G04 #@! TA.AperFunction,SMDPad,CuDef*
G36*
X135394507Y-109132363D02*
G01*
X134932567Y-108941021D01*
X135238713Y-108201917D01*
X135700653Y-108393259D01*
X135394507Y-109132363D01*
G37*
G04 #@! TD.AperFunction*
G04 #@! TA.AperFunction,SMDPad,CuDef*
G36*
X134470627Y-108749679D02*
G01*
X134193463Y-108634874D01*
X134499609Y-107895771D01*
X134776773Y-108010576D01*
X134470627Y-108749679D01*
G37*
G04 #@! TD.AperFunction*
G04 #@! TA.AperFunction,SMDPad,CuDef*
G36*
X126205084Y-182679142D02*
G01*
X126698928Y-182600925D01*
X126824076Y-183391076D01*
X126330232Y-183469293D01*
X126205084Y-182679142D01*
G37*
G04 #@! TD.AperFunction*
G04 #@! TA.AperFunction,SMDPad,CuDef*
G36*
X124427245Y-182960724D02*
G01*
X124921089Y-182882507D01*
X125046237Y-183672658D01*
X124552393Y-183750875D01*
X124427245Y-182960724D01*
G37*
G04 #@! TD.AperFunction*
G04 #@! TA.AperFunction,SMDPad,CuDef*
G36*
X125414933Y-182804290D02*
G01*
X125711239Y-182757359D01*
X125836387Y-183547510D01*
X125540081Y-183594441D01*
X125414933Y-182804290D01*
G37*
G04 #@! TD.AperFunction*
G04 #@! TA.AperFunction,SMDPad,CuDef*
G36*
X132095067Y-181160187D02*
G01*
X132570595Y-181005678D01*
X132817809Y-181766523D01*
X132342281Y-181921032D01*
X132095067Y-181160187D01*
G37*
G04 #@! TD.AperFunction*
G04 #@! TA.AperFunction,SMDPad,CuDef*
G36*
X130383165Y-181716418D02*
G01*
X130858693Y-181561909D01*
X131105907Y-182322754D01*
X130630379Y-182477263D01*
X130383165Y-181716418D01*
G37*
G04 #@! TD.AperFunction*
G04 #@! TA.AperFunction,SMDPad,CuDef*
G36*
X131334222Y-181407401D02*
G01*
X131619539Y-181314696D01*
X131866752Y-182075541D01*
X131581435Y-182168246D01*
X131334222Y-181407401D01*
G37*
G04 #@! TD.AperFunction*
G04 #@! TA.AperFunction,SMDPad,CuDef*
G36*
X137674918Y-178738537D02*
G01*
X138120421Y-178511542D01*
X138483614Y-179224347D01*
X138038111Y-179451342D01*
X137674918Y-178738537D01*
G37*
G04 #@! TD.AperFunction*
G04 #@! TA.AperFunction,SMDPad,CuDef*
G36*
X136071106Y-179555720D02*
G01*
X136516609Y-179328725D01*
X136879802Y-180041530D01*
X136434299Y-180268525D01*
X136071106Y-179555720D01*
G37*
G04 #@! TD.AperFunction*
G04 #@! TA.AperFunction,SMDPad,CuDef*
G36*
X136962113Y-179101730D02*
G01*
X137229415Y-178965533D01*
X137592607Y-179678338D01*
X137325305Y-179814535D01*
X136962113Y-179101730D01*
G37*
G04 #@! TD.AperFunction*
G04 #@! TA.AperFunction,SMDPad,CuDef*
G36*
X142807242Y-175473820D02*
G01*
X143211750Y-175179927D01*
X143681978Y-175827140D01*
X143277470Y-176121033D01*
X142807242Y-175473820D01*
G37*
G04 #@! TD.AperFunction*
G04 #@! TA.AperFunction,SMDPad,CuDef*
G36*
X141351011Y-176531834D02*
G01*
X141755519Y-176237941D01*
X142225747Y-176885154D01*
X141821239Y-177179047D01*
X141351011Y-176531834D01*
G37*
G04 #@! TD.AperFunction*
G04 #@! TA.AperFunction,SMDPad,CuDef*
G36*
X142160027Y-175944048D02*
G01*
X142402732Y-175767712D01*
X142872961Y-176414926D01*
X142630256Y-176591262D01*
X142160027Y-175944048D01*
G37*
G04 #@! TD.AperFunction*
G04 #@! TA.AperFunction,SMDPad,CuDef*
G36*
X147365665Y-171446425D02*
G01*
X147719218Y-171092872D01*
X148284903Y-171658557D01*
X147931350Y-172012110D01*
X147365665Y-171446425D01*
G37*
G04 #@! TD.AperFunction*
G04 #@! TA.AperFunction,SMDPad,CuDef*
G36*
X146092872Y-172719218D02*
G01*
X146446425Y-172365665D01*
X147012110Y-172931350D01*
X146658557Y-173284903D01*
X146092872Y-172719218D01*
G37*
G04 #@! TD.AperFunction*
G04 #@! TA.AperFunction,SMDPad,CuDef*
G36*
X146799978Y-172012110D02*
G01*
X147012110Y-171799978D01*
X147577796Y-172365664D01*
X147365664Y-172577796D01*
X146799978Y-172012110D01*
G37*
G04 #@! TD.AperFunction*
G04 #@! TA.AperFunction,SMDPad,CuDef*
G36*
X151237941Y-166755519D02*
G01*
X151531834Y-166351011D01*
X152179047Y-166821239D01*
X151885154Y-167225747D01*
X151237941Y-166755519D01*
G37*
G04 #@! TD.AperFunction*
G04 #@! TA.AperFunction,SMDPad,CuDef*
G36*
X150179927Y-168211750D02*
G01*
X150473820Y-167807242D01*
X151121033Y-168277470D01*
X150827140Y-168681978D01*
X150179927Y-168211750D01*
G37*
G04 #@! TD.AperFunction*
G04 #@! TA.AperFunction,SMDPad,CuDef*
G36*
X150767712Y-167402732D02*
G01*
X150944048Y-167160027D01*
X151591262Y-167630256D01*
X151414926Y-167872961D01*
X150767712Y-167402732D01*
G37*
G04 #@! TD.AperFunction*
G04 #@! TA.AperFunction,SMDPad,CuDef*
G36*
X154328725Y-161516609D02*
G01*
X154555720Y-161071106D01*
X155268525Y-161434299D01*
X155041530Y-161879802D01*
X154328725Y-161516609D01*
G37*
G04 #@! TD.AperFunction*
G04 #@! TA.AperFunction,SMDPad,CuDef*
G36*
X153511542Y-163120421D02*
G01*
X153738537Y-162674918D01*
X154451342Y-163038111D01*
X154224347Y-163483614D01*
X153511542Y-163120421D01*
G37*
G04 #@! TD.AperFunction*
G04 #@! TA.AperFunction,SMDPad,CuDef*
G36*
X153965533Y-162229415D02*
G01*
X154101730Y-161962113D01*
X154814535Y-162325305D01*
X154678338Y-162592607D01*
X153965533Y-162229415D01*
G37*
G04 #@! TD.AperFunction*
G04 #@! TA.AperFunction,SMDPad,CuDef*
G36*
X156561909Y-155858693D02*
G01*
X156716418Y-155383165D01*
X157477263Y-155630379D01*
X157322754Y-156105907D01*
X156561909Y-155858693D01*
G37*
G04 #@! TD.AperFunction*
G04 #@! TA.AperFunction,SMDPad,CuDef*
G36*
X156005678Y-157570595D02*
G01*
X156160187Y-157095067D01*
X156921032Y-157342281D01*
X156766523Y-157817809D01*
X156005678Y-157570595D01*
G37*
G04 #@! TD.AperFunction*
G04 #@! TA.AperFunction,SMDPad,CuDef*
G36*
X156314696Y-156619539D02*
G01*
X156407401Y-156334222D01*
X157168246Y-156581435D01*
X157075541Y-156866752D01*
X156314696Y-156619539D01*
G37*
G04 #@! TD.AperFunction*
G04 #@! TA.AperFunction,SMDPad,CuDef*
G36*
X157882507Y-149921089D02*
G01*
X157960724Y-149427245D01*
X158750875Y-149552393D01*
X158672658Y-150046237D01*
X157882507Y-149921089D01*
G37*
G04 #@! TD.AperFunction*
G04 #@! TA.AperFunction,SMDPad,CuDef*
G36*
X157600925Y-151698928D02*
G01*
X157679142Y-151205084D01*
X158469293Y-151330232D01*
X158391076Y-151824076D01*
X157600925Y-151698928D01*
G37*
G04 #@! TD.AperFunction*
G04 #@! TA.AperFunction,SMDPad,CuDef*
G36*
X157757359Y-150711239D02*
G01*
X157804290Y-150414933D01*
X158594441Y-150540081D01*
X158547510Y-150836387D01*
X157757359Y-150711239D01*
G37*
G04 #@! TD.AperFunction*
G04 #@! TA.AperFunction,SMDPad,CuDef*
G36*
X136516609Y-109671275D02*
G01*
X136071106Y-109444280D01*
X136434299Y-108731475D01*
X136879802Y-108958470D01*
X136516609Y-109671275D01*
G37*
G04 #@! TD.AperFunction*
G04 #@! TA.AperFunction,SMDPad,CuDef*
G36*
X138120421Y-110488458D02*
G01*
X137674918Y-110261463D01*
X138038111Y-109548658D01*
X138483614Y-109775653D01*
X138120421Y-110488458D01*
G37*
G04 #@! TD.AperFunction*
G04 #@! TA.AperFunction,SMDPad,CuDef*
G36*
X137229415Y-110034467D02*
G01*
X136962113Y-109898270D01*
X137325305Y-109185465D01*
X137592607Y-109321662D01*
X137229415Y-110034467D01*
G37*
G04 #@! TD.AperFunction*
G04 #@! TA.AperFunction,SMDPad,CuDef*
G36*
X141755519Y-112762059D02*
G01*
X141351011Y-112468166D01*
X141821239Y-111820953D01*
X142225747Y-112114846D01*
X141755519Y-112762059D01*
G37*
G04 #@! TD.AperFunction*
G04 #@! TA.AperFunction,SMDPad,CuDef*
G36*
X143211750Y-113820073D02*
G01*
X142807242Y-113526180D01*
X143277470Y-112878967D01*
X143681978Y-113172860D01*
X143211750Y-113820073D01*
G37*
G04 #@! TD.AperFunction*
G04 #@! TA.AperFunction,SMDPad,CuDef*
G36*
X142402732Y-113232288D02*
G01*
X142160027Y-113055952D01*
X142630256Y-112408738D01*
X142872961Y-112585074D01*
X142402732Y-113232288D01*
G37*
G04 #@! TD.AperFunction*
G04 #@! TA.AperFunction,SMDPad,CuDef*
G36*
X146446425Y-116634335D02*
G01*
X146092872Y-116280782D01*
X146658557Y-115715097D01*
X147012110Y-116068650D01*
X146446425Y-116634335D01*
G37*
G04 #@! TD.AperFunction*
G04 #@! TA.AperFunction,SMDPad,CuDef*
G36*
X147719218Y-117907128D02*
G01*
X147365665Y-117553575D01*
X147931350Y-116987890D01*
X148284903Y-117341443D01*
X147719218Y-117907128D01*
G37*
G04 #@! TD.AperFunction*
G04 #@! TA.AperFunction,SMDPad,CuDef*
G36*
X147012110Y-117200022D02*
G01*
X146799978Y-116987890D01*
X147365664Y-116422204D01*
X147577796Y-116634336D01*
X147012110Y-117200022D01*
G37*
G04 #@! TD.AperFunction*
G04 #@! TA.AperFunction,SMDPad,CuDef*
G36*
X150473820Y-121192758D02*
G01*
X150179927Y-120788250D01*
X150827140Y-120318022D01*
X151121033Y-120722530D01*
X150473820Y-121192758D01*
G37*
G04 #@! TD.AperFunction*
G04 #@! TA.AperFunction,SMDPad,CuDef*
G36*
X151531834Y-122648989D02*
G01*
X151237941Y-122244481D01*
X151885154Y-121774253D01*
X152179047Y-122178761D01*
X151531834Y-122648989D01*
G37*
G04 #@! TD.AperFunction*
G04 #@! TA.AperFunction,SMDPad,CuDef*
G36*
X150944048Y-121839973D02*
G01*
X150767712Y-121597268D01*
X151414926Y-121127039D01*
X151591262Y-121369744D01*
X150944048Y-121839973D01*
G37*
G04 #@! TD.AperFunction*
G04 #@! TA.AperFunction,SMDPad,CuDef*
G36*
X153738537Y-126325082D02*
G01*
X153511542Y-125879579D01*
X154224347Y-125516386D01*
X154451342Y-125961889D01*
X153738537Y-126325082D01*
G37*
G04 #@! TD.AperFunction*
G04 #@! TA.AperFunction,SMDPad,CuDef*
G36*
X154555720Y-127928894D02*
G01*
X154328725Y-127483391D01*
X155041530Y-127120198D01*
X155268525Y-127565701D01*
X154555720Y-127928894D01*
G37*
G04 #@! TD.AperFunction*
G04 #@! TA.AperFunction,SMDPad,CuDef*
G36*
X154101730Y-127037887D02*
G01*
X153965533Y-126770585D01*
X154678338Y-126407393D01*
X154814535Y-126674695D01*
X154101730Y-127037887D01*
G37*
G04 #@! TD.AperFunction*
G04 #@! TA.AperFunction,SMDPad,CuDef*
G36*
X156160187Y-131904933D02*
G01*
X156005678Y-131429405D01*
X156766523Y-131182191D01*
X156921032Y-131657719D01*
X156160187Y-131904933D01*
G37*
G04 #@! TD.AperFunction*
G04 #@! TA.AperFunction,SMDPad,CuDef*
G36*
X156716418Y-133616835D02*
G01*
X156561909Y-133141307D01*
X157322754Y-132894093D01*
X157477263Y-133369621D01*
X156716418Y-133616835D01*
G37*
G04 #@! TD.AperFunction*
G04 #@! TA.AperFunction,SMDPad,CuDef*
G36*
X156407401Y-132665778D02*
G01*
X156314696Y-132380461D01*
X157075541Y-132133248D01*
X157168246Y-132418565D01*
X156407401Y-132665778D01*
G37*
G04 #@! TD.AperFunction*
G04 #@! TA.AperFunction,SMDPad,CuDef*
G36*
X157679142Y-137794916D02*
G01*
X157600925Y-137301072D01*
X158391076Y-137175924D01*
X158469293Y-137669768D01*
X157679142Y-137794916D01*
G37*
G04 #@! TD.AperFunction*
G04 #@! TA.AperFunction,SMDPad,CuDef*
G36*
X157960724Y-139572755D02*
G01*
X157882507Y-139078911D01*
X158672658Y-138953763D01*
X158750875Y-139447607D01*
X157960724Y-139572755D01*
G37*
G04 #@! TD.AperFunction*
G04 #@! TA.AperFunction,SMDPad,CuDef*
G36*
X157804290Y-138585067D02*
G01*
X157757359Y-138288761D01*
X158547510Y-138163613D01*
X158594441Y-138459919D01*
X157804290Y-138585067D01*
G37*
G04 #@! TD.AperFunction*
D11*
X158658000Y-143600000D03*
X158658000Y-145400000D03*
D12*
X158658000Y-144500000D03*
G04 #@! TA.AperFunction,SMDPad,CuDef*
D10*
G36*
X139196783Y-111113749D02*
G01*
X138770463Y-110852499D01*
X139188461Y-110170387D01*
X139614781Y-110431637D01*
X139196783Y-111113749D01*
G37*
G04 #@! TD.AperFunction*
G04 #@! TA.AperFunction,SMDPad,CuDef*
G36*
X140731536Y-112054247D02*
G01*
X140305216Y-111792997D01*
X140723214Y-111110885D01*
X141149534Y-111372135D01*
X140731536Y-112054247D01*
G37*
G04 #@! TD.AperFunction*
G04 #@! TA.AperFunction,SMDPad,CuDef*
G36*
X139878895Y-111531748D02*
G01*
X139623103Y-111374998D01*
X140041101Y-110692886D01*
X140296893Y-110849636D01*
X139878895Y-111531748D01*
G37*
G04 #@! TD.AperFunction*
G04 #@! TA.AperFunction,SMDPad,CuDef*
G36*
X144177043Y-114606044D02*
G01*
X143796840Y-114281320D01*
X144316399Y-113672996D01*
X144696602Y-113997720D01*
X144177043Y-114606044D01*
G37*
G04 #@! TD.AperFunction*
G04 #@! TA.AperFunction,SMDPad,CuDef*
G36*
X145545774Y-115775050D02*
G01*
X145165571Y-115450326D01*
X145685130Y-114842002D01*
X146065333Y-115166726D01*
X145545774Y-115775050D01*
G37*
G04 #@! TD.AperFunction*
G04 #@! TA.AperFunction,SMDPad,CuDef*
G36*
X144785369Y-115125603D02*
G01*
X144557247Y-114930768D01*
X145076805Y-114322443D01*
X145304927Y-114517278D01*
X144785369Y-115125603D01*
G37*
G04 #@! TD.AperFunction*
G04 #@! TA.AperFunction,SMDPad,CuDef*
G36*
X148549674Y-118834429D02*
G01*
X148224950Y-118454226D01*
X148833274Y-117934667D01*
X149157998Y-118314870D01*
X148549674Y-118834429D01*
G37*
G04 #@! TD.AperFunction*
G04 #@! TA.AperFunction,SMDPad,CuDef*
G36*
X149718680Y-120203160D02*
G01*
X149393956Y-119822957D01*
X150002280Y-119303398D01*
X150327004Y-119683601D01*
X149718680Y-120203160D01*
G37*
G04 #@! TD.AperFunction*
G04 #@! TA.AperFunction,SMDPad,CuDef*
G36*
X149069232Y-119442753D02*
G01*
X148874397Y-119214631D01*
X149482722Y-118695073D01*
X149677557Y-118923195D01*
X149069232Y-119442753D01*
G37*
G04 #@! TD.AperFunction*
G04 #@! TA.AperFunction,SMDPad,CuDef*
G36*
X152207003Y-123694784D02*
G01*
X151945753Y-123268464D01*
X152627865Y-122850466D01*
X152889115Y-123276786D01*
X152207003Y-123694784D01*
G37*
G04 #@! TD.AperFunction*
G04 #@! TA.AperFunction,SMDPad,CuDef*
G36*
X153147501Y-125229537D02*
G01*
X152886251Y-124803217D01*
X153568363Y-124385219D01*
X153829613Y-124811539D01*
X153147501Y-125229537D01*
G37*
G04 #@! TD.AperFunction*
G04 #@! TA.AperFunction,SMDPad,CuDef*
G36*
X152625002Y-124376897D02*
G01*
X152468252Y-124121105D01*
X153150364Y-123703107D01*
X153307114Y-123958899D01*
X152625002Y-124376897D01*
G37*
G04 #@! TD.AperFunction*
G04 #@! TA.AperFunction,SMDPad,CuDef*
G36*
X155058979Y-129067433D02*
G01*
X154867637Y-128605493D01*
X155606741Y-128299347D01*
X155798083Y-128761287D01*
X155058979Y-129067433D01*
G37*
G04 #@! TD.AperFunction*
G04 #@! TA.AperFunction,SMDPad,CuDef*
G36*
X155747809Y-130730416D02*
G01*
X155556467Y-130268476D01*
X156295571Y-129962330D01*
X156486913Y-130424270D01*
X155747809Y-130730416D01*
G37*
G04 #@! TD.AperFunction*
G04 #@! TA.AperFunction,SMDPad,CuDef*
G36*
X155365126Y-129806537D02*
G01*
X155250321Y-129529373D01*
X155989424Y-129223227D01*
X156104229Y-129500391D01*
X155365126Y-129806537D01*
G37*
G04 #@! TD.AperFunction*
G04 #@! TA.AperFunction,SMDPad,CuDef*
G36*
X157035374Y-134820084D02*
G01*
X156918652Y-134333899D01*
X157696548Y-134147142D01*
X157813270Y-134633327D01*
X157035374Y-134820084D01*
G37*
G04 #@! TD.AperFunction*
G04 #@! TA.AperFunction,SMDPad,CuDef*
G36*
X157455575Y-136570350D02*
G01*
X157338853Y-136084165D01*
X158116749Y-135897408D01*
X158233471Y-136383593D01*
X157455575Y-136570350D01*
G37*
G04 #@! TD.AperFunction*
G04 #@! TA.AperFunction,SMDPad,CuDef*
G36*
X157222130Y-135597980D02*
G01*
X157152096Y-135306269D01*
X157929992Y-135119512D01*
X158000026Y-135411223D01*
X157222130Y-135597980D01*
G37*
G04 #@! TD.AperFunction*
G04 #@! TA.AperFunction,SMDPad,CuDef*
G36*
X158087524Y-140811086D02*
G01*
X158048294Y-140312627D01*
X158845828Y-140249860D01*
X158885058Y-140748319D01*
X158087524Y-140811086D01*
G37*
G04 #@! TD.AperFunction*
G04 #@! TA.AperFunction,SMDPad,CuDef*
G36*
X158228750Y-142605538D02*
G01*
X158189520Y-142107079D01*
X158987054Y-142044312D01*
X159026284Y-142542771D01*
X158228750Y-142605538D01*
G37*
G04 #@! TD.AperFunction*
G04 #@! TA.AperFunction,SMDPad,CuDef*
G36*
X158150291Y-141608620D02*
G01*
X158126753Y-141309545D01*
X158924287Y-141246778D01*
X158947825Y-141545853D01*
X158150291Y-141608620D01*
G37*
G04 #@! TD.AperFunction*
G04 #@! TA.AperFunction,SMDPad,CuDef*
G36*
X158189520Y-146892921D02*
G01*
X158228750Y-146394462D01*
X159026284Y-146457229D01*
X158987054Y-146955688D01*
X158189520Y-146892921D01*
G37*
G04 #@! TD.AperFunction*
G04 #@! TA.AperFunction,SMDPad,CuDef*
G36*
X158048294Y-148687373D02*
G01*
X158087524Y-148188914D01*
X158885058Y-148251681D01*
X158845828Y-148750140D01*
X158048294Y-148687373D01*
G37*
G04 #@! TD.AperFunction*
G04 #@! TA.AperFunction,SMDPad,CuDef*
G36*
X158126753Y-147690455D02*
G01*
X158150291Y-147391380D01*
X158947825Y-147454147D01*
X158924287Y-147753222D01*
X158126753Y-147690455D01*
G37*
G04 #@! TD.AperFunction*
G04 #@! TA.AperFunction,SMDPad,CuDef*
G36*
X157338853Y-152915835D02*
G01*
X157455575Y-152429650D01*
X158233471Y-152616407D01*
X158116749Y-153102592D01*
X157338853Y-152915835D01*
G37*
G04 #@! TD.AperFunction*
G04 #@! TA.AperFunction,SMDPad,CuDef*
G36*
X156918652Y-154666101D02*
G01*
X157035374Y-154179916D01*
X157813270Y-154366673D01*
X157696548Y-154852858D01*
X156918652Y-154666101D01*
G37*
G04 #@! TD.AperFunction*
G04 #@! TA.AperFunction,SMDPad,CuDef*
G36*
X157152096Y-153693731D02*
G01*
X157222130Y-153402020D01*
X158000026Y-153588777D01*
X157929992Y-153880488D01*
X157152096Y-153693731D01*
G37*
G04 #@! TD.AperFunction*
G04 #@! TA.AperFunction,SMDPad,CuDef*
G36*
X155556467Y-158731524D02*
G01*
X155747809Y-158269584D01*
X156486913Y-158575730D01*
X156295571Y-159037670D01*
X155556467Y-158731524D01*
G37*
G04 #@! TD.AperFunction*
G04 #@! TA.AperFunction,SMDPad,CuDef*
G36*
X154867637Y-160394507D02*
G01*
X155058979Y-159932567D01*
X155798083Y-160238713D01*
X155606741Y-160700653D01*
X154867637Y-160394507D01*
G37*
G04 #@! TD.AperFunction*
G04 #@! TA.AperFunction,SMDPad,CuDef*
G36*
X155250321Y-159470627D02*
G01*
X155365126Y-159193463D01*
X156104229Y-159499609D01*
X155989424Y-159776773D01*
X155250321Y-159470627D01*
G37*
G04 #@! TD.AperFunction*
G04 #@! TA.AperFunction,SMDPad,CuDef*
G36*
X152886251Y-164196783D02*
G01*
X153147501Y-163770463D01*
X153829613Y-164188461D01*
X153568363Y-164614781D01*
X152886251Y-164196783D01*
G37*
G04 #@! TD.AperFunction*
G04 #@! TA.AperFunction,SMDPad,CuDef*
G36*
X151945753Y-165731536D02*
G01*
X152207003Y-165305216D01*
X152889115Y-165723214D01*
X152627865Y-166149534D01*
X151945753Y-165731536D01*
G37*
G04 #@! TD.AperFunction*
G04 #@! TA.AperFunction,SMDPad,CuDef*
G36*
X152468252Y-164878895D02*
G01*
X152625002Y-164623103D01*
X153307114Y-165041101D01*
X153150364Y-165296893D01*
X152468252Y-164878895D01*
G37*
G04 #@! TD.AperFunction*
G04 #@! TA.AperFunction,SMDPad,CuDef*
G36*
X149393956Y-169177043D02*
G01*
X149718680Y-168796840D01*
X150327004Y-169316399D01*
X150002280Y-169696602D01*
X149393956Y-169177043D01*
G37*
G04 #@! TD.AperFunction*
G04 #@! TA.AperFunction,SMDPad,CuDef*
G36*
X148224950Y-170545774D02*
G01*
X148549674Y-170165571D01*
X149157998Y-170685130D01*
X148833274Y-171065333D01*
X148224950Y-170545774D01*
G37*
G04 #@! TD.AperFunction*
G04 #@! TA.AperFunction,SMDPad,CuDef*
G36*
X148874397Y-169785369D02*
G01*
X149069232Y-169557247D01*
X149677557Y-170076805D01*
X149482722Y-170304927D01*
X148874397Y-169785369D01*
G37*
G04 #@! TD.AperFunction*
G04 #@! TA.AperFunction,SMDPad,CuDef*
G36*
X145165571Y-173549674D02*
G01*
X145545774Y-173224950D01*
X146065333Y-173833274D01*
X145685130Y-174157998D01*
X145165571Y-173549674D01*
G37*
G04 #@! TD.AperFunction*
G04 #@! TA.AperFunction,SMDPad,CuDef*
G36*
X143796840Y-174718680D02*
G01*
X144177043Y-174393956D01*
X144696602Y-175002280D01*
X144316399Y-175327004D01*
X143796840Y-174718680D01*
G37*
G04 #@! TD.AperFunction*
G04 #@! TA.AperFunction,SMDPad,CuDef*
G36*
X144557247Y-174069232D02*
G01*
X144785369Y-173874397D01*
X145304927Y-174482722D01*
X145076805Y-174677557D01*
X144557247Y-174069232D01*
G37*
G04 #@! TD.AperFunction*
G04 #@! TA.AperFunction,SMDPad,CuDef*
G36*
X140305216Y-177207003D02*
G01*
X140731536Y-176945753D01*
X141149534Y-177627865D01*
X140723214Y-177889115D01*
X140305216Y-177207003D01*
G37*
G04 #@! TD.AperFunction*
G04 #@! TA.AperFunction,SMDPad,CuDef*
G36*
X138770463Y-178147501D02*
G01*
X139196783Y-177886251D01*
X139614781Y-178568363D01*
X139188461Y-178829613D01*
X138770463Y-178147501D01*
G37*
G04 #@! TD.AperFunction*
G04 #@! TA.AperFunction,SMDPad,CuDef*
G36*
X139623103Y-177625002D02*
G01*
X139878895Y-177468252D01*
X140296893Y-178150364D01*
X140041101Y-178307114D01*
X139623103Y-177625002D01*
G37*
G04 #@! TD.AperFunction*
G04 #@! TA.AperFunction,SMDPad,CuDef*
G36*
X134932567Y-180058979D02*
G01*
X135394507Y-179867637D01*
X135700653Y-180606741D01*
X135238713Y-180798083D01*
X134932567Y-180058979D01*
G37*
G04 #@! TD.AperFunction*
G04 #@! TA.AperFunction,SMDPad,CuDef*
G36*
X133269584Y-180747809D02*
G01*
X133731524Y-180556467D01*
X134037670Y-181295571D01*
X133575730Y-181486913D01*
X133269584Y-180747809D01*
G37*
G04 #@! TD.AperFunction*
G04 #@! TA.AperFunction,SMDPad,CuDef*
G36*
X134193463Y-180365126D02*
G01*
X134470627Y-180250321D01*
X134776773Y-180989424D01*
X134499609Y-181104229D01*
X134193463Y-180365126D01*
G37*
G04 #@! TD.AperFunction*
G04 #@! TA.AperFunction,SMDPad,CuDef*
G36*
X129179916Y-182035374D02*
G01*
X129666101Y-181918652D01*
X129852858Y-182696548D01*
X129366673Y-182813270D01*
X129179916Y-182035374D01*
G37*
G04 #@! TD.AperFunction*
G04 #@! TA.AperFunction,SMDPad,CuDef*
G36*
X127429650Y-182455575D02*
G01*
X127915835Y-182338853D01*
X128102592Y-183116749D01*
X127616407Y-183233471D01*
X127429650Y-182455575D01*
G37*
G04 #@! TD.AperFunction*
G04 #@! TA.AperFunction,SMDPad,CuDef*
G36*
X128402020Y-182222130D02*
G01*
X128693731Y-182152096D01*
X128880488Y-182929992D01*
X128588777Y-183000026D01*
X128402020Y-182222130D01*
G37*
G04 #@! TD.AperFunction*
G04 #@! TA.AperFunction,SMDPad,CuDef*
G36*
X123188914Y-183087524D02*
G01*
X123687373Y-183048294D01*
X123750140Y-183845828D01*
X123251681Y-183885058D01*
X123188914Y-183087524D01*
G37*
G04 #@! TD.AperFunction*
G04 #@! TA.AperFunction,SMDPad,CuDef*
G36*
X121394462Y-183228750D02*
G01*
X121892921Y-183189520D01*
X121955688Y-183987054D01*
X121457229Y-184026284D01*
X121394462Y-183228750D01*
G37*
G04 #@! TD.AperFunction*
G04 #@! TA.AperFunction,SMDPad,CuDef*
G36*
X122391380Y-183150291D02*
G01*
X122690455Y-183126753D01*
X122753222Y-183924287D01*
X122454147Y-183947825D01*
X122391380Y-183150291D01*
G37*
G04 #@! TD.AperFunction*
D13*
X123700000Y-105300000D03*
X121700000Y-105275000D03*
X124650000Y-107450000D03*
X123725000Y-109725000D03*
X121725000Y-109725000D03*
D14*
X134225000Y-111125000D03*
X136100000Y-110025000D03*
X139250000Y-113825000D03*
X141300000Y-113000000D03*
X146000000Y-116675000D03*
X144200000Y-116675000D03*
X150050000Y-121200000D03*
X148175000Y-120950000D03*
X153300000Y-126250000D03*
X155750000Y-131800000D03*
X157275000Y-137625000D03*
X157900000Y-143625000D03*
X157575000Y-149625000D03*
X156325000Y-155500000D03*
X154125000Y-161125000D03*
X151125000Y-166325000D03*
X147300000Y-171025000D03*
X142825000Y-175050000D03*
X137775000Y-178300000D03*
X132225000Y-180750000D03*
X126375000Y-182300000D03*
X151475000Y-125625000D03*
X154175000Y-130925000D03*
X155750000Y-136550000D03*
X156525000Y-142475000D03*
X156450000Y-148250000D03*
X155400000Y-153925000D03*
X153450000Y-159425000D03*
X150675000Y-164625000D03*
X147275000Y-169375000D03*
X143150000Y-173425000D03*
X138725000Y-176350000D03*
X132950000Y-179125000D03*
X127425000Y-180825000D03*
X121575000Y-181850000D03*
X156975000Y-145950000D03*
X128400000Y-107775000D03*
X150825000Y-123750000D03*
X149025000Y-167700000D03*
X123925000Y-181600000D03*
X135825000Y-109075000D03*
X141175000Y-112025000D03*
X146000000Y-115825000D03*
X150200000Y-120325000D03*
X153575000Y-125400000D03*
X156175000Y-130975000D03*
X157825000Y-136850000D03*
X158650000Y-142950000D03*
X158425000Y-149100000D03*
X157200000Y-155125000D03*
X155050000Y-160900000D03*
X152050000Y-166225000D03*
X148250000Y-171100000D03*
X143800000Y-175250000D03*
X138650000Y-178675000D03*
X133050000Y-181200000D03*
X127150000Y-182900000D03*
X121025000Y-183575000D03*
D13*
X126800000Y-107775000D03*
X126100000Y-108900000D03*
D15*
X136475454Y-109201375D02*
X136100000Y-110025000D01*
X141788379Y-112291506D02*
X141300000Y-113000000D01*
X146552491Y-116174716D02*
X146000000Y-116675000D01*
X150650480Y-120755390D02*
X150050000Y-121200000D01*
X153981442Y-125920734D02*
X153300000Y-126250000D01*
X156463355Y-131543562D02*
X155750000Y-131800000D01*
X158035109Y-137485420D02*
X157275000Y-137625000D01*
X158658000Y-143600000D02*
X157900000Y-143625000D01*
X158316691Y-149736741D02*
X157575000Y-149625000D01*
X157019586Y-155744536D02*
X156325000Y-155500000D01*
X154798625Y-161475454D02*
X154125000Y-161125000D01*
X151708494Y-166788379D02*
X151125000Y-166325000D01*
X147825284Y-171552491D02*
X147300000Y-171025000D01*
X143244610Y-175650480D02*
X142825000Y-175050000D01*
X138079266Y-178981442D02*
X137775000Y-178300000D01*
X132456438Y-181463355D02*
X132225000Y-180750000D01*
X126514580Y-183035109D02*
X126375000Y-182300000D01*
X135316610Y-108667140D02*
X135825000Y-109075000D01*
X140727375Y-111582566D02*
X141175000Y-112025000D01*
X145615452Y-115308526D02*
X146000000Y-115825000D01*
X149860480Y-119753279D02*
X150200000Y-120325000D01*
X153357932Y-124807378D02*
X153575000Y-125400000D01*
X156021690Y-130346373D02*
X156175000Y-130975000D01*
X157786162Y-136233879D02*
X157825000Y-136850000D01*
X158607902Y-142324925D02*
X158650000Y-142950000D01*
X158466676Y-148469527D02*
X158425000Y-149100000D01*
X157365961Y-154516387D02*
X157200000Y-155125000D01*
X155332860Y-160316610D02*
X155050000Y-160900000D01*
X152417434Y-165727375D02*
X152050000Y-166225000D01*
X148691474Y-170615452D02*
X148250000Y-171100000D01*
X144246721Y-174860480D02*
X143800000Y-175250000D01*
X139192622Y-178357932D02*
X138650000Y-178675000D01*
X133653627Y-181021690D02*
X133050000Y-181200000D01*
X127766121Y-182786162D02*
X127150000Y-182900000D01*
X121675075Y-183607902D02*
X121025000Y-183575000D01*
X126800000Y-107775000D02*
X126800000Y-108225000D01*
X126800000Y-108225000D02*
X127325000Y-108750000D01*
X127325000Y-108750000D02*
X130650000Y-108750000D01*
X131600487Y-107799513D02*
X131600487Y-107258529D01*
X130650000Y-108750000D02*
X131600487Y-107799513D01*
X126100000Y-108900000D02*
X126625000Y-109425000D01*
X126625000Y-109425000D02*
X131000000Y-109425000D01*
X132456438Y-107968562D02*
X132456438Y-107536645D01*
X131000000Y-109425000D02*
X132456438Y-107968562D01*
X134485118Y-108322725D02*
X133925000Y-109575000D01*
X133925000Y-109575000D02*
X136625000Y-110900000D01*
X136625000Y-110900000D02*
X137277360Y-109609966D01*
X133653627Y-107978310D02*
X132875000Y-109825000D01*
X132875000Y-109825000D02*
X137225000Y-111625000D01*
X137225000Y-111625000D02*
X138079266Y-110018558D01*
X139192622Y-110642068D02*
X138050000Y-112400000D01*
X138050000Y-112400000D02*
X141925000Y-115000000D01*
X141925000Y-115000000D02*
X143244610Y-113349520D01*
X139959998Y-111112317D02*
X139175000Y-112325000D01*
X139175000Y-112325000D02*
X141650000Y-113925000D01*
X141650000Y-113925000D02*
X142516494Y-112820513D01*
X144246721Y-114139520D02*
X143475000Y-115025000D01*
X143475000Y-115025000D02*
X143800000Y-115600000D01*
X143800000Y-115600000D02*
X145950000Y-117925000D01*
X145950000Y-117925000D02*
X146800000Y-118325000D01*
X146800000Y-118325000D02*
X147825284Y-117447509D01*
X144931087Y-114724023D02*
X144225000Y-115450000D01*
X144225000Y-115450000D02*
X145925000Y-117250000D01*
X145925000Y-117250000D02*
X146225000Y-117600000D01*
X146225000Y-117600000D02*
X147188887Y-116811113D01*
X148691474Y-118384548D02*
X147950000Y-119100000D01*
X147950000Y-119100000D02*
X148175000Y-119750000D01*
X148175000Y-119750000D02*
X149375000Y-121775000D01*
X149375000Y-121775000D02*
X150050000Y-122575000D01*
X150050000Y-122575000D02*
X151708494Y-122211621D01*
X149275977Y-119068913D02*
X148575000Y-119675000D01*
X148575000Y-119675000D02*
X149725000Y-121525000D01*
X149725000Y-121525000D02*
X150150000Y-121975000D01*
X150150000Y-121975000D02*
X151179487Y-121483506D01*
X152417434Y-123272625D02*
X151600000Y-123950000D01*
X151600000Y-123950000D02*
X152325000Y-126275000D01*
X152325000Y-126275000D02*
X152875000Y-127175000D01*
X152875000Y-127175000D02*
X153675000Y-127650000D01*
X153675000Y-127650000D02*
X154798625Y-127524546D01*
X152887683Y-124040002D02*
X152175000Y-124675000D01*
X152175000Y-124675000D02*
X153025000Y-126775000D01*
X153025000Y-126775000D02*
X153250000Y-126975000D01*
X153250000Y-126975000D02*
X153675000Y-127000000D01*
X153675000Y-127000000D02*
X154390034Y-126722640D01*
X156741471Y-132399513D02*
X155700000Y-132700000D01*
X155700000Y-132700000D02*
X155300000Y-132125000D01*
X155300000Y-132125000D02*
X154850000Y-129875000D01*
X154850000Y-129875000D02*
X155677275Y-129514882D01*
X155332860Y-128683390D02*
X154375000Y-129000000D01*
X154375000Y-129000000D02*
X154875000Y-132175000D01*
X154875000Y-132175000D02*
X155325000Y-133000000D01*
X155325000Y-133000000D02*
X155850000Y-133450000D01*
X155850000Y-133450000D02*
X157019586Y-133255464D01*
X158175900Y-138374340D02*
X157125000Y-138550000D01*
X157125000Y-138550000D02*
X156725000Y-137750000D01*
X156725000Y-137750000D02*
X156700000Y-135625000D01*
X156700000Y-135625000D02*
X157576061Y-135358746D01*
X157365961Y-134483613D02*
X156350000Y-134675000D01*
X156350000Y-134675000D02*
X156350000Y-137850000D01*
X156350000Y-137850000D02*
X156850000Y-138875000D01*
X156850000Y-138875000D02*
X157525000Y-139375000D01*
X157525000Y-139375000D02*
X158316691Y-139263259D01*
X158658000Y-144500000D02*
X157525000Y-144550000D01*
X157525000Y-144550000D02*
X157325000Y-141900000D01*
X157325000Y-141900000D02*
X158537289Y-141427699D01*
X158466676Y-140530473D02*
X156925000Y-141425000D01*
X156925000Y-141425000D02*
X157125000Y-144825000D01*
X157125000Y-144825000D02*
X157700000Y-145350000D01*
X157700000Y-145350000D02*
X158658000Y-145400000D01*
X158537289Y-147572301D02*
X157525000Y-147500000D01*
X157525000Y-147500000D02*
X156925000Y-150400000D01*
X156925000Y-150400000D02*
X158175900Y-150625660D01*
X158607902Y-146675075D02*
X157375000Y-146650000D01*
X157375000Y-146650000D02*
X156525000Y-150425000D01*
X156525000Y-150425000D02*
X156700000Y-151025000D01*
X156700000Y-151025000D02*
X157200000Y-151450000D01*
X157200000Y-151450000D02*
X158035109Y-151514580D01*
X157576061Y-153641254D02*
X156650000Y-153400000D01*
X156650000Y-153400000D02*
X155875000Y-155225000D01*
X155875000Y-155225000D02*
X155700000Y-155950000D01*
X155700000Y-155950000D02*
X156025000Y-156375000D01*
X156025000Y-156375000D02*
X156741471Y-156600487D01*
X156463355Y-157456438D02*
X155375000Y-156425000D01*
X155375000Y-156425000D02*
X155300000Y-155750000D01*
X155300000Y-155750000D02*
X156375000Y-153025000D01*
X156375000Y-153025000D02*
X156875000Y-152725000D01*
X156875000Y-152725000D02*
X157786162Y-152766121D01*
X156021690Y-158653627D02*
X154825000Y-158550000D01*
X154825000Y-158550000D02*
X153675000Y-160025000D01*
X153675000Y-160025000D02*
X152975000Y-161800000D01*
X152975000Y-161800000D02*
X153125000Y-162400000D01*
X153125000Y-162400000D02*
X153981442Y-163079266D01*
X154390034Y-162277360D02*
X153425000Y-161700000D01*
X153425000Y-161700000D02*
X154075000Y-160100000D01*
X154075000Y-160100000D02*
X154775000Y-159300000D01*
X154775000Y-159300000D02*
X155677275Y-159485118D01*
X153357932Y-164192622D02*
X152475000Y-163825000D01*
X152475000Y-163825000D02*
X151350000Y-164625000D01*
X151350000Y-164625000D02*
X150700000Y-165275000D01*
X150700000Y-165275000D02*
X150075000Y-166475000D01*
X150075000Y-166475000D02*
X149975000Y-167275000D01*
X149975000Y-167275000D02*
X150650480Y-168244610D01*
X151179487Y-167516494D02*
X150450000Y-166925000D01*
X150450000Y-166925000D02*
X150675000Y-166225000D01*
X150675000Y-166225000D02*
X151425000Y-165050000D01*
X151425000Y-165050000D02*
X151975000Y-164650000D01*
X151975000Y-164650000D02*
X152887683Y-164959998D01*
X146552491Y-172825284D02*
X146075000Y-171575000D01*
X146075000Y-171575000D02*
X146275000Y-170925000D01*
X146275000Y-170925000D02*
X146775000Y-170300000D01*
X146775000Y-170300000D02*
X148100000Y-169400000D01*
X148100000Y-169400000D02*
X149075000Y-168775000D01*
X149075000Y-168775000D02*
X149860480Y-169246721D01*
X149275977Y-169931087D02*
X148700000Y-169425000D01*
X148700000Y-169425000D02*
X147200000Y-170500000D01*
X147200000Y-170500000D02*
X146800000Y-170800000D01*
X146800000Y-170800000D02*
X146625000Y-171075000D01*
X146625000Y-171075000D02*
X146550000Y-171275000D01*
X146550000Y-171275000D02*
X146675000Y-171700000D01*
X146675000Y-171700000D02*
X147188887Y-172188887D01*
X141788379Y-176708494D02*
X141375000Y-176050000D01*
X141375000Y-176050000D02*
X141725000Y-175000000D01*
X141725000Y-175000000D02*
X142025000Y-174400000D01*
X142025000Y-174400000D02*
X144050000Y-173525000D01*
X144050000Y-173525000D02*
X145225000Y-173100000D01*
X145225000Y-173100000D02*
X145615452Y-173691474D01*
X144931087Y-174275977D02*
X144475000Y-173750000D01*
X144475000Y-173750000D02*
X143075000Y-174425000D01*
X143075000Y-174425000D02*
X142225000Y-174825000D01*
X142225000Y-174825000D02*
X142150000Y-175225000D01*
X142150000Y-175225000D02*
X142516494Y-176179487D01*
X140727375Y-177417434D02*
X140200000Y-176525000D01*
X140200000Y-176525000D02*
X138425000Y-176925000D01*
X138425000Y-176925000D02*
X137425000Y-177475000D01*
X137425000Y-177475000D02*
X136650000Y-178050000D01*
X136650000Y-178050000D02*
X136225000Y-178775000D01*
X136225000Y-178775000D02*
X136200000Y-179200000D01*
X136200000Y-179200000D02*
X136475454Y-179798625D01*
X137277360Y-179390034D02*
X136925000Y-178675000D01*
X136925000Y-178675000D02*
X137200000Y-178100000D01*
X137200000Y-178100000D02*
X137975000Y-177625000D01*
X137975000Y-177625000D02*
X139450000Y-177050000D01*
X139450000Y-177050000D02*
X139959998Y-177887683D01*
X135316610Y-180332860D02*
X134850000Y-179175000D01*
X134850000Y-179175000D02*
X132475000Y-179775000D01*
X132475000Y-179775000D02*
X131100000Y-180275000D01*
X131100000Y-180275000D02*
X130500000Y-180725000D01*
X130500000Y-180725000D02*
X130525000Y-181200000D01*
X130525000Y-181200000D02*
X130744536Y-182019586D01*
X131600487Y-181741471D02*
X131275000Y-180675000D01*
X131275000Y-180675000D02*
X132375000Y-180200000D01*
X132375000Y-180200000D02*
X134125000Y-179775000D01*
X134125000Y-179775000D02*
X134485118Y-180677275D01*
X129516387Y-182365961D02*
X129300000Y-181500000D01*
X129300000Y-181500000D02*
X128300000Y-181225000D01*
X128300000Y-181225000D02*
X126575000Y-181450000D01*
X126575000Y-181450000D02*
X125325000Y-181775000D01*
X125325000Y-181775000D02*
X124700000Y-182250000D01*
X124700000Y-182250000D02*
X124650000Y-182675000D01*
X124650000Y-182675000D02*
X124736741Y-183316691D01*
X125625660Y-183175900D02*
X125500000Y-182100000D01*
X125500000Y-182100000D02*
X126200000Y-181900000D01*
X126200000Y-181900000D02*
X126700000Y-181775000D01*
X126700000Y-181775000D02*
X128075000Y-181600000D01*
X128075000Y-181600000D02*
X128475000Y-181800000D01*
X128475000Y-181800000D02*
X128641254Y-182576061D01*
D16*
G36*
X127194680Y-105307414D02*
G01*
X127194576Y-105308551D01*
X127194680Y-105323462D01*
X127194680Y-105338390D01*
X127194792Y-105339528D01*
X127195903Y-105498809D01*
X127194442Y-105513008D01*
X127196127Y-105530916D01*
X127196140Y-105532781D01*
X127197637Y-105546967D01*
X127200476Y-105577137D01*
X127201010Y-105578927D01*
X127201207Y-105580789D01*
X127210228Y-105609798D01*
X127214288Y-105623394D01*
X127214990Y-105625111D01*
X127220335Y-105642297D01*
X127227156Y-105654846D01*
X127283426Y-105792388D01*
X127286859Y-105804784D01*
X127295590Y-105822121D01*
X127296831Y-105825154D01*
X127302820Y-105836478D01*
X127315832Y-105862314D01*
X127317860Y-105864912D01*
X127319402Y-105867827D01*
X127337663Y-105890277D01*
X127345539Y-105900366D01*
X127347798Y-105902738D01*
X127360047Y-105917797D01*
X127369955Y-105926001D01*
X127472454Y-106033617D01*
X127481108Y-106044965D01*
X127494603Y-106056872D01*
X127495893Y-106058226D01*
X127506677Y-106067525D01*
X127529409Y-106087581D01*
X127531031Y-106088524D01*
X127532453Y-106089750D01*
X127558890Y-106104720D01*
X127571143Y-106111843D01*
X127572833Y-106112615D01*
X127588505Y-106121489D01*
X127602066Y-106125966D01*
X127745389Y-106191424D01*
X127758806Y-106199288D01*
X127774597Y-106204764D01*
X127775131Y-106205008D01*
X127789822Y-106210044D01*
X127804416Y-106215105D01*
X127804984Y-106215241D01*
X127820797Y-106220662D01*
X127836213Y-106222739D01*
X129899245Y-106718033D01*
X129863605Y-106827720D01*
X130014584Y-106876776D01*
X129814549Y-106978698D01*
X129780832Y-107073032D01*
X129751330Y-107194587D01*
X129746108Y-107319562D01*
X129765368Y-107443155D01*
X129808370Y-107560614D01*
X129873461Y-107667428D01*
X129958139Y-107759491D01*
X130059151Y-107833265D01*
X130156743Y-107877692D01*
X130356780Y-107775768D01*
X130588311Y-107063189D01*
X130565486Y-107055773D01*
X130608702Y-106922767D01*
X130888313Y-107013616D01*
X130845097Y-107146624D01*
X130822271Y-107139207D01*
X130590740Y-107851786D01*
X130692664Y-108051823D01*
X130794298Y-108072544D01*
X130493842Y-108373000D01*
X127481159Y-108373000D01*
X127249302Y-108141144D01*
X127311331Y-108048312D01*
X127354826Y-107943305D01*
X127377000Y-107831830D01*
X127377000Y-107718170D01*
X127354826Y-107606695D01*
X127311331Y-107501688D01*
X127248185Y-107407184D01*
X127167816Y-107326815D01*
X127073312Y-107263669D01*
X126968305Y-107220174D01*
X126856830Y-107198000D01*
X126743170Y-107198000D01*
X126631695Y-107220174D01*
X126526688Y-107263669D01*
X126432184Y-107326815D01*
X126351815Y-107407184D01*
X126288669Y-107501688D01*
X126245174Y-107606695D01*
X126223000Y-107718170D01*
X126223000Y-107831830D01*
X126245174Y-107943305D01*
X126288669Y-108048312D01*
X126351815Y-108142816D01*
X126422326Y-108213327D01*
X126421177Y-108225000D01*
X126423000Y-108243512D01*
X126423000Y-108243519D01*
X126425265Y-108266514D01*
X126428455Y-108298905D01*
X126450012Y-108369969D01*
X126485020Y-108435463D01*
X126520326Y-108478484D01*
X126520329Y-108478487D01*
X126532132Y-108492869D01*
X126546514Y-108504672D01*
X127045328Y-109003487D01*
X127057131Y-109017869D01*
X127071513Y-109029672D01*
X127071515Y-109029674D01*
X127076400Y-109033683D01*
X127093846Y-109048000D01*
X126781159Y-109048000D01*
X126677000Y-108943841D01*
X126677000Y-108843170D01*
X126654826Y-108731695D01*
X126611331Y-108626688D01*
X126548185Y-108532184D01*
X126467816Y-108451815D01*
X126373312Y-108388669D01*
X126268305Y-108345174D01*
X126156830Y-108323000D01*
X126043170Y-108323000D01*
X125931695Y-108345174D01*
X125826688Y-108388669D01*
X125732184Y-108451815D01*
X125651815Y-108532184D01*
X125588669Y-108626688D01*
X125545174Y-108731695D01*
X125523000Y-108843170D01*
X125523000Y-108956830D01*
X125545174Y-109068305D01*
X125588669Y-109173312D01*
X125651815Y-109267816D01*
X125732184Y-109348185D01*
X125826688Y-109411331D01*
X125931695Y-109454826D01*
X126043170Y-109477000D01*
X126143841Y-109477000D01*
X126345328Y-109678487D01*
X126357131Y-109692869D01*
X126371513Y-109704672D01*
X126371515Y-109704674D01*
X126381218Y-109712637D01*
X126414537Y-109739981D01*
X126480030Y-109774988D01*
X126551095Y-109796545D01*
X126606481Y-109802000D01*
X126606490Y-109802000D01*
X126624999Y-109803823D01*
X126643508Y-109802000D01*
X130981488Y-109802000D01*
X131000000Y-109803823D01*
X131018512Y-109802000D01*
X131018519Y-109802000D01*
X131073905Y-109796545D01*
X131144970Y-109774988D01*
X131210463Y-109739981D01*
X131267869Y-109692869D01*
X131279677Y-109678481D01*
X132709920Y-108248238D01*
X132724307Y-108236431D01*
X132746230Y-108209718D01*
X132782246Y-108175089D01*
X132813445Y-108130325D01*
X132835312Y-108080334D01*
X132962896Y-107687673D01*
X133130706Y-107742197D01*
X133172403Y-107759468D01*
X133012431Y-108145675D01*
X132996592Y-108197889D01*
X132991244Y-108252191D01*
X132996592Y-108306492D01*
X133012431Y-108358707D01*
X133038153Y-108406828D01*
X133055101Y-108427480D01*
X132534320Y-109662631D01*
X132524961Y-109680156D01*
X132514566Y-109714468D01*
X132503930Y-109748750D01*
X132503798Y-109750012D01*
X132503429Y-109751229D01*
X132499920Y-109786987D01*
X132496184Y-109822608D01*
X132496300Y-109823870D01*
X132496176Y-109825136D01*
X132499708Y-109860864D01*
X132502996Y-109896555D01*
X132503357Y-109897773D01*
X132503482Y-109899037D01*
X132513909Y-109933366D01*
X132524104Y-109967755D01*
X132524696Y-109968879D01*
X132525065Y-109970095D01*
X132541986Y-110001725D01*
X132558697Y-110033469D01*
X132559497Y-110034457D01*
X132560096Y-110035576D01*
X132582862Y-110063297D01*
X132605444Y-110091171D01*
X132606420Y-110091982D01*
X132607227Y-110092965D01*
X132635037Y-110115771D01*
X132662552Y-110138644D01*
X132663664Y-110139247D01*
X132664650Y-110140056D01*
X132696369Y-110156995D01*
X132727823Y-110174064D01*
X132746797Y-110179951D01*
X137046856Y-111959286D01*
X137047136Y-111959472D01*
X137081069Y-111973443D01*
X137097964Y-111980434D01*
X137098285Y-111980531D01*
X137115806Y-111987745D01*
X137133739Y-111991272D01*
X137151228Y-111996571D01*
X137170083Y-111998421D01*
X137188673Y-112002078D01*
X137206947Y-112002039D01*
X137225135Y-112003824D01*
X137243987Y-112001960D01*
X137262933Y-112001920D01*
X137280852Y-111998316D01*
X137299037Y-111996518D01*
X137317165Y-111991012D01*
X137335738Y-111987276D01*
X137352608Y-111980246D01*
X137370094Y-111974935D01*
X137386795Y-111966000D01*
X137404288Y-111958711D01*
X137419467Y-111948522D01*
X137435576Y-111939904D01*
X137450213Y-111927883D01*
X137465946Y-111917322D01*
X137478843Y-111904370D01*
X137492964Y-111892773D01*
X137504974Y-111878128D01*
X137518346Y-111864699D01*
X137528471Y-111849476D01*
X137540055Y-111835350D01*
X137548977Y-111818644D01*
X137549167Y-111818358D01*
X137557918Y-111801902D01*
X137575039Y-111769843D01*
X137575136Y-111769524D01*
X138108925Y-110765737D01*
X138153136Y-110764869D01*
X138206433Y-110753175D01*
X138256424Y-110731309D01*
X138301188Y-110700110D01*
X138339006Y-110660777D01*
X138368424Y-110614822D01*
X138560534Y-110237786D01*
X138717315Y-110317670D01*
X138756897Y-110341926D01*
X138533139Y-110707067D01*
X138509327Y-110756160D01*
X138495550Y-110808957D01*
X138492338Y-110863426D01*
X138499813Y-110917476D01*
X138517690Y-110969028D01*
X138523748Y-110979364D01*
X137745500Y-112176704D01*
X137735426Y-112188931D01*
X137725320Y-112207752D01*
X137723812Y-112210071D01*
X137716546Y-112224090D01*
X137700293Y-112254357D01*
X137699481Y-112257015D01*
X137698202Y-112259483D01*
X137688639Y-112292508D01*
X137678598Y-112325380D01*
X137678320Y-112328144D01*
X137677547Y-112330815D01*
X137674611Y-112365076D01*
X137671177Y-112399271D01*
X137671444Y-112402038D01*
X137671207Y-112404805D01*
X137675009Y-112438963D01*
X137678314Y-112473189D01*
X137679116Y-112475850D01*
X137679423Y-112478612D01*
X137689818Y-112511377D01*
X137699734Y-112544295D01*
X137701040Y-112546749D01*
X137701880Y-112549398D01*
X137718470Y-112579510D01*
X137734615Y-112609856D01*
X137736374Y-112612007D01*
X137737715Y-112614442D01*
X137759863Y-112640742D01*
X137781616Y-112667352D01*
X137783760Y-112669119D01*
X137785551Y-112671245D01*
X137812415Y-112692727D01*
X137824569Y-112702741D01*
X137826857Y-112704276D01*
X137843550Y-112717625D01*
X137857622Y-112724918D01*
X141686440Y-115293933D01*
X141688436Y-115295879D01*
X141717181Y-115314559D01*
X141730324Y-115323378D01*
X141732780Y-115324697D01*
X141750704Y-115336345D01*
X141765405Y-115342216D01*
X141779356Y-115349707D01*
X141799812Y-115355956D01*
X141819671Y-115363886D01*
X141835234Y-115366776D01*
X141850379Y-115371402D01*
X141871662Y-115373540D01*
X141892685Y-115377443D01*
X141908516Y-115377241D01*
X141924269Y-115378823D01*
X141945553Y-115376768D01*
X141966941Y-115376495D01*
X141982433Y-115373207D01*
X141998189Y-115371686D01*
X142018664Y-115365518D01*
X142039586Y-115361078D01*
X142054136Y-115354832D01*
X142069295Y-115350266D01*
X142088171Y-115340223D01*
X142107827Y-115331786D01*
X142120881Y-115322820D01*
X142134856Y-115315385D01*
X142151414Y-115301849D01*
X142169042Y-115289742D01*
X142180093Y-115278405D01*
X142192352Y-115268384D01*
X142205947Y-115251883D01*
X142207890Y-115249890D01*
X142217756Y-115237550D01*
X142239574Y-115211069D01*
X142240894Y-115208611D01*
X143137306Y-114087439D01*
X143146773Y-114090722D01*
X143200822Y-114098198D01*
X143255292Y-114094986D01*
X143308088Y-114081209D01*
X143357182Y-114057397D01*
X143400687Y-114024464D01*
X143436932Y-113983677D01*
X143691593Y-113633167D01*
X143832267Y-113735373D01*
X143869744Y-113767381D01*
X143585189Y-114100552D01*
X143553989Y-114145317D01*
X143532123Y-114195308D01*
X143520429Y-114248605D01*
X143519358Y-114303158D01*
X143528950Y-114356873D01*
X143537707Y-114379248D01*
X143196364Y-114770909D01*
X143176581Y-114791647D01*
X143162058Y-114814533D01*
X143146346Y-114836603D01*
X143142204Y-114845820D01*
X143136791Y-114854350D01*
X143127017Y-114879614D01*
X143115906Y-114904340D01*
X143113641Y-114914192D01*
X143109997Y-114923611D01*
X143105340Y-114950294D01*
X143099266Y-114976714D01*
X143098967Y-114986817D01*
X143097230Y-114996768D01*
X143097869Y-115023861D01*
X143097066Y-115050943D01*
X143098742Y-115060902D01*
X143098980Y-115071008D01*
X143104893Y-115097459D01*
X143109389Y-115124176D01*
X143112978Y-115133623D01*
X143115182Y-115143482D01*
X143126135Y-115168257D01*
X143135762Y-115193597D01*
X143150970Y-115217886D01*
X143465987Y-115775225D01*
X143477036Y-115797994D01*
X143495403Y-115822248D01*
X143512912Y-115847160D01*
X143531237Y-115864641D01*
X145659601Y-118166244D01*
X145669805Y-118179947D01*
X145684747Y-118193437D01*
X145685780Y-118194554D01*
X145698505Y-118205858D01*
X145724927Y-118229712D01*
X145726241Y-118230496D01*
X145727388Y-118231515D01*
X145758170Y-118249549D01*
X145772719Y-118258231D01*
X145774090Y-118258876D01*
X145791464Y-118269055D01*
X145807611Y-118274651D01*
X146617523Y-118655786D01*
X146628363Y-118662710D01*
X146651037Y-118671558D01*
X146656231Y-118674002D01*
X146668292Y-118678291D01*
X146697545Y-118689706D01*
X146703230Y-118690715D01*
X146708668Y-118692649D01*
X146739747Y-118697198D01*
X146770665Y-118702686D01*
X146776434Y-118702567D01*
X146782147Y-118703403D01*
X146813522Y-118701801D01*
X146844911Y-118701152D01*
X146850546Y-118699910D01*
X146856313Y-118699615D01*
X146886759Y-118691925D01*
X146917431Y-118685163D01*
X146922720Y-118682843D01*
X146928315Y-118681430D01*
X146956679Y-118667947D01*
X146985439Y-118655332D01*
X146990170Y-118652027D01*
X146995386Y-118649548D01*
X147020594Y-118630777D01*
X147031065Y-118623463D01*
X147035413Y-118619742D01*
X147054948Y-118605195D01*
X147063574Y-118595640D01*
X147584931Y-118149437D01*
X147612702Y-118164281D01*
X147664917Y-118180120D01*
X147719218Y-118185468D01*
X147773519Y-118180120D01*
X147825734Y-118164281D01*
X147873855Y-118138559D01*
X147916034Y-118103944D01*
X148229214Y-117790764D01*
X148349624Y-117911172D01*
X148384455Y-117951954D01*
X148044182Y-118242575D01*
X148006365Y-118281907D01*
X147976947Y-118327862D01*
X147957060Y-118378673D01*
X147947468Y-118432388D01*
X147948539Y-118486941D01*
X147960233Y-118540238D01*
X147968231Y-118558523D01*
X147707216Y-118810378D01*
X147698521Y-118816688D01*
X147680544Y-118836114D01*
X147674898Y-118841562D01*
X147667980Y-118849691D01*
X147648082Y-118871193D01*
X147643950Y-118877927D01*
X147638828Y-118883946D01*
X147624559Y-118909532D01*
X147609245Y-118934491D01*
X147606507Y-118941901D01*
X147602657Y-118948804D01*
X147593656Y-118976676D01*
X147583503Y-119004150D01*
X147582262Y-119011956D01*
X147579835Y-119019472D01*
X147576446Y-119048544D01*
X147571845Y-119077491D01*
X147572151Y-119085392D01*
X147571237Y-119093235D01*
X147573587Y-119122426D01*
X147574721Y-119151697D01*
X147576561Y-119159379D01*
X147577195Y-119167258D01*
X147585198Y-119195443D01*
X147587683Y-119205820D01*
X147590249Y-119213234D01*
X147597479Y-119238696D01*
X147602374Y-119248261D01*
X147813015Y-119856777D01*
X147817687Y-119875834D01*
X147832943Y-119908512D01*
X147848071Y-119941375D01*
X147859598Y-119957260D01*
X149038297Y-121946315D01*
X149043373Y-121958113D01*
X149057174Y-121978170D01*
X149060111Y-121983127D01*
X149067687Y-121993450D01*
X149074920Y-122003962D01*
X149078621Y-122008349D01*
X149093039Y-122027994D01*
X149102522Y-122036676D01*
X149738622Y-122790573D01*
X149739150Y-122791516D01*
X149762438Y-122818799D01*
X149773804Y-122832270D01*
X149774585Y-122833030D01*
X149787362Y-122847999D01*
X149801121Y-122858853D01*
X149813690Y-122871083D01*
X149830215Y-122881802D01*
X149845669Y-122893992D01*
X149861280Y-122901952D01*
X149875994Y-122911496D01*
X149894294Y-122918785D01*
X149911828Y-122927726D01*
X149928694Y-122932488D01*
X149944984Y-122938977D01*
X149964346Y-122942555D01*
X149983296Y-122947905D01*
X150000777Y-122949286D01*
X150018010Y-122952470D01*
X150037690Y-122952202D01*
X150057327Y-122953753D01*
X150074741Y-122951697D01*
X150092266Y-122951458D01*
X150111525Y-122947354D01*
X150112597Y-122947227D01*
X150129629Y-122943495D01*
X150164897Y-122935979D01*
X150165896Y-122935549D01*
X151227061Y-122703046D01*
X151306652Y-122812593D01*
X151342897Y-122853380D01*
X151386402Y-122886313D01*
X151435496Y-122910125D01*
X151488292Y-122923902D01*
X151542762Y-122927114D01*
X151596811Y-122919638D01*
X151648364Y-122901762D01*
X151695438Y-122874171D01*
X152061011Y-122608567D01*
X152158099Y-122742195D01*
X152189150Y-122792866D01*
X151800321Y-123031140D01*
X151756815Y-123064073D01*
X151720571Y-123104860D01*
X151692980Y-123151935D01*
X151675103Y-123203487D01*
X151667628Y-123257537D01*
X151670840Y-123312006D01*
X151684617Y-123364803D01*
X151693426Y-123382964D01*
X151373278Y-123648258D01*
X151357415Y-123659036D01*
X151331765Y-123685087D01*
X151306027Y-123711071D01*
X151305711Y-123711549D01*
X151305313Y-123711953D01*
X151285301Y-123742411D01*
X151265063Y-123773013D01*
X151264847Y-123773542D01*
X151264534Y-123774018D01*
X151250807Y-123807897D01*
X151236970Y-123841757D01*
X151236861Y-123842317D01*
X151236647Y-123842846D01*
X151229760Y-123878929D01*
X151222829Y-123914661D01*
X151222832Y-123915227D01*
X151222724Y-123915791D01*
X151223008Y-123952375D01*
X151223181Y-123988922D01*
X151223296Y-123989484D01*
X151223300Y-123990051D01*
X151230678Y-124025698D01*
X151238015Y-124061687D01*
X151245438Y-124079369D01*
X151962386Y-126378552D01*
X151969430Y-126405680D01*
X151981488Y-126430616D01*
X151992300Y-126456159D01*
X152008073Y-126479374D01*
X152552944Y-127370983D01*
X152571665Y-127401926D01*
X152584786Y-127416282D01*
X152596505Y-127431803D01*
X152609777Y-127443626D01*
X152621765Y-127456743D01*
X152637428Y-127468259D01*
X152651956Y-127481201D01*
X152683332Y-127499642D01*
X153476025Y-127970305D01*
X153500788Y-127986389D01*
X153525116Y-127996097D01*
X153548859Y-128007206D01*
X153559546Y-128009836D01*
X153569761Y-128013912D01*
X153595519Y-128018688D01*
X153620970Y-128024951D01*
X153631962Y-128025445D01*
X153642779Y-128027451D01*
X153668976Y-128027110D01*
X153695157Y-128028287D01*
X153724381Y-128023828D01*
X154261166Y-127963896D01*
X154307717Y-128055258D01*
X154337135Y-128101213D01*
X154374953Y-128140546D01*
X154419717Y-128171745D01*
X154469708Y-128193611D01*
X154523005Y-128205305D01*
X154577559Y-128206376D01*
X154631273Y-128196784D01*
X154682084Y-128176897D01*
X155091878Y-127968096D01*
X155163944Y-128109531D01*
X155189384Y-128170948D01*
X154761121Y-128348340D01*
X154713000Y-128374062D01*
X154670821Y-128408677D01*
X154636206Y-128450856D01*
X154610484Y-128498977D01*
X154601676Y-128528015D01*
X154268292Y-128638211D01*
X154244197Y-128644476D01*
X154216423Y-128657917D01*
X154188224Y-128670422D01*
X154183052Y-128674066D01*
X154177350Y-128676825D01*
X154152729Y-128695429D01*
X154127515Y-128713192D01*
X154123150Y-128717778D01*
X154118100Y-128721594D01*
X154097585Y-128744640D01*
X154076318Y-128766985D01*
X154072933Y-128772333D01*
X154068722Y-128777063D01*
X154053093Y-128803675D01*
X154036598Y-128829733D01*
X154034321Y-128835638D01*
X154031114Y-128841099D01*
X154020977Y-128870247D01*
X154009882Y-128899024D01*
X154008801Y-128905260D01*
X154006721Y-128911241D01*
X154002467Y-128941797D01*
X153997198Y-128972195D01*
X153997354Y-128978526D01*
X153996482Y-128984794D01*
X153998271Y-129015587D01*
X153999033Y-129046434D01*
X154004492Y-129070725D01*
X154498250Y-132206092D01*
X154498328Y-132215323D01*
X154504014Y-132242692D01*
X154505470Y-132251940D01*
X154507782Y-132260833D01*
X154513433Y-132288034D01*
X154517106Y-132296693D01*
X154519475Y-132305804D01*
X154531589Y-132330837D01*
X154535166Y-132339269D01*
X154539633Y-132347459D01*
X154551824Y-132372650D01*
X154557397Y-132380025D01*
X154982460Y-133159309D01*
X154987162Y-133171385D01*
X155000199Y-133191831D01*
X155002901Y-133196784D01*
X155010154Y-133207443D01*
X155027089Y-133234001D01*
X155031016Y-133238100D01*
X155034211Y-133242795D01*
X155056682Y-133264888D01*
X155065591Y-133274187D01*
X155069870Y-133277855D01*
X155087166Y-133294860D01*
X155098004Y-133301970D01*
X155603225Y-133735016D01*
X155629712Y-133758189D01*
X155647498Y-133768429D01*
X155664314Y-133780194D01*
X155679600Y-133786913D01*
X155694070Y-133795244D01*
X155713507Y-133801816D01*
X155732300Y-133810076D01*
X155748610Y-133813685D01*
X155764419Y-133819030D01*
X155784759Y-133821683D01*
X155804808Y-133826119D01*
X155821509Y-133826476D01*
X155838058Y-133828635D01*
X155858530Y-133827269D01*
X155879054Y-133827708D01*
X155913738Y-133821577D01*
X156463628Y-133730115D01*
X156473568Y-133752838D01*
X156504767Y-133797602D01*
X156544100Y-133835420D01*
X156590054Y-133864838D01*
X156640865Y-133884725D01*
X156694580Y-133894317D01*
X156749134Y-133893246D01*
X156802430Y-133881552D01*
X157246452Y-133737280D01*
X157293149Y-133880995D01*
X157310570Y-133953559D01*
X156853675Y-134063250D01*
X156802123Y-134081126D01*
X156755048Y-134108717D01*
X156714261Y-134144961D01*
X156681328Y-134188466D01*
X156659715Y-134233025D01*
X156296528Y-134301443D01*
X156276095Y-134303455D01*
X156242332Y-134313697D01*
X156208591Y-134323559D01*
X156206882Y-134324450D01*
X156205030Y-134325012D01*
X156173931Y-134341635D01*
X156142745Y-134357899D01*
X156141240Y-134359109D01*
X156139537Y-134360019D01*
X156112275Y-134382392D01*
X156084865Y-134404426D01*
X156083628Y-134405902D01*
X156082131Y-134407131D01*
X156059732Y-134434424D01*
X156037173Y-134461351D01*
X156036247Y-134463041D01*
X156035019Y-134464538D01*
X156018386Y-134495656D01*
X156001502Y-134526486D01*
X156000923Y-134528326D01*
X156000012Y-134530031D01*
X155989774Y-134563780D01*
X155979225Y-134597328D01*
X155979017Y-134599245D01*
X155978455Y-134601096D01*
X155974998Y-134636192D01*
X155971196Y-134671155D01*
X155973000Y-134691598D01*
X155973001Y-137843005D01*
X155971884Y-137873148D01*
X155975948Y-137898437D01*
X155978456Y-137923905D01*
X155981824Y-137935009D01*
X155983666Y-137946470D01*
X155992580Y-137970467D01*
X156000013Y-137994970D01*
X156014228Y-138021565D01*
X156510229Y-139038368D01*
X156525186Y-139069945D01*
X156537571Y-139086623D01*
X156548468Y-139104317D01*
X156559662Y-139116373D01*
X156569460Y-139129567D01*
X156584851Y-139143500D01*
X156598999Y-139158737D01*
X156627396Y-139179271D01*
X157284564Y-139666064D01*
X157297197Y-139677676D01*
X157314314Y-139688100D01*
X157315480Y-139688964D01*
X157330228Y-139697792D01*
X157360624Y-139716303D01*
X157361984Y-139716801D01*
X157363233Y-139717548D01*
X157396915Y-139729577D01*
X157430367Y-139741813D01*
X157431799Y-139742036D01*
X157433169Y-139742525D01*
X157468509Y-139747746D01*
X157503747Y-139753227D01*
X157505198Y-139753166D01*
X157506633Y-139753378D01*
X157542271Y-139751606D01*
X157559351Y-139750888D01*
X157560779Y-139750686D01*
X157580805Y-139749691D01*
X157597455Y-139745510D01*
X157729929Y-139726812D01*
X157756333Y-139761692D01*
X157797120Y-139797937D01*
X157844194Y-139825528D01*
X157895747Y-139843404D01*
X157949797Y-139850880D01*
X158004266Y-139847668D01*
X158470977Y-139773748D01*
X158493267Y-139914487D01*
X158499831Y-139997890D01*
X158026456Y-140035145D01*
X157972741Y-140044737D01*
X157921930Y-140064624D01*
X157875975Y-140094042D01*
X157836642Y-140131860D01*
X157805443Y-140176624D01*
X157783577Y-140226615D01*
X157771883Y-140279912D01*
X157770812Y-140334466D01*
X157783148Y-140491210D01*
X156763988Y-141082558D01*
X156759729Y-141084129D01*
X156731902Y-141101176D01*
X156719779Y-141108210D01*
X156716120Y-141110844D01*
X156696404Y-141122922D01*
X156686050Y-141132490D01*
X156674611Y-141140725D01*
X156658842Y-141157634D01*
X156641864Y-141173324D01*
X156633579Y-141184724D01*
X156623962Y-141195036D01*
X156611795Y-141214697D01*
X156598204Y-141233397D01*
X156592300Y-141246198D01*
X156584883Y-141258184D01*
X156576786Y-141279840D01*
X156567104Y-141300833D01*
X156563812Y-141314538D01*
X156558874Y-141327743D01*
X156555157Y-141350564D01*
X156549757Y-141373041D01*
X156549202Y-141387125D01*
X156546935Y-141401040D01*
X156547741Y-141424150D01*
X156547564Y-141428651D01*
X156548387Y-141442635D01*
X156549525Y-141475256D01*
X156550565Y-141479675D01*
X156747416Y-144826128D01*
X156746567Y-144842201D01*
X156749592Y-144863118D01*
X156749739Y-144865624D01*
X156752238Y-144881420D01*
X156757195Y-144915700D01*
X156758039Y-144918087D01*
X156758436Y-144920595D01*
X156770422Y-144953098D01*
X156781956Y-144985712D01*
X156783252Y-144987892D01*
X156784129Y-144990271D01*
X156802205Y-145019777D01*
X156819901Y-145049548D01*
X156821599Y-145051435D01*
X156822922Y-145053595D01*
X156846390Y-145078990D01*
X156857125Y-145090922D01*
X156858990Y-145092624D01*
X156873324Y-145108136D01*
X156886336Y-145117593D01*
X157418469Y-145603455D01*
X157418534Y-145603543D01*
X157444699Y-145627404D01*
X157459476Y-145640896D01*
X157459575Y-145640970D01*
X157473406Y-145653583D01*
X157489239Y-145663139D01*
X157504056Y-145674212D01*
X157520956Y-145682281D01*
X157536986Y-145691956D01*
X157554374Y-145698237D01*
X157571072Y-145706210D01*
X157589231Y-145710829D01*
X157606831Y-145717187D01*
X157625111Y-145719956D01*
X157643042Y-145724517D01*
X157661741Y-145725504D01*
X157661857Y-145725522D01*
X157680536Y-145726497D01*
X157717201Y-145728433D01*
X157717315Y-145728416D01*
X157996747Y-145743000D01*
X158000847Y-145756516D01*
X158026569Y-145804637D01*
X158061184Y-145846816D01*
X158103363Y-145881431D01*
X158151484Y-145907153D01*
X158203699Y-145922992D01*
X158258000Y-145928340D01*
X158734780Y-145928340D01*
X158734780Y-146061453D01*
X158727456Y-146154510D01*
X158250588Y-146116980D01*
X158196035Y-146118051D01*
X158142738Y-146129745D01*
X158092747Y-146151611D01*
X158047983Y-146182810D01*
X158010165Y-146222143D01*
X157980747Y-146268098D01*
X157974090Y-146285107D01*
X157402087Y-146273474D01*
X157384515Y-146271296D01*
X157365052Y-146272720D01*
X157364151Y-146272702D01*
X157346686Y-146274064D01*
X157310451Y-146276716D01*
X157309569Y-146276960D01*
X157308666Y-146277030D01*
X157273816Y-146286832D01*
X157238868Y-146296482D01*
X157238058Y-146296889D01*
X157237177Y-146297137D01*
X157204790Y-146313611D01*
X157172515Y-146329833D01*
X157171798Y-146330392D01*
X157170986Y-146330805D01*
X157142577Y-146353169D01*
X157113943Y-146375488D01*
X157113345Y-146376180D01*
X157112634Y-146376740D01*
X157089205Y-146404133D01*
X157065405Y-146431691D01*
X157064954Y-146432486D01*
X157064364Y-146433176D01*
X157046707Y-146464654D01*
X157028764Y-146496285D01*
X157028477Y-146497153D01*
X157028033Y-146497944D01*
X157016850Y-146532279D01*
X157011276Y-146549120D01*
X157011076Y-146550007D01*
X157005035Y-146568556D01*
X157002942Y-146586131D01*
X156164764Y-150308632D01*
X156163689Y-150311151D01*
X156156604Y-150344875D01*
X156153141Y-150360253D01*
X156152808Y-150362942D01*
X156148420Y-150383826D01*
X156148250Y-150399721D01*
X156146296Y-150415485D01*
X156147853Y-150436756D01*
X156147624Y-150458083D01*
X156150556Y-150473698D01*
X156151716Y-150489548D01*
X156157393Y-150510110D01*
X156157895Y-150512781D01*
X156162319Y-150527950D01*
X156171481Y-150561131D01*
X156172711Y-150563577D01*
X156332550Y-151111597D01*
X156335644Y-151128690D01*
X156342920Y-151147152D01*
X156343266Y-151148338D01*
X156349693Y-151164338D01*
X156362873Y-151197780D01*
X156363549Y-151198830D01*
X156364011Y-151199981D01*
X156383596Y-151229983D01*
X156403059Y-151260230D01*
X156403924Y-151261126D01*
X156404604Y-151262167D01*
X156429750Y-151287859D01*
X156441727Y-151300257D01*
X156442664Y-151301053D01*
X156456548Y-151315239D01*
X156470892Y-151325048D01*
X156947241Y-151729945D01*
X156965879Y-151747816D01*
X156991082Y-151763901D01*
X157015680Y-151780959D01*
X157022354Y-151783860D01*
X157028478Y-151787768D01*
X157056321Y-151798622D01*
X157083788Y-151810559D01*
X157090903Y-151812102D01*
X157097669Y-151814740D01*
X157127096Y-151819954D01*
X157156362Y-151826302D01*
X157182201Y-151826748D01*
X157362963Y-151840727D01*
X157375743Y-151862532D01*
X157411988Y-151903319D01*
X157455493Y-151936252D01*
X157504587Y-151960064D01*
X157557383Y-151973841D01*
X158031012Y-152048857D01*
X158011749Y-152170480D01*
X157987586Y-152271126D01*
X157520552Y-152159001D01*
X157466502Y-152151525D01*
X157412033Y-152154737D01*
X157359236Y-152168514D01*
X157310142Y-152192326D01*
X157266637Y-152225259D01*
X157230393Y-152266046D01*
X157202802Y-152313121D01*
X157185973Y-152361651D01*
X156911166Y-152349249D01*
X156893413Y-152346624D01*
X156874158Y-152347579D01*
X156873497Y-152347549D01*
X156855753Y-152348491D01*
X156819243Y-152350302D01*
X156818592Y-152350465D01*
X156817922Y-152350501D01*
X156782470Y-152359531D01*
X156747214Y-152368380D01*
X156746612Y-152368665D01*
X156745957Y-152368832D01*
X156712966Y-152384597D01*
X156696914Y-152392198D01*
X156696344Y-152392540D01*
X156678952Y-152400851D01*
X156664585Y-152411595D01*
X156186322Y-152698554D01*
X156159228Y-152713632D01*
X156140341Y-152729675D01*
X156120469Y-152744427D01*
X156112120Y-152753647D01*
X156102629Y-152761709D01*
X156087238Y-152781125D01*
X156070622Y-152799475D01*
X156064230Y-152810151D01*
X156056498Y-152819905D01*
X156045191Y-152841950D01*
X156032474Y-152863189D01*
X156022061Y-152892334D01*
X154949611Y-155610870D01*
X154936144Y-155644567D01*
X154932588Y-155663691D01*
X154927256Y-155682403D01*
X154925814Y-155700117D01*
X154922567Y-155717578D01*
X154922810Y-155737027D01*
X154921231Y-155756419D01*
X154925392Y-155792405D01*
X154996507Y-156432446D01*
X154996313Y-156435167D01*
X155000601Y-156469285D01*
X155002351Y-156485038D01*
X155002915Y-156487697D01*
X155005573Y-156508851D01*
X155010593Y-156523930D01*
X155013889Y-156539483D01*
X155022297Y-156559086D01*
X155029030Y-156579311D01*
X155036893Y-156593118D01*
X155043162Y-156607733D01*
X155055233Y-156625318D01*
X155065782Y-156643841D01*
X155076192Y-156655852D01*
X155085188Y-156668959D01*
X155100454Y-156683849D01*
X155102231Y-156685899D01*
X155113712Y-156696779D01*
X155138351Y-156720811D01*
X155140640Y-156722300D01*
X155788995Y-157336749D01*
X155740961Y-157484583D01*
X155729267Y-157537879D01*
X155728196Y-157592433D01*
X155737788Y-157646148D01*
X155757675Y-157696959D01*
X155787093Y-157742913D01*
X155824911Y-157782246D01*
X155869675Y-157813445D01*
X155919666Y-157835312D01*
X156376807Y-157983846D01*
X156341916Y-158091229D01*
X156298370Y-158196360D01*
X155854325Y-158012431D01*
X155802111Y-157996592D01*
X155747809Y-157991244D01*
X155693508Y-157996592D01*
X155641293Y-158012431D01*
X155593172Y-158038153D01*
X155550993Y-158072768D01*
X155516378Y-158114947D01*
X155490656Y-158163068D01*
X155464199Y-158226941D01*
X154873488Y-158175788D01*
X154852693Y-158172190D01*
X154818075Y-158173056D01*
X154783425Y-158173465D01*
X154780967Y-158173984D01*
X154778453Y-158174047D01*
X154744611Y-158181663D01*
X154710765Y-158188811D01*
X154708460Y-158189798D01*
X154706002Y-158190351D01*
X154674280Y-158204430D01*
X154642496Y-158218037D01*
X154640426Y-158219456D01*
X154638125Y-158220477D01*
X154609747Y-158240483D01*
X154581240Y-158260021D01*
X154579489Y-158261814D01*
X154577429Y-158263266D01*
X154553496Y-158288427D01*
X154529351Y-158313148D01*
X154517839Y-158330825D01*
X153378669Y-159791936D01*
X153356475Y-159819941D01*
X153347295Y-159837844D01*
X153336547Y-159854834D01*
X153323768Y-159888008D01*
X152628897Y-161650004D01*
X152618379Y-161672216D01*
X152610785Y-161702473D01*
X152602249Y-161732444D01*
X152601763Y-161738423D01*
X152600302Y-161744244D01*
X152598758Y-161775383D01*
X152596231Y-161806462D01*
X152596921Y-161812423D01*
X152596624Y-161818414D01*
X152601184Y-161849254D01*
X152604770Y-161880231D01*
X152612301Y-161903614D01*
X152757800Y-162485609D01*
X152764374Y-162516001D01*
X152774184Y-162538609D01*
X152782474Y-162561811D01*
X152788930Y-162572593D01*
X152793934Y-162584126D01*
X152807963Y-162604381D01*
X152820623Y-162625526D01*
X152829063Y-162634846D01*
X152836217Y-162645176D01*
X152853925Y-162662303D01*
X152870469Y-162680573D01*
X152895452Y-162699120D01*
X153264627Y-162991922D01*
X153263539Y-162994057D01*
X153243652Y-163044868D01*
X153234060Y-163098582D01*
X153235131Y-163153136D01*
X153246825Y-163206433D01*
X153268691Y-163256424D01*
X153299890Y-163301188D01*
X153339223Y-163339006D01*
X153385178Y-163368424D01*
X153813016Y-163586419D01*
X153766428Y-163677850D01*
X153701632Y-163783590D01*
X153292933Y-163533139D01*
X153243840Y-163509327D01*
X153191043Y-163495550D01*
X153136574Y-163492338D01*
X153082524Y-163499813D01*
X153030972Y-163517690D01*
X152983897Y-163545281D01*
X152943110Y-163581525D01*
X152925839Y-163604341D01*
X152631624Y-163481840D01*
X152609727Y-163470943D01*
X152579509Y-163462729D01*
X152549586Y-163453592D01*
X152543737Y-163453005D01*
X152538064Y-163451463D01*
X152506844Y-163449303D01*
X152475694Y-163446177D01*
X152469841Y-163446743D01*
X152463979Y-163446337D01*
X152432934Y-163450309D01*
X152401778Y-163453320D01*
X152396152Y-163455015D01*
X152390317Y-163455762D01*
X152360630Y-163465720D01*
X152330673Y-163474747D01*
X152325484Y-163477508D01*
X152319910Y-163479378D01*
X152292742Y-163494932D01*
X152265115Y-163509634D01*
X152246191Y-163525107D01*
X151151103Y-164303837D01*
X151139536Y-164310020D01*
X151120892Y-164325321D01*
X151116428Y-164328495D01*
X151106628Y-164337027D01*
X151096515Y-164345326D01*
X151092616Y-164349225D01*
X151074452Y-164365038D01*
X151066440Y-164375401D01*
X150458239Y-164983603D01*
X150456557Y-164984753D01*
X150431971Y-165009871D01*
X150420326Y-165021516D01*
X150419046Y-165023075D01*
X150404610Y-165037824D01*
X150395538Y-165051721D01*
X150385020Y-165064537D01*
X150375301Y-165082719D01*
X150374187Y-165084426D01*
X150366506Y-165099173D01*
X150350012Y-165130031D01*
X150349423Y-165131973D01*
X149752412Y-166278236D01*
X149745696Y-166287739D01*
X149735292Y-166311108D01*
X149732079Y-166317276D01*
X149727772Y-166327998D01*
X149715491Y-166355581D01*
X149713944Y-166362419D01*
X149711333Y-166368918D01*
X149705763Y-166398577D01*
X149703209Y-166409863D01*
X149702345Y-166416771D01*
X149697625Y-166441905D01*
X149697749Y-166453540D01*
X149604443Y-167199990D01*
X149602090Y-167208327D01*
X149599845Y-167236772D01*
X149598615Y-167246615D01*
X149598390Y-167255219D01*
X149596248Y-167282359D01*
X149597419Y-167292273D01*
X149597158Y-167302249D01*
X149601767Y-167329071D01*
X149604961Y-167356108D01*
X149608044Y-167365602D01*
X149609734Y-167375439D01*
X149619490Y-167400856D01*
X149627895Y-167426740D01*
X149632769Y-167435447D01*
X149636347Y-167444769D01*
X149650871Y-167467788D01*
X149655078Y-167475304D01*
X149660755Y-167483453D01*
X149675975Y-167507575D01*
X149681935Y-167513855D01*
X150005491Y-167978300D01*
X149954745Y-168048146D01*
X149927154Y-168095220D01*
X149909278Y-168146773D01*
X149901802Y-168200822D01*
X149905014Y-168255292D01*
X149918791Y-168308088D01*
X149942603Y-168357182D01*
X149975536Y-168400687D01*
X150016323Y-168436932D01*
X150403109Y-168717948D01*
X150348730Y-168792793D01*
X150261755Y-168894629D01*
X149899448Y-168585189D01*
X149854683Y-168553989D01*
X149804692Y-168532123D01*
X149751395Y-168520429D01*
X149696842Y-168519358D01*
X149643127Y-168528950D01*
X149592316Y-168548837D01*
X149546361Y-168578255D01*
X149520714Y-168602914D01*
X149295884Y-168467893D01*
X149291411Y-168464077D01*
X149264104Y-168448807D01*
X149253219Y-168442270D01*
X149247934Y-168439765D01*
X149226595Y-168427832D01*
X149214463Y-168423899D01*
X149202929Y-168418431D01*
X149179199Y-168412465D01*
X149155953Y-168404928D01*
X149143292Y-168403437D01*
X149130908Y-168400324D01*
X149106472Y-168399103D01*
X149082199Y-168396245D01*
X149069482Y-168397254D01*
X149056740Y-168396617D01*
X149032550Y-168400184D01*
X149008170Y-168402118D01*
X148995893Y-168405589D01*
X148983271Y-168407450D01*
X148960239Y-168415668D01*
X148936708Y-168422321D01*
X148925343Y-168428121D01*
X148913328Y-168432408D01*
X148892347Y-168444959D01*
X148887136Y-168447618D01*
X148876444Y-168454472D01*
X148849598Y-168470531D01*
X148845238Y-168474476D01*
X147907913Y-169075326D01*
X147903489Y-169077734D01*
X147892297Y-169085336D01*
X147880956Y-169092606D01*
X147877020Y-169095713D01*
X146593120Y-169967796D01*
X146592267Y-169968162D01*
X146562393Y-169988668D01*
X146547851Y-169998545D01*
X146547144Y-169999134D01*
X146531040Y-170010188D01*
X146518687Y-170022853D01*
X146505100Y-170034178D01*
X146492829Y-170049364D01*
X146492181Y-170050029D01*
X146481069Y-170063919D01*
X146458427Y-170091941D01*
X146457999Y-170092756D01*
X145994127Y-170672597D01*
X145983123Y-170683514D01*
X145970984Y-170701525D01*
X145969044Y-170703951D01*
X145960647Y-170716864D01*
X145941620Y-170745097D01*
X145940410Y-170747986D01*
X145938705Y-170750608D01*
X145926078Y-170782200D01*
X145920118Y-170796430D01*
X145919204Y-170799400D01*
X145911144Y-170819567D01*
X145908310Y-170834807D01*
X145715997Y-171459824D01*
X145705661Y-171490765D01*
X145702753Y-171513707D01*
X145698151Y-171536371D01*
X145698095Y-171550456D01*
X145696323Y-171564437D01*
X145697948Y-171587513D01*
X145697856Y-171610632D01*
X145700549Y-171624459D01*
X145701539Y-171638515D01*
X145707633Y-171660826D01*
X145712054Y-171683524D01*
X145724413Y-171713701D01*
X145995343Y-172423115D01*
X145896056Y-172522402D01*
X145861441Y-172564581D01*
X145835719Y-172612702D01*
X145819880Y-172664917D01*
X145814532Y-172719218D01*
X145819880Y-172773519D01*
X145835719Y-172825734D01*
X145861441Y-172873855D01*
X145896056Y-172916034D01*
X146231558Y-173251536D01*
X146172954Y-173310140D01*
X146064031Y-173403170D01*
X145757425Y-173044182D01*
X145718093Y-173006365D01*
X145672138Y-172976947D01*
X145621327Y-172957060D01*
X145577170Y-172949175D01*
X145554006Y-172914085D01*
X145549254Y-172904126D01*
X145533590Y-172883158D01*
X145529425Y-172876848D01*
X145522512Y-172868328D01*
X145504810Y-172844631D01*
X145499156Y-172839542D01*
X145494360Y-172833631D01*
X145471590Y-172814730D01*
X145449614Y-172794950D01*
X145443077Y-172791063D01*
X145437218Y-172786199D01*
X145411199Y-172772105D01*
X145385785Y-172756991D01*
X145378611Y-172754452D01*
X145371921Y-172750828D01*
X145343670Y-172742086D01*
X145315778Y-172732214D01*
X145308245Y-172731123D01*
X145300977Y-172728874D01*
X145271555Y-172725810D01*
X145242282Y-172721571D01*
X145234686Y-172721970D01*
X145227114Y-172721182D01*
X145197643Y-172723918D01*
X145168122Y-172725471D01*
X145160752Y-172727344D01*
X145153171Y-172728048D01*
X145124807Y-172736480D01*
X145114183Y-172739180D01*
X145107074Y-172741751D01*
X145081987Y-172749209D01*
X145072230Y-172754355D01*
X143928398Y-173168081D01*
X143917461Y-173171581D01*
X143910981Y-173174381D01*
X143904354Y-173176778D01*
X143894007Y-173181716D01*
X141907439Y-174040109D01*
X141905205Y-174040617D01*
X141873391Y-174054821D01*
X141858462Y-174061272D01*
X141856469Y-174062376D01*
X141837394Y-174070893D01*
X141824060Y-174080337D01*
X141809784Y-174088249D01*
X141793851Y-174101734D01*
X141776793Y-174113816D01*
X141765558Y-174125680D01*
X141753099Y-174136225D01*
X141740098Y-174152566D01*
X141725731Y-174167738D01*
X141717028Y-174181563D01*
X141706864Y-174194339D01*
X141697300Y-174212903D01*
X141696083Y-174214837D01*
X141688799Y-174229406D01*
X141672854Y-174260356D01*
X141672222Y-174262559D01*
X141400697Y-174805611D01*
X141395892Y-174812395D01*
X141384108Y-174838790D01*
X141379520Y-174847965D01*
X141376573Y-174855665D01*
X141373203Y-174863214D01*
X141369951Y-174872971D01*
X141359629Y-174899943D01*
X141358231Y-174908130D01*
X141017574Y-175930101D01*
X141005709Y-175965551D01*
X141003329Y-175984247D01*
X140999151Y-176002620D01*
X140998651Y-176020993D01*
X140996330Y-176039220D01*
X140997642Y-176058014D01*
X140997129Y-176076854D01*
X141000222Y-176094968D01*
X141001502Y-176113300D01*
X141006457Y-176131483D01*
X141009629Y-176150056D01*
X141016197Y-176167220D01*
X141021029Y-176184950D01*
X141029435Y-176201814D01*
X141036170Y-176219415D01*
X141055634Y-176250335D01*
X141128646Y-176366640D01*
X141113687Y-176386402D01*
X141089875Y-176435496D01*
X141076098Y-176488292D01*
X141072886Y-176542762D01*
X141080362Y-176596811D01*
X141098238Y-176648364D01*
X141125829Y-176695438D01*
X141401729Y-177075181D01*
X141341942Y-177118619D01*
X141212515Y-177197931D01*
X140968860Y-176800321D01*
X140935927Y-176756815D01*
X140895140Y-176720571D01*
X140848065Y-176692980D01*
X140796513Y-176675103D01*
X140742463Y-176667628D01*
X140722873Y-176668783D01*
X140526248Y-176336051D01*
X140509555Y-176306636D01*
X140495221Y-176290044D01*
X140482269Y-176272351D01*
X140471003Y-176262012D01*
X140461007Y-176250441D01*
X140443712Y-176236965D01*
X140427556Y-176222138D01*
X140414486Y-176214193D01*
X140402427Y-176204797D01*
X140382842Y-176194957D01*
X140364098Y-176183563D01*
X140349729Y-176178321D01*
X140336068Y-176171457D01*
X140314933Y-176165625D01*
X140294334Y-176158110D01*
X140279222Y-176155772D01*
X140264482Y-176151705D01*
X140242615Y-176150109D01*
X140220944Y-176146756D01*
X140205664Y-176147411D01*
X140190416Y-176146298D01*
X140168663Y-176148998D01*
X140146751Y-176149937D01*
X140113905Y-176157948D01*
X138344589Y-176556668D01*
X138310702Y-176563831D01*
X138291282Y-176572149D01*
X138271223Y-176578792D01*
X138241106Y-176595884D01*
X137269644Y-177130187D01*
X137262969Y-177132577D01*
X137237148Y-177148060D01*
X137227090Y-177153592D01*
X137221285Y-177157572D01*
X137215238Y-177161198D01*
X137206002Y-177168050D01*
X137181189Y-177185063D01*
X137176240Y-177190132D01*
X136438800Y-177737266D01*
X136421380Y-177747939D01*
X136395337Y-177772009D01*
X136369264Y-177795650D01*
X136368185Y-177797106D01*
X136366844Y-177798345D01*
X136346032Y-177826986D01*
X136325036Y-177855306D01*
X136316313Y-177873758D01*
X135901635Y-178581152D01*
X135884129Y-178609728D01*
X135876419Y-178630638D01*
X135867094Y-178650861D01*
X135863604Y-178665391D01*
X135858437Y-178679405D01*
X135854957Y-178701396D01*
X135849752Y-178723070D01*
X135848434Y-178756554D01*
X135823705Y-179176952D01*
X135821458Y-179214603D01*
X135824017Y-179233203D01*
X135824757Y-179251959D01*
X135829066Y-179269897D01*
X135831581Y-179288172D01*
X135837719Y-179305913D01*
X135842104Y-179324167D01*
X135857550Y-179357660D01*
X135863651Y-179370918D01*
X135859454Y-179374953D01*
X135828255Y-179419717D01*
X135806389Y-179469708D01*
X135794695Y-179523005D01*
X135793624Y-179577559D01*
X135803216Y-179631273D01*
X135823103Y-179682084D01*
X136033281Y-180094581D01*
X135974608Y-180124476D01*
X135827419Y-180185443D01*
X135651660Y-179761121D01*
X135625938Y-179713000D01*
X135591323Y-179670821D01*
X135549144Y-179636206D01*
X135501023Y-179610484D01*
X135448808Y-179594645D01*
X135424615Y-179592262D01*
X135202311Y-179040632D01*
X135192125Y-179012342D01*
X135178876Y-178990339D01*
X135166989Y-178967575D01*
X135159763Y-178958595D01*
X135153818Y-178948722D01*
X135136535Y-178929731D01*
X135120432Y-178909719D01*
X135111592Y-178902321D01*
X135103836Y-178893798D01*
X135083179Y-178878543D01*
X135063482Y-178862058D01*
X135053369Y-178856527D01*
X135044098Y-178849680D01*
X135020856Y-178838745D01*
X134998327Y-178826423D01*
X134987333Y-178822972D01*
X134976901Y-178818064D01*
X134951973Y-178811873D01*
X134927473Y-178804183D01*
X134916016Y-178802943D01*
X134904829Y-178800165D01*
X134879172Y-178798957D01*
X134853642Y-178796194D01*
X134842162Y-178797213D01*
X134830648Y-178796671D01*
X134805249Y-178800491D01*
X134779671Y-178802762D01*
X134750830Y-178811209D01*
X132418076Y-179400537D01*
X132417482Y-179400569D01*
X132382202Y-179409600D01*
X132364705Y-179414020D01*
X132364144Y-179414222D01*
X132363566Y-179414370D01*
X132346645Y-179420523D01*
X132312342Y-179432875D01*
X132311831Y-179433183D01*
X131006023Y-179908022D01*
X131005983Y-179908028D01*
X130969721Y-179921223D01*
X130953759Y-179927027D01*
X130953727Y-179927042D01*
X130936197Y-179933421D01*
X130920318Y-179943055D01*
X130903572Y-179951081D01*
X130888651Y-179962267D01*
X130888615Y-179962289D01*
X130871871Y-179974847D01*
X130844153Y-179995627D01*
X130844130Y-179995653D01*
X130288897Y-180412078D01*
X130273273Y-180421517D01*
X130259269Y-180434299D01*
X130258985Y-180434512D01*
X130245384Y-180446973D01*
X130218423Y-180471581D01*
X130218215Y-180471863D01*
X130217949Y-180472107D01*
X130196074Y-180501936D01*
X130174393Y-180531383D01*
X130174241Y-180531706D01*
X130174032Y-180531992D01*
X130158444Y-180565411D01*
X130142877Y-180598626D01*
X130142793Y-180598968D01*
X130142641Y-180599293D01*
X130133848Y-180635214D01*
X130125085Y-180670726D01*
X130125069Y-180671080D01*
X130124984Y-180671427D01*
X130123379Y-180708102D01*
X130122548Y-180726321D01*
X130122567Y-180726677D01*
X130121738Y-180745618D01*
X130124513Y-180763660D01*
X130147675Y-181203734D01*
X130146986Y-181224745D01*
X130152636Y-181258982D01*
X130157853Y-181293330D01*
X130165007Y-181313104D01*
X130214151Y-181496575D01*
X130202398Y-181504767D01*
X130164580Y-181544100D01*
X130135162Y-181590054D01*
X130115275Y-181640865D01*
X130105683Y-181694580D01*
X130106754Y-181749134D01*
X130118448Y-181802430D01*
X130259150Y-182235466D01*
X130203117Y-182253673D01*
X130042064Y-182292338D01*
X129936750Y-181853675D01*
X129918874Y-181802123D01*
X129891283Y-181755048D01*
X129855039Y-181714261D01*
X129811534Y-181681328D01*
X129762440Y-181657516D01*
X129725546Y-181647889D01*
X129666773Y-181412687D01*
X129659511Y-181380589D01*
X129650225Y-181359731D01*
X129642545Y-181338228D01*
X129635157Y-181325885D01*
X129629307Y-181312746D01*
X129616131Y-181294102D01*
X129604403Y-181274509D01*
X129594749Y-181263845D01*
X129586448Y-181252099D01*
X129569885Y-181236381D01*
X129554563Y-181219456D01*
X129543016Y-181210882D01*
X129532582Y-181200980D01*
X129513272Y-181188796D01*
X129494939Y-181175183D01*
X129481938Y-181169025D01*
X129469776Y-181161351D01*
X129448460Y-181153168D01*
X129427825Y-181143394D01*
X129395909Y-181135380D01*
X128416850Y-180866139D01*
X128398485Y-180859202D01*
X128362834Y-180853273D01*
X128327257Y-180847158D01*
X128326231Y-180847185D01*
X128325228Y-180847018D01*
X128289288Y-180848151D01*
X128253021Y-180849100D01*
X128233874Y-180853432D01*
X126558062Y-181072016D01*
X126553033Y-181071814D01*
X126521297Y-181076811D01*
X126507876Y-181078562D01*
X126503002Y-181079692D01*
X126498057Y-181080471D01*
X126484952Y-181083878D01*
X126453661Y-181091135D01*
X126449075Y-181093206D01*
X125247547Y-181405604D01*
X125228647Y-181408634D01*
X125194220Y-181421410D01*
X125159980Y-181434008D01*
X125159526Y-181434286D01*
X125159024Y-181434472D01*
X125127766Y-181453710D01*
X125096626Y-181472754D01*
X125082563Y-181485731D01*
X124483861Y-181940745D01*
X124465264Y-181952668D01*
X124441013Y-181976018D01*
X124416344Y-181998909D01*
X124414290Y-182001748D01*
X124411768Y-182004176D01*
X124392544Y-182031800D01*
X124372809Y-182059072D01*
X124371349Y-182062254D01*
X124369348Y-182065130D01*
X124355885Y-182095968D01*
X124341848Y-182126572D01*
X124341036Y-182129983D01*
X124339636Y-182133190D01*
X124332447Y-182166064D01*
X124324650Y-182198816D01*
X124323825Y-182220885D01*
X124276532Y-182622887D01*
X124271904Y-182651533D01*
X124272871Y-182678249D01*
X124272365Y-182704987D01*
X124276401Y-182727497D01*
X124238308Y-182756333D01*
X124202063Y-182797120D01*
X124174472Y-182844194D01*
X124156596Y-182895747D01*
X124149120Y-182949797D01*
X124152332Y-183004266D01*
X124222215Y-183445486D01*
X124169623Y-183453816D01*
X123999542Y-183467201D01*
X123964855Y-183026456D01*
X123955263Y-182972741D01*
X123935376Y-182921930D01*
X123905958Y-182875975D01*
X123868140Y-182836642D01*
X123823376Y-182805443D01*
X123773385Y-182783577D01*
X123720088Y-182771883D01*
X123665534Y-182770812D01*
X123167075Y-182810042D01*
X123113361Y-182819634D01*
X123062550Y-182839521D01*
X123016595Y-182868939D01*
X122977263Y-182906757D01*
X122946064Y-182951521D01*
X122930278Y-182987610D01*
X122909040Y-182954434D01*
X122871222Y-182915101D01*
X122826458Y-182883902D01*
X122776467Y-182862036D01*
X122723170Y-182850342D01*
X122668616Y-182849271D01*
X122369541Y-182872809D01*
X122315827Y-182882401D01*
X122265016Y-182902288D01*
X122219061Y-182931706D01*
X122179729Y-182969524D01*
X122148530Y-183014288D01*
X122132744Y-183050377D01*
X122111506Y-183017201D01*
X122073688Y-182977868D01*
X122028924Y-182946669D01*
X121978933Y-182924803D01*
X121925636Y-182913109D01*
X121871082Y-182912038D01*
X121372623Y-182951268D01*
X121318909Y-182960860D01*
X121268098Y-182980747D01*
X121222143Y-183010165D01*
X121182811Y-183047983D01*
X121151612Y-183092747D01*
X121143124Y-183112151D01*
X121071980Y-183098000D01*
X120978020Y-183098000D01*
X120885864Y-183116331D01*
X120799056Y-183152288D01*
X120720930Y-183204490D01*
X120654490Y-183270930D01*
X120602288Y-183349056D01*
X120566331Y-183435864D01*
X120548000Y-183528020D01*
X120548000Y-183621980D01*
X120562590Y-183695331D01*
X119910209Y-183695331D01*
X119907015Y-183687857D01*
X119879930Y-183487721D01*
X119879930Y-181525178D01*
X119894746Y-181375479D01*
X119932411Y-181251863D01*
X119992213Y-181139382D01*
X120071788Y-181040577D01*
X120168373Y-180958418D01*
X120279193Y-180895658D01*
X120401814Y-180854695D01*
X120554321Y-180835454D01*
X121967412Y-180769540D01*
X121973900Y-180769618D01*
X121983453Y-180768792D01*
X121993019Y-180768346D01*
X121999433Y-180767411D01*
X123403137Y-180646070D01*
X123409601Y-180645892D01*
X123419128Y-180644688D01*
X123428693Y-180643861D01*
X123435048Y-180642676D01*
X124824813Y-180467014D01*
X124831245Y-180466583D01*
X124840744Y-180465001D01*
X124850289Y-180463794D01*
X124856568Y-180462364D01*
X126231129Y-180233358D01*
X126237527Y-180232676D01*
X126246984Y-180230716D01*
X126256481Y-180229134D01*
X126262674Y-180227465D01*
X127620876Y-179946006D01*
X127627213Y-179945079D01*
X127636600Y-179942748D01*
X127646061Y-179940787D01*
X127652168Y-179938881D01*
X128992698Y-179605939D01*
X128998954Y-179604773D01*
X129008243Y-179602078D01*
X129017668Y-179599737D01*
X129023688Y-179597597D01*
X130345339Y-179214129D01*
X130351531Y-179212725D01*
X130360738Y-179209662D01*
X130370073Y-179206953D01*
X130375980Y-179204590D01*
X131677531Y-178771513D01*
X131683644Y-178769875D01*
X131692748Y-178766449D01*
X131701990Y-178763374D01*
X131707778Y-178760793D01*
X132988032Y-178279035D01*
X132994042Y-178277174D01*
X133003008Y-178273400D01*
X133012167Y-178269953D01*
X133017842Y-178267155D01*
X134275531Y-177737697D01*
X134281456Y-177735609D01*
X134290295Y-177731481D01*
X134299317Y-177727683D01*
X134304860Y-177724679D01*
X135538770Y-177148425D01*
X135544591Y-177146120D01*
X135553280Y-177141649D01*
X135562170Y-177137497D01*
X135567579Y-177134291D01*
X136776500Y-176512195D01*
X136782218Y-176509673D01*
X136790735Y-176504869D01*
X136799473Y-176500373D01*
X136804748Y-176496966D01*
X137987444Y-175829937D01*
X137993053Y-175827203D01*
X138001404Y-175822064D01*
X138009967Y-175817234D01*
X138015090Y-175813641D01*
X139170346Y-175102647D01*
X139175849Y-175099700D01*
X139184010Y-175094238D01*
X139192379Y-175089087D01*
X139197352Y-175085308D01*
X140323963Y-174331239D01*
X140329339Y-174328090D01*
X140337272Y-174322330D01*
X140345454Y-174316854D01*
X140350288Y-174312881D01*
X141446949Y-173516677D01*
X141452196Y-173513329D01*
X141459912Y-173507265D01*
X141467883Y-173501478D01*
X141472554Y-173497330D01*
X142538109Y-172659932D01*
X142543218Y-172656391D01*
X142550688Y-172650046D01*
X142558442Y-172643952D01*
X142562956Y-172639625D01*
X143596183Y-171761967D01*
X143601167Y-171758224D01*
X143608390Y-171751598D01*
X143615889Y-171745228D01*
X143620238Y-171740729D01*
X144619856Y-170823717D01*
X144624696Y-170819784D01*
X144631658Y-170812890D01*
X144638908Y-170806239D01*
X144643084Y-170801575D01*
X145607917Y-169846147D01*
X145612618Y-169842019D01*
X145619306Y-169834869D01*
X145626280Y-169827963D01*
X145630283Y-169823134D01*
X146559059Y-168830203D01*
X146563604Y-168825892D01*
X146570000Y-168818506D01*
X146576701Y-168811342D01*
X146580527Y-168806350D01*
X147472021Y-167776847D01*
X147476413Y-167772348D01*
X147482519Y-167764723D01*
X147488922Y-167757329D01*
X147492558Y-167752187D01*
X148345550Y-166687026D01*
X148349780Y-166682346D01*
X148355570Y-166674515D01*
X148361672Y-166666895D01*
X148365123Y-166661594D01*
X149178309Y-165561720D01*
X149182360Y-165556873D01*
X149187838Y-165548831D01*
X149193637Y-165540988D01*
X149196884Y-165535552D01*
X149969164Y-164401868D01*
X149973039Y-164396848D01*
X149978176Y-164388640D01*
X149983655Y-164380596D01*
X149986710Y-164375002D01*
X150716715Y-163208437D01*
X150720409Y-163203245D01*
X150725226Y-163194836D01*
X150730368Y-163186619D01*
X150733205Y-163180908D01*
X151419765Y-161982385D01*
X151423264Y-161977037D01*
X151427736Y-161968471D01*
X151432546Y-161960074D01*
X151435168Y-161954234D01*
X152077068Y-160724651D01*
X152080366Y-160719149D01*
X152084479Y-160710455D01*
X152088949Y-160701892D01*
X152091356Y-160695917D01*
X152687249Y-159436239D01*
X152690333Y-159430604D01*
X152694095Y-159421769D01*
X152698222Y-159413044D01*
X152700397Y-159406967D01*
X153249158Y-158118081D01*
X153252029Y-158112302D01*
X153255427Y-158103356D01*
X153259197Y-158094501D01*
X153261141Y-158088313D01*
X153761419Y-156771162D01*
X153764067Y-156765257D01*
X153767105Y-156756192D01*
X153770515Y-156747214D01*
X153772216Y-156740941D01*
X154222795Y-155396470D01*
X154225208Y-155390462D01*
X154227885Y-155381281D01*
X154230935Y-155372181D01*
X154232386Y-155365848D01*
X154629349Y-154004570D01*
X154631522Y-153998471D01*
X154633834Y-153989191D01*
X154636521Y-153979975D01*
X154637719Y-153973590D01*
X154978266Y-152606415D01*
X154980192Y-152600249D01*
X154982144Y-152590843D01*
X154984466Y-152581522D01*
X154985405Y-152575131D01*
X155270084Y-151203549D01*
X155271762Y-151197328D01*
X155273344Y-151187844D01*
X155275300Y-151178419D01*
X155275985Y-151172006D01*
X155505240Y-149797462D01*
X155506669Y-149791195D01*
X155507880Y-149781633D01*
X155509466Y-149772125D01*
X155509897Y-149765712D01*
X155684194Y-148389684D01*
X155685371Y-148383398D01*
X155686211Y-148373763D01*
X155687426Y-148364168D01*
X155687604Y-148357776D01*
X155807514Y-146981752D01*
X155808443Y-146975443D01*
X155808908Y-146965761D01*
X155809749Y-146956108D01*
X155809677Y-146949733D01*
X155875668Y-145575150D01*
X155876349Y-145568825D01*
X155876438Y-145559112D01*
X155876903Y-145549419D01*
X155876584Y-145543071D01*
X155889107Y-144171413D01*
X155889541Y-144165092D01*
X155889253Y-144155354D01*
X155889342Y-144145625D01*
X155888779Y-144139323D01*
X155848364Y-142772025D01*
X155848554Y-142765716D01*
X155847890Y-142755987D01*
X155847602Y-142746235D01*
X155846798Y-142739971D01*
X155753916Y-141378542D01*
X155753863Y-141372253D01*
X155752824Y-141362535D01*
X155752158Y-141352779D01*
X155751116Y-141346574D01*
X155606285Y-139992457D01*
X155605992Y-139986188D01*
X155604578Y-139976498D01*
X155603537Y-139966764D01*
X155602261Y-139960620D01*
X155405957Y-138615266D01*
X155405425Y-138609023D01*
X155403639Y-138599380D01*
X155402224Y-138589684D01*
X155400717Y-138583607D01*
X155153408Y-137248505D01*
X155152638Y-137242289D01*
X155150478Y-137232693D01*
X155148694Y-137223059D01*
X155146962Y-137217066D01*
X154849146Y-135893630D01*
X154848142Y-135887463D01*
X154845621Y-135877968D01*
X154843466Y-135868391D01*
X154841505Y-135862463D01*
X154493631Y-134552175D01*
X154492395Y-134546060D01*
X154489510Y-134536654D01*
X154486989Y-134527158D01*
X154484808Y-134521321D01*
X154087426Y-133225678D01*
X154085958Y-133219614D01*
X154082718Y-133210327D01*
X154079836Y-133200931D01*
X154077433Y-133195181D01*
X153630993Y-131915592D01*
X153629291Y-131909576D01*
X153625698Y-131900416D01*
X153622467Y-131891156D01*
X153619847Y-131885501D01*
X153124782Y-130623469D01*
X153122852Y-130617522D01*
X153118912Y-130608506D01*
X153115330Y-130599374D01*
X153112496Y-130593822D01*
X152569331Y-129350799D01*
X152567169Y-129344914D01*
X152562890Y-129336060D01*
X152558970Y-129327089D01*
X152555923Y-129321643D01*
X151965075Y-128099058D01*
X151962691Y-128093262D01*
X151958084Y-128084591D01*
X151953822Y-128075773D01*
X151950563Y-128070437D01*
X151312596Y-126869823D01*
X151309987Y-126864112D01*
X151305061Y-126855641D01*
X151300468Y-126846998D01*
X151296997Y-126841776D01*
X150612365Y-125664544D01*
X150609527Y-125658916D01*
X150604284Y-125650649D01*
X150599379Y-125642215D01*
X150595704Y-125637120D01*
X149864844Y-124484743D01*
X149861782Y-124479212D01*
X149856239Y-124471175D01*
X149851023Y-124462951D01*
X149847139Y-124457981D01*
X149070505Y-123331953D01*
X149067217Y-123326521D01*
X149061366Y-123318702D01*
X149055854Y-123310711D01*
X149051778Y-123305890D01*
X148229879Y-122207642D01*
X148226382Y-122202341D01*
X148220264Y-122194794D01*
X148214441Y-122187014D01*
X148210156Y-122182327D01*
X147343502Y-121113366D01*
X147339771Y-121108163D01*
X147333362Y-121100860D01*
X147327282Y-121093360D01*
X147322811Y-121088835D01*
X146411792Y-120050638D01*
X146407851Y-120045572D01*
X146401168Y-120038531D01*
X146394814Y-120031290D01*
X146390162Y-120026936D01*
X145435292Y-119020917D01*
X145431143Y-119015996D01*
X145424224Y-119009257D01*
X145417597Y-119002275D01*
X145412747Y-118998078D01*
X144414462Y-118025756D01*
X144410118Y-118020996D01*
X144402966Y-118014559D01*
X144396072Y-118007844D01*
X144391038Y-118003822D01*
X143349865Y-117066693D01*
X143345311Y-117062083D01*
X143337913Y-117055935D01*
X143330793Y-117049527D01*
X143325597Y-117045701D01*
X142241947Y-116145223D01*
X142237204Y-116140787D01*
X142229584Y-116134950D01*
X142222226Y-116128835D01*
X142216867Y-116125207D01*
X141109060Y-115276511D01*
X141108940Y-115276375D01*
X141083938Y-115257265D01*
X141070895Y-115247273D01*
X141070734Y-115247173D01*
X141070586Y-115247060D01*
X141056906Y-115238589D01*
X141029881Y-115221813D01*
X141029709Y-115221749D01*
X140940858Y-115166730D01*
X140933211Y-115160413D01*
X140913551Y-115149822D01*
X140908266Y-115146549D01*
X140899394Y-115142195D01*
X140890711Y-115137517D01*
X140884987Y-115135124D01*
X140864929Y-115125280D01*
X140855338Y-115122729D01*
X140750888Y-115079065D01*
X140742396Y-115074061D01*
X140721227Y-115066665D01*
X140715445Y-115064248D01*
X140706095Y-115061378D01*
X140696823Y-115058139D01*
X140690708Y-115056656D01*
X140669295Y-115050084D01*
X140659499Y-115049087D01*
X140549480Y-115022404D01*
X140540245Y-115018779D01*
X140518260Y-115014832D01*
X140512225Y-115013368D01*
X140502445Y-115011992D01*
X140492731Y-115010248D01*
X140486546Y-115009755D01*
X140464422Y-115006643D01*
X140454514Y-115007204D01*
X140321465Y-114996608D01*
X140308491Y-114995330D01*
X140305420Y-114995330D01*
X140302381Y-114995088D01*
X140289432Y-114995330D01*
X112618316Y-114995330D01*
X112465895Y-114979968D01*
X112340349Y-114940995D01*
X112226531Y-114879221D01*
X112127086Y-114797185D01*
X112045052Y-114697725D01*
X111983230Y-114583855D01*
X111944248Y-114458322D01*
X111928880Y-114305891D01*
X111928880Y-102158169D01*
X113159968Y-102158169D01*
X113159968Y-102441831D01*
X113215307Y-102720042D01*
X113323860Y-102982111D01*
X113481454Y-103217967D01*
X113682033Y-103418546D01*
X113917889Y-103576140D01*
X114179958Y-103684693D01*
X114458169Y-103740032D01*
X114741831Y-103740032D01*
X115020042Y-103684693D01*
X115282111Y-103576140D01*
X115517967Y-103418546D01*
X115718546Y-103217967D01*
X115876140Y-102982111D01*
X115984693Y-102720042D01*
X116040032Y-102441831D01*
X116040032Y-102158169D01*
X123059968Y-102158169D01*
X123059968Y-102441831D01*
X123115307Y-102720042D01*
X123223860Y-102982111D01*
X123381454Y-103217967D01*
X123582033Y-103418546D01*
X123817889Y-103576140D01*
X124079958Y-103684693D01*
X124358169Y-103740032D01*
X124641831Y-103740032D01*
X124920042Y-103684693D01*
X125182111Y-103576140D01*
X125417967Y-103418546D01*
X125618546Y-103217967D01*
X125776140Y-102982111D01*
X125884693Y-102720042D01*
X125940032Y-102441831D01*
X125940032Y-102158169D01*
X125884693Y-101879958D01*
X125776140Y-101617889D01*
X125618546Y-101382033D01*
X125417967Y-101181454D01*
X125182111Y-101023860D01*
X124920042Y-100915307D01*
X124641831Y-100859968D01*
X124358169Y-100859968D01*
X124079958Y-100915307D01*
X123817889Y-101023860D01*
X123582033Y-101181454D01*
X123381454Y-101382033D01*
X123223860Y-101617889D01*
X123115307Y-101879958D01*
X123059968Y-102158169D01*
X116040032Y-102158169D01*
X115984693Y-101879958D01*
X115876140Y-101617889D01*
X115718546Y-101382033D01*
X115517967Y-101181454D01*
X115282111Y-101023860D01*
X115020042Y-100915307D01*
X114741831Y-100859968D01*
X114458169Y-100859968D01*
X114179958Y-100915307D01*
X113917889Y-101023860D01*
X113682033Y-101181454D01*
X113481454Y-101382033D01*
X113323860Y-101617889D01*
X113215307Y-101879958D01*
X113159968Y-102158169D01*
X111928880Y-102158169D01*
X111928880Y-98649330D01*
X127194681Y-98649330D01*
X127194680Y-105307414D01*
G37*
X127194680Y-105307414D02*
X127194576Y-105308551D01*
X127194680Y-105323462D01*
X127194680Y-105338390D01*
X127194792Y-105339528D01*
X127195903Y-105498809D01*
X127194442Y-105513008D01*
X127196127Y-105530916D01*
X127196140Y-105532781D01*
X127197637Y-105546967D01*
X127200476Y-105577137D01*
X127201010Y-105578927D01*
X127201207Y-105580789D01*
X127210228Y-105609798D01*
X127214288Y-105623394D01*
X127214990Y-105625111D01*
X127220335Y-105642297D01*
X127227156Y-105654846D01*
X127283426Y-105792388D01*
X127286859Y-105804784D01*
X127295590Y-105822121D01*
X127296831Y-105825154D01*
X127302820Y-105836478D01*
X127315832Y-105862314D01*
X127317860Y-105864912D01*
X127319402Y-105867827D01*
X127337663Y-105890277D01*
X127345539Y-105900366D01*
X127347798Y-105902738D01*
X127360047Y-105917797D01*
X127369955Y-105926001D01*
X127472454Y-106033617D01*
X127481108Y-106044965D01*
X127494603Y-106056872D01*
X127495893Y-106058226D01*
X127506677Y-106067525D01*
X127529409Y-106087581D01*
X127531031Y-106088524D01*
X127532453Y-106089750D01*
X127558890Y-106104720D01*
X127571143Y-106111843D01*
X127572833Y-106112615D01*
X127588505Y-106121489D01*
X127602066Y-106125966D01*
X127745389Y-106191424D01*
X127758806Y-106199288D01*
X127774597Y-106204764D01*
X127775131Y-106205008D01*
X127789822Y-106210044D01*
X127804416Y-106215105D01*
X127804984Y-106215241D01*
X127820797Y-106220662D01*
X127836213Y-106222739D01*
X129899245Y-106718033D01*
X129863605Y-106827720D01*
X130014584Y-106876776D01*
X129814549Y-106978698D01*
X129780832Y-107073032D01*
X129751330Y-107194587D01*
X129746108Y-107319562D01*
X129765368Y-107443155D01*
X129808370Y-107560614D01*
X129873461Y-107667428D01*
X129958139Y-107759491D01*
X130059151Y-107833265D01*
X130156743Y-107877692D01*
X130356780Y-107775768D01*
X130588311Y-107063189D01*
X130565486Y-107055773D01*
X130608702Y-106922767D01*
X130888313Y-107013616D01*
X130845097Y-107146624D01*
X130822271Y-107139207D01*
X130590740Y-107851786D01*
X130692664Y-108051823D01*
X130794298Y-108072544D01*
X130493842Y-108373000D01*
X127481159Y-108373000D01*
X127249302Y-108141144D01*
X127311331Y-108048312D01*
X127354826Y-107943305D01*
X127377000Y-107831830D01*
X127377000Y-107718170D01*
X127354826Y-107606695D01*
X127311331Y-107501688D01*
X127248185Y-107407184D01*
X127167816Y-107326815D01*
X127073312Y-107263669D01*
X126968305Y-107220174D01*
X126856830Y-107198000D01*
X126743170Y-107198000D01*
X126631695Y-107220174D01*
X126526688Y-107263669D01*
X126432184Y-107326815D01*
X126351815Y-107407184D01*
X126288669Y-107501688D01*
X126245174Y-107606695D01*
X126223000Y-107718170D01*
X126223000Y-107831830D01*
X126245174Y-107943305D01*
X126288669Y-108048312D01*
X126351815Y-108142816D01*
X126422326Y-108213327D01*
X126421177Y-108225000D01*
X126423000Y-108243512D01*
X126423000Y-108243519D01*
X126425265Y-108266514D01*
X126428455Y-108298905D01*
X126450012Y-108369969D01*
X126485020Y-108435463D01*
X126520326Y-108478484D01*
X126520329Y-108478487D01*
X126532132Y-108492869D01*
X126546514Y-108504672D01*
X127045328Y-109003487D01*
X127057131Y-109017869D01*
X127071513Y-109029672D01*
X127071515Y-109029674D01*
X127076400Y-109033683D01*
X127093846Y-109048000D01*
X126781159Y-109048000D01*
X126677000Y-108943841D01*
X126677000Y-108843170D01*
X126654826Y-108731695D01*
X126611331Y-108626688D01*
X126548185Y-108532184D01*
X126467816Y-108451815D01*
X126373312Y-108388669D01*
X126268305Y-108345174D01*
X126156830Y-108323000D01*
X126043170Y-108323000D01*
X125931695Y-108345174D01*
X125826688Y-108388669D01*
X125732184Y-108451815D01*
X125651815Y-108532184D01*
X125588669Y-108626688D01*
X125545174Y-108731695D01*
X125523000Y-108843170D01*
X125523000Y-108956830D01*
X125545174Y-109068305D01*
X125588669Y-109173312D01*
X125651815Y-109267816D01*
X125732184Y-109348185D01*
X125826688Y-109411331D01*
X125931695Y-109454826D01*
X126043170Y-109477000D01*
X126143841Y-109477000D01*
X126345328Y-109678487D01*
X126357131Y-109692869D01*
X126371513Y-109704672D01*
X126371515Y-109704674D01*
X126381218Y-109712637D01*
X126414537Y-109739981D01*
X126480030Y-109774988D01*
X126551095Y-109796545D01*
X126606481Y-109802000D01*
X126606490Y-109802000D01*
X126624999Y-109803823D01*
X126643508Y-109802000D01*
X130981488Y-109802000D01*
X131000000Y-109803823D01*
X131018512Y-109802000D01*
X131018519Y-109802000D01*
X131073905Y-109796545D01*
X131144970Y-109774988D01*
X131210463Y-109739981D01*
X131267869Y-109692869D01*
X131279677Y-109678481D01*
X132709920Y-108248238D01*
X132724307Y-108236431D01*
X132746230Y-108209718D01*
X132782246Y-108175089D01*
X132813445Y-108130325D01*
X132835312Y-108080334D01*
X132962896Y-107687673D01*
X133130706Y-107742197D01*
X133172403Y-107759468D01*
X133012431Y-108145675D01*
X132996592Y-108197889D01*
X132991244Y-108252191D01*
X132996592Y-108306492D01*
X133012431Y-108358707D01*
X133038153Y-108406828D01*
X133055101Y-108427480D01*
X132534320Y-109662631D01*
X132524961Y-109680156D01*
X132514566Y-109714468D01*
X132503930Y-109748750D01*
X132503798Y-109750012D01*
X132503429Y-109751229D01*
X132499920Y-109786987D01*
X132496184Y-109822608D01*
X132496300Y-109823870D01*
X132496176Y-109825136D01*
X132499708Y-109860864D01*
X132502996Y-109896555D01*
X132503357Y-109897773D01*
X132503482Y-109899037D01*
X132513909Y-109933366D01*
X132524104Y-109967755D01*
X132524696Y-109968879D01*
X132525065Y-109970095D01*
X132541986Y-110001725D01*
X132558697Y-110033469D01*
X132559497Y-110034457D01*
X132560096Y-110035576D01*
X132582862Y-110063297D01*
X132605444Y-110091171D01*
X132606420Y-110091982D01*
X132607227Y-110092965D01*
X132635037Y-110115771D01*
X132662552Y-110138644D01*
X132663664Y-110139247D01*
X132664650Y-110140056D01*
X132696369Y-110156995D01*
X132727823Y-110174064D01*
X132746797Y-110179951D01*
X137046856Y-111959286D01*
X137047136Y-111959472D01*
X137081069Y-111973443D01*
X137097964Y-111980434D01*
X137098285Y-111980531D01*
X137115806Y-111987745D01*
X137133739Y-111991272D01*
X137151228Y-111996571D01*
X137170083Y-111998421D01*
X137188673Y-112002078D01*
X137206947Y-112002039D01*
X137225135Y-112003824D01*
X137243987Y-112001960D01*
X137262933Y-112001920D01*
X137280852Y-111998316D01*
X137299037Y-111996518D01*
X137317165Y-111991012D01*
X137335738Y-111987276D01*
X137352608Y-111980246D01*
X137370094Y-111974935D01*
X137386795Y-111966000D01*
X137404288Y-111958711D01*
X137419467Y-111948522D01*
X137435576Y-111939904D01*
X137450213Y-111927883D01*
X137465946Y-111917322D01*
X137478843Y-111904370D01*
X137492964Y-111892773D01*
X137504974Y-111878128D01*
X137518346Y-111864699D01*
X137528471Y-111849476D01*
X137540055Y-111835350D01*
X137548977Y-111818644D01*
X137549167Y-111818358D01*
X137557918Y-111801902D01*
X137575039Y-111769843D01*
X137575136Y-111769524D01*
X138108925Y-110765737D01*
X138153136Y-110764869D01*
X138206433Y-110753175D01*
X138256424Y-110731309D01*
X138301188Y-110700110D01*
X138339006Y-110660777D01*
X138368424Y-110614822D01*
X138560534Y-110237786D01*
X138717315Y-110317670D01*
X138756897Y-110341926D01*
X138533139Y-110707067D01*
X138509327Y-110756160D01*
X138495550Y-110808957D01*
X138492338Y-110863426D01*
X138499813Y-110917476D01*
X138517690Y-110969028D01*
X138523748Y-110979364D01*
X137745500Y-112176704D01*
X137735426Y-112188931D01*
X137725320Y-112207752D01*
X137723812Y-112210071D01*
X137716546Y-112224090D01*
X137700293Y-112254357D01*
X137699481Y-112257015D01*
X137698202Y-112259483D01*
X137688639Y-112292508D01*
X137678598Y-112325380D01*
X137678320Y-112328144D01*
X137677547Y-112330815D01*
X137674611Y-112365076D01*
X137671177Y-112399271D01*
X137671444Y-112402038D01*
X137671207Y-112404805D01*
X137675009Y-112438963D01*
X137678314Y-112473189D01*
X137679116Y-112475850D01*
X137679423Y-112478612D01*
X137689818Y-112511377D01*
X137699734Y-112544295D01*
X137701040Y-112546749D01*
X137701880Y-112549398D01*
X137718470Y-112579510D01*
X137734615Y-112609856D01*
X137736374Y-112612007D01*
X137737715Y-112614442D01*
X137759863Y-112640742D01*
X137781616Y-112667352D01*
X137783760Y-112669119D01*
X137785551Y-112671245D01*
X137812415Y-112692727D01*
X137824569Y-112702741D01*
X137826857Y-112704276D01*
X137843550Y-112717625D01*
X137857622Y-112724918D01*
X141686440Y-115293933D01*
X141688436Y-115295879D01*
X141717181Y-115314559D01*
X141730324Y-115323378D01*
X141732780Y-115324697D01*
X141750704Y-115336345D01*
X141765405Y-115342216D01*
X141779356Y-115349707D01*
X141799812Y-115355956D01*
X141819671Y-115363886D01*
X141835234Y-115366776D01*
X141850379Y-115371402D01*
X141871662Y-115373540D01*
X141892685Y-115377443D01*
X141908516Y-115377241D01*
X141924269Y-115378823D01*
X141945553Y-115376768D01*
X141966941Y-115376495D01*
X141982433Y-115373207D01*
X141998189Y-115371686D01*
X142018664Y-115365518D01*
X142039586Y-115361078D01*
X142054136Y-115354832D01*
X142069295Y-115350266D01*
X142088171Y-115340223D01*
X142107827Y-115331786D01*
X142120881Y-115322820D01*
X142134856Y-115315385D01*
X142151414Y-115301849D01*
X142169042Y-115289742D01*
X142180093Y-115278405D01*
X142192352Y-115268384D01*
X142205947Y-115251883D01*
X142207890Y-115249890D01*
X142217756Y-115237550D01*
X142239574Y-115211069D01*
X142240894Y-115208611D01*
X143137306Y-114087439D01*
X143146773Y-114090722D01*
X143200822Y-114098198D01*
X143255292Y-114094986D01*
X143308088Y-114081209D01*
X143357182Y-114057397D01*
X143400687Y-114024464D01*
X143436932Y-113983677D01*
X143691593Y-113633167D01*
X143832267Y-113735373D01*
X143869744Y-113767381D01*
X143585189Y-114100552D01*
X143553989Y-114145317D01*
X143532123Y-114195308D01*
X143520429Y-114248605D01*
X143519358Y-114303158D01*
X143528950Y-114356873D01*
X143537707Y-114379248D01*
X143196364Y-114770909D01*
X143176581Y-114791647D01*
X143162058Y-114814533D01*
X143146346Y-114836603D01*
X143142204Y-114845820D01*
X143136791Y-114854350D01*
X143127017Y-114879614D01*
X143115906Y-114904340D01*
X143113641Y-114914192D01*
X143109997Y-114923611D01*
X143105340Y-114950294D01*
X143099266Y-114976714D01*
X143098967Y-114986817D01*
X143097230Y-114996768D01*
X143097869Y-115023861D01*
X143097066Y-115050943D01*
X143098742Y-115060902D01*
X143098980Y-115071008D01*
X143104893Y-115097459D01*
X143109389Y-115124176D01*
X143112978Y-115133623D01*
X143115182Y-115143482D01*
X143126135Y-115168257D01*
X143135762Y-115193597D01*
X143150970Y-115217886D01*
X143465987Y-115775225D01*
X143477036Y-115797994D01*
X143495403Y-115822248D01*
X143512912Y-115847160D01*
X143531237Y-115864641D01*
X145659601Y-118166244D01*
X145669805Y-118179947D01*
X145684747Y-118193437D01*
X145685780Y-118194554D01*
X145698505Y-118205858D01*
X145724927Y-118229712D01*
X145726241Y-118230496D01*
X145727388Y-118231515D01*
X145758170Y-118249549D01*
X145772719Y-118258231D01*
X145774090Y-118258876D01*
X145791464Y-118269055D01*
X145807611Y-118274651D01*
X146617523Y-118655786D01*
X146628363Y-118662710D01*
X146651037Y-118671558D01*
X146656231Y-118674002D01*
X146668292Y-118678291D01*
X146697545Y-118689706D01*
X146703230Y-118690715D01*
X146708668Y-118692649D01*
X146739747Y-118697198D01*
X146770665Y-118702686D01*
X146776434Y-118702567D01*
X146782147Y-118703403D01*
X146813522Y-118701801D01*
X146844911Y-118701152D01*
X146850546Y-118699910D01*
X146856313Y-118699615D01*
X146886759Y-118691925D01*
X146917431Y-118685163D01*
X146922720Y-118682843D01*
X146928315Y-118681430D01*
X146956679Y-118667947D01*
X146985439Y-118655332D01*
X146990170Y-118652027D01*
X146995386Y-118649548D01*
X147020594Y-118630777D01*
X147031065Y-118623463D01*
X147035413Y-118619742D01*
X147054948Y-118605195D01*
X147063574Y-118595640D01*
X147584931Y-118149437D01*
X147612702Y-118164281D01*
X147664917Y-118180120D01*
X147719218Y-118185468D01*
X147773519Y-118180120D01*
X147825734Y-118164281D01*
X147873855Y-118138559D01*
X147916034Y-118103944D01*
X148229214Y-117790764D01*
X148349624Y-117911172D01*
X148384455Y-117951954D01*
X148044182Y-118242575D01*
X148006365Y-118281907D01*
X147976947Y-118327862D01*
X147957060Y-118378673D01*
X147947468Y-118432388D01*
X147948539Y-118486941D01*
X147960233Y-118540238D01*
X147968231Y-118558523D01*
X147707216Y-118810378D01*
X147698521Y-118816688D01*
X147680544Y-118836114D01*
X147674898Y-118841562D01*
X147667980Y-118849691D01*
X147648082Y-118871193D01*
X147643950Y-118877927D01*
X147638828Y-118883946D01*
X147624559Y-118909532D01*
X147609245Y-118934491D01*
X147606507Y-118941901D01*
X147602657Y-118948804D01*
X147593656Y-118976676D01*
X147583503Y-119004150D01*
X147582262Y-119011956D01*
X147579835Y-119019472D01*
X147576446Y-119048544D01*
X147571845Y-119077491D01*
X147572151Y-119085392D01*
X147571237Y-119093235D01*
X147573587Y-119122426D01*
X147574721Y-119151697D01*
X147576561Y-119159379D01*
X147577195Y-119167258D01*
X147585198Y-119195443D01*
X147587683Y-119205820D01*
X147590249Y-119213234D01*
X147597479Y-119238696D01*
X147602374Y-119248261D01*
X147813015Y-119856777D01*
X147817687Y-119875834D01*
X147832943Y-119908512D01*
X147848071Y-119941375D01*
X147859598Y-119957260D01*
X149038297Y-121946315D01*
X149043373Y-121958113D01*
X149057174Y-121978170D01*
X149060111Y-121983127D01*
X149067687Y-121993450D01*
X149074920Y-122003962D01*
X149078621Y-122008349D01*
X149093039Y-122027994D01*
X149102522Y-122036676D01*
X149738622Y-122790573D01*
X149739150Y-122791516D01*
X149762438Y-122818799D01*
X149773804Y-122832270D01*
X149774585Y-122833030D01*
X149787362Y-122847999D01*
X149801121Y-122858853D01*
X149813690Y-122871083D01*
X149830215Y-122881802D01*
X149845669Y-122893992D01*
X149861280Y-122901952D01*
X149875994Y-122911496D01*
X149894294Y-122918785D01*
X149911828Y-122927726D01*
X149928694Y-122932488D01*
X149944984Y-122938977D01*
X149964346Y-122942555D01*
X149983296Y-122947905D01*
X150000777Y-122949286D01*
X150018010Y-122952470D01*
X150037690Y-122952202D01*
X150057327Y-122953753D01*
X150074741Y-122951697D01*
X150092266Y-122951458D01*
X150111525Y-122947354D01*
X150112597Y-122947227D01*
X150129629Y-122943495D01*
X150164897Y-122935979D01*
X150165896Y-122935549D01*
X151227061Y-122703046D01*
X151306652Y-122812593D01*
X151342897Y-122853380D01*
X151386402Y-122886313D01*
X151435496Y-122910125D01*
X151488292Y-122923902D01*
X151542762Y-122927114D01*
X151596811Y-122919638D01*
X151648364Y-122901762D01*
X151695438Y-122874171D01*
X152061011Y-122608567D01*
X152158099Y-122742195D01*
X152189150Y-122792866D01*
X151800321Y-123031140D01*
X151756815Y-123064073D01*
X151720571Y-123104860D01*
X151692980Y-123151935D01*
X151675103Y-123203487D01*
X151667628Y-123257537D01*
X151670840Y-123312006D01*
X151684617Y-123364803D01*
X151693426Y-123382964D01*
X151373278Y-123648258D01*
X151357415Y-123659036D01*
X151331765Y-123685087D01*
X151306027Y-123711071D01*
X151305711Y-123711549D01*
X151305313Y-123711953D01*
X151285301Y-123742411D01*
X151265063Y-123773013D01*
X151264847Y-123773542D01*
X151264534Y-123774018D01*
X151250807Y-123807897D01*
X151236970Y-123841757D01*
X151236861Y-123842317D01*
X151236647Y-123842846D01*
X151229760Y-123878929D01*
X151222829Y-123914661D01*
X151222832Y-123915227D01*
X151222724Y-123915791D01*
X151223008Y-123952375D01*
X151223181Y-123988922D01*
X151223296Y-123989484D01*
X151223300Y-123990051D01*
X151230678Y-124025698D01*
X151238015Y-124061687D01*
X151245438Y-124079369D01*
X151962386Y-126378552D01*
X151969430Y-126405680D01*
X151981488Y-126430616D01*
X151992300Y-126456159D01*
X152008073Y-126479374D01*
X152552944Y-127370983D01*
X152571665Y-127401926D01*
X152584786Y-127416282D01*
X152596505Y-127431803D01*
X152609777Y-127443626D01*
X152621765Y-127456743D01*
X152637428Y-127468259D01*
X152651956Y-127481201D01*
X152683332Y-127499642D01*
X153476025Y-127970305D01*
X153500788Y-127986389D01*
X153525116Y-127996097D01*
X153548859Y-128007206D01*
X153559546Y-128009836D01*
X153569761Y-128013912D01*
X153595519Y-128018688D01*
X153620970Y-128024951D01*
X153631962Y-128025445D01*
X153642779Y-128027451D01*
X153668976Y-128027110D01*
X153695157Y-128028287D01*
X153724381Y-128023828D01*
X154261166Y-127963896D01*
X154307717Y-128055258D01*
X154337135Y-128101213D01*
X154374953Y-128140546D01*
X154419717Y-128171745D01*
X154469708Y-128193611D01*
X154523005Y-128205305D01*
X154577559Y-128206376D01*
X154631273Y-128196784D01*
X154682084Y-128176897D01*
X155091878Y-127968096D01*
X155163944Y-128109531D01*
X155189384Y-128170948D01*
X154761121Y-128348340D01*
X154713000Y-128374062D01*
X154670821Y-128408677D01*
X154636206Y-128450856D01*
X154610484Y-128498977D01*
X154601676Y-128528015D01*
X154268292Y-128638211D01*
X154244197Y-128644476D01*
X154216423Y-128657917D01*
X154188224Y-128670422D01*
X154183052Y-128674066D01*
X154177350Y-128676825D01*
X154152729Y-128695429D01*
X154127515Y-128713192D01*
X154123150Y-128717778D01*
X154118100Y-128721594D01*
X154097585Y-128744640D01*
X154076318Y-128766985D01*
X154072933Y-128772333D01*
X154068722Y-128777063D01*
X154053093Y-128803675D01*
X154036598Y-128829733D01*
X154034321Y-128835638D01*
X154031114Y-128841099D01*
X154020977Y-128870247D01*
X154009882Y-128899024D01*
X154008801Y-128905260D01*
X154006721Y-128911241D01*
X154002467Y-128941797D01*
X153997198Y-128972195D01*
X153997354Y-128978526D01*
X153996482Y-128984794D01*
X153998271Y-129015587D01*
X153999033Y-129046434D01*
X154004492Y-129070725D01*
X154498250Y-132206092D01*
X154498328Y-132215323D01*
X154504014Y-132242692D01*
X154505470Y-132251940D01*
X154507782Y-132260833D01*
X154513433Y-132288034D01*
X154517106Y-132296693D01*
X154519475Y-132305804D01*
X154531589Y-132330837D01*
X154535166Y-132339269D01*
X154539633Y-132347459D01*
X154551824Y-132372650D01*
X154557397Y-132380025D01*
X154982460Y-133159309D01*
X154987162Y-133171385D01*
X155000199Y-133191831D01*
X155002901Y-133196784D01*
X155010154Y-133207443D01*
X155027089Y-133234001D01*
X155031016Y-133238100D01*
X155034211Y-133242795D01*
X155056682Y-133264888D01*
X155065591Y-133274187D01*
X155069870Y-133277855D01*
X155087166Y-133294860D01*
X155098004Y-133301970D01*
X155603225Y-133735016D01*
X155629712Y-133758189D01*
X155647498Y-133768429D01*
X155664314Y-133780194D01*
X155679600Y-133786913D01*
X155694070Y-133795244D01*
X155713507Y-133801816D01*
X155732300Y-133810076D01*
X155748610Y-133813685D01*
X155764419Y-133819030D01*
X155784759Y-133821683D01*
X155804808Y-133826119D01*
X155821509Y-133826476D01*
X155838058Y-133828635D01*
X155858530Y-133827269D01*
X155879054Y-133827708D01*
X155913738Y-133821577D01*
X156463628Y-133730115D01*
X156473568Y-133752838D01*
X156504767Y-133797602D01*
X156544100Y-133835420D01*
X156590054Y-133864838D01*
X156640865Y-133884725D01*
X156694580Y-133894317D01*
X156749134Y-133893246D01*
X156802430Y-133881552D01*
X157246452Y-133737280D01*
X157293149Y-133880995D01*
X157310570Y-133953559D01*
X156853675Y-134063250D01*
X156802123Y-134081126D01*
X156755048Y-134108717D01*
X156714261Y-134144961D01*
X156681328Y-134188466D01*
X156659715Y-134233025D01*
X156296528Y-134301443D01*
X156276095Y-134303455D01*
X156242332Y-134313697D01*
X156208591Y-134323559D01*
X156206882Y-134324450D01*
X156205030Y-134325012D01*
X156173931Y-134341635D01*
X156142745Y-134357899D01*
X156141240Y-134359109D01*
X156139537Y-134360019D01*
X156112275Y-134382392D01*
X156084865Y-134404426D01*
X156083628Y-134405902D01*
X156082131Y-134407131D01*
X156059732Y-134434424D01*
X156037173Y-134461351D01*
X156036247Y-134463041D01*
X156035019Y-134464538D01*
X156018386Y-134495656D01*
X156001502Y-134526486D01*
X156000923Y-134528326D01*
X156000012Y-134530031D01*
X155989774Y-134563780D01*
X155979225Y-134597328D01*
X155979017Y-134599245D01*
X155978455Y-134601096D01*
X155974998Y-134636192D01*
X155971196Y-134671155D01*
X155973000Y-134691598D01*
X155973001Y-137843005D01*
X155971884Y-137873148D01*
X155975948Y-137898437D01*
X155978456Y-137923905D01*
X155981824Y-137935009D01*
X155983666Y-137946470D01*
X155992580Y-137970467D01*
X156000013Y-137994970D01*
X156014228Y-138021565D01*
X156510229Y-139038368D01*
X156525186Y-139069945D01*
X156537571Y-139086623D01*
X156548468Y-139104317D01*
X156559662Y-139116373D01*
X156569460Y-139129567D01*
X156584851Y-139143500D01*
X156598999Y-139158737D01*
X156627396Y-139179271D01*
X157284564Y-139666064D01*
X157297197Y-139677676D01*
X157314314Y-139688100D01*
X157315480Y-139688964D01*
X157330228Y-139697792D01*
X157360624Y-139716303D01*
X157361984Y-139716801D01*
X157363233Y-139717548D01*
X157396915Y-139729577D01*
X157430367Y-139741813D01*
X157431799Y-139742036D01*
X157433169Y-139742525D01*
X157468509Y-139747746D01*
X157503747Y-139753227D01*
X157505198Y-139753166D01*
X157506633Y-139753378D01*
X157542271Y-139751606D01*
X157559351Y-139750888D01*
X157560779Y-139750686D01*
X157580805Y-139749691D01*
X157597455Y-139745510D01*
X157729929Y-139726812D01*
X157756333Y-139761692D01*
X157797120Y-139797937D01*
X157844194Y-139825528D01*
X157895747Y-139843404D01*
X157949797Y-139850880D01*
X158004266Y-139847668D01*
X158470977Y-139773748D01*
X158493267Y-139914487D01*
X158499831Y-139997890D01*
X158026456Y-140035145D01*
X157972741Y-140044737D01*
X157921930Y-140064624D01*
X157875975Y-140094042D01*
X157836642Y-140131860D01*
X157805443Y-140176624D01*
X157783577Y-140226615D01*
X157771883Y-140279912D01*
X157770812Y-140334466D01*
X157783148Y-140491210D01*
X156763988Y-141082558D01*
X156759729Y-141084129D01*
X156731902Y-141101176D01*
X156719779Y-141108210D01*
X156716120Y-141110844D01*
X156696404Y-141122922D01*
X156686050Y-141132490D01*
X156674611Y-141140725D01*
X156658842Y-141157634D01*
X156641864Y-141173324D01*
X156633579Y-141184724D01*
X156623962Y-141195036D01*
X156611795Y-141214697D01*
X156598204Y-141233397D01*
X156592300Y-141246198D01*
X156584883Y-141258184D01*
X156576786Y-141279840D01*
X156567104Y-141300833D01*
X156563812Y-141314538D01*
X156558874Y-141327743D01*
X156555157Y-141350564D01*
X156549757Y-141373041D01*
X156549202Y-141387125D01*
X156546935Y-141401040D01*
X156547741Y-141424150D01*
X156547564Y-141428651D01*
X156548387Y-141442635D01*
X156549525Y-141475256D01*
X156550565Y-141479675D01*
X156747416Y-144826128D01*
X156746567Y-144842201D01*
X156749592Y-144863118D01*
X156749739Y-144865624D01*
X156752238Y-144881420D01*
X156757195Y-144915700D01*
X156758039Y-144918087D01*
X156758436Y-144920595D01*
X156770422Y-144953098D01*
X156781956Y-144985712D01*
X156783252Y-144987892D01*
X156784129Y-144990271D01*
X156802205Y-145019777D01*
X156819901Y-145049548D01*
X156821599Y-145051435D01*
X156822922Y-145053595D01*
X156846390Y-145078990D01*
X156857125Y-145090922D01*
X156858990Y-145092624D01*
X156873324Y-145108136D01*
X156886336Y-145117593D01*
X157418469Y-145603455D01*
X157418534Y-145603543D01*
X157444699Y-145627404D01*
X157459476Y-145640896D01*
X157459575Y-145640970D01*
X157473406Y-145653583D01*
X157489239Y-145663139D01*
X157504056Y-145674212D01*
X157520956Y-145682281D01*
X157536986Y-145691956D01*
X157554374Y-145698237D01*
X157571072Y-145706210D01*
X157589231Y-145710829D01*
X157606831Y-145717187D01*
X157625111Y-145719956D01*
X157643042Y-145724517D01*
X157661741Y-145725504D01*
X157661857Y-145725522D01*
X157680536Y-145726497D01*
X157717201Y-145728433D01*
X157717315Y-145728416D01*
X157996747Y-145743000D01*
X158000847Y-145756516D01*
X158026569Y-145804637D01*
X158061184Y-145846816D01*
X158103363Y-145881431D01*
X158151484Y-145907153D01*
X158203699Y-145922992D01*
X158258000Y-145928340D01*
X158734780Y-145928340D01*
X158734780Y-146061453D01*
X158727456Y-146154510D01*
X158250588Y-146116980D01*
X158196035Y-146118051D01*
X158142738Y-146129745D01*
X158092747Y-146151611D01*
X158047983Y-146182810D01*
X158010165Y-146222143D01*
X157980747Y-146268098D01*
X157974090Y-146285107D01*
X157402087Y-146273474D01*
X157384515Y-146271296D01*
X157365052Y-146272720D01*
X157364151Y-146272702D01*
X157346686Y-146274064D01*
X157310451Y-146276716D01*
X157309569Y-146276960D01*
X157308666Y-146277030D01*
X157273816Y-146286832D01*
X157238868Y-146296482D01*
X157238058Y-146296889D01*
X157237177Y-146297137D01*
X157204790Y-146313611D01*
X157172515Y-146329833D01*
X157171798Y-146330392D01*
X157170986Y-146330805D01*
X157142577Y-146353169D01*
X157113943Y-146375488D01*
X157113345Y-146376180D01*
X157112634Y-146376740D01*
X157089205Y-146404133D01*
X157065405Y-146431691D01*
X157064954Y-146432486D01*
X157064364Y-146433176D01*
X157046707Y-146464654D01*
X157028764Y-146496285D01*
X157028477Y-146497153D01*
X157028033Y-146497944D01*
X157016850Y-146532279D01*
X157011276Y-146549120D01*
X157011076Y-146550007D01*
X157005035Y-146568556D01*
X157002942Y-146586131D01*
X156164764Y-150308632D01*
X156163689Y-150311151D01*
X156156604Y-150344875D01*
X156153141Y-150360253D01*
X156152808Y-150362942D01*
X156148420Y-150383826D01*
X156148250Y-150399721D01*
X156146296Y-150415485D01*
X156147853Y-150436756D01*
X156147624Y-150458083D01*
X156150556Y-150473698D01*
X156151716Y-150489548D01*
X156157393Y-150510110D01*
X156157895Y-150512781D01*
X156162319Y-150527950D01*
X156171481Y-150561131D01*
X156172711Y-150563577D01*
X156332550Y-151111597D01*
X156335644Y-151128690D01*
X156342920Y-151147152D01*
X156343266Y-151148338D01*
X156349693Y-151164338D01*
X156362873Y-151197780D01*
X156363549Y-151198830D01*
X156364011Y-151199981D01*
X156383596Y-151229983D01*
X156403059Y-151260230D01*
X156403924Y-151261126D01*
X156404604Y-151262167D01*
X156429750Y-151287859D01*
X156441727Y-151300257D01*
X156442664Y-151301053D01*
X156456548Y-151315239D01*
X156470892Y-151325048D01*
X156947241Y-151729945D01*
X156965879Y-151747816D01*
X156991082Y-151763901D01*
X157015680Y-151780959D01*
X157022354Y-151783860D01*
X157028478Y-151787768D01*
X157056321Y-151798622D01*
X157083788Y-151810559D01*
X157090903Y-151812102D01*
X157097669Y-151814740D01*
X157127096Y-151819954D01*
X157156362Y-151826302D01*
X157182201Y-151826748D01*
X157362963Y-151840727D01*
X157375743Y-151862532D01*
X157411988Y-151903319D01*
X157455493Y-151936252D01*
X157504587Y-151960064D01*
X157557383Y-151973841D01*
X158031012Y-152048857D01*
X158011749Y-152170480D01*
X157987586Y-152271126D01*
X157520552Y-152159001D01*
X157466502Y-152151525D01*
X157412033Y-152154737D01*
X157359236Y-152168514D01*
X157310142Y-152192326D01*
X157266637Y-152225259D01*
X157230393Y-152266046D01*
X157202802Y-152313121D01*
X157185973Y-152361651D01*
X156911166Y-152349249D01*
X156893413Y-152346624D01*
X156874158Y-152347579D01*
X156873497Y-152347549D01*
X156855753Y-152348491D01*
X156819243Y-152350302D01*
X156818592Y-152350465D01*
X156817922Y-152350501D01*
X156782470Y-152359531D01*
X156747214Y-152368380D01*
X156746612Y-152368665D01*
X156745957Y-152368832D01*
X156712966Y-152384597D01*
X156696914Y-152392198D01*
X156696344Y-152392540D01*
X156678952Y-152400851D01*
X156664585Y-152411595D01*
X156186322Y-152698554D01*
X156159228Y-152713632D01*
X156140341Y-152729675D01*
X156120469Y-152744427D01*
X156112120Y-152753647D01*
X156102629Y-152761709D01*
X156087238Y-152781125D01*
X156070622Y-152799475D01*
X156064230Y-152810151D01*
X156056498Y-152819905D01*
X156045191Y-152841950D01*
X156032474Y-152863189D01*
X156022061Y-152892334D01*
X154949611Y-155610870D01*
X154936144Y-155644567D01*
X154932588Y-155663691D01*
X154927256Y-155682403D01*
X154925814Y-155700117D01*
X154922567Y-155717578D01*
X154922810Y-155737027D01*
X154921231Y-155756419D01*
X154925392Y-155792405D01*
X154996507Y-156432446D01*
X154996313Y-156435167D01*
X155000601Y-156469285D01*
X155002351Y-156485038D01*
X155002915Y-156487697D01*
X155005573Y-156508851D01*
X155010593Y-156523930D01*
X155013889Y-156539483D01*
X155022297Y-156559086D01*
X155029030Y-156579311D01*
X155036893Y-156593118D01*
X155043162Y-156607733D01*
X155055233Y-156625318D01*
X155065782Y-156643841D01*
X155076192Y-156655852D01*
X155085188Y-156668959D01*
X155100454Y-156683849D01*
X155102231Y-156685899D01*
X155113712Y-156696779D01*
X155138351Y-156720811D01*
X155140640Y-156722300D01*
X155788995Y-157336749D01*
X155740961Y-157484583D01*
X155729267Y-157537879D01*
X155728196Y-157592433D01*
X155737788Y-157646148D01*
X155757675Y-157696959D01*
X155787093Y-157742913D01*
X155824911Y-157782246D01*
X155869675Y-157813445D01*
X155919666Y-157835312D01*
X156376807Y-157983846D01*
X156341916Y-158091229D01*
X156298370Y-158196360D01*
X155854325Y-158012431D01*
X155802111Y-157996592D01*
X155747809Y-157991244D01*
X155693508Y-157996592D01*
X155641293Y-158012431D01*
X155593172Y-158038153D01*
X155550993Y-158072768D01*
X155516378Y-158114947D01*
X155490656Y-158163068D01*
X155464199Y-158226941D01*
X154873488Y-158175788D01*
X154852693Y-158172190D01*
X154818075Y-158173056D01*
X154783425Y-158173465D01*
X154780967Y-158173984D01*
X154778453Y-158174047D01*
X154744611Y-158181663D01*
X154710765Y-158188811D01*
X154708460Y-158189798D01*
X154706002Y-158190351D01*
X154674280Y-158204430D01*
X154642496Y-158218037D01*
X154640426Y-158219456D01*
X154638125Y-158220477D01*
X154609747Y-158240483D01*
X154581240Y-158260021D01*
X154579489Y-158261814D01*
X154577429Y-158263266D01*
X154553496Y-158288427D01*
X154529351Y-158313148D01*
X154517839Y-158330825D01*
X153378669Y-159791936D01*
X153356475Y-159819941D01*
X153347295Y-159837844D01*
X153336547Y-159854834D01*
X153323768Y-159888008D01*
X152628897Y-161650004D01*
X152618379Y-161672216D01*
X152610785Y-161702473D01*
X152602249Y-161732444D01*
X152601763Y-161738423D01*
X152600302Y-161744244D01*
X152598758Y-161775383D01*
X152596231Y-161806462D01*
X152596921Y-161812423D01*
X152596624Y-161818414D01*
X152601184Y-161849254D01*
X152604770Y-161880231D01*
X152612301Y-161903614D01*
X152757800Y-162485609D01*
X152764374Y-162516001D01*
X152774184Y-162538609D01*
X152782474Y-162561811D01*
X152788930Y-162572593D01*
X152793934Y-162584126D01*
X152807963Y-162604381D01*
X152820623Y-162625526D01*
X152829063Y-162634846D01*
X152836217Y-162645176D01*
X152853925Y-162662303D01*
X152870469Y-162680573D01*
X152895452Y-162699120D01*
X153264627Y-162991922D01*
X153263539Y-162994057D01*
X153243652Y-163044868D01*
X153234060Y-163098582D01*
X153235131Y-163153136D01*
X153246825Y-163206433D01*
X153268691Y-163256424D01*
X153299890Y-163301188D01*
X153339223Y-163339006D01*
X153385178Y-163368424D01*
X153813016Y-163586419D01*
X153766428Y-163677850D01*
X153701632Y-163783590D01*
X153292933Y-163533139D01*
X153243840Y-163509327D01*
X153191043Y-163495550D01*
X153136574Y-163492338D01*
X153082524Y-163499813D01*
X153030972Y-163517690D01*
X152983897Y-163545281D01*
X152943110Y-163581525D01*
X152925839Y-163604341D01*
X152631624Y-163481840D01*
X152609727Y-163470943D01*
X152579509Y-163462729D01*
X152549586Y-163453592D01*
X152543737Y-163453005D01*
X152538064Y-163451463D01*
X152506844Y-163449303D01*
X152475694Y-163446177D01*
X152469841Y-163446743D01*
X152463979Y-163446337D01*
X152432934Y-163450309D01*
X152401778Y-163453320D01*
X152396152Y-163455015D01*
X152390317Y-163455762D01*
X152360630Y-163465720D01*
X152330673Y-163474747D01*
X152325484Y-163477508D01*
X152319910Y-163479378D01*
X152292742Y-163494932D01*
X152265115Y-163509634D01*
X152246191Y-163525107D01*
X151151103Y-164303837D01*
X151139536Y-164310020D01*
X151120892Y-164325321D01*
X151116428Y-164328495D01*
X151106628Y-164337027D01*
X151096515Y-164345326D01*
X151092616Y-164349225D01*
X151074452Y-164365038D01*
X151066440Y-164375401D01*
X150458239Y-164983603D01*
X150456557Y-164984753D01*
X150431971Y-165009871D01*
X150420326Y-165021516D01*
X150419046Y-165023075D01*
X150404610Y-165037824D01*
X150395538Y-165051721D01*
X150385020Y-165064537D01*
X150375301Y-165082719D01*
X150374187Y-165084426D01*
X150366506Y-165099173D01*
X150350012Y-165130031D01*
X150349423Y-165131973D01*
X149752412Y-166278236D01*
X149745696Y-166287739D01*
X149735292Y-166311108D01*
X149732079Y-166317276D01*
X149727772Y-166327998D01*
X149715491Y-166355581D01*
X149713944Y-166362419D01*
X149711333Y-166368918D01*
X149705763Y-166398577D01*
X149703209Y-166409863D01*
X149702345Y-166416771D01*
X149697625Y-166441905D01*
X149697749Y-166453540D01*
X149604443Y-167199990D01*
X149602090Y-167208327D01*
X149599845Y-167236772D01*
X149598615Y-167246615D01*
X149598390Y-167255219D01*
X149596248Y-167282359D01*
X149597419Y-167292273D01*
X149597158Y-167302249D01*
X149601767Y-167329071D01*
X149604961Y-167356108D01*
X149608044Y-167365602D01*
X149609734Y-167375439D01*
X149619490Y-167400856D01*
X149627895Y-167426740D01*
X149632769Y-167435447D01*
X149636347Y-167444769D01*
X149650871Y-167467788D01*
X149655078Y-167475304D01*
X149660755Y-167483453D01*
X149675975Y-167507575D01*
X149681935Y-167513855D01*
X150005491Y-167978300D01*
X149954745Y-168048146D01*
X149927154Y-168095220D01*
X149909278Y-168146773D01*
X149901802Y-168200822D01*
X149905014Y-168255292D01*
X149918791Y-168308088D01*
X149942603Y-168357182D01*
X149975536Y-168400687D01*
X150016323Y-168436932D01*
X150403109Y-168717948D01*
X150348730Y-168792793D01*
X150261755Y-168894629D01*
X149899448Y-168585189D01*
X149854683Y-168553989D01*
X149804692Y-168532123D01*
X149751395Y-168520429D01*
X149696842Y-168519358D01*
X149643127Y-168528950D01*
X149592316Y-168548837D01*
X149546361Y-168578255D01*
X149520714Y-168602914D01*
X149295884Y-168467893D01*
X149291411Y-168464077D01*
X149264104Y-168448807D01*
X149253219Y-168442270D01*
X149247934Y-168439765D01*
X149226595Y-168427832D01*
X149214463Y-168423899D01*
X149202929Y-168418431D01*
X149179199Y-168412465D01*
X149155953Y-168404928D01*
X149143292Y-168403437D01*
X149130908Y-168400324D01*
X149106472Y-168399103D01*
X149082199Y-168396245D01*
X149069482Y-168397254D01*
X149056740Y-168396617D01*
X149032550Y-168400184D01*
X149008170Y-168402118D01*
X148995893Y-168405589D01*
X148983271Y-168407450D01*
X148960239Y-168415668D01*
X148936708Y-168422321D01*
X148925343Y-168428121D01*
X148913328Y-168432408D01*
X148892347Y-168444959D01*
X148887136Y-168447618D01*
X148876444Y-168454472D01*
X148849598Y-168470531D01*
X148845238Y-168474476D01*
X147907913Y-169075326D01*
X147903489Y-169077734D01*
X147892297Y-169085336D01*
X147880956Y-169092606D01*
X147877020Y-169095713D01*
X146593120Y-169967796D01*
X146592267Y-169968162D01*
X146562393Y-169988668D01*
X146547851Y-169998545D01*
X146547144Y-169999134D01*
X146531040Y-170010188D01*
X146518687Y-170022853D01*
X146505100Y-170034178D01*
X146492829Y-170049364D01*
X146492181Y-170050029D01*
X146481069Y-170063919D01*
X146458427Y-170091941D01*
X146457999Y-170092756D01*
X145994127Y-170672597D01*
X145983123Y-170683514D01*
X145970984Y-170701525D01*
X145969044Y-170703951D01*
X145960647Y-170716864D01*
X145941620Y-170745097D01*
X145940410Y-170747986D01*
X145938705Y-170750608D01*
X145926078Y-170782200D01*
X145920118Y-170796430D01*
X145919204Y-170799400D01*
X145911144Y-170819567D01*
X145908310Y-170834807D01*
X145715997Y-171459824D01*
X145705661Y-171490765D01*
X145702753Y-171513707D01*
X145698151Y-171536371D01*
X145698095Y-171550456D01*
X145696323Y-171564437D01*
X145697948Y-171587513D01*
X145697856Y-171610632D01*
X145700549Y-171624459D01*
X145701539Y-171638515D01*
X145707633Y-171660826D01*
X145712054Y-171683524D01*
X145724413Y-171713701D01*
X145995343Y-172423115D01*
X145896056Y-172522402D01*
X145861441Y-172564581D01*
X145835719Y-172612702D01*
X145819880Y-172664917D01*
X145814532Y-172719218D01*
X145819880Y-172773519D01*
X145835719Y-172825734D01*
X145861441Y-172873855D01*
X145896056Y-172916034D01*
X146231558Y-173251536D01*
X146172954Y-173310140D01*
X146064031Y-173403170D01*
X145757425Y-173044182D01*
X145718093Y-173006365D01*
X145672138Y-172976947D01*
X145621327Y-172957060D01*
X145577170Y-172949175D01*
X145554006Y-172914085D01*
X145549254Y-172904126D01*
X145533590Y-172883158D01*
X145529425Y-172876848D01*
X145522512Y-172868328D01*
X145504810Y-172844631D01*
X145499156Y-172839542D01*
X145494360Y-172833631D01*
X145471590Y-172814730D01*
X145449614Y-172794950D01*
X145443077Y-172791063D01*
X145437218Y-172786199D01*
X145411199Y-172772105D01*
X145385785Y-172756991D01*
X145378611Y-172754452D01*
X145371921Y-172750828D01*
X145343670Y-172742086D01*
X145315778Y-172732214D01*
X145308245Y-172731123D01*
X145300977Y-172728874D01*
X145271555Y-172725810D01*
X145242282Y-172721571D01*
X145234686Y-172721970D01*
X145227114Y-172721182D01*
X145197643Y-172723918D01*
X145168122Y-172725471D01*
X145160752Y-172727344D01*
X145153171Y-172728048D01*
X145124807Y-172736480D01*
X145114183Y-172739180D01*
X145107074Y-172741751D01*
X145081987Y-172749209D01*
X145072230Y-172754355D01*
X143928398Y-173168081D01*
X143917461Y-173171581D01*
X143910981Y-173174381D01*
X143904354Y-173176778D01*
X143894007Y-173181716D01*
X141907439Y-174040109D01*
X141905205Y-174040617D01*
X141873391Y-174054821D01*
X141858462Y-174061272D01*
X141856469Y-174062376D01*
X141837394Y-174070893D01*
X141824060Y-174080337D01*
X141809784Y-174088249D01*
X141793851Y-174101734D01*
X141776793Y-174113816D01*
X141765558Y-174125680D01*
X141753099Y-174136225D01*
X141740098Y-174152566D01*
X141725731Y-174167738D01*
X141717028Y-174181563D01*
X141706864Y-174194339D01*
X141697300Y-174212903D01*
X141696083Y-174214837D01*
X141688799Y-174229406D01*
X141672854Y-174260356D01*
X141672222Y-174262559D01*
X141400697Y-174805611D01*
X141395892Y-174812395D01*
X141384108Y-174838790D01*
X141379520Y-174847965D01*
X141376573Y-174855665D01*
X141373203Y-174863214D01*
X141369951Y-174872971D01*
X141359629Y-174899943D01*
X141358231Y-174908130D01*
X141017574Y-175930101D01*
X141005709Y-175965551D01*
X141003329Y-175984247D01*
X140999151Y-176002620D01*
X140998651Y-176020993D01*
X140996330Y-176039220D01*
X140997642Y-176058014D01*
X140997129Y-176076854D01*
X141000222Y-176094968D01*
X141001502Y-176113300D01*
X141006457Y-176131483D01*
X141009629Y-176150056D01*
X141016197Y-176167220D01*
X141021029Y-176184950D01*
X141029435Y-176201814D01*
X141036170Y-176219415D01*
X141055634Y-176250335D01*
X141128646Y-176366640D01*
X141113687Y-176386402D01*
X141089875Y-176435496D01*
X141076098Y-176488292D01*
X141072886Y-176542762D01*
X141080362Y-176596811D01*
X141098238Y-176648364D01*
X141125829Y-176695438D01*
X141401729Y-177075181D01*
X141341942Y-177118619D01*
X141212515Y-177197931D01*
X140968860Y-176800321D01*
X140935927Y-176756815D01*
X140895140Y-176720571D01*
X140848065Y-176692980D01*
X140796513Y-176675103D01*
X140742463Y-176667628D01*
X140722873Y-176668783D01*
X140526248Y-176336051D01*
X140509555Y-176306636D01*
X140495221Y-176290044D01*
X140482269Y-176272351D01*
X140471003Y-176262012D01*
X140461007Y-176250441D01*
X140443712Y-176236965D01*
X140427556Y-176222138D01*
X140414486Y-176214193D01*
X140402427Y-176204797D01*
X140382842Y-176194957D01*
X140364098Y-176183563D01*
X140349729Y-176178321D01*
X140336068Y-176171457D01*
X140314933Y-176165625D01*
X140294334Y-176158110D01*
X140279222Y-176155772D01*
X140264482Y-176151705D01*
X140242615Y-176150109D01*
X140220944Y-176146756D01*
X140205664Y-176147411D01*
X140190416Y-176146298D01*
X140168663Y-176148998D01*
X140146751Y-176149937D01*
X140113905Y-176157948D01*
X138344589Y-176556668D01*
X138310702Y-176563831D01*
X138291282Y-176572149D01*
X138271223Y-176578792D01*
X138241106Y-176595884D01*
X137269644Y-177130187D01*
X137262969Y-177132577D01*
X137237148Y-177148060D01*
X137227090Y-177153592D01*
X137221285Y-177157572D01*
X137215238Y-177161198D01*
X137206002Y-177168050D01*
X137181189Y-177185063D01*
X137176240Y-177190132D01*
X136438800Y-177737266D01*
X136421380Y-177747939D01*
X136395337Y-177772009D01*
X136369264Y-177795650D01*
X136368185Y-177797106D01*
X136366844Y-177798345D01*
X136346032Y-177826986D01*
X136325036Y-177855306D01*
X136316313Y-177873758D01*
X135901635Y-178581152D01*
X135884129Y-178609728D01*
X135876419Y-178630638D01*
X135867094Y-178650861D01*
X135863604Y-178665391D01*
X135858437Y-178679405D01*
X135854957Y-178701396D01*
X135849752Y-178723070D01*
X135848434Y-178756554D01*
X135823705Y-179176952D01*
X135821458Y-179214603D01*
X135824017Y-179233203D01*
X135824757Y-179251959D01*
X135829066Y-179269897D01*
X135831581Y-179288172D01*
X135837719Y-179305913D01*
X135842104Y-179324167D01*
X135857550Y-179357660D01*
X135863651Y-179370918D01*
X135859454Y-179374953D01*
X135828255Y-179419717D01*
X135806389Y-179469708D01*
X135794695Y-179523005D01*
X135793624Y-179577559D01*
X135803216Y-179631273D01*
X135823103Y-179682084D01*
X136033281Y-180094581D01*
X135974608Y-180124476D01*
X135827419Y-180185443D01*
X135651660Y-179761121D01*
X135625938Y-179713000D01*
X135591323Y-179670821D01*
X135549144Y-179636206D01*
X135501023Y-179610484D01*
X135448808Y-179594645D01*
X135424615Y-179592262D01*
X135202311Y-179040632D01*
X135192125Y-179012342D01*
X135178876Y-178990339D01*
X135166989Y-178967575D01*
X135159763Y-178958595D01*
X135153818Y-178948722D01*
X135136535Y-178929731D01*
X135120432Y-178909719D01*
X135111592Y-178902321D01*
X135103836Y-178893798D01*
X135083179Y-178878543D01*
X135063482Y-178862058D01*
X135053369Y-178856527D01*
X135044098Y-178849680D01*
X135020856Y-178838745D01*
X134998327Y-178826423D01*
X134987333Y-178822972D01*
X134976901Y-178818064D01*
X134951973Y-178811873D01*
X134927473Y-178804183D01*
X134916016Y-178802943D01*
X134904829Y-178800165D01*
X134879172Y-178798957D01*
X134853642Y-178796194D01*
X134842162Y-178797213D01*
X134830648Y-178796671D01*
X134805249Y-178800491D01*
X134779671Y-178802762D01*
X134750830Y-178811209D01*
X132418076Y-179400537D01*
X132417482Y-179400569D01*
X132382202Y-179409600D01*
X132364705Y-179414020D01*
X132364144Y-179414222D01*
X132363566Y-179414370D01*
X132346645Y-179420523D01*
X132312342Y-179432875D01*
X132311831Y-179433183D01*
X131006023Y-179908022D01*
X131005983Y-179908028D01*
X130969721Y-179921223D01*
X130953759Y-179927027D01*
X130953727Y-179927042D01*
X130936197Y-179933421D01*
X130920318Y-179943055D01*
X130903572Y-179951081D01*
X130888651Y-179962267D01*
X130888615Y-179962289D01*
X130871871Y-179974847D01*
X130844153Y-179995627D01*
X130844130Y-179995653D01*
X130288897Y-180412078D01*
X130273273Y-180421517D01*
X130259269Y-180434299D01*
X130258985Y-180434512D01*
X130245384Y-180446973D01*
X130218423Y-180471581D01*
X130218215Y-180471863D01*
X130217949Y-180472107D01*
X130196074Y-180501936D01*
X130174393Y-180531383D01*
X130174241Y-180531706D01*
X130174032Y-180531992D01*
X130158444Y-180565411D01*
X130142877Y-180598626D01*
X130142793Y-180598968D01*
X130142641Y-180599293D01*
X130133848Y-180635214D01*
X130125085Y-180670726D01*
X130125069Y-180671080D01*
X130124984Y-180671427D01*
X130123379Y-180708102D01*
X130122548Y-180726321D01*
X130122567Y-180726677D01*
X130121738Y-180745618D01*
X130124513Y-180763660D01*
X130147675Y-181203734D01*
X130146986Y-181224745D01*
X130152636Y-181258982D01*
X130157853Y-181293330D01*
X130165007Y-181313104D01*
X130214151Y-181496575D01*
X130202398Y-181504767D01*
X130164580Y-181544100D01*
X130135162Y-181590054D01*
X130115275Y-181640865D01*
X130105683Y-181694580D01*
X130106754Y-181749134D01*
X130118448Y-181802430D01*
X130259150Y-182235466D01*
X130203117Y-182253673D01*
X130042064Y-182292338D01*
X129936750Y-181853675D01*
X129918874Y-181802123D01*
X129891283Y-181755048D01*
X129855039Y-181714261D01*
X129811534Y-181681328D01*
X129762440Y-181657516D01*
X129725546Y-181647889D01*
X129666773Y-181412687D01*
X129659511Y-181380589D01*
X129650225Y-181359731D01*
X129642545Y-181338228D01*
X129635157Y-181325885D01*
X129629307Y-181312746D01*
X129616131Y-181294102D01*
X129604403Y-181274509D01*
X129594749Y-181263845D01*
X129586448Y-181252099D01*
X129569885Y-181236381D01*
X129554563Y-181219456D01*
X129543016Y-181210882D01*
X129532582Y-181200980D01*
X129513272Y-181188796D01*
X129494939Y-181175183D01*
X129481938Y-181169025D01*
X129469776Y-181161351D01*
X129448460Y-181153168D01*
X129427825Y-181143394D01*
X129395909Y-181135380D01*
X128416850Y-180866139D01*
X128398485Y-180859202D01*
X128362834Y-180853273D01*
X128327257Y-180847158D01*
X128326231Y-180847185D01*
X128325228Y-180847018D01*
X128289288Y-180848151D01*
X128253021Y-180849100D01*
X128233874Y-180853432D01*
X126558062Y-181072016D01*
X126553033Y-181071814D01*
X126521297Y-181076811D01*
X126507876Y-181078562D01*
X126503002Y-181079692D01*
X126498057Y-181080471D01*
X126484952Y-181083878D01*
X126453661Y-181091135D01*
X126449075Y-181093206D01*
X125247547Y-181405604D01*
X125228647Y-181408634D01*
X125194220Y-181421410D01*
X125159980Y-181434008D01*
X125159526Y-181434286D01*
X125159024Y-181434472D01*
X125127766Y-181453710D01*
X125096626Y-181472754D01*
X125082563Y-181485731D01*
X124483861Y-181940745D01*
X124465264Y-181952668D01*
X124441013Y-181976018D01*
X124416344Y-181998909D01*
X124414290Y-182001748D01*
X124411768Y-182004176D01*
X124392544Y-182031800D01*
X124372809Y-182059072D01*
X124371349Y-182062254D01*
X124369348Y-182065130D01*
X124355885Y-182095968D01*
X124341848Y-182126572D01*
X124341036Y-182129983D01*
X124339636Y-182133190D01*
X124332447Y-182166064D01*
X124324650Y-182198816D01*
X124323825Y-182220885D01*
X124276532Y-182622887D01*
X124271904Y-182651533D01*
X124272871Y-182678249D01*
X124272365Y-182704987D01*
X124276401Y-182727497D01*
X124238308Y-182756333D01*
X124202063Y-182797120D01*
X124174472Y-182844194D01*
X124156596Y-182895747D01*
X124149120Y-182949797D01*
X124152332Y-183004266D01*
X124222215Y-183445486D01*
X124169623Y-183453816D01*
X123999542Y-183467201D01*
X123964855Y-183026456D01*
X123955263Y-182972741D01*
X123935376Y-182921930D01*
X123905958Y-182875975D01*
X123868140Y-182836642D01*
X123823376Y-182805443D01*
X123773385Y-182783577D01*
X123720088Y-182771883D01*
X123665534Y-182770812D01*
X123167075Y-182810042D01*
X123113361Y-182819634D01*
X123062550Y-182839521D01*
X123016595Y-182868939D01*
X122977263Y-182906757D01*
X122946064Y-182951521D01*
X122930278Y-182987610D01*
X122909040Y-182954434D01*
X122871222Y-182915101D01*
X122826458Y-182883902D01*
X122776467Y-182862036D01*
X122723170Y-182850342D01*
X122668616Y-182849271D01*
X122369541Y-182872809D01*
X122315827Y-182882401D01*
X122265016Y-182902288D01*
X122219061Y-182931706D01*
X122179729Y-182969524D01*
X122148530Y-183014288D01*
X122132744Y-183050377D01*
X122111506Y-183017201D01*
X122073688Y-182977868D01*
X122028924Y-182946669D01*
X121978933Y-182924803D01*
X121925636Y-182913109D01*
X121871082Y-182912038D01*
X121372623Y-182951268D01*
X121318909Y-182960860D01*
X121268098Y-182980747D01*
X121222143Y-183010165D01*
X121182811Y-183047983D01*
X121151612Y-183092747D01*
X121143124Y-183112151D01*
X121071980Y-183098000D01*
X120978020Y-183098000D01*
X120885864Y-183116331D01*
X120799056Y-183152288D01*
X120720930Y-183204490D01*
X120654490Y-183270930D01*
X120602288Y-183349056D01*
X120566331Y-183435864D01*
X120548000Y-183528020D01*
X120548000Y-183621980D01*
X120562590Y-183695331D01*
X119910209Y-183695331D01*
X119907015Y-183687857D01*
X119879930Y-183487721D01*
X119879930Y-181525178D01*
X119894746Y-181375479D01*
X119932411Y-181251863D01*
X119992213Y-181139382D01*
X120071788Y-181040577D01*
X120168373Y-180958418D01*
X120279193Y-180895658D01*
X120401814Y-180854695D01*
X120554321Y-180835454D01*
X121967412Y-180769540D01*
X121973900Y-180769618D01*
X121983453Y-180768792D01*
X121993019Y-180768346D01*
X121999433Y-180767411D01*
X123403137Y-180646070D01*
X123409601Y-180645892D01*
X123419128Y-180644688D01*
X123428693Y-180643861D01*
X123435048Y-180642676D01*
X124824813Y-180467014D01*
X124831245Y-180466583D01*
X124840744Y-180465001D01*
X124850289Y-180463794D01*
X124856568Y-180462364D01*
X126231129Y-180233358D01*
X126237527Y-180232676D01*
X126246984Y-180230716D01*
X126256481Y-180229134D01*
X126262674Y-180227465D01*
X127620876Y-179946006D01*
X127627213Y-179945079D01*
X127636600Y-179942748D01*
X127646061Y-179940787D01*
X127652168Y-179938881D01*
X128992698Y-179605939D01*
X128998954Y-179604773D01*
X129008243Y-179602078D01*
X129017668Y-179599737D01*
X129023688Y-179597597D01*
X130345339Y-179214129D01*
X130351531Y-179212725D01*
X130360738Y-179209662D01*
X130370073Y-179206953D01*
X130375980Y-179204590D01*
X131677531Y-178771513D01*
X131683644Y-178769875D01*
X131692748Y-178766449D01*
X131701990Y-178763374D01*
X131707778Y-178760793D01*
X132988032Y-178279035D01*
X132994042Y-178277174D01*
X133003008Y-178273400D01*
X133012167Y-178269953D01*
X133017842Y-178267155D01*
X134275531Y-177737697D01*
X134281456Y-177735609D01*
X134290295Y-177731481D01*
X134299317Y-177727683D01*
X134304860Y-177724679D01*
X135538770Y-177148425D01*
X135544591Y-177146120D01*
X135553280Y-177141649D01*
X135562170Y-177137497D01*
X135567579Y-177134291D01*
X136776500Y-176512195D01*
X136782218Y-176509673D01*
X136790735Y-176504869D01*
X136799473Y-176500373D01*
X136804748Y-176496966D01*
X137987444Y-175829937D01*
X137993053Y-175827203D01*
X138001404Y-175822064D01*
X138009967Y-175817234D01*
X138015090Y-175813641D01*
X139170346Y-175102647D01*
X139175849Y-175099700D01*
X139184010Y-175094238D01*
X139192379Y-175089087D01*
X139197352Y-175085308D01*
X140323963Y-174331239D01*
X140329339Y-174328090D01*
X140337272Y-174322330D01*
X140345454Y-174316854D01*
X140350288Y-174312881D01*
X141446949Y-173516677D01*
X141452196Y-173513329D01*
X141459912Y-173507265D01*
X141467883Y-173501478D01*
X141472554Y-173497330D01*
X142538109Y-172659932D01*
X142543218Y-172656391D01*
X142550688Y-172650046D01*
X142558442Y-172643952D01*
X142562956Y-172639625D01*
X143596183Y-171761967D01*
X143601167Y-171758224D01*
X143608390Y-171751598D01*
X143615889Y-171745228D01*
X143620238Y-171740729D01*
X144619856Y-170823717D01*
X144624696Y-170819784D01*
X144631658Y-170812890D01*
X144638908Y-170806239D01*
X144643084Y-170801575D01*
X145607917Y-169846147D01*
X145612618Y-169842019D01*
X145619306Y-169834869D01*
X145626280Y-169827963D01*
X145630283Y-169823134D01*
X146559059Y-168830203D01*
X146563604Y-168825892D01*
X146570000Y-168818506D01*
X146576701Y-168811342D01*
X146580527Y-168806350D01*
X147472021Y-167776847D01*
X147476413Y-167772348D01*
X147482519Y-167764723D01*
X147488922Y-167757329D01*
X147492558Y-167752187D01*
X148345550Y-166687026D01*
X148349780Y-166682346D01*
X148355570Y-166674515D01*
X148361672Y-166666895D01*
X148365123Y-166661594D01*
X149178309Y-165561720D01*
X149182360Y-165556873D01*
X149187838Y-165548831D01*
X149193637Y-165540988D01*
X149196884Y-165535552D01*
X149969164Y-164401868D01*
X149973039Y-164396848D01*
X149978176Y-164388640D01*
X149983655Y-164380596D01*
X149986710Y-164375002D01*
X150716715Y-163208437D01*
X150720409Y-163203245D01*
X150725226Y-163194836D01*
X150730368Y-163186619D01*
X150733205Y-163180908D01*
X151419765Y-161982385D01*
X151423264Y-161977037D01*
X151427736Y-161968471D01*
X151432546Y-161960074D01*
X151435168Y-161954234D01*
X152077068Y-160724651D01*
X152080366Y-160719149D01*
X152084479Y-160710455D01*
X152088949Y-160701892D01*
X152091356Y-160695917D01*
X152687249Y-159436239D01*
X152690333Y-159430604D01*
X152694095Y-159421769D01*
X152698222Y-159413044D01*
X152700397Y-159406967D01*
X153249158Y-158118081D01*
X153252029Y-158112302D01*
X153255427Y-158103356D01*
X153259197Y-158094501D01*
X153261141Y-158088313D01*
X153761419Y-156771162D01*
X153764067Y-156765257D01*
X153767105Y-156756192D01*
X153770515Y-156747214D01*
X153772216Y-156740941D01*
X154222795Y-155396470D01*
X154225208Y-155390462D01*
X154227885Y-155381281D01*
X154230935Y-155372181D01*
X154232386Y-155365848D01*
X154629349Y-154004570D01*
X154631522Y-153998471D01*
X154633834Y-153989191D01*
X154636521Y-153979975D01*
X154637719Y-153973590D01*
X154978266Y-152606415D01*
X154980192Y-152600249D01*
X154982144Y-152590843D01*
X154984466Y-152581522D01*
X154985405Y-152575131D01*
X155270084Y-151203549D01*
X155271762Y-151197328D01*
X155273344Y-151187844D01*
X155275300Y-151178419D01*
X155275985Y-151172006D01*
X155505240Y-149797462D01*
X155506669Y-149791195D01*
X155507880Y-149781633D01*
X155509466Y-149772125D01*
X155509897Y-149765712D01*
X155684194Y-148389684D01*
X155685371Y-148383398D01*
X155686211Y-148373763D01*
X155687426Y-148364168D01*
X155687604Y-148357776D01*
X155807514Y-146981752D01*
X155808443Y-146975443D01*
X155808908Y-146965761D01*
X155809749Y-146956108D01*
X155809677Y-146949733D01*
X155875668Y-145575150D01*
X155876349Y-145568825D01*
X155876438Y-145559112D01*
X155876903Y-145549419D01*
X155876584Y-145543071D01*
X155889107Y-144171413D01*
X155889541Y-144165092D01*
X155889253Y-144155354D01*
X155889342Y-144145625D01*
X155888779Y-144139323D01*
X155848364Y-142772025D01*
X155848554Y-142765716D01*
X155847890Y-142755987D01*
X155847602Y-142746235D01*
X155846798Y-142739971D01*
X155753916Y-141378542D01*
X155753863Y-141372253D01*
X155752824Y-141362535D01*
X155752158Y-141352779D01*
X155751116Y-141346574D01*
X155606285Y-139992457D01*
X155605992Y-139986188D01*
X155604578Y-139976498D01*
X155603537Y-139966764D01*
X155602261Y-139960620D01*
X155405957Y-138615266D01*
X155405425Y-138609023D01*
X155403639Y-138599380D01*
X155402224Y-138589684D01*
X155400717Y-138583607D01*
X155153408Y-137248505D01*
X155152638Y-137242289D01*
X155150478Y-137232693D01*
X155148694Y-137223059D01*
X155146962Y-137217066D01*
X154849146Y-135893630D01*
X154848142Y-135887463D01*
X154845621Y-135877968D01*
X154843466Y-135868391D01*
X154841505Y-135862463D01*
X154493631Y-134552175D01*
X154492395Y-134546060D01*
X154489510Y-134536654D01*
X154486989Y-134527158D01*
X154484808Y-134521321D01*
X154087426Y-133225678D01*
X154085958Y-133219614D01*
X154082718Y-133210327D01*
X154079836Y-133200931D01*
X154077433Y-133195181D01*
X153630993Y-131915592D01*
X153629291Y-131909576D01*
X153625698Y-131900416D01*
X153622467Y-131891156D01*
X153619847Y-131885501D01*
X153124782Y-130623469D01*
X153122852Y-130617522D01*
X153118912Y-130608506D01*
X153115330Y-130599374D01*
X153112496Y-130593822D01*
X152569331Y-129350799D01*
X152567169Y-129344914D01*
X152562890Y-129336060D01*
X152558970Y-129327089D01*
X152555923Y-129321643D01*
X151965075Y-128099058D01*
X151962691Y-128093262D01*
X151958084Y-128084591D01*
X151953822Y-128075773D01*
X151950563Y-128070437D01*
X151312596Y-126869823D01*
X151309987Y-126864112D01*
X151305061Y-126855641D01*
X151300468Y-126846998D01*
X151296997Y-126841776D01*
X150612365Y-125664544D01*
X150609527Y-125658916D01*
X150604284Y-125650649D01*
X150599379Y-125642215D01*
X150595704Y-125637120D01*
X149864844Y-124484743D01*
X149861782Y-124479212D01*
X149856239Y-124471175D01*
X149851023Y-124462951D01*
X149847139Y-124457981D01*
X149070505Y-123331953D01*
X149067217Y-123326521D01*
X149061366Y-123318702D01*
X149055854Y-123310711D01*
X149051778Y-123305890D01*
X148229879Y-122207642D01*
X148226382Y-122202341D01*
X148220264Y-122194794D01*
X148214441Y-122187014D01*
X148210156Y-122182327D01*
X147343502Y-121113366D01*
X147339771Y-121108163D01*
X147333362Y-121100860D01*
X147327282Y-121093360D01*
X147322811Y-121088835D01*
X146411792Y-120050638D01*
X146407851Y-120045572D01*
X146401168Y-120038531D01*
X146394814Y-120031290D01*
X146390162Y-120026936D01*
X145435292Y-119020917D01*
X145431143Y-119015996D01*
X145424224Y-119009257D01*
X145417597Y-119002275D01*
X145412747Y-118998078D01*
X144414462Y-118025756D01*
X144410118Y-118020996D01*
X144402966Y-118014559D01*
X144396072Y-118007844D01*
X144391038Y-118003822D01*
X143349865Y-117066693D01*
X143345311Y-117062083D01*
X143337913Y-117055935D01*
X143330793Y-117049527D01*
X143325597Y-117045701D01*
X142241947Y-116145223D01*
X142237204Y-116140787D01*
X142229584Y-116134950D01*
X142222226Y-116128835D01*
X142216867Y-116125207D01*
X141109060Y-115276511D01*
X141108940Y-115276375D01*
X141083938Y-115257265D01*
X141070895Y-115247273D01*
X141070734Y-115247173D01*
X141070586Y-115247060D01*
X141056906Y-115238589D01*
X141029881Y-115221813D01*
X141029709Y-115221749D01*
X140940858Y-115166730D01*
X140933211Y-115160413D01*
X140913551Y-115149822D01*
X140908266Y-115146549D01*
X140899394Y-115142195D01*
X140890711Y-115137517D01*
X140884987Y-115135124D01*
X140864929Y-115125280D01*
X140855338Y-115122729D01*
X140750888Y-115079065D01*
X140742396Y-115074061D01*
X140721227Y-115066665D01*
X140715445Y-115064248D01*
X140706095Y-115061378D01*
X140696823Y-115058139D01*
X140690708Y-115056656D01*
X140669295Y-115050084D01*
X140659499Y-115049087D01*
X140549480Y-115022404D01*
X140540245Y-115018779D01*
X140518260Y-115014832D01*
X140512225Y-115013368D01*
X140502445Y-115011992D01*
X140492731Y-115010248D01*
X140486546Y-115009755D01*
X140464422Y-115006643D01*
X140454514Y-115007204D01*
X140321465Y-114996608D01*
X140308491Y-114995330D01*
X140305420Y-114995330D01*
X140302381Y-114995088D01*
X140289432Y-114995330D01*
X112618316Y-114995330D01*
X112465895Y-114979968D01*
X112340349Y-114940995D01*
X112226531Y-114879221D01*
X112127086Y-114797185D01*
X112045052Y-114697725D01*
X111983230Y-114583855D01*
X111944248Y-114458322D01*
X111928880Y-114305891D01*
X111928880Y-102158169D01*
X113159968Y-102158169D01*
X113159968Y-102441831D01*
X113215307Y-102720042D01*
X113323860Y-102982111D01*
X113481454Y-103217967D01*
X113682033Y-103418546D01*
X113917889Y-103576140D01*
X114179958Y-103684693D01*
X114458169Y-103740032D01*
X114741831Y-103740032D01*
X115020042Y-103684693D01*
X115282111Y-103576140D01*
X115517967Y-103418546D01*
X115718546Y-103217967D01*
X115876140Y-102982111D01*
X115984693Y-102720042D01*
X116040032Y-102441831D01*
X116040032Y-102158169D01*
X123059968Y-102158169D01*
X123059968Y-102441831D01*
X123115307Y-102720042D01*
X123223860Y-102982111D01*
X123381454Y-103217967D01*
X123582033Y-103418546D01*
X123817889Y-103576140D01*
X124079958Y-103684693D01*
X124358169Y-103740032D01*
X124641831Y-103740032D01*
X124920042Y-103684693D01*
X125182111Y-103576140D01*
X125417967Y-103418546D01*
X125618546Y-103217967D01*
X125776140Y-102982111D01*
X125884693Y-102720042D01*
X125940032Y-102441831D01*
X125940032Y-102158169D01*
X125884693Y-101879958D01*
X125776140Y-101617889D01*
X125618546Y-101382033D01*
X125417967Y-101181454D01*
X125182111Y-101023860D01*
X124920042Y-100915307D01*
X124641831Y-100859968D01*
X124358169Y-100859968D01*
X124079958Y-100915307D01*
X123817889Y-101023860D01*
X123582033Y-101181454D01*
X123381454Y-101382033D01*
X123223860Y-101617889D01*
X123115307Y-101879958D01*
X123059968Y-102158169D01*
X116040032Y-102158169D01*
X115984693Y-101879958D01*
X115876140Y-101617889D01*
X115718546Y-101382033D01*
X115517967Y-101181454D01*
X115282111Y-101023860D01*
X115020042Y-100915307D01*
X114741831Y-100859968D01*
X114458169Y-100859968D01*
X114179958Y-100915307D01*
X113917889Y-101023860D01*
X113682033Y-101181454D01*
X113481454Y-101382033D01*
X113323860Y-101617889D01*
X113215307Y-101879958D01*
X113159968Y-102158169D01*
X111928880Y-102158169D01*
X111928880Y-98649330D01*
X127194681Y-98649330D01*
X127194680Y-105307414D01*
G36*
X126616198Y-182890431D02*
G01*
X126639903Y-182886676D01*
X126667078Y-183058254D01*
X126376698Y-183104246D01*
X126349522Y-182932668D01*
X126373227Y-182928914D01*
X126370098Y-182909160D01*
X126613069Y-182870677D01*
X126616198Y-182890431D01*
G37*
X126616198Y-182890431D02*
X126639903Y-182886676D01*
X126667078Y-183058254D01*
X126376698Y-183104246D01*
X126349522Y-182932668D01*
X126373227Y-182928914D01*
X126370098Y-182909160D01*
X126613069Y-182870677D01*
X126616198Y-182890431D01*
G36*
X132534173Y-181304562D02*
G01*
X132556999Y-181297146D01*
X132613340Y-181470547D01*
X132333729Y-181561398D01*
X132277388Y-181387996D01*
X132300213Y-181380580D01*
X132294032Y-181361558D01*
X132527993Y-181285541D01*
X132534173Y-181304562D01*
G37*
X132534173Y-181304562D02*
X132556999Y-181297146D01*
X132613340Y-181470547D01*
X132333729Y-181561398D01*
X132277388Y-181387996D01*
X132300213Y-181380580D01*
X132294032Y-181361558D01*
X132527993Y-181285541D01*
X132534173Y-181304562D01*
G36*
X138131203Y-178812443D02*
G01*
X138152587Y-178801547D01*
X138238823Y-178970795D01*
X137976868Y-179104269D01*
X137890631Y-178935021D01*
X137912015Y-178924125D01*
X137902935Y-178906305D01*
X138122123Y-178794623D01*
X138131203Y-178812443D01*
G37*
X138131203Y-178812443D02*
X138152587Y-178801547D01*
X138238823Y-178970795D01*
X137976868Y-179104269D01*
X137890631Y-178935021D01*
X137912015Y-178924125D01*
X137902935Y-178906305D01*
X138122123Y-178794623D01*
X138131203Y-178812443D01*
G36*
X143269470Y-175475437D02*
G01*
X143288887Y-175461330D01*
X143404320Y-175620210D01*
X143166469Y-175793020D01*
X143051036Y-175634139D01*
X143070452Y-175620032D01*
X143058696Y-175603852D01*
X143257715Y-175459257D01*
X143269470Y-175475437D01*
G37*
X143269470Y-175475437D02*
X143288887Y-175461330D01*
X143404320Y-175620210D01*
X143166469Y-175793020D01*
X143051036Y-175634139D01*
X143070452Y-175620032D01*
X143058696Y-175603852D01*
X143257715Y-175459257D01*
X143269470Y-175475437D01*
G36*
X147868893Y-171388210D02*
G01*
X147879490Y-171404070D01*
X147945930Y-171470510D01*
X147961790Y-171481107D01*
X147981896Y-171501213D01*
X147774006Y-171709103D01*
X147631537Y-171566634D01*
X147648507Y-171549663D01*
X147634365Y-171535520D01*
X147808313Y-171361572D01*
X147822456Y-171375714D01*
X147839427Y-171358744D01*
X147868893Y-171388210D01*
G37*
X147868893Y-171388210D02*
X147879490Y-171404070D01*
X147945930Y-171470510D01*
X147961790Y-171481107D01*
X147981896Y-171501213D01*
X147774006Y-171709103D01*
X147631537Y-171566634D01*
X147648507Y-171549663D01*
X147634365Y-171535520D01*
X147808313Y-171361572D01*
X147822456Y-171375714D01*
X147839427Y-171358744D01*
X147868893Y-171388210D01*
G36*
X151858099Y-166715371D02*
G01*
X151685287Y-166953220D01*
X151519344Y-166832656D01*
X151533451Y-166813239D01*
X151517271Y-166801484D01*
X151661866Y-166602465D01*
X151678046Y-166614221D01*
X151692153Y-166594805D01*
X151858099Y-166715371D01*
G37*
X151858099Y-166715371D02*
X151685287Y-166953220D01*
X151519344Y-166832656D01*
X151533451Y-166813239D01*
X151517271Y-166801484D01*
X151661866Y-166602465D01*
X151678046Y-166614221D01*
X151692153Y-166594805D01*
X151858099Y-166715371D01*
G36*
X154936815Y-161380884D02*
G01*
X154803340Y-161642839D01*
X154618730Y-161548775D01*
X154629626Y-161527391D01*
X154611806Y-161518311D01*
X154723488Y-161299123D01*
X154741308Y-161308203D01*
X154752204Y-161286819D01*
X154936815Y-161380884D01*
G37*
X154936815Y-161380884D02*
X154803340Y-161642839D01*
X154618730Y-161548775D01*
X154629626Y-161527391D01*
X154611806Y-161518311D01*
X154723488Y-161299123D01*
X154741308Y-161308203D01*
X154752204Y-161286819D01*
X154936815Y-161380884D01*
G36*
X157141732Y-155629658D02*
G01*
X157050880Y-155909269D01*
X156853376Y-155845097D01*
X156860793Y-155822271D01*
X156841772Y-155816091D01*
X156917789Y-155582130D01*
X156936811Y-155588311D01*
X156944227Y-155565486D01*
X157141732Y-155629658D01*
G37*
X157141732Y-155629658D02*
X157050880Y-155909269D01*
X156853376Y-155845097D01*
X156860793Y-155822271D01*
X156841772Y-155816091D01*
X156917789Y-155582130D01*
X156936811Y-155588311D01*
X156944227Y-155565486D01*
X157141732Y-155629658D01*
G36*
X158418222Y-149603989D02*
G01*
X158372233Y-149894371D01*
X158168258Y-149862064D01*
X158172013Y-149838359D01*
X158152259Y-149835230D01*
X158190742Y-149592259D01*
X158210496Y-149595388D01*
X158214251Y-149571683D01*
X158418222Y-149603989D01*
G37*
X158418222Y-149603989D02*
X158372233Y-149894371D01*
X158168258Y-149862064D01*
X158172013Y-149838359D01*
X158152259Y-149835230D01*
X158190742Y-149592259D01*
X158210496Y-149595388D01*
X158214251Y-149571683D01*
X158418222Y-149603989D01*
G36*
X158734781Y-143747000D02*
G01*
X158531000Y-143747000D01*
X158531000Y-143723000D01*
X158511000Y-143723000D01*
X158511000Y-143477000D01*
X158531000Y-143477000D01*
X158531000Y-143453000D01*
X158734781Y-143453000D01*
X158734781Y-143747000D01*
G37*
X158734781Y-143747000D02*
X158531000Y-143747000D01*
X158531000Y-143723000D01*
X158511000Y-143723000D01*
X158511000Y-143477000D01*
X158531000Y-143477000D01*
X158531000Y-143453000D01*
X158734781Y-143453000D01*
X158734781Y-143747000D01*
G36*
X158129755Y-137619262D02*
G01*
X157932668Y-137650478D01*
X157928914Y-137626773D01*
X157909160Y-137629902D01*
X157870677Y-137386931D01*
X157890431Y-137383802D01*
X157886677Y-137360097D01*
X158083765Y-137328881D01*
X158129755Y-137619262D01*
G37*
X158129755Y-137619262D02*
X157932668Y-137650478D01*
X157928914Y-137626773D01*
X157909160Y-137629902D01*
X157870677Y-137386931D01*
X157890431Y-137383802D01*
X157886677Y-137360097D01*
X158083765Y-137328881D01*
X158129755Y-137619262D01*
G36*
X156572375Y-131662704D02*
G01*
X156387996Y-131722612D01*
X156380580Y-131699787D01*
X156361558Y-131705968D01*
X156285541Y-131472007D01*
X156304562Y-131465827D01*
X156297146Y-131443001D01*
X156481523Y-131383094D01*
X156572375Y-131662704D01*
G37*
X156572375Y-131662704D02*
X156387996Y-131722612D01*
X156380580Y-131699787D01*
X156361558Y-131705968D01*
X156285541Y-131472007D01*
X156304562Y-131465827D01*
X156297146Y-131443001D01*
X156481523Y-131383094D01*
X156572375Y-131662704D01*
G36*
X154101553Y-126024516D02*
G01*
X153935021Y-126109369D01*
X153924125Y-126087985D01*
X153906305Y-126097065D01*
X153794623Y-125877877D01*
X153812443Y-125868797D01*
X153801548Y-125847413D01*
X153968078Y-125762561D01*
X154101553Y-126024516D01*
G37*
X154101553Y-126024516D02*
X153935021Y-126109369D01*
X153924125Y-126087985D01*
X153906305Y-126097065D01*
X153794623Y-125877877D01*
X153812443Y-125868797D01*
X153801548Y-125847413D01*
X153968078Y-125762561D01*
X154101553Y-126024516D01*
G36*
X150778835Y-120843836D02*
G01*
X150634139Y-120948964D01*
X150620032Y-120929548D01*
X150603852Y-120941304D01*
X150459257Y-120742285D01*
X150475437Y-120730530D01*
X150467666Y-120719834D01*
X150504070Y-120695510D01*
X150560565Y-120639015D01*
X150606025Y-120605987D01*
X150778835Y-120843836D01*
G37*
X150778835Y-120843836D02*
X150634139Y-120948964D01*
X150620032Y-120929548D01*
X150603852Y-120941304D01*
X150459257Y-120742285D01*
X150475437Y-120730530D01*
X150467666Y-120719834D01*
X150504070Y-120695510D01*
X150560565Y-120639015D01*
X150606025Y-120605987D01*
X150778835Y-120843836D01*
G36*
X146686767Y-116248330D02*
G01*
X146566634Y-116368464D01*
X146549663Y-116351493D01*
X146535521Y-116365636D01*
X146361572Y-116191687D01*
X146375714Y-116177544D01*
X146358744Y-116160574D01*
X146478876Y-116040441D01*
X146686767Y-116248330D01*
G37*
X146686767Y-116248330D02*
X146566634Y-116368464D01*
X146549663Y-116351493D01*
X146535521Y-116365636D01*
X146361572Y-116191687D01*
X146375714Y-116177544D01*
X146358744Y-116160574D01*
X146478876Y-116040441D01*
X146686767Y-116248330D01*
G36*
X140027091Y-111803924D02*
G01*
X140034566Y-111857974D01*
X140052443Y-111909526D01*
X140080034Y-111956601D01*
X140116278Y-111997388D01*
X140159783Y-112030321D01*
X140586103Y-112291571D01*
X140635198Y-112315383D01*
X140687994Y-112329160D01*
X140729814Y-112331626D01*
X140714141Y-112429019D01*
X140718741Y-112554018D01*
X140747638Y-112675718D01*
X140799723Y-112789442D01*
X140872994Y-112890820D01*
X140952081Y-112963230D01*
X141173823Y-112928110D01*
X141614221Y-112321954D01*
X141594805Y-112307847D01*
X141689001Y-112178196D01*
X141926852Y-112351006D01*
X141832656Y-112480656D01*
X141813239Y-112466549D01*
X141372841Y-113072705D01*
X141407962Y-113294447D01*
X141501267Y-113347287D01*
X141599284Y-113378865D01*
X141565746Y-113421615D01*
X139696468Y-112213194D01*
X139967745Y-111794119D01*
X139995425Y-111784520D01*
X140029410Y-111764602D01*
X140027091Y-111803924D01*
G37*
X140027091Y-111803924D02*
X140034566Y-111857974D01*
X140052443Y-111909526D01*
X140080034Y-111956601D01*
X140116278Y-111997388D01*
X140159783Y-112030321D01*
X140586103Y-112291571D01*
X140635198Y-112315383D01*
X140687994Y-112329160D01*
X140729814Y-112331626D01*
X140714141Y-112429019D01*
X140718741Y-112554018D01*
X140747638Y-112675718D01*
X140799723Y-112789442D01*
X140872994Y-112890820D01*
X140952081Y-112963230D01*
X141173823Y-112928110D01*
X141614221Y-112321954D01*
X141594805Y-112307847D01*
X141689001Y-112178196D01*
X141926852Y-112351006D01*
X141832656Y-112480656D01*
X141813239Y-112466549D01*
X141372841Y-113072705D01*
X141407962Y-113294447D01*
X141501267Y-113347287D01*
X141599284Y-113378865D01*
X141565746Y-113421615D01*
X139696468Y-112213194D01*
X139967745Y-111794119D01*
X139995425Y-111784520D01*
X140029410Y-111764602D01*
X140027091Y-111803924D01*
G36*
X134659575Y-108995322D02*
G01*
X134675414Y-109047537D01*
X134701136Y-109095658D01*
X134735751Y-109137837D01*
X134777930Y-109172452D01*
X134826051Y-109198174D01*
X135287991Y-109389516D01*
X135340206Y-109405355D01*
X135394507Y-109410703D01*
X135436198Y-109406597D01*
X135435953Y-109505243D01*
X135460051Y-109627983D01*
X135507630Y-109743664D01*
X135576864Y-109847840D01*
X135665092Y-109936508D01*
X135754533Y-109995655D01*
X135968051Y-109926279D01*
X136308203Y-109258692D01*
X136286819Y-109247796D01*
X136354992Y-109114000D01*
X136616947Y-109247474D01*
X136548775Y-109381270D01*
X136527391Y-109370374D01*
X136187239Y-110037960D01*
X136256615Y-110251479D01*
X136357037Y-110289072D01*
X136480630Y-110308332D01*
X136502195Y-110307431D01*
X136456675Y-110397447D01*
X134417684Y-109396832D01*
X134596830Y-108996309D01*
X134625265Y-108981110D01*
X134655714Y-108956121D01*
X134659575Y-108995322D01*
G37*
X134659575Y-108995322D02*
X134675414Y-109047537D01*
X134701136Y-109095658D01*
X134735751Y-109137837D01*
X134777930Y-109172452D01*
X134826051Y-109198174D01*
X135287991Y-109389516D01*
X135340206Y-109405355D01*
X135394507Y-109410703D01*
X135436198Y-109406597D01*
X135435953Y-109505243D01*
X135460051Y-109627983D01*
X135507630Y-109743664D01*
X135576864Y-109847840D01*
X135665092Y-109936508D01*
X135754533Y-109995655D01*
X135968051Y-109926279D01*
X136308203Y-109258692D01*
X136286819Y-109247796D01*
X136354992Y-109114000D01*
X136616947Y-109247474D01*
X136548775Y-109381270D01*
X136527391Y-109370374D01*
X136187239Y-110037960D01*
X136256615Y-110251479D01*
X136357037Y-110289072D01*
X136480630Y-110308332D01*
X136502195Y-110307431D01*
X136456675Y-110397447D01*
X134417684Y-109396832D01*
X134596830Y-108996309D01*
X134625265Y-108981110D01*
X134655714Y-108956121D01*
X134659575Y-108995322D01*
M02*
