G04 #@! TF.GenerationSoftware,KiCad,Pcbnew,(5.1.5)-3*
G04 #@! TF.CreationDate,2020-12-16T00:15:17-05:00*
G04 #@! TF.ProjectId,pixel,70697865-6c2e-46b6-9963-61645f706362,0.1a*
G04 #@! TF.SameCoordinates,Original*
G04 #@! TF.FileFunction,Soldermask,Bot*
G04 #@! TF.FilePolarity,Negative*
%FSLAX46Y46*%
G04 Gerber Fmt 4.6, Leading zero omitted, Abs format (unit mm)*
G04 Created by KiCad (PCBNEW (5.1.5)-3) date 2020-12-16 00:15:17*
%MOMM*%
%LPD*%
G04 APERTURE LIST*
%ADD10C,0.100000*%
%ADD11R,0.800000X0.500000*%
%ADD12R,0.800000X0.300000*%
G04 APERTURE END LIST*
D10*
G36*
X130858693Y-107438091D02*
G01*
X130383165Y-107283582D01*
X130630379Y-106522737D01*
X131105907Y-106677246D01*
X130858693Y-107438091D01*
G37*
G36*
X132570595Y-107994322D02*
G01*
X132095067Y-107839813D01*
X132342281Y-107078968D01*
X132817809Y-107233477D01*
X132570595Y-107994322D01*
G37*
G36*
X131619539Y-107685304D02*
G01*
X131334222Y-107592599D01*
X131581435Y-106831754D01*
X131866752Y-106924459D01*
X131619539Y-107685304D01*
G37*
G36*
X133731524Y-108443533D02*
G01*
X133269584Y-108252191D01*
X133575730Y-107513087D01*
X134037670Y-107704429D01*
X133731524Y-108443533D01*
G37*
G36*
X135394507Y-109132363D02*
G01*
X134932567Y-108941021D01*
X135238713Y-108201917D01*
X135700653Y-108393259D01*
X135394507Y-109132363D01*
G37*
G36*
X134470627Y-108749679D02*
G01*
X134193463Y-108634874D01*
X134499609Y-107895771D01*
X134776773Y-108010576D01*
X134470627Y-108749679D01*
G37*
G36*
X126205084Y-182679142D02*
G01*
X126698928Y-182600925D01*
X126824076Y-183391076D01*
X126330232Y-183469293D01*
X126205084Y-182679142D01*
G37*
G36*
X124427245Y-182960724D02*
G01*
X124921089Y-182882507D01*
X125046237Y-183672658D01*
X124552393Y-183750875D01*
X124427245Y-182960724D01*
G37*
G36*
X125414933Y-182804290D02*
G01*
X125711239Y-182757359D01*
X125836387Y-183547510D01*
X125540081Y-183594441D01*
X125414933Y-182804290D01*
G37*
G36*
X132095067Y-181160187D02*
G01*
X132570595Y-181005678D01*
X132817809Y-181766523D01*
X132342281Y-181921032D01*
X132095067Y-181160187D01*
G37*
G36*
X130383165Y-181716418D02*
G01*
X130858693Y-181561909D01*
X131105907Y-182322754D01*
X130630379Y-182477263D01*
X130383165Y-181716418D01*
G37*
G36*
X131334222Y-181407401D02*
G01*
X131619539Y-181314696D01*
X131866752Y-182075541D01*
X131581435Y-182168246D01*
X131334222Y-181407401D01*
G37*
G36*
X137674918Y-178738537D02*
G01*
X138120421Y-178511542D01*
X138483614Y-179224347D01*
X138038111Y-179451342D01*
X137674918Y-178738537D01*
G37*
G36*
X136071106Y-179555720D02*
G01*
X136516609Y-179328725D01*
X136879802Y-180041530D01*
X136434299Y-180268525D01*
X136071106Y-179555720D01*
G37*
G36*
X136962113Y-179101730D02*
G01*
X137229415Y-178965533D01*
X137592607Y-179678338D01*
X137325305Y-179814535D01*
X136962113Y-179101730D01*
G37*
G36*
X142807242Y-175473820D02*
G01*
X143211750Y-175179927D01*
X143681978Y-175827140D01*
X143277470Y-176121033D01*
X142807242Y-175473820D01*
G37*
G36*
X141351011Y-176531834D02*
G01*
X141755519Y-176237941D01*
X142225747Y-176885154D01*
X141821239Y-177179047D01*
X141351011Y-176531834D01*
G37*
G36*
X142160027Y-175944048D02*
G01*
X142402732Y-175767712D01*
X142872961Y-176414926D01*
X142630256Y-176591262D01*
X142160027Y-175944048D01*
G37*
G36*
X147365665Y-171446425D02*
G01*
X147719218Y-171092872D01*
X148284903Y-171658557D01*
X147931350Y-172012110D01*
X147365665Y-171446425D01*
G37*
G36*
X146092872Y-172719218D02*
G01*
X146446425Y-172365665D01*
X147012110Y-172931350D01*
X146658557Y-173284903D01*
X146092872Y-172719218D01*
G37*
G36*
X146799978Y-172012110D02*
G01*
X147012110Y-171799978D01*
X147577796Y-172365664D01*
X147365664Y-172577796D01*
X146799978Y-172012110D01*
G37*
G36*
X151237941Y-166755519D02*
G01*
X151531834Y-166351011D01*
X152179047Y-166821239D01*
X151885154Y-167225747D01*
X151237941Y-166755519D01*
G37*
G36*
X150179927Y-168211750D02*
G01*
X150473820Y-167807242D01*
X151121033Y-168277470D01*
X150827140Y-168681978D01*
X150179927Y-168211750D01*
G37*
G36*
X150767712Y-167402732D02*
G01*
X150944048Y-167160027D01*
X151591262Y-167630256D01*
X151414926Y-167872961D01*
X150767712Y-167402732D01*
G37*
G36*
X154328725Y-161516609D02*
G01*
X154555720Y-161071106D01*
X155268525Y-161434299D01*
X155041530Y-161879802D01*
X154328725Y-161516609D01*
G37*
G36*
X153511542Y-163120421D02*
G01*
X153738537Y-162674918D01*
X154451342Y-163038111D01*
X154224347Y-163483614D01*
X153511542Y-163120421D01*
G37*
G36*
X153965533Y-162229415D02*
G01*
X154101730Y-161962113D01*
X154814535Y-162325305D01*
X154678338Y-162592607D01*
X153965533Y-162229415D01*
G37*
G36*
X156561909Y-155858693D02*
G01*
X156716418Y-155383165D01*
X157477263Y-155630379D01*
X157322754Y-156105907D01*
X156561909Y-155858693D01*
G37*
G36*
X156005678Y-157570595D02*
G01*
X156160187Y-157095067D01*
X156921032Y-157342281D01*
X156766523Y-157817809D01*
X156005678Y-157570595D01*
G37*
G36*
X156314696Y-156619539D02*
G01*
X156407401Y-156334222D01*
X157168246Y-156581435D01*
X157075541Y-156866752D01*
X156314696Y-156619539D01*
G37*
G36*
X157882507Y-149921089D02*
G01*
X157960724Y-149427245D01*
X158750875Y-149552393D01*
X158672658Y-150046237D01*
X157882507Y-149921089D01*
G37*
G36*
X157600925Y-151698928D02*
G01*
X157679142Y-151205084D01*
X158469293Y-151330232D01*
X158391076Y-151824076D01*
X157600925Y-151698928D01*
G37*
G36*
X157757359Y-150711239D02*
G01*
X157804290Y-150414933D01*
X158594441Y-150540081D01*
X158547510Y-150836387D01*
X157757359Y-150711239D01*
G37*
G36*
X136516609Y-109671275D02*
G01*
X136071106Y-109444280D01*
X136434299Y-108731475D01*
X136879802Y-108958470D01*
X136516609Y-109671275D01*
G37*
G36*
X138120421Y-110488458D02*
G01*
X137674918Y-110261463D01*
X138038111Y-109548658D01*
X138483614Y-109775653D01*
X138120421Y-110488458D01*
G37*
G36*
X137229415Y-110034467D02*
G01*
X136962113Y-109898270D01*
X137325305Y-109185465D01*
X137592607Y-109321662D01*
X137229415Y-110034467D01*
G37*
G36*
X141755519Y-112762059D02*
G01*
X141351011Y-112468166D01*
X141821239Y-111820953D01*
X142225747Y-112114846D01*
X141755519Y-112762059D01*
G37*
G36*
X143211750Y-113820073D02*
G01*
X142807242Y-113526180D01*
X143277470Y-112878967D01*
X143681978Y-113172860D01*
X143211750Y-113820073D01*
G37*
G36*
X142402732Y-113232288D02*
G01*
X142160027Y-113055952D01*
X142630256Y-112408738D01*
X142872961Y-112585074D01*
X142402732Y-113232288D01*
G37*
G36*
X146446425Y-116634335D02*
G01*
X146092872Y-116280782D01*
X146658557Y-115715097D01*
X147012110Y-116068650D01*
X146446425Y-116634335D01*
G37*
G36*
X147719218Y-117907128D02*
G01*
X147365665Y-117553575D01*
X147931350Y-116987890D01*
X148284903Y-117341443D01*
X147719218Y-117907128D01*
G37*
G36*
X147012110Y-117200022D02*
G01*
X146799978Y-116987890D01*
X147365664Y-116422204D01*
X147577796Y-116634336D01*
X147012110Y-117200022D01*
G37*
G36*
X150473820Y-121192758D02*
G01*
X150179927Y-120788250D01*
X150827140Y-120318022D01*
X151121033Y-120722530D01*
X150473820Y-121192758D01*
G37*
G36*
X151531834Y-122648989D02*
G01*
X151237941Y-122244481D01*
X151885154Y-121774253D01*
X152179047Y-122178761D01*
X151531834Y-122648989D01*
G37*
G36*
X150944048Y-121839973D02*
G01*
X150767712Y-121597268D01*
X151414926Y-121127039D01*
X151591262Y-121369744D01*
X150944048Y-121839973D01*
G37*
G36*
X153738537Y-126325082D02*
G01*
X153511542Y-125879579D01*
X154224347Y-125516386D01*
X154451342Y-125961889D01*
X153738537Y-126325082D01*
G37*
G36*
X154555720Y-127928894D02*
G01*
X154328725Y-127483391D01*
X155041530Y-127120198D01*
X155268525Y-127565701D01*
X154555720Y-127928894D01*
G37*
G36*
X154101730Y-127037887D02*
G01*
X153965533Y-126770585D01*
X154678338Y-126407393D01*
X154814535Y-126674695D01*
X154101730Y-127037887D01*
G37*
G36*
X156160187Y-131904933D02*
G01*
X156005678Y-131429405D01*
X156766523Y-131182191D01*
X156921032Y-131657719D01*
X156160187Y-131904933D01*
G37*
G36*
X156716418Y-133616835D02*
G01*
X156561909Y-133141307D01*
X157322754Y-132894093D01*
X157477263Y-133369621D01*
X156716418Y-133616835D01*
G37*
G36*
X156407401Y-132665778D02*
G01*
X156314696Y-132380461D01*
X157075541Y-132133248D01*
X157168246Y-132418565D01*
X156407401Y-132665778D01*
G37*
G36*
X157679142Y-137794916D02*
G01*
X157600925Y-137301072D01*
X158391076Y-137175924D01*
X158469293Y-137669768D01*
X157679142Y-137794916D01*
G37*
G36*
X157960724Y-139572755D02*
G01*
X157882507Y-139078911D01*
X158672658Y-138953763D01*
X158750875Y-139447607D01*
X157960724Y-139572755D01*
G37*
G36*
X157804290Y-138585067D02*
G01*
X157757359Y-138288761D01*
X158547510Y-138163613D01*
X158594441Y-138459919D01*
X157804290Y-138585067D01*
G37*
D11*
X158658000Y-143600000D03*
X158658000Y-145400000D03*
D12*
X158658000Y-144500000D03*
D10*
G36*
X139196783Y-111113749D02*
G01*
X138770463Y-110852499D01*
X139188461Y-110170387D01*
X139614781Y-110431637D01*
X139196783Y-111113749D01*
G37*
G36*
X140731536Y-112054247D02*
G01*
X140305216Y-111792997D01*
X140723214Y-111110885D01*
X141149534Y-111372135D01*
X140731536Y-112054247D01*
G37*
G36*
X139878895Y-111531748D02*
G01*
X139623103Y-111374998D01*
X140041101Y-110692886D01*
X140296893Y-110849636D01*
X139878895Y-111531748D01*
G37*
G36*
X144177043Y-114606044D02*
G01*
X143796840Y-114281320D01*
X144316399Y-113672996D01*
X144696602Y-113997720D01*
X144177043Y-114606044D01*
G37*
G36*
X145545774Y-115775050D02*
G01*
X145165571Y-115450326D01*
X145685130Y-114842002D01*
X146065333Y-115166726D01*
X145545774Y-115775050D01*
G37*
G36*
X144785369Y-115125603D02*
G01*
X144557247Y-114930768D01*
X145076805Y-114322443D01*
X145304927Y-114517278D01*
X144785369Y-115125603D01*
G37*
G36*
X148549674Y-118834429D02*
G01*
X148224950Y-118454226D01*
X148833274Y-117934667D01*
X149157998Y-118314870D01*
X148549674Y-118834429D01*
G37*
G36*
X149718680Y-120203160D02*
G01*
X149393956Y-119822957D01*
X150002280Y-119303398D01*
X150327004Y-119683601D01*
X149718680Y-120203160D01*
G37*
G36*
X149069232Y-119442753D02*
G01*
X148874397Y-119214631D01*
X149482722Y-118695073D01*
X149677557Y-118923195D01*
X149069232Y-119442753D01*
G37*
G36*
X152207003Y-123694784D02*
G01*
X151945753Y-123268464D01*
X152627865Y-122850466D01*
X152889115Y-123276786D01*
X152207003Y-123694784D01*
G37*
G36*
X153147501Y-125229537D02*
G01*
X152886251Y-124803217D01*
X153568363Y-124385219D01*
X153829613Y-124811539D01*
X153147501Y-125229537D01*
G37*
G36*
X152625002Y-124376897D02*
G01*
X152468252Y-124121105D01*
X153150364Y-123703107D01*
X153307114Y-123958899D01*
X152625002Y-124376897D01*
G37*
G36*
X155058979Y-129067433D02*
G01*
X154867637Y-128605493D01*
X155606741Y-128299347D01*
X155798083Y-128761287D01*
X155058979Y-129067433D01*
G37*
G36*
X155747809Y-130730416D02*
G01*
X155556467Y-130268476D01*
X156295571Y-129962330D01*
X156486913Y-130424270D01*
X155747809Y-130730416D01*
G37*
G36*
X155365126Y-129806537D02*
G01*
X155250321Y-129529373D01*
X155989424Y-129223227D01*
X156104229Y-129500391D01*
X155365126Y-129806537D01*
G37*
G36*
X157035374Y-134820084D02*
G01*
X156918652Y-134333899D01*
X157696548Y-134147142D01*
X157813270Y-134633327D01*
X157035374Y-134820084D01*
G37*
G36*
X157455575Y-136570350D02*
G01*
X157338853Y-136084165D01*
X158116749Y-135897408D01*
X158233471Y-136383593D01*
X157455575Y-136570350D01*
G37*
G36*
X157222130Y-135597980D02*
G01*
X157152096Y-135306269D01*
X157929992Y-135119512D01*
X158000026Y-135411223D01*
X157222130Y-135597980D01*
G37*
G36*
X158087524Y-140811086D02*
G01*
X158048294Y-140312627D01*
X158845828Y-140249860D01*
X158885058Y-140748319D01*
X158087524Y-140811086D01*
G37*
G36*
X158228750Y-142605538D02*
G01*
X158189520Y-142107079D01*
X158987054Y-142044312D01*
X159026284Y-142542771D01*
X158228750Y-142605538D01*
G37*
G36*
X158150291Y-141608620D02*
G01*
X158126753Y-141309545D01*
X158924287Y-141246778D01*
X158947825Y-141545853D01*
X158150291Y-141608620D01*
G37*
G36*
X158189520Y-146892921D02*
G01*
X158228750Y-146394462D01*
X159026284Y-146457229D01*
X158987054Y-146955688D01*
X158189520Y-146892921D01*
G37*
G36*
X158048294Y-148687373D02*
G01*
X158087524Y-148188914D01*
X158885058Y-148251681D01*
X158845828Y-148750140D01*
X158048294Y-148687373D01*
G37*
G36*
X158126753Y-147690455D02*
G01*
X158150291Y-147391380D01*
X158947825Y-147454147D01*
X158924287Y-147753222D01*
X158126753Y-147690455D01*
G37*
G36*
X157338853Y-152915835D02*
G01*
X157455575Y-152429650D01*
X158233471Y-152616407D01*
X158116749Y-153102592D01*
X157338853Y-152915835D01*
G37*
G36*
X156918652Y-154666101D02*
G01*
X157035374Y-154179916D01*
X157813270Y-154366673D01*
X157696548Y-154852858D01*
X156918652Y-154666101D01*
G37*
G36*
X157152096Y-153693731D02*
G01*
X157222130Y-153402020D01*
X158000026Y-153588777D01*
X157929992Y-153880488D01*
X157152096Y-153693731D01*
G37*
G36*
X155556467Y-158731524D02*
G01*
X155747809Y-158269584D01*
X156486913Y-158575730D01*
X156295571Y-159037670D01*
X155556467Y-158731524D01*
G37*
G36*
X154867637Y-160394507D02*
G01*
X155058979Y-159932567D01*
X155798083Y-160238713D01*
X155606741Y-160700653D01*
X154867637Y-160394507D01*
G37*
G36*
X155250321Y-159470627D02*
G01*
X155365126Y-159193463D01*
X156104229Y-159499609D01*
X155989424Y-159776773D01*
X155250321Y-159470627D01*
G37*
G36*
X152886251Y-164196783D02*
G01*
X153147501Y-163770463D01*
X153829613Y-164188461D01*
X153568363Y-164614781D01*
X152886251Y-164196783D01*
G37*
G36*
X151945753Y-165731536D02*
G01*
X152207003Y-165305216D01*
X152889115Y-165723214D01*
X152627865Y-166149534D01*
X151945753Y-165731536D01*
G37*
G36*
X152468252Y-164878895D02*
G01*
X152625002Y-164623103D01*
X153307114Y-165041101D01*
X153150364Y-165296893D01*
X152468252Y-164878895D01*
G37*
G36*
X149393956Y-169177043D02*
G01*
X149718680Y-168796840D01*
X150327004Y-169316399D01*
X150002280Y-169696602D01*
X149393956Y-169177043D01*
G37*
G36*
X148224950Y-170545774D02*
G01*
X148549674Y-170165571D01*
X149157998Y-170685130D01*
X148833274Y-171065333D01*
X148224950Y-170545774D01*
G37*
G36*
X148874397Y-169785369D02*
G01*
X149069232Y-169557247D01*
X149677557Y-170076805D01*
X149482722Y-170304927D01*
X148874397Y-169785369D01*
G37*
G36*
X145165571Y-173549674D02*
G01*
X145545774Y-173224950D01*
X146065333Y-173833274D01*
X145685130Y-174157998D01*
X145165571Y-173549674D01*
G37*
G36*
X143796840Y-174718680D02*
G01*
X144177043Y-174393956D01*
X144696602Y-175002280D01*
X144316399Y-175327004D01*
X143796840Y-174718680D01*
G37*
G36*
X144557247Y-174069232D02*
G01*
X144785369Y-173874397D01*
X145304927Y-174482722D01*
X145076805Y-174677557D01*
X144557247Y-174069232D01*
G37*
G36*
X140305216Y-177207003D02*
G01*
X140731536Y-176945753D01*
X141149534Y-177627865D01*
X140723214Y-177889115D01*
X140305216Y-177207003D01*
G37*
G36*
X138770463Y-178147501D02*
G01*
X139196783Y-177886251D01*
X139614781Y-178568363D01*
X139188461Y-178829613D01*
X138770463Y-178147501D01*
G37*
G36*
X139623103Y-177625002D02*
G01*
X139878895Y-177468252D01*
X140296893Y-178150364D01*
X140041101Y-178307114D01*
X139623103Y-177625002D01*
G37*
G36*
X134932567Y-180058979D02*
G01*
X135394507Y-179867637D01*
X135700653Y-180606741D01*
X135238713Y-180798083D01*
X134932567Y-180058979D01*
G37*
G36*
X133269584Y-180747809D02*
G01*
X133731524Y-180556467D01*
X134037670Y-181295571D01*
X133575730Y-181486913D01*
X133269584Y-180747809D01*
G37*
G36*
X134193463Y-180365126D02*
G01*
X134470627Y-180250321D01*
X134776773Y-180989424D01*
X134499609Y-181104229D01*
X134193463Y-180365126D01*
G37*
G36*
X129179916Y-182035374D02*
G01*
X129666101Y-181918652D01*
X129852858Y-182696548D01*
X129366673Y-182813270D01*
X129179916Y-182035374D01*
G37*
G36*
X127429650Y-182455575D02*
G01*
X127915835Y-182338853D01*
X128102592Y-183116749D01*
X127616407Y-183233471D01*
X127429650Y-182455575D01*
G37*
G36*
X128402020Y-182222130D02*
G01*
X128693731Y-182152096D01*
X128880488Y-182929992D01*
X128588777Y-183000026D01*
X128402020Y-182222130D01*
G37*
G36*
X123188914Y-183087524D02*
G01*
X123687373Y-183048294D01*
X123750140Y-183845828D01*
X123251681Y-183885058D01*
X123188914Y-183087524D01*
G37*
G36*
X121394462Y-183228750D02*
G01*
X121892921Y-183189520D01*
X121955688Y-183987054D01*
X121457229Y-184026284D01*
X121394462Y-183228750D01*
G37*
G36*
X122391380Y-183150291D02*
G01*
X122690455Y-183126753D01*
X122753222Y-183924287D01*
X122454147Y-183947825D01*
X122391380Y-183150291D01*
G37*
M02*
