G04 #@! TF.GenerationSoftware,KiCad,Pcbnew,(5.1.5)-3*
G04 #@! TF.CreationDate,2020-12-16T00:15:17-05:00*
G04 #@! TF.ProjectId,pixel,70697865-6c2e-46b6-9963-61645f706362,0.1a*
G04 #@! TF.SameCoordinates,Original*
G04 #@! TF.FileFunction,Profile,NP*
%FSLAX46Y46*%
G04 Gerber Fmt 4.6, Leading zero omitted, Abs format (unit mm)*
G04 Created by KiCad (PCBNEW (5.1.5)-3) date 2020-12-16 00:15:17*
%MOMM*%
%LPD*%
G04 APERTURE LIST*
%ADD10C,0.100000*%
G04 APERTURE END LIST*
D10*
X125600000Y-102300000D02*
G75*
G03X125600000Y-102300000I-1100000J0D01*
G01*
X115700000Y-102300000D02*
G75*
G03X115700000Y-102300000I-1100000J0D01*
G01*
X111772720Y-114881460D02*
X111894790Y-115029460D01*
X111680490Y-114711580D02*
X111772720Y-114881460D01*
X111622200Y-114523870D02*
X111680490Y-114711580D01*
X111601880Y-114322330D02*
X111622200Y-114523870D01*
X111601880Y-98322330D02*
X111601880Y-114322330D01*
X154830090Y-137298410D02*
X155080970Y-138652790D01*
X154951860Y-151127690D02*
X154663280Y-152518070D01*
X153459120Y-156646120D02*
X152952040Y-157981180D01*
X155562210Y-144158700D02*
X155549510Y-145549780D01*
X155280100Y-140017510D02*
X155427010Y-141391060D01*
X155427010Y-141391060D02*
X155521220Y-142771950D01*
X154663280Y-152518070D02*
X154318100Y-153903850D01*
X155549510Y-145549780D02*
X155482590Y-146943720D01*
X151791640Y-160564800D02*
X151140820Y-161811471D01*
X155482590Y-146943720D02*
X155361000Y-148339010D01*
X153319010Y-132014040D02*
X153771920Y-133312170D01*
X152952040Y-157981180D02*
X152395760Y-159287730D01*
X155521220Y-142771950D02*
X155562210Y-144158700D01*
X154175060Y-134626590D02*
X154527970Y-135955850D01*
X153771920Y-133312170D02*
X154175060Y-134626590D01*
X154527970Y-135955850D02*
X154830090Y-137298410D01*
X152816780Y-130733740D02*
X153319010Y-132014040D01*
X152395760Y-159287730D02*
X151791640Y-160564800D01*
X153915780Y-155283500D02*
X153459120Y-156646120D01*
X154318100Y-153903850D02*
X153915780Y-155283500D01*
X155184280Y-149734170D02*
X154951860Y-151127690D01*
X155080970Y-138652790D02*
X155280100Y-140017510D01*
X155361000Y-148339010D02*
X155184280Y-149734170D01*
X112601880Y-115322330D02*
X140292430Y-115322330D01*
X112042800Y-115151560D02*
X112212660Y-115243750D01*
X140884780Y-115516620D02*
X142025590Y-116390600D01*
X145191480Y-119239040D02*
X146159620Y-120259040D01*
X112400370Y-115302020D02*
X112601880Y-115322330D01*
X112212660Y-115243750D02*
X112400370Y-115302020D01*
X142025590Y-116390600D02*
X143123970Y-117303320D01*
X143123970Y-117303320D02*
X144179420Y-118253300D01*
X152265760Y-129472740D02*
X152816780Y-130733740D01*
X151666390Y-128232520D02*
X152265760Y-129472740D01*
X147083390Y-121311770D02*
X147962260Y-122395800D01*
X151019240Y-127014620D02*
X151666390Y-128232520D01*
X150324780Y-125820490D02*
X151019240Y-127014620D01*
X140749770Y-115433020D02*
X140884780Y-115516620D01*
X140292430Y-115322330D02*
X140450760Y-115334940D01*
X149583480Y-124651650D02*
X150324780Y-125820490D01*
X148795790Y-123509590D02*
X149583480Y-124651650D01*
X140450760Y-115334940D02*
X140604140Y-115372140D01*
X147962260Y-122395800D02*
X148795790Y-123509590D01*
X146159620Y-120259040D02*
X147083390Y-121311770D01*
X144179420Y-118253300D02*
X145191480Y-119239040D01*
X111894790Y-115029460D02*
X112042800Y-115151560D01*
X140604140Y-115372140D02*
X140749770Y-115433020D01*
X149704360Y-164209770D02*
X148921150Y-165359500D01*
X143391950Y-171506401D02*
X142343760Y-172396770D01*
X151140820Y-161811471D02*
X150444650Y-163026770D01*
X146326920Y-168599691D02*
X145384780Y-169606910D01*
X137835340Y-175540300D02*
X136635570Y-176216960D01*
X141262770Y-173246300D02*
X140150220Y-174054041D01*
X144406020Y-170576130D02*
X143391950Y-171506401D01*
X147231210Y-167555410D02*
X146326920Y-168599691D01*
X127563980Y-179623850D02*
X126186900Y-179909220D01*
X128923260Y-179286250D02*
X127563980Y-179623850D01*
X150444650Y-163026770D02*
X149704360Y-164209770D01*
X135409250Y-176848010D02*
X134157640Y-177432531D01*
X130263530Y-178897380D02*
X128923260Y-179286250D01*
X131583510Y-178458170D02*
X130263530Y-178897380D01*
X132881970Y-177969560D02*
X131583510Y-178458170D01*
X134157640Y-177432531D02*
X132881970Y-177969560D01*
X145384780Y-169606910D02*
X144406020Y-170576130D01*
X136635570Y-176216960D02*
X135409250Y-176848010D01*
X148096390Y-166475030D02*
X147231210Y-167555410D01*
X139007310Y-174819020D02*
X137835340Y-175540300D01*
X140150220Y-174054041D02*
X139007310Y-174819020D01*
X148921150Y-165359500D02*
X148096390Y-166475030D01*
X142343760Y-172396770D02*
X141262770Y-173246300D01*
X119588910Y-183775600D02*
X119694320Y-184022331D01*
X119718060Y-180958460D02*
X119628830Y-181126291D01*
X120328840Y-180534310D02*
X120145580Y-180595530D01*
X119628830Y-181126291D02*
X119572520Y-181311101D01*
X119552930Y-183509740D02*
X119588910Y-183775600D01*
X119552930Y-181509040D02*
X119552930Y-183509740D01*
X119980180Y-180689200D02*
X119836440Y-180811471D01*
X124793350Y-180141390D02*
X123384530Y-180319460D01*
X121961740Y-180442450D02*
X120526200Y-180509410D01*
X126186900Y-179909220D02*
X124793350Y-180141390D01*
X123384530Y-180319460D02*
X121961740Y-180442450D01*
X119836440Y-180811471D02*
X119718060Y-180958460D01*
X136111610Y-180421670D02*
X138877210Y-179012520D01*
X138877210Y-179012520D02*
X141523750Y-177390721D01*
X121113750Y-184022331D02*
X124208080Y-183778800D01*
X120145580Y-180595530D02*
X119980180Y-180689200D01*
X133243970Y-181609471D02*
X136111610Y-180421670D01*
X119694320Y-184022331D02*
X121113750Y-184022331D01*
X120526200Y-180509410D02*
X120328840Y-180534310D01*
X130291940Y-182568640D02*
X133243970Y-181609471D01*
X127273820Y-183293230D02*
X130291940Y-182568640D01*
X119572520Y-181311101D02*
X119552930Y-181509040D01*
X124208080Y-183778800D02*
X127273820Y-183293230D01*
X130291940Y-106476020D02*
X127896370Y-105900890D01*
X152430190Y-166484291D02*
X154051950Y-163837760D01*
X157608110Y-133792150D02*
X156648940Y-130840160D01*
X155461130Y-161072150D02*
X156648940Y-158204500D01*
X159061780Y-142970370D02*
X158818250Y-139876010D01*
X144034860Y-113478370D02*
X141523750Y-111653940D01*
X111601880Y-98322330D02*
X111601880Y-98322330D01*
X141523750Y-111653940D02*
X138877210Y-110032140D01*
X154051950Y-125206900D02*
X152430190Y-122560370D01*
X148589920Y-117689020D02*
X146395090Y-115494210D01*
X158332710Y-136810310D02*
X157608110Y-133792150D01*
X159061780Y-146074290D02*
X159061780Y-142970370D01*
X155461130Y-127972510D02*
X154051950Y-125206900D01*
X150605720Y-120049250D02*
X148589920Y-117689020D01*
X148589920Y-171355640D02*
X150605720Y-168995400D01*
X127896370Y-105900890D02*
X127721600Y-105821070D01*
X156648940Y-158204500D02*
X157608110Y-155252490D01*
X154051950Y-163837760D02*
X155461130Y-161072150D01*
X136111610Y-108622990D02*
X133243970Y-107435170D01*
X127593400Y-105686470D02*
X127523020Y-105514440D01*
X133243970Y-107435170D02*
X130291940Y-106476020D01*
X138877210Y-110032140D02*
X136111610Y-108622990D01*
X127521680Y-105322330D02*
X127521680Y-98322330D01*
X127523020Y-105514440D02*
X127521680Y-105322330D01*
X127521680Y-98322330D02*
X111601880Y-98322330D01*
X146395090Y-115494210D02*
X144034860Y-113478370D01*
X158818250Y-139876010D02*
X158332710Y-136810310D01*
X158818250Y-149168630D02*
X159061780Y-146074290D01*
X141523750Y-177390721D02*
X144034860Y-175566291D01*
X127721600Y-105821070D02*
X127593400Y-105686470D01*
X150605720Y-168995400D02*
X152430190Y-166484291D01*
X158332710Y-152234340D02*
X158818250Y-149168630D01*
X156648940Y-130840160D02*
X155461130Y-127972510D01*
X152430190Y-122560370D02*
X150605720Y-120049250D01*
X157608110Y-155252490D02*
X158332710Y-152234340D01*
X144034860Y-175566291D02*
X146395090Y-173550451D01*
X146395090Y-173550451D02*
X148589920Y-171355640D01*
M02*
